<svg width="207" height="215" viewBox="0 0 207 215" fill="none" xmlns="http://www.w3.org/2000/svg">
<path fill-rule="evenodd" clip-rule="evenodd" d="M118.03 6.89038C141.783 5.25548 168.841 -6.32018 187.697 8.23127C206.562 22.7902 205.79 51.5325 206.751 75.3578C207.508 94.1227 199.072 110.841 192.545 128.448C186.346 145.173 181.326 161.869 169.679 175.372C155.169 192.194 140.225 215.43 118.03 214.839C95.7789 214.247 86.5335 185.51 68.34 172.673C49.7205 159.535 22.2632 158.771 10.7123 139.117C-1.60598 118.157 -1.45623 90.9049 6.8544 68.0545C15.0215 45.5989 34.071 28.8756 54.9932 17.3651C74.1277 6.8381 96.2474 8.38966 118.03 6.89038Z" fill="white"/>
</svg>
