<svg width="217" height="219" viewBox="0 0 217 219" fill="none" xmlns="http://www.w3.org/2000/svg">
<path fill-rule="evenodd" clip-rule="evenodd" d="M6.73738 146.289C-5.21288 125.684 1.63986 103.788 13.7312 83.3278C25.4329 63.5268 32.7829 50.3436 50.1983 35.3572C67.8314 20.1835 77.7765 2.78154 100.915 0.421736C123.804 -1.91264 154.383 6.45605 170.09 23.3645C180.932 35.0356 188.243 59.2885 198.065 71.8349C212.863 90.74 226.539 143.291 207.556 158.282C188.573 173.273 176.133 165.793 156.602 179.926C139.639 192.201 131.068 213.153 110.643 217.745C90.3642 222.306 82.6093 200.978 64.1854 191.262C43.9064 180.566 18.2579 166.153 6.73738 146.289Z" fill="white"/>
</svg>
