<svg width="194" height="214" viewBox="0 0 194 214" fill="none" xmlns="http://www.w3.org/2000/svg">
<path fill-rule="evenodd" clip-rule="evenodd" d="M107.01 0.133087C134.669 -1.55112 145.196 13.0295 167.153 28.0198C189.121 43.0178 192.66 48.7755 193.779 73.3194C194.661 92.6503 190.934 107.285 183.334 125.423C176.115 142.653 180.715 153.487 167.153 167.398C150.257 184.727 139.243 193.491 113.397 192.882C87.4869 192.272 71.5944 223.471 50.409 210.247C28.7275 196.713 34.7746 161 21.3241 140.754C6.98005 119.162 -6.38598 90.167 3.29135 66.6274C12.8015 43.4945 22.556 39.8775 46.9188 28.0198C69.2001 17.1753 81.6451 1.67759 107.01 0.133087Z" fill="white"/>
</svg>
