<svg width="20" height="20" viewBox="0 0 20 20" fill="none" xmlns="http://www.w3.org/2000/svg">
<path fill-rule="evenodd" clip-rule="evenodd" d="M13.7123 6.21261C13.8873 6.0392 14.1234 5.9416 14.3697 5.94092C14.6161 5.94024 14.8528 6.03653 15.0286 6.20897C15.2045 6.38142 15.3055 6.61616 15.3097 6.86244C15.3139 7.10873 15.221 7.34677 15.0511 7.52511L10.0611 13.7626C9.97532 13.855 9.87181 13.9291 9.75675 13.9806C9.64168 14.032 9.51742 14.0597 9.3914 14.0621C9.26537 14.0644 9.14017 14.0413 9.02328 13.9941C8.90639 13.947 8.8002 13.8767 8.71108 13.7876L5.40483 10.4801C5.31272 10.3943 5.23884 10.2908 5.1876 10.1758C5.13636 10.0608 5.10881 9.93664 5.10659 9.81076C5.10437 9.68488 5.12753 9.55984 5.17468 9.44311C5.22183 9.32637 5.29201 9.22033 5.38103 9.13131C5.47006 9.04228 5.5761 8.9721 5.69283 8.92495C5.80957 8.8778 5.93461 8.85465 6.06048 8.85687C6.18636 8.85909 6.3105 8.88664 6.4255 8.93788C6.5405 8.98912 6.644 9.063 6.72983 9.15511L9.34733 11.7714L13.6886 6.24011C13.6963 6.23042 13.7047 6.22124 13.7136 6.21261H13.7123Z" fill="black"/>
</svg>
