<svg width="388" height="353" viewBox="0 0 388 353" fill="none" xmlns="http://www.w3.org/2000/svg">
<g clip-path="url(#clip0)">
<path opacity="0.18" d="M388 246.591C387.938 259.328 383.373 271.65 377.464 282.954C364.955 306.756 344.875 327.129 321.211 339.306L323.679 338.745C284.965 367.471 218.217 343.565 170.186 346.277C142.772 347.825 115.358 351.627 87.9645 349.82C60.5712 348.012 46.7919 360.853 26.846 341.872C0.816138 317.062 -5.78429 276.772 4.88589 242.165C7.50639 233.565 11.2397 225.35 15.9899 217.729C19.6918 211.9 23.803 206.345 28.2921 201.106C47.0192 178.997 70.9418 160.878 85.7437 135.871C100.814 110.407 105.256 79.6957 120.295 54.2106C128.643 40.0648 140.017 27.9653 153.591 18.79C167.165 9.61463 182.6 3.59352 198.775 1.16345C214.951 -1.26662 231.461 -0.0447078 247.109 4.74054C262.756 9.52579 277.149 17.7544 289.242 28.8293C297.66 36.5486 304.89 45.6289 308.94 56.2884C313.288 67.7168 313.743 80.236 317.296 91.924C322.461 108.963 333.885 123.227 343.429 138.24C356.527 158.842 366.319 181.356 376.059 203.755C382.009 217.428 388.072 231.63 388 246.591Z" fill="#5E58F8"/>
<path d="M340.743 223.798C341.149 221.834 341.845 219.943 342.809 218.187C343.277 217.402 343.87 216.7 344.565 216.11C344.869 215.872 345.226 215.713 345.605 215.647C345.984 215.58 346.374 215.608 346.74 215.728C347.106 215.848 347.437 216.056 347.704 216.335C347.972 216.613 348.167 216.953 348.273 217.325C349.213 220.961 348.914 224.909 348.583 228.691C348.549 229.913 348.301 231.119 347.85 232.255C346.455 235.226 341.311 236.556 339.328 233.356C337.851 230.894 340.124 226.25 340.743 223.798Z" fill="#FFDAD2"/>
<path opacity="0.42" d="M304.818 91.8525L287.33 143.633L273.902 142.75L279.325 113.494L152.233 205.897L110.699 166.937L4.88574 242.166C7.50624 233.566 11.2396 225.351 15.9898 217.73C19.6917 211.902 23.8029 206.346 28.292 201.107L112.29 143.633L155.043 181.367L270.215 102.408L241.417 95.5615L240.849 80.1852L304.818 91.8525Z" fill="#5E58F8"/>
<path d="M173.47 322.767C172.572 325.416 171.745 328.439 173.078 330.891C173.97 332.258 175.169 333.393 176.58 334.206L189.285 342.881C191.722 344.543 194.305 346.268 197.238 346.486C200.172 346.704 203.487 344.834 203.735 341.883C204.025 338.476 200.482 336.159 198.829 333.177C196.649 329.26 197.848 324.419 198.984 320.097C201.834 309.177 203.905 298.067 205.181 286.851C202.578 285.812 194.997 280.981 192.342 281.77C189.243 282.685 186.558 291.245 185.205 294.03C180.628 303.32 176.707 312.923 173.47 322.767Z" fill="#FFDAD2"/>
<path d="M226.388 109.899C229.115 108.268 231.914 106.616 235.023 106.003C238.132 105.39 241.685 106.003 243.813 108.372C241.183 108.523 238.617 109.253 236.297 110.509C233.977 111.766 231.959 113.518 230.385 115.644C230.224 115.922 229.972 116.135 229.672 116.247C229.42 116.274 229.165 116.227 228.939 116.112C227.658 115.623 222.318 115.073 221.76 113.972C220.934 112.143 225.179 110.616 226.388 109.899Z" fill="#2F51C1"/>
<path d="M203.663 168.329C204.696 183.663 207.196 199.206 204.2 214.281C202.186 224.442 197.693 234.665 199.924 244.774C202.372 255.911 213.806 264.275 225.086 263.184C232.234 262.488 238.628 258.592 245.466 256.389C251.217 254.536 257.285 253.889 263.294 254.488C268.676 255.028 274.501 256.472 279.191 253.771C283.095 251.527 285.099 246.841 285.306 242.343C285.512 237.844 284.273 233.397 282.92 229.065C280.245 220.182 277.425 211.112 277.755 201.834C278.024 195.175 279.935 188.713 281.288 182.188C283.725 170.49 284.387 158.033 280.183 146.864C275.978 135.696 266.331 126.086 254.535 124.579C248.461 123.831 242.274 125.223 236.221 124.361C230.881 123.602 225.892 121.119 220.634 120.039C218.803 119.557 216.878 119.575 215.056 120.091C208.714 122.304 205.698 136.101 204.603 141.794C202.919 150.49 203.002 159.487 203.663 168.329Z" fill="#263238"/>
<path d="M197.827 249.532C194.542 258.945 191.041 268.389 185.762 276.846C185.659 276.959 185.583 277.094 185.538 277.241C185.493 277.388 185.481 277.543 185.502 277.695C185.524 277.847 185.579 277.992 185.663 278.12C185.748 278.248 185.859 278.356 185.99 278.435C191.299 283.111 197.032 287.983 204.014 288.991C204.47 289.096 204.946 289.056 205.378 288.877C205.783 288.589 206.084 288.177 206.235 287.703C210.687 277.313 212.247 265.958 212.113 254.716C212.013 249.105 211.571 243.505 210.79 237.948C210.604 236.587 210.501 230.592 209.334 229.896C207.547 228.857 205.595 232.514 204.83 233.678C201.597 238.478 199.728 244.057 197.827 249.532Z" fill="#2F51C1"/>
<path d="M212.05 168.329C212.794 183.663 214.54 199.206 212.433 214.281C211.007 224.442 207.836 234.665 209.406 244.774C211.142 255.911 219.198 264.275 227.152 263.184C232.182 262.488 236.686 258.592 241.51 256.389C245.432 254.556 249.796 253.896 254.08 254.488C257.871 255.028 261.972 256.472 265.277 253.771C268.025 251.527 269.409 246.841 269.595 242.343C269.571 237.865 269.006 233.406 267.911 229.065C266.021 220.182 264.028 211.112 264.296 201.835C264.482 195.175 265.825 188.713 266.785 182.188C268.5 170.49 268.944 158.033 266.011 146.864C263.077 135.696 256.239 126.086 247.924 124.579C243.658 123.831 239.289 125.223 235.023 124.361C231.263 123.602 227.792 121.119 224.032 120.039C222.765 119.556 221.362 119.575 220.107 120.091C215.635 122.304 213.517 136.101 212.743 141.794C211.708 150.599 211.477 159.481 212.05 168.329Z" fill="#171F23"/>
<path d="M247.656 219.455C254.448 219.067 261.259 219.733 267.849 221.429C274.388 223.289 280.596 226.779 284.882 232.078C289.634 237.948 291.71 245.584 292.196 253.168C292.681 260.753 291.679 268.275 290.925 275.807C289.159 293.445 288.693 311.19 289.531 328.897C289.737 333.136 289.809 337.925 286.845 340.948C284.975 342.86 282.259 343.629 279.666 344.252C258.222 349.447 234.982 350.351 214.674 341.696C209.509 339.494 204.345 336.429 201.793 331.421C199.025 325.977 199.924 319.473 200.812 313.427C203.525 294.975 205.478 276.434 206.669 257.802C207.196 249.553 206.586 240.66 208.27 232.556C209.489 226.686 213.259 225.076 218.692 223.642C228.16 221.159 237.876 219.755 247.656 219.455Z" fill="#5E58F8"/>
<path d="M227.875 222.842C228.181 221.317 228.574 219.812 229.053 218.333C230.085 214.915 231.377 211.58 231.242 207.943C231.242 207.195 231.18 206.427 231.17 205.668C231.111 204.297 231.318 202.928 231.779 201.637C232.528 199.972 233.705 198.537 235.188 197.481C238.473 194.926 248.058 190.136 249.949 196.442C250.251 197.552 250.394 198.7 250.372 199.85V200.058C250.372 201.741 250.155 203.466 250.135 205.045C249.927 209.008 250.634 212.966 252.2 216.608C254.979 222.426 223.175 248.431 227.875 222.842Z" fill="#FFDAD2"/>
<path d="M250.465 199.892L250.372 200.12C249.391 202.375 241.324 220.317 230.375 219.86C230.375 219.86 229.538 219.933 229.052 218.354C230.085 214.936 231.377 211.601 231.242 207.964C231.242 207.216 231.18 206.447 231.17 205.689L250.372 199.912L250.465 199.892Z" fill="#ECC0B7"/>
<path d="M204.376 182.406C210.08 182.406 214.705 176.671 214.705 169.596C214.705 162.521 210.08 156.786 204.376 156.786C198.671 156.786 194.046 162.521 194.046 169.596C194.046 176.671 198.671 182.406 204.376 182.406Z" fill="#5E58F8"/>
<path d="M204.376 182.406C210.08 182.406 214.705 176.671 214.705 169.596C214.705 162.521 210.08 156.786 204.376 156.786C198.671 156.786 194.046 162.521 194.046 169.596C194.046 176.671 198.671 182.406 204.376 182.406Z" fill="#2F51C1"/>
<path d="M208.332 182.406C214.037 182.406 218.661 176.671 218.661 169.596C218.661 162.521 214.037 156.786 208.332 156.786C202.627 156.786 198.003 162.521 198.003 169.596C198.003 176.671 202.627 182.406 208.332 182.406Z" fill="#5E58F8"/>
<path d="M208.332 182.406C214.037 182.406 218.661 176.671 218.661 169.596C218.661 162.521 214.037 156.786 208.332 156.786C202.627 156.786 198.003 162.521 198.003 169.596C198.003 176.671 202.627 182.406 208.332 182.406Z" fill="#5E58F8"/>
<path d="M205.646 143.56L208.229 190.313C208.229 190.313 209.385 208.276 227.08 208.453C248.337 208.66 254.814 196.224 258.068 186.76C261.321 177.295 264.265 149.514 258.068 141.825C251.87 134.137 217.287 116.091 205.646 143.56Z" fill="#FFDAD2"/>
<path d="M201.855 120.839C195.482 127.914 193.251 138.085 194.212 147.592C194.254 149.437 194.852 151.227 195.926 152.724C197.232 153.993 198.857 154.881 200.626 155.29C203.642 156.329 206.824 157.285 209.923 156.693C213.021 156.1 215.996 153.306 215.593 150.137C214.674 151.955 215.697 154.293 217.329 155.477C219.062 156.551 221.022 157.199 223.051 157.368L233.463 159.072L235.281 152.007C235.061 153.648 235.303 155.318 235.981 156.827C236.658 158.337 237.743 159.624 239.112 160.544C240.482 161.463 242.08 161.977 243.726 162.027C245.371 162.077 246.998 161.662 248.42 160.828C249.019 162.905 251.591 163.861 253.719 163.487C255.847 163.113 257.685 161.794 259.555 160.703C264.896 157.55 271.079 156.145 277.249 156.682C279.429 142.137 269.946 126.667 256.022 122.117C252.593 120.995 249.009 120.486 245.497 119.675C230.519 116.216 214.746 106.522 201.855 120.839Z" fill="#263238"/>
<path d="M267.808 182.406C273.513 182.406 278.137 176.671 278.137 169.596C278.137 162.521 273.513 156.786 267.808 156.786C262.103 156.786 257.479 162.521 257.479 169.596C257.479 176.671 262.103 182.406 267.808 182.406Z" fill="#5E58F8"/>
<path d="M267.808 182.406C273.513 182.406 278.137 176.671 278.137 169.596C278.137 162.521 273.513 156.786 267.808 156.786C262.103 156.786 257.479 162.521 257.479 169.596C257.479 176.671 262.103 182.406 267.808 182.406Z" fill="#2F51C1"/>
<path d="M271.764 182.406C277.469 182.406 282.094 176.671 282.094 169.596C282.094 162.521 277.469 156.786 271.764 156.786C266.06 156.786 261.435 162.521 261.435 169.596C261.435 176.671 266.06 182.406 271.764 182.406Z" fill="#5E58F8"/>
<path d="M271.764 182.406C277.469 182.406 282.094 176.671 282.094 169.596C282.094 162.521 277.469 156.786 271.764 156.786C266.06 156.786 261.435 162.521 261.435 169.596C261.435 176.671 266.06 182.406 271.764 182.406Z" fill="url(#paint0_linear)"/>
<path d="M265.887 157.597L260.526 129.545C257.427 117.836 249.422 109.057 239.588 106.512L237.316 105.93L241.52 105.629C252.077 104.87 261.786 112.704 265.391 124.88L272.725 156.9L265.887 157.597Z" fill="#5E58F8"/>
<path d="M265.887 157.597L260.526 129.545C257.427 117.836 249.422 109.057 239.588 106.512L237.316 105.93L241.52 105.629C252.077 104.87 261.786 112.704 265.391 124.88L272.725 156.9L265.887 157.597Z" fill="url(#paint1_linear)"/>
<path d="M242.202 251.994C247.232 246.654 250.93 240.202 254.597 233.823C256.818 229.927 259.1 225.865 259.41 221.356C259.483 220.846 259.404 220.325 259.183 219.86C258.958 219.544 258.669 219.278 258.336 219.081L251.426 214.323C251.302 218.593 248.255 222.26 244.774 224.712C241.065 227.34 230.561 230.218 232.792 235.673C233.339 237.127 241.613 252.649 242.202 251.994Z" fill="#5E58F8"/>
<path d="M223.495 220.369C222.07 222.44 221.056 224.768 220.51 227.226C218.775 234.135 219.105 241.376 219.477 248.493C219.477 248.93 219.591 249.459 219.994 249.594C220.22 249.651 220.459 249.621 220.665 249.511C222.244 248.665 223.537 247.367 224.384 245.782C226.917 241.902 229.238 237.886 231.335 233.751C231.583 233.337 231.731 232.871 231.769 232.39C231.641 231.616 231.255 230.909 230.674 230.384C228.371 227.579 228.226 224.151 228.66 220.608C228.794 219.507 229.869 217.491 228.443 216.972C227.266 216.535 224.043 219.621 223.495 220.369Z" fill="#5E58F8"/>
<path d="M293.693 289.812C291.07 291.536 287.444 290.56 284.542 290.477C280.802 290.362 279.222 290.685 280.048 294.477C282.114 303.941 284.335 313.177 287.95 322.216C289.274 325.838 291.085 329.26 293.332 332.387C295.075 334.871 297.567 336.725 300.438 337.676C304.147 338.715 308.175 337.395 311.294 335.13C314.414 332.865 316.769 329.738 319.072 326.642C327.336 315.536 329.402 302.456 334.649 289.531C340.031 276.108 347.364 262.872 349.565 248.67C350.102 245.252 350.453 241.252 348.005 238.81C345.557 236.369 340.929 236.93 338.161 239.257C335.393 241.584 333.947 245.075 332.552 248.42C326.282 263.464 319.238 278.176 312.193 292.866C312.016 293.403 311.648 293.854 311.16 294.134C310.895 294.204 310.618 294.212 310.35 294.158C310.081 294.104 309.828 293.989 309.611 293.822C307.018 292.149 306.223 288.274 303.176 287.069C299.912 285.791 296.338 288.077 293.693 289.812Z" fill="#FFDAD2"/>
<path d="M309.456 296.108C299.498 298.518 288.456 300.793 279.501 295.858C277.969 295.119 276.674 293.964 275.762 292.523C274.729 290.684 274.729 288.451 274.667 286.29C274.233 276.534 270.535 267.204 269.657 257.48C268.325 242.166 262.489 218.561 282.713 227.548C293.89 232.514 305.696 256.379 308.092 266.384C308.764 269.355 313.061 295.245 309.456 296.108Z" fill="#2F51C1"/>
<path d="M331.654 227.143C329.171 229.57 327.717 232.868 327.594 236.348C327.398 239.569 328.08 242.81 327.594 246C327.233 248.524 326.169 251.007 326.561 253.532C326.639 254.304 326.958 255.031 327.47 255.61C328.066 256.131 328.773 256.508 329.536 256.711C332.996 257.906 336.581 259.059 340.237 258.903C343.894 258.748 347.695 257.013 349.368 253.709C350.266 251.575 350.693 249.271 350.618 246.956L350.856 240.639C351.117 237.791 350.929 234.919 350.298 232.13C349.969 230.738 349.323 229.441 348.41 228.343C347.498 227.245 346.344 226.376 345.04 225.803C340.774 224.265 335.217 223.902 331.654 227.143Z" fill="#FFDAD2"/>
<path d="M247.635 203.144C243.476 203.053 239.353 202.353 235.395 201.066C235.141 201.017 234.901 200.916 234.689 200.769C234.477 200.621 234.297 200.431 234.163 200.21C234.028 199.988 233.941 199.741 233.907 199.484C233.873 199.227 233.893 198.966 233.965 198.717C234.037 198.468 234.161 198.237 234.327 198.039C234.493 197.84 234.699 197.679 234.931 197.566C235.163 197.453 235.416 197.389 235.674 197.38C235.932 197.371 236.188 197.416 236.428 197.513C245.9 200.38 253.037 199.996 257.624 196.38C263.821 191.487 263.429 182.157 263.429 182.064C263.415 181.82 263.449 181.576 263.529 181.345C263.61 181.115 263.735 180.903 263.897 180.721C264.059 180.54 264.256 180.392 264.475 180.287C264.694 180.182 264.932 180.122 265.174 180.11C265.661 180.088 266.138 180.259 266.499 180.588C266.861 180.917 267.079 181.376 267.106 181.866C267.106 182.334 267.602 193.232 259.875 199.3C256.704 201.876 252.593 203.144 247.635 203.144Z" fill="white"/>
<path d="M236.355 194.468C237.409 194.999 238.235 195.896 238.679 196.993C239.093 198.572 237.874 200.11 236.614 201.149C235.544 202.125 234.223 202.78 232.802 203.04C230.736 203.289 228.732 202.167 227.007 200.962C226.037 200.375 225.211 199.576 224.59 198.624C222.989 195.788 225.055 192.162 227.782 190.946C230.778 189.502 233.99 192.848 236.355 194.468Z" fill="#263238"/>
<path d="M272.384 336.304H123.621C119.451 336.304 116.071 339.704 116.071 343.899V343.909C116.071 348.104 119.451 351.504 123.621 351.504H272.384C276.554 351.504 279.935 348.104 279.935 343.909V343.899C279.935 339.704 276.554 336.304 272.384 336.304Z" fill="#5E58F8"/>
<path d="M272.384 336.304H123.621C119.451 336.304 116.071 339.704 116.071 343.899V343.909C116.071 348.104 119.451 351.504 123.621 351.504H272.384C276.554 351.504 279.935 348.104 279.935 343.909V343.899C279.935 339.704 276.554 336.304 272.384 336.304Z" fill="url(#paint2_linear)"/>
<path d="M220.81 351.514H106.64L76.5298 274.706C76.1308 273.686 75.9845 272.583 76.1038 271.494C76.2231 270.404 76.6042 269.36 77.2143 268.452C77.8245 267.544 78.6452 266.799 79.6057 266.281C80.5663 265.763 81.6376 265.488 82.7274 265.48H172.365C176.704 265.478 180.943 266.791 184.53 269.246C188.117 271.701 190.886 275.186 192.476 279.246L220.81 351.514Z" fill="#5E58F8"/>
<path d="M215.025 351.597H106.568L77.9761 278.622C77.5931 277.651 77.4526 276.599 77.5669 275.56C77.6812 274.521 78.0468 273.526 78.6318 272.662C79.2167 271.798 80.0032 271.091 80.9225 270.603C81.8418 270.116 82.8658 269.862 83.9051 269.864H168.998C173.118 269.864 177.142 271.111 180.548 273.442C183.954 275.773 186.584 279.08 188.097 282.934L215.025 351.597Z" fill="#5E58F8"/>
<path d="M215.025 351.597H106.568L77.9761 278.622C77.5931 277.651 77.4526 276.599 77.5669 275.56C77.6812 274.521 78.0468 273.526 78.6318 272.662C79.2167 271.798 80.0032 271.091 80.9225 270.603C81.8418 270.116 82.8658 269.862 83.9051 269.864H168.998C173.118 269.864 177.142 271.111 180.548 273.442C183.954 275.773 186.584 279.08 188.097 282.934L215.025 351.597Z" fill="#2F51C1"/>
</g>
<defs>
<linearGradient id="paint0_linear" x1="6001.85" y1="4111.26" x2="4449.28" y2="4864.2" gradientUnits="userSpaceOnUse">
<stop offset="0.01"/>
<stop offset="0.09" stop-opacity="0.82"/>
<stop offset="1" stop-opacity="0"/>
</linearGradient>
<linearGradient id="paint1_linear" x1="10141.5" y1="6743.11" x2="8594.71" y2="6834.34" gradientUnits="userSpaceOnUse">
<stop offset="0.01"/>
<stop offset="0.09" stop-opacity="0.82"/>
<stop offset="1" stop-opacity="0"/>
</linearGradient>
<linearGradient id="paint2_linear" x1="-1.27611e+06" y1="5623.34" x2="-1.27611e+06" y2="5159.22" gradientUnits="userSpaceOnUse">
<stop offset="0.01"/>
<stop offset="0.12" stop-opacity="0.75"/>
<stop offset="1" stop-opacity="0"/>
</linearGradient>
<clipPath id="clip0">
<rect width="388" height="353" fill="white"/>
</clipPath>
</defs>
</svg>
