<svg width="407" height="321" viewBox="0 0 407 321" fill="none" xmlns="http://www.w3.org/2000/svg">
<g clip-path="url(#clip0)">
<path opacity="0.18" d="M45.3401 309.73C24.1701 301.73 5.03004 284.62 0.880035 262.36C-2.53996 244 4.51005 225.36 13.08 208.75C21.65 192.14 32.03 176.09 36.03 157.85C43.48 123.93 28.1101 86.3 42.7101 54.79C47.1001 45.33 53.9601 37.17 61.7101 30.22C95.6001 -0.0600052 146.49 -6.84 189.9 6.55C233.31 19.94 269.55 51.2 296.21 87.98C307.21 103.14 316.77 119.33 328.76 133.7C344.74 152.84 365.48 169.64 372.42 193.55C377.47 210.83 374.42 229.55 368.42 246.55C359.19 272.61 319.42 318.96 300.49 318.87C258.3 318.66 177.35 320.73 138.24 319.23C108.94 318.08 76.0101 321.31 45.3401 309.73Z" fill="#FE98E8"/>
<path d="M226.19 274.62C227.19 277.47 228.07 280.74 226.62 283.39C225.65 284.867 224.345 286.094 222.81 286.97L209.01 296.35C206.36 298.15 203.55 300 200.37 300.24C197.19 300.48 193.58 298.45 193.31 295.24C192.99 291.57 196.84 289.06 198.64 285.84C201 281.62 199.7 276.39 198.47 271.71C195.369 259.931 193.103 247.948 191.69 235.85C194.52 234.69 202.76 229.5 205.69 230.36C208.99 231.36 211.97 240.59 213.44 243.6C218.409 253.63 222.669 263.995 226.19 274.62V274.62Z" fill="#F1AF8C"/>
<path d="M199.72 195.47C203.3 205.64 207.1 215.84 212.84 224.98C213.048 225.245 213.158 225.573 213.15 225.91C213.059 226.227 212.861 226.502 212.59 226.69C206.82 231.74 200.59 237.01 193 238.1C192.505 238.214 191.987 238.169 191.52 237.97C191.082 237.659 190.759 237.213 190.6 236.7C185.76 225.49 184.05 213.21 184.21 201.07C184.315 195.006 184.796 188.954 185.65 182.95C185.85 181.49 185.96 175.01 187.23 174.25C189.16 173.11 191.28 177.09 192.12 178.34C195.6 183.55 197.66 189.55 199.72 195.47Z" fill="white"/>
<path d="M184.03 176.09C184.03 176.09 188.54 177.78 192.21 190.48C195.88 203.18 204.64 233.96 204.64 233.96C204.64 233.96 191.09 240.73 187.7 238.19C184.31 235.65 184.03 176.09 184.03 176.09Z" fill="url(#paint0_linear)"/>
<path d="M145.59 163.01C138.21 162.78 130.74 163.14 123.64 165.14C116.54 167.14 109.79 170.92 105.13 176.65C99.97 182.99 97.71 191.28 97.19 199.43C96.67 207.58 97.75 215.75 98.57 223.89C100.491 242.943 100.999 262.112 100.09 281.24C99.87 285.82 97.25 309.73 100.47 313C102.47 315.06 98.47 317.12 101.32 317.8C124.62 323.4 166.48 320.65 188.54 311.31C194.15 308.93 199.78 305.62 202.54 300.2C205.54 294.33 197.44 271.06 196.47 264.53C193.53 244.603 191.41 224.57 190.11 204.43C189.54 195.52 190.2 185.92 188.37 177.17C187.04 170.82 182.95 169.09 177.05 167.53C166.765 164.854 156.213 163.338 145.59 163.01Z" fill="white"/>
<path d="M126.42 267.26C127.19 271.31 128.2 275.54 130.97 278.6C133.161 280.79 135.842 282.428 138.79 283.38C152.69 288.62 168.54 287.8 181.86 294.38C182.8 294.792 183.665 295.356 184.42 296.05C186.99 298.59 186.27 303.05 184.23 306.05C179.7 312.68 170.89 314.54 162.94 315.77C143.88 318.77 124.42 321.22 105.37 318.15C104.333 318.075 103.342 317.696 102.52 317.06C101.863 316.297 101.442 315.359 101.31 314.36C96.99 295.18 100.39 275.21 100.47 255.55C100.47 244.21 99.47 232.86 100.24 221.55C100.628 214.512 102.091 207.575 104.58 200.98C106.35 196.5 111.53 186.61 114.64 195.79C119.58 210.38 121 226.11 122.78 241.32C123.75 249.99 124.79 258.67 126.42 267.26Z" fill="url(#paint1_linear)"/>
<path d="M120.46 302.42H282.08C286.614 302.42 290.29 306.096 290.29 310.63C290.29 315.164 286.614 318.84 282.08 318.84H120.46C115.926 318.84 112.25 315.164 112.25 310.63C112.25 306.096 115.926 302.42 120.46 302.42Z" fill="#FE98E8"/>
<path d="M120.46 302.42H282.08C286.614 302.42 290.29 306.096 290.29 310.63C290.29 315.164 286.614 318.84 282.08 318.84H120.46C115.926 318.84 112.25 315.164 112.25 310.63C112.25 306.096 115.926 302.42 120.46 302.42Z" fill="url(#paint2_linear)"/>
<path d="M163.42 178.55C166.73 178.02 168.59 174.69 167.11 166.67C166.95 165.78 166.74 164.92 166.5 164.06C166.5 163.9 166.41 163.74 166.37 163.58C166.01 162.34 165.6 161.1 165.2 159.87C164.087 156.918 163.498 153.795 163.46 150.64C163.55 148.34 163.73 145.95 162.88 143.83C162.063 142.031 160.783 140.481 159.17 139.34C155.6 136.59 145.17 131.42 143.17 138.25C142.28 141.17 142.93 144.57 142.97 147.56C143.17 151.845 142.383 156.118 140.67 160.05C138.49 164.43 155.29 179.85 163.42 178.55Z" fill="#F1AF8C"/>
<path d="M165.77 162.26C165.77 162.26 147.33 155.26 143.77 144.19L163.42 150.62C163.42 150.62 163.89 160.75 165.77 162.26Z" fill="url(#paint3_linear)"/>
<path d="M115.78 186.2C117.662 207.121 114.194 228.178 105.7 247.39C105.449 248.099 105.026 248.734 104.47 249.24C103.573 249.797 102.523 250.056 101.47 249.98C93.2438 250.157 85.1955 247.573 78.61 242.64C76.61 241.13 74.73 239.2 74.56 236.85C74.5555 235.59 74.8037 234.342 75.29 233.18C80.3953 218.344 86.3553 203.817 93.14 189.67C95.66 184.43 99.04 178.29 105.14 175.98C112.48 173.21 115.27 180.72 115.78 186.2Z" fill="white"/>
<path d="M151.51 198.16C146.04 192.39 142.03 185.42 138.07 178.53C135.66 174.33 133.19 169.94 132.85 165.1C132.764 164.55 132.852 163.988 133.1 163.49C133.341 163.143 133.655 162.853 134.02 162.64L141.53 157.55C141.66 162.16 144.97 166.12 148.75 168.77C152.75 171.61 164.2 174.72 161.75 180.61C161.14 182.1 152.15 198.83 151.51 198.16Z" fill="#FE98E8"/>
<path d="M151.51 198.16C146.04 192.39 142.03 185.42 138.07 178.53C135.66 174.33 133.19 169.94 132.85 165.1C132.764 164.55 132.852 163.988 133.1 163.49C133.341 163.143 133.655 162.853 134.02 162.64L141.53 157.55C141.66 162.16 144.97 166.12 148.75 168.77C152.75 171.61 164.2 174.72 161.75 180.61C161.14 182.1 152.15 198.83 151.51 198.16Z" fill="url(#paint4_linear)"/>
<path d="M108.78 306.18L64.98 297.81C62.39 297.31 59.69 296.81 57.64 295.11C54.83 292.85 53.84 288.89 54.25 285.3C54.66 281.71 56.25 278.38 57.83 275.12C64.05 262.24 76.67 239.12 76.75 240.47C84.41 242.09 90.75 242.17 97.33 246.38C98.4628 246.991 99.42 247.883 100.11 248.97C102.74 253.97 95.55 261.27 93.11 265.07C92.1747 266.285 91.55 267.709 91.29 269.22C91.2377 270.288 91.4363 271.353 91.87 272.33C94.24 278.15 102.68 281.54 107.87 284.53C114.656 288.633 122.263 291.187 130.15 292.01C136.27 292.53 142.52 291.74 148.5 293.11C152.168 293.984 155.605 295.636 158.578 297.955C161.55 300.274 163.99 303.205 165.73 306.55C162.17 308.81 157.54 307.5 153.44 306.47C145.843 304.586 137.99 303.954 130.19 304.6C125.13 305.03 111.18 310.89 108.78 306.18Z" fill="#F1AF8C"/>
<path d="M176.5 318.85H300.5L333.21 235.85C333.653 234.743 333.818 233.544 333.69 232.358C333.562 231.172 333.146 230.036 332.476 229.049C331.807 228.062 330.906 227.254 329.852 226.696C328.797 226.139 327.623 225.848 326.43 225.85H229.09C224.376 225.847 219.77 227.265 215.873 229.917C211.976 232.569 208.967 236.334 207.24 240.72L176.5 318.85Z" fill="#FE98E8"/>
<path d="M176.5 318.85H300.5L333.21 235.85C333.653 234.743 333.818 233.544 333.69 232.358C333.562 231.172 333.146 230.036 332.476 229.049C331.807 228.062 330.906 227.254 329.852 226.696C328.797 226.139 327.623 225.848 326.43 225.85H229.09C224.376 225.847 219.77 227.265 215.873 229.917C211.976 232.569 208.967 236.334 207.24 240.72L176.5 318.85Z" fill="url(#paint5_linear)"/>
<path d="M182.8 318.94H300.62L331.7 240.13C332.114 239.08 332.265 237.944 332.14 236.823C332.015 235.701 331.617 234.626 330.983 233.693C330.348 232.76 329.495 231.995 328.497 231.467C327.5 230.938 326.389 230.661 325.26 230.66H232.8C228.322 230.663 223.948 232.012 220.247 234.532C216.545 237.051 213.686 240.625 212.04 244.79L182.8 318.94Z" fill="url(#paint6_linear)"/>
<path d="M167.42 45.04C164.42 43.28 161.42 41.49 158.03 40.83C154.64 40.17 150.03 40.57 147.74 43.13C150.709 43.3388 153.603 44.1643 156.235 45.5538C158.868 46.9433 161.182 48.8662 163.03 51.2C163.202 51.5033 163.474 51.7368 163.8 51.86C164.079 51.8893 164.36 51.8372 164.61 51.71C165.99 51.19 176.33 53.55 176.93 52.3C176.9 52.3 168.69 45.81 167.42 45.04Z" fill="#FE98E8"/>
<path d="M167.42 45.04C164.42 43.28 161.42 41.49 158.03 40.83C154.64 40.17 150.03 40.57 147.74 43.13C150.709 43.3388 153.603 44.1643 156.235 45.5538C158.868 46.9433 161.182 48.8662 163.03 51.2C163.202 51.5033 163.474 51.7368 163.8 51.86C164.079 51.8893 164.36 51.8372 164.61 51.71C165.99 51.19 176.33 53.55 176.93 52.3C176.9 52.3 168.69 45.81 167.42 45.04Z" fill="url(#paint7_linear)"/>
<path d="M189.77 121.3C183.065 121.3 177.63 114.602 177.63 106.34C177.63 98.0778 183.065 91.38 189.77 91.38C196.475 91.38 201.91 98.0778 201.91 106.34C201.91 114.602 196.475 121.3 189.77 121.3Z" fill="#FE98E8"/>
<path d="M187.28 121.86C181.078 121.86 176.05 115.664 176.05 108.02C176.05 100.376 181.078 94.18 187.28 94.18C193.482 94.18 198.51 100.376 198.51 108.02C198.51 115.664 193.482 121.86 187.28 121.86Z" fill="#FE98E8"/>
<path d="M187.28 121.86C181.078 121.86 176.05 115.664 176.05 108.02C176.05 100.376 181.078 94.18 187.28 94.18C193.482 94.18 198.51 100.376 198.51 108.02C198.51 115.664 193.482 121.86 187.28 121.86Z" fill="url(#paint8_linear)"/>
<path d="M191.23 80.14L188.42 131.55C188.42 131.55 187.17 150.95 167.94 151.14C144.84 151.37 137.81 137.94 134.3 127.72C130.79 117.5 127.62 87.48 134.3 79.18C140.98 70.88 178.57 50.45 191.23 80.14Z" fill="#F1AF8C"/>
<path d="M176.62 49.27C185.68 49.11 196.03 53.34 200.16 61.89C201.151 63.8573 201.691 66.021 201.739 68.2233C201.787 70.4257 201.344 72.611 200.44 74.62C200.108 75.2109 199.846 75.8384 199.66 76.49C199.57 77.2105 199.57 77.9395 199.66 78.66C199.739 80.3971 199.389 82.1268 198.64 83.6964C197.892 85.2661 196.769 86.6273 195.37 87.66C193.78 88.81 191.85 89.53 190.58 91.02L191.07 81.45C191.183 80.9329 191.087 80.392 190.802 79.9459C190.517 79.4998 190.067 79.1848 189.55 79.07L183.46 76.23C183.46 76.23 181.58 77.6 181.35 77.71C180.339 78.1404 179.248 78.3485 178.15 78.32C175.763 78.3763 173.376 78.2425 171.01 77.92C165.9 77.19 161.01 75.32 156.24 73.46C156.394 74.9385 157.034 76.3241 158.06 77.4L142.53 80.4C140.255 83.5276 138.422 86.953 137.08 90.58C136.006 93.4149 135.301 96.3757 134.98 99.39C134.564 103.488 134.948 107.628 136.11 111.58C135.054 110.775 134.129 109.81 133.37 108.72C131.966 109.695 130.412 110.435 128.77 110.91C128.428 111.037 128.058 111.068 127.7 111C126.94 110.79 126.78 109.89 126.7 109.17C126.08 102.72 121.28 97.27 119.08 91.11C116.41 83.65 117.76 75.26 121.84 68.35C123.049 66.1605 124.693 64.2412 126.67 62.71C133.82 57.47 143.98 59.87 152.14 57.13C156.02 55.83 159.14 53.36 162.85 51.73C166.97 49.98 172.13 49.35 176.62 49.27Z" fill="#3F3D56"/>
<path d="M176.62 49.27C185.68 49.11 196.03 53.34 200.16 61.89C201.151 63.8573 201.691 66.021 201.739 68.2233C201.787 70.4257 201.344 72.611 200.44 74.62C200.108 75.2109 199.846 75.8384 199.66 76.49C199.57 77.2105 199.57 77.9395 199.66 78.66C199.739 80.3971 199.389 82.1268 198.64 83.6964C197.892 85.2661 196.769 86.6273 195.37 87.66C193.78 88.81 191.85 89.53 190.58 91.02L191.07 81.45C191.183 80.9329 191.087 80.392 190.802 79.9459C190.517 79.4998 190.067 79.1848 189.55 79.07L183.46 76.23C183.46 76.23 181.58 77.6 181.35 77.71C180.339 78.1404 179.248 78.3485 178.15 78.32C175.763 78.3763 173.376 78.2425 171.01 77.92C165.9 77.19 161.01 75.32 156.24 73.46C156.394 74.9385 157.034 76.3241 158.06 77.4L142.53 80.4C140.255 83.5276 138.422 86.953 137.08 90.58C136.006 93.4149 135.301 96.3757 134.98 99.39C134.564 103.488 134.948 107.628 136.11 111.58C135.054 110.775 134.129 109.81 133.37 108.72C131.966 109.695 130.412 110.435 128.77 110.91C128.428 111.037 128.058 111.068 127.7 111C126.94 110.79 126.78 109.89 126.7 109.17C126.08 102.72 121.28 97.27 119.08 91.11C116.41 83.65 117.76 75.26 121.84 68.35C123.049 66.1605 124.693 64.2412 126.67 62.71C133.82 57.47 143.98 59.87 152.14 57.13C156.02 55.83 159.14 53.36 162.85 51.73C166.97 49.98 172.13 49.35 176.62 49.27Z" fill="url(#paint9_linear)"/>
<path d="M122.9 122.99C116.267 122.99 110.89 116.359 110.89 108.18C110.89 100.001 116.267 93.37 122.9 93.37C129.533 93.37 134.91 100.001 134.91 108.18C134.91 116.359 129.533 122.99 122.9 122.99Z" fill="#FE98E8"/>
<path d="M122.9 122.99C116.267 122.99 110.89 116.359 110.89 108.18C110.89 100.001 116.267 93.37 122.9 93.37C129.533 93.37 134.91 100.001 134.91 108.18C134.91 116.359 129.533 122.99 122.9 122.99Z" fill="url(#paint10_linear)"/>
<path d="M118.3 122.99C111.667 122.99 106.29 116.359 106.29 108.18C106.29 100.001 111.667 93.37 118.3 93.37C124.933 93.37 130.31 100.001 130.31 108.18C130.31 116.359 124.933 122.99 118.3 122.99Z" fill="#FE98E8"/>
<path d="M118.21 94.55L124.21 95.19L125.64 95.34L131.64 65.81C134.76 54.13 142.39 45.15 151.96 41.67C153.442 41.1532 155.018 40.9655 156.58 41.12L160.67 41.49L158.67 40.96L154.67 39.9C153.42 39.5552 152.126 39.3968 150.83 39.43C140.15 39.82 130.02 48.43 126.35 60.77L118.21 94.55Z" fill="#FE98E8"/>
<path d="M118.21 94.55L124.21 95.19L125.64 95.34L131.64 65.81C134.76 54.13 142.39 45.15 151.96 41.67C153.442 41.1532 155.018 40.9655 156.58 41.12L160.67 41.49L158.67 40.96L154.67 39.9C153.42 39.5552 152.126 39.3968 150.83 39.43C140.15 39.82 130.02 48.43 126.35 60.77L118.21 94.55Z" fill="url(#paint11_linear)"/>
<path d="M118.21 94.55L124.21 95.19L130.21 65.59C133.38 53.79 141.08 44.74 150.74 41.23C152.235 40.6943 153.831 40.5029 155.41 40.67L158.67 40.96L154.67 39.9C153.42 39.5552 152.126 39.3968 150.83 39.43C140.15 39.82 130.02 48.43 126.35 60.77L118.21 94.55Z" fill="#FE98E8"/>
<path opacity="0.45" d="M244.12 5.16H390.75C399.388 5.16 406.39 12.1623 406.39 20.8V192.98C406.39 201.618 399.388 208.62 390.75 208.62H244.12C235.482 208.62 228.48 201.618 228.48 192.98V20.8C228.48 12.1623 235.482 5.16 244.12 5.16Z" fill="#FE98E8"/>
<path d="M352.74 189.16C338.038 189.16 326.12 177.242 326.12 162.54C326.12 147.838 338.038 135.92 352.74 135.92C367.442 135.92 379.36 147.838 379.36 162.54C379.36 177.242 367.442 189.16 352.74 189.16Z" fill="url(#paint12_linear)"/>
<path d="M276.83 24.45H390.54V30.85H276.83V24.45Z" fill="#FE98E8"/>
<path opacity="0.51" d="M273.4 108.61H387.11V115.01H273.4V108.61Z" fill="#FE98E8"/>
<path d="M306.28 97.66H387.11V104.06H306.28V97.66Z" fill="#FE98E8"/>
<path d="M241.11 97.66H295.22V104.06H241.11V97.66Z" fill="#FE98E8"/>
<path d="M241.29 57.15H324.49V62.84H241.29V57.15Z" fill="#FE98E8"/>
<path opacity="0.51" d="M252.91 67.24H341.92V72.93H252.91V67.24Z" fill="#FE98E8"/>
<path d="M330.84 57.15H385.56V62.84H330.84V57.15Z" fill="#FE98E8"/>
<path d="M241.29 77.04H361.56V82.73H241.29V77.04Z" fill="#FE98E8"/>
<path opacity="0.51" d="M367.9 77.04H385.56V82.73H367.9V77.04Z" fill="#FE98E8"/>
<path opacity="0.51" d="M241.3 87.14H320.68V92.83H241.3V87.14Z" fill="#FE98E8"/>
<path d="M330.84 87.14H385.56V92.83H330.84V87.14Z" fill="#FE98E8"/>
<path d="M350.37 67H385.56V72.69H350.37V67Z" fill="#FE98E8"/>
<path d="M346.84 145.04C348.4 146.95 348.66 149.62 348.37 152.04C348.28 152.479 348.28 152.931 348.37 153.37C348.503 153.739 348.707 154.079 348.97 154.37C353.207 159.637 357.954 164.474 363.14 168.81C363.286 168.951 363.46 169.06 363.65 169.13C363.99 169.2 364.343 169.151 364.65 168.99C366.15 168.4 367.76 167.76 369.33 168.14C370.042 168.353 370.692 168.731 371.23 169.244C371.767 169.756 372.175 170.389 372.42 171.09C372.905 172.503 372.985 174.024 372.65 175.48C370.943 174.06 369.167 172.727 367.32 171.48L364.69 174.09C364.554 174.194 364.442 174.327 364.362 174.479C364.283 174.631 364.237 174.799 364.23 174.97C364.281 175.175 364.389 175.362 364.54 175.51L368.42 180.09C367.144 180.601 365.752 180.752 364.396 180.526C363.04 180.3 361.772 179.707 360.73 178.81C358.73 176.91 358.43 173.36 360.39 171.45L345.5 154.76C344.496 155.502 343.277 155.895 342.028 155.877C340.78 155.859 339.572 155.431 338.59 154.66C337.637 153.854 336.899 152.823 336.445 151.66C335.991 150.497 335.835 149.239 335.99 148C337.843 149.111 339.562 150.433 341.11 151.94L344.11 148.2C343.05 147.2 338.94 144.44 341.61 143.36C343.37 142.65 345.7 143.65 346.84 145.04Z" fill="#FE98E8"/>
<path d="M260.65 172.02L259.22 167.47C259.22 167.47 264.87 163.01 265.04 163.29L265.27 160L260.1 154.5L262.48 150.37C262.48 150.37 269.48 151.51 269.48 151.83C270.831 150.56 272.286 149.406 273.83 148.38L274.05 140.88L278.65 139.63C278.65 139.63 282.86 145.47 282.58 145.63C282.58 145.63 285.82 146.31 287.37 146.8L292.61 142.34L296.61 144.92C296.61 144.92 295.42 150.49 294.95 151.66C296.07 152.89 297.47 154.28 297.47 154.28L304.93 155.48L305.57 160.2C305.57 160.2 300.32 163.04 299.3 163.33C299.279 164.859 299.043 166.377 298.6 167.84L302.67 174.1L299.6 177.74C299.6 177.74 295.53 176.31 293.76 175.53C292.11 177.03 289.76 178.81 289.76 178.81L287.88 186.13L283.12 186.33C283.12 186.33 280.83 181 280.59 179.83C279.059 179.659 277.515 179.639 275.98 179.77L269.29 183.28L265.94 179.88C266.907 177.719 267.985 175.609 269.17 173.56C268.745 173.044 268.361 172.495 268.02 171.92L260.65 172.02ZM282.85 172.19C284.721 172.192 286.551 171.639 288.108 170.601C289.665 169.562 290.879 168.086 291.597 166.357C292.315 164.629 292.503 162.726 292.139 160.891C291.776 159.055 290.875 157.368 289.553 156.044C288.23 154.72 286.545 153.818 284.709 153.453C282.874 153.087 280.971 153.273 279.242 153.989C277.513 154.705 276.035 155.917 274.995 157.473C273.955 159.029 273.4 160.859 273.4 162.73C273.403 165.236 274.399 167.64 276.17 169.413C277.942 171.186 280.344 172.185 282.85 172.19V172.19Z" fill="url(#paint13_linear)"/>
<path d="M197.69 77.55C195.92 74.05 192.08 71.97 188.21 71.34C184.34 70.71 180.38 71.29 176.51 71.88C180.26 74.88 190.73 79.35 190.93 80.15C191.071 81.5658 191.088 82.9913 190.98 84.41C190.84 86.47 190.77 88.63 190.78 90.69C191.746 89.7439 192.828 88.924 194 88.25C195.008 87.8615 195.926 87.273 196.7 86.52C197.712 85.2791 198.343 83.7724 198.519 82.1811C198.694 80.5898 198.407 78.9816 197.69 77.55V77.55Z" fill="url(#paint14_linear)"/>
<path d="M146.76 144.08C151.278 143.989 155.758 143.241 160.06 141.86C160.569 141.707 160.997 141.359 161.249 140.891C161.501 140.423 161.558 139.874 161.405 139.365C161.253 138.856 160.904 138.428 160.436 138.176C159.968 137.924 159.419 137.867 158.91 138.02C148.61 141.12 140.86 140.71 135.91 136.8C129.17 131.51 129.61 121.43 129.61 121.33C129.637 120.8 129.451 120.28 129.095 119.886C128.739 119.493 128.24 119.257 127.71 119.23C127.18 119.203 126.66 119.389 126.266 119.745C125.873 120.101 125.637 120.6 125.61 121.13C125.61 121.62 125.08 133.4 133.44 139.96C136.92 142.7 141.36 144.073 146.76 144.08Z" fill="#FE98E8"/>
<path d="M146.76 144.08C151.278 143.989 155.758 143.241 160.06 141.86C160.569 141.707 160.997 141.359 161.249 140.891C161.501 140.423 161.558 139.874 161.405 139.365C161.253 138.856 160.904 138.428 160.436 138.176C159.968 137.924 159.419 137.867 158.91 138.02C148.61 141.12 140.86 140.71 135.91 136.8C129.17 131.51 129.61 121.43 129.61 121.33C129.637 120.8 129.451 120.28 129.095 119.886C128.739 119.493 128.24 119.257 127.71 119.23C127.18 119.203 126.66 119.389 126.266 119.745C125.873 120.101 125.637 120.6 125.61 121.13C125.61 121.62 125.08 133.4 133.44 139.96C136.92 142.7 141.36 144.073 146.76 144.08Z" fill="url(#paint15_linear)"/>
<path d="M159.02 134.64C157.873 135.217 156.974 136.19 156.49 137.38C156.05 139.08 157.37 140.71 158.73 141.82C159.899 142.862 161.337 143.555 162.88 143.82C165.14 144.09 167.3 142.87 169.18 141.58C170.229 140.94 171.124 140.076 171.8 139.05C173.54 135.99 171.29 132.05 168.34 130.75C165.07 129.34 161.59 132.95 159.02 134.64Z" fill="#FE98E8"/>
<path d="M159.02 134.64C157.873 135.217 156.974 136.19 156.49 137.38C156.05 139.08 157.37 140.71 158.73 141.82C159.899 142.862 161.337 143.555 162.88 143.82C165.14 144.09 167.3 142.87 169.18 141.58C170.229 140.94 171.124 140.076 171.8 139.05C173.54 135.99 171.29 132.05 168.34 130.75C165.07 129.34 161.59 132.95 159.02 134.64Z" fill="url(#paint16_linear)"/>
</g>
<defs>
<linearGradient id="paint0_linear" x1="139.68" y1="205.35" x2="208.18" y2="208.36" gradientUnits="userSpaceOnUse">
<stop offset="0.01"/>
<stop offset="1" stop-opacity="0"/>
</linearGradient>
<linearGradient id="paint1_linear" x1="-38215.9" y1="56784.2" x2="-12547.5" y2="40620" gradientUnits="userSpaceOnUse">
<stop offset="0.01"/>
<stop offset="1" stop-opacity="0"/>
</linearGradient>
<linearGradient id="paint2_linear" x1="-36161.6" y1="5297.71" x2="-36164.2" y2="5767.47" gradientUnits="userSpaceOnUse">
<stop offset="0.01"/>
<stop offset="1" stop-opacity="0"/>
</linearGradient>
<linearGradient id="paint3_linear" x1="-5537.29" y1="2939.08" x2="-5450.16" y2="3769.76" gradientUnits="userSpaceOnUse">
<stop offset="0.01"/>
<stop offset="1" stop-opacity="0"/>
</linearGradient>
<linearGradient id="paint4_linear" x1="156.67" y1="167.25" x2="135.5" y2="187.29" gradientUnits="userSpaceOnUse">
<stop offset="0.02" stop-color="white" stop-opacity="0"/>
<stop offset="0.58" stop-color="white" stop-opacity="0.39"/>
<stop offset="1" stop-color="white"/>
</linearGradient>
<linearGradient id="paint5_linear" x1="-38276.3" y1="13711.8" x2="-31639.4" y2="33536.2" gradientUnits="userSpaceOnUse">
<stop offset="0.01"/>
<stop offset="1" stop-opacity="0"/>
</linearGradient>
<linearGradient id="paint6_linear" x1="229.14" y1="357.75" x2="291.24" y2="184.99" gradientUnits="userSpaceOnUse">
<stop offset="0.01"/>
<stop offset="0.09" stop-opacity="0.82"/>
<stop offset="1" stop-opacity="0"/>
</linearGradient>
<linearGradient id="paint7_linear" x1="-7032.7" y1="832.797" x2="-7043.2" y2="1097.08" gradientUnits="userSpaceOnUse">
<stop offset="0.01"/>
<stop offset="1" stop-opacity="0"/>
</linearGradient>
<linearGradient id="paint8_linear" x1="-4846" y1="2489.33" x2="-4500.49" y2="3587.69" gradientUnits="userSpaceOnUse">
<stop offset="0.01"/>
<stop offset="1" stop-opacity="0"/>
</linearGradient>
<linearGradient id="paint9_linear" x1="-22612" y1="5957.91" x2="-21533.9" y2="7121.67" gradientUnits="userSpaceOnUse">
<stop offset="0.01"/>
<stop offset="1" stop-opacity="0"/>
</linearGradient>
<linearGradient id="paint10_linear" x1="-6724.96" y1="3285.22" x2="-6375.67" y2="3341.87" gradientUnits="userSpaceOnUse">
<stop offset="0.01"/>
<stop offset="1" stop-opacity="0"/>
</linearGradient>
<linearGradient id="paint11_linear" x1="-12220.7" y1="4990.64" x2="-10742.9" y2="5478.79" gradientUnits="userSpaceOnUse">
<stop offset="0.01"/>
<stop offset="1" stop-opacity="0"/>
</linearGradient>
<linearGradient id="paint12_linear" x1="347.97" y1="67.19" x2="353.94" y2="186.54" gradientUnits="userSpaceOnUse">
<stop offset="0.02" stop-color="white" stop-opacity="0"/>
<stop offset="0.58" stop-color="white" stop-opacity="0.39"/>
<stop offset="0.68" stop-color="white" stop-opacity="0.68"/>
<stop offset="1" stop-color="white"/>
</linearGradient>
<linearGradient id="paint13_linear" x1="-6782.27" y1="6333.92" x2="-5669.16" y2="8977.72" gradientUnits="userSpaceOnUse">
<stop offset="0.02" stop-color="white" stop-opacity="0"/>
<stop offset="0.58" stop-color="white" stop-opacity="0.39"/>
<stop offset="0.68" stop-color="white" stop-opacity="0.68"/>
<stop offset="1" stop-color="white"/>
</linearGradient>
<linearGradient id="paint14_linear" x1="-4691" y1="2492.13" x2="-4727.17" y2="1911.69" gradientUnits="userSpaceOnUse">
<stop offset="0.01"/>
<stop offset="1" stop-opacity="0"/>
</linearGradient>
<linearGradient id="paint15_linear" x1="-9241.71" y1="3848.1" x2="-9438.6" y2="4432.43" gradientUnits="userSpaceOnUse">
<stop offset="0.02" stop-color="white" stop-opacity="0"/>
<stop offset="0.58" stop-color="white" stop-opacity="0.39"/>
<stop offset="0.68" stop-color="white" stop-opacity="0.68"/>
<stop offset="1" stop-color="white"/>
</linearGradient>
<linearGradient id="paint16_linear" x1="-3845.66" y1="2230.64" x2="-3697.05" y2="2587.62" gradientUnits="userSpaceOnUse">
<stop offset="0.01"/>
<stop offset="1" stop-opacity="0"/>
</linearGradient>
<clipPath id="clip0">
<rect width="406.39" height="320.69" fill="white" transform="matrix(-1 0 0 1 406.39 0)"/>
</clipPath>
</defs>
</svg>
