<svg width="16" height="16" viewBox="0 0 16 16" fill="none" xmlns="http://www.w3.org/2000/svg">
<path d="M7.49999 1C6.67749 1 5.99999 1.6775 5.99999 2.5V3.2655L5.93749 3.0625C5.69899 2.2755 4.84949 1.824 4.06249 2.0625C3.27549 2.301 2.82399 3.1505 3.06249 3.9375L4.35949 8.1565C4.26549 8.1935 4.16449 8.2365 4.06249 8.2965C3.64449 8.5465 3.17199 9.0525 3.03099 9.8595C2.92599 10.457 3.04099 10.9825 3.12499 11.2655V11.2815L3.51549 12.5315C3.7361 13.2463 4.17986 13.8716 4.78173 14.3158C5.3836 14.7601 6.11194 14.9998 6.85999 15H9.49999C11.4275 15 13 13.4275 13 11.5V6.547V6.4845V6.453V6.4375C12.996 6.422 12.99 6.406 12.9845 6.3905C12.9395 5.84 12.6055 5.326 12.0625 5.1095C11.6855 4.959 11.289 4.9805 10.9375 5.125C10.7738 4.80725 10.5025 4.55807 10.172 4.422C9.98463 4.34793 9.78423 4.31249 9.58282 4.31782C9.38142 4.32315 9.18318 4.36913 8.99999 4.453V2.5C8.99999 1.6775 8.32249 1 7.49999 1ZM7.49999 2C7.78299 2 7.99999 2.217 7.99999 2.5V5.797L7.48449 7.1095C7.41197 7.29357 7.37482 7.48966 7.37499 7.6875L5.32799 7.953L4.03099 3.6405C4.01043 3.57793 4.00266 3.51186 4.00814 3.44623C4.01362 3.38059 4.03223 3.31673 4.06287 3.25843C4.09352 3.20013 4.13556 3.14858 4.18652 3.10685C4.23747 3.06512 4.29629 3.03405 4.35949 3.0155C4.62899 2.9335 4.90249 3.09 4.98449 3.3595L6.01549 6.781L6.57799 6.6095H6.99999V2.5C6.99999 2.217 7.21699 2 7.49999 2ZM9.59399 5.3125C9.65799 5.3105 9.73249 5.3185 9.79699 5.344C10.0585 5.449 10.1835 5.7385 10.078 6L9.54699 7.328V7.3435L9.34349 7.8595C9.33399 7.8865 9.31049 7.8985 9.29699 7.922C9.03824 7.71752 8.72017 7.60244 8.39049 7.594C8.39649 7.5565 8.39049 7.5215 8.40649 7.484L9.15649 5.625C9.23449 5.4275 9.40049 5.3165 9.59399 5.3125ZM11.484 6C11.551 6 11.621 6.006 11.6875 6.0315C11.7791 6.06675 11.858 6.12886 11.9138 6.20969C11.9695 6.29052 11.9996 6.3863 12 6.4845V6.5C12 6.5605 11.992 6.627 11.9685 6.6875L11.406 8.078C11.301 8.34 11.0115 8.465 10.75 8.3595C10.4885 8.254 10.379 7.9645 10.4845 7.703L11.0155 6.375C11.0235 6.355 11.0235 6.332 11.0315 6.3125C11.084 6.1815 11.1795 6.0825 11.2965 6.031C11.3565 6.00766 11.4207 5.9971 11.485 6H11.484ZM8.24999 8.578C8.31158 8.56277 8.3756 8.56004 8.43827 8.56996C8.50094 8.57988 8.56098 8.60226 8.61486 8.63577C8.66874 8.66928 8.71535 8.71324 8.75196 8.76507C8.78856 8.81689 8.81442 8.87552 8.82799 8.9375C8.86699 9.0995 8.84549 9.1815 8.79699 9.2655C8.74799 9.3495 8.64449 9.453 8.42199 9.5315L5.99999 10.1565C5.92718 10.1759 5.8597 10.2115 5.80258 10.2606C5.74546 10.3097 5.70019 10.3712 5.67014 10.4402C5.64008 10.5093 5.62604 10.5843 5.62904 10.6596C5.63205 10.7349 5.65203 10.8085 5.68749 10.875L6.14049 11.703C6.17217 11.7606 6.21493 11.8114 6.26632 11.8524C6.31771 11.8934 6.3767 11.9239 6.43991 11.942C6.50311 11.9601 6.56928 11.9656 6.6346 11.958C6.69991 11.9505 6.76309 11.9301 6.82049 11.898C6.87798 11.8663 6.92864 11.8236 6.96958 11.7723C7.01051 11.721 7.04091 11.6621 7.05903 11.599C7.07715 11.5359 7.08263 11.4699 7.07516 11.4047C7.06768 11.3394 7.04741 11.2764 7.01549 11.219L6.87499 10.969L8.71899 10.484C8.73399 10.4805 8.74999 10.4745 8.76549 10.469C9.15249 10.334 9.46299 10.1035 9.65649 9.7815C9.81449 9.5175 9.87499 9.211 9.84399 8.9065C9.98999 9.0645 10.1775 9.1955 10.3905 9.2815C10.6614 9.3911 10.9586 9.41835 11.2449 9.35983C11.5312 9.30131 11.7938 9.15961 12 8.9525V11.5C12 12.8865 10.8865 14 9.49999 14H6.85949C5.75949 14 4.79299 13.285 4.46899 12.2345L4.09399 10.9845C4.05249 10.8495 3.97049 10.377 4.03099 10.031C4.12499 9.494 4.35949 9.287 4.57799 9.156C4.79699 9.0255 4.95299 9.016 4.95299 9.016H4.98449L8.20299 8.5935C8.21899 8.59 8.23449 8.584 8.24999 8.5785V8.578Z" fill="black"/>
</svg>
