<svg width="48" height="48" viewBox="0 0 48 48" fill="none" xmlns="http://www.w3.org/2000/svg">
<rect width="48" height="48" rx="8" fill="#FFF0FC"/>
<path d="M39.1375 21.9185C39.1365 21.9177 39.1358 21.9167 39.135 21.916L26.0816 8.86304C25.5252 8.3064 24.7854 8 23.9986 8C23.2117 8 22.472 8.3064 21.9153 8.86304L8.86869 21.9094C8.86429 21.9138 8.85965 21.9185 8.8555 21.9229C7.71292 23.072 7.71488 24.9365 8.86112 26.0828C9.3848 26.6067 10.0762 26.9099 10.8157 26.9419C10.846 26.9448 10.8763 26.9463 10.9068 26.9463H11.4268V36.5522C11.4268 38.4534 12.9737 40 14.8748 40H19.9817C20.4995 40 20.9192 39.5801 20.9192 39.0625V31.5312C20.9192 30.6638 21.625 29.9583 22.4925 29.9583H25.5047C26.3721 29.9583 27.0777 30.6638 27.0777 31.5312V39.0625C27.0777 39.5801 27.4973 40 28.0152 40H33.1221C35.0235 40 36.5701 38.4534 36.5701 36.5522V26.9463H37.0525C37.8391 26.9463 38.5789 26.6399 39.1358 26.083C40.2832 24.9351 40.2837 23.0671 39.1375 21.9185V21.9185ZM37.8098 24.7573C37.6075 24.9597 37.3384 25.0713 37.0525 25.0713H35.6326C35.1148 25.0713 34.6951 25.491 34.6951 26.0088V36.5522C34.6951 37.4194 33.9895 38.125 33.1221 38.125H28.9527V31.5312C28.9527 29.6301 27.406 28.0833 25.5047 28.0833H22.4925C20.5911 28.0833 19.0442 29.6301 19.0442 31.5312V38.125H14.8748C14.0076 38.125 13.3018 37.4194 13.3018 36.5522V26.0088C13.3018 25.491 12.8821 25.0713 12.3643 25.0713H10.9688C10.9541 25.0703 10.9397 25.0696 10.9248 25.0693C10.6455 25.0645 10.3836 24.9536 10.1873 24.7571C9.76981 24.3396 9.76981 23.6602 10.1873 23.2424C10.1875 23.2424 10.1875 23.2422 10.1878 23.2419L10.1885 23.2412L23.2415 10.1887C23.4436 9.98633 23.7124 9.875 23.9986 9.875C24.2845 9.875 24.5533 9.98633 24.7556 10.1887L37.8057 23.2385C37.8076 23.2405 37.8098 23.2424 37.8118 23.2444C38.2271 23.6626 38.2263 24.3406 37.8098 24.7573V24.7573Z" fill="#FE98E8"/>
</svg>
