<svg width="32" height="32" viewBox="0 0 32 32" fill="none" xmlns="http://www.w3.org/2000/svg">
<path d="M15.9999 9.59048C12.453 9.59048 9.59053 12.453 9.59053 15.9999C9.59053 19.5467 12.453 22.4092 15.9999 22.4092C19.5468 22.4092 22.4093 19.5467 22.4093 15.9999C22.4093 12.453 19.5468 9.59048 15.9999 9.59048ZM15.9999 20.1655C13.7062 20.1655 11.8343 18.2936 11.8343 15.9999C11.8343 13.7061 13.7062 11.8342 15.9999 11.8342C18.2937 11.8342 20.1655 13.7061 20.1655 15.9999C20.1655 18.2936 18.2937 20.1655 15.9999 20.1655ZM22.6718 7.83423C21.8437 7.83423 21.1749 8.50298 21.1749 9.33111C21.1749 10.1592 21.8437 10.828 22.6718 10.828C23.4999 10.828 24.1687 10.1624 24.1687 9.33111C24.1689 9.13446 24.1304 8.93971 24.0552 8.75798C23.9801 8.57626 23.8698 8.41115 23.7308 8.2721C23.5917 8.13306 23.4266 8.02281 23.2449 7.94767C23.0632 7.87253 22.8684 7.83398 22.6718 7.83423V7.83423ZM28.4937 15.9999C28.4937 14.2749 28.5093 12.5655 28.4124 10.8436C28.3155 8.84361 27.8593 7.06861 26.3968 5.60611C24.9312 4.14048 23.1593 3.68736 21.1593 3.59048C19.4343 3.49361 17.7249 3.50923 16.003 3.50923C14.278 3.50923 12.5687 3.49361 10.8468 3.59048C8.84678 3.68736 7.07178 4.14361 5.60928 5.60611C4.14365 7.07173 3.69053 8.84361 3.59365 10.8436C3.49678 12.5686 3.5124 14.278 3.5124 15.9999C3.5124 17.7217 3.49678 19.4342 3.59365 21.1561C3.69053 23.1561 4.14678 24.9311 5.60928 26.3936C7.0749 27.8592 8.84678 28.3124 10.8468 28.4092C12.5718 28.5061 14.2812 28.4905 16.003 28.4905C17.728 28.4905 19.4374 28.5061 21.1593 28.4092C23.1593 28.3124 24.9343 27.8561 26.3968 26.3936C27.8624 24.928 28.3155 23.1561 28.4124 21.1561C28.5124 19.4342 28.4937 17.7249 28.4937 15.9999V15.9999ZM25.7437 23.3686C25.5155 23.9374 25.2405 24.3624 24.7999 24.7999C24.3593 25.2405 23.9374 25.5155 23.3687 25.7436C21.7249 26.3967 17.8218 26.2499 15.9999 26.2499C14.178 26.2499 10.2718 26.3967 8.62803 25.7467C8.05928 25.5186 7.63428 25.2436 7.19678 24.803C6.75615 24.3624 6.48115 23.9405 6.25303 23.3717C5.60303 21.7249 5.7499 17.8217 5.7499 15.9999C5.7499 14.178 5.60303 10.2717 6.25303 8.62798C6.48115 8.05923 6.75615 7.63423 7.19678 7.19673C7.6374 6.75923 8.05928 6.48111 8.62803 6.25298C10.2718 5.60298 14.178 5.74986 15.9999 5.74986C17.8218 5.74986 21.728 5.60298 23.3718 6.25298C23.9405 6.48111 24.3655 6.75611 24.803 7.19673C25.2437 7.63736 25.5187 8.05923 25.7468 8.62798C26.3968 10.2717 26.2499 14.178 26.2499 15.9999C26.2499 17.8217 26.3968 21.7249 25.7437 23.3686Z" fill="black"/>
</svg>
