<svg width="48" height="48" viewBox="0 0 48 48" fill="none" xmlns="http://www.w3.org/2000/svg">
<rect width="48" height="48" rx="8" fill="#EEF2FD"/>
<path d="M17.1387 21.7353C16.734 21.3596 16.1013 21.383 15.7255 21.7877C15.3497 22.1925 15.3731 22.8252 15.7779 23.201L17.1387 21.7353ZM21.7813 27.4106L21.1008 28.1434C21.4845 28.4996 22.078 28.4996 22.4617 28.1434L21.7813 27.4106ZM31.3032 19.934C31.708 19.5582 31.7314 18.9254 31.3556 18.5207C30.9798 18.116 30.3471 18.0925 29.9424 18.4683L31.3032 19.934ZM8.0001 28C8.00013 28.6643 8.31372 29.3321 8.67081 29.9055C9.04747 30.5104 9.56817 31.1584 10.1681 31.8151C11.3707 33.1314 12.975 34.5728 14.6219 35.9029C16.2713 37.2352 17.99 38.4772 19.4339 39.3917C20.1543 39.8479 20.822 40.2327 21.388 40.5072C21.6707 40.6442 21.943 40.7612 22.1939 40.8458C22.4293 40.9251 22.7142 41 23.0001 41L23.0001 39C23.036 39 22.9928 39.0045 22.8327 38.9505C22.6881 38.9018 22.4976 38.8225 22.2607 38.7076C21.7877 38.4782 21.1898 38.1364 20.504 37.702C19.1354 36.8353 17.4791 35.6398 15.8785 34.347C14.2754 33.0522 12.7547 31.681 11.6447 30.4661C11.0884 29.8572 10.6559 29.3099 10.3685 28.8483C10.0615 28.3553 10.0001 28.0856 10.0001 27.9999L8.0001 28ZM23.0001 41C23.286 41 23.5709 40.9251 23.8063 40.8458C24.0572 40.7612 24.3296 40.6443 24.6122 40.5072C25.1782 40.2327 25.8459 39.8479 26.5664 39.3917C28.0102 38.4772 29.7289 37.2352 31.3784 35.9029C33.0252 34.5728 34.6295 33.1314 35.832 31.8151C36.432 31.1584 36.9527 30.5104 37.3293 29.9056C37.6864 29.3321 38 28.6643 38 28H36C36 28.0857 35.9386 28.3554 35.6316 28.8484C35.3442 29.3099 34.9118 29.8572 34.3555 30.4661C33.2455 31.6811 31.7248 33.0522 30.1217 34.3471C28.5211 35.6398 26.8648 36.8353 25.4962 37.702C24.8104 38.1364 24.2125 38.4782 23.7395 38.7076C23.5026 38.8225 23.3121 38.9018 23.1675 38.9505C23.0074 39.0045 22.9642 39 23.0001 39L23.0001 41ZM38 28C38 27.996 38 27.9919 38 27.9878C38 27.9837 38 27.9796 38 27.9755C38 27.9713 38 27.9672 38 27.963C38 27.9588 38 27.9546 38 27.9503C38 27.9461 38 27.9418 38 27.9375C38 27.9333 38 27.9289 38 27.9246C38 27.9203 38 27.9159 38 27.9115C38 27.9071 38 27.9027 38 27.8983C38 27.8938 38 27.8894 38 27.8849C38 27.8804 38 27.8759 38 27.8713C38 27.8668 38 27.8622 38 27.8577C38 27.8531 38 27.8485 38 27.8438C38 27.8392 38 27.8345 38 27.8298C38 27.8252 38 27.8205 38 27.8157C38 27.811 38 27.8062 38 27.8015C38 27.7967 38 27.7919 38 27.787C38 27.7822 38 27.7774 38 27.7725C38 27.7676 38 27.7627 38 27.7578C38 27.7528 38 27.7479 38 27.7429C38 27.7379 38 27.733 38 27.7279C38 27.7229 38 27.7179 38 27.7128C38 27.7077 38 27.7026 38 27.6975C38 27.6924 38 27.6873 38 27.6821C38 27.6769 38 27.6717 38 27.6665C38 27.6613 38 27.6561 38 27.6508C38 27.6456 38 27.6403 38 27.635C38 27.6297 38 27.6243 38 27.619C38 27.6136 38 27.6083 38 27.6029C38 27.5975 38 27.5921 38 27.5866C38 27.5812 38 27.5757 38 27.5702C38 27.5647 38 27.5592 38 27.5537C38 27.5481 38 27.5426 38 27.537C38 27.5314 38 27.5258 38 27.5202C38 27.5145 38 27.5089 38 27.5032C38 27.4975 38 27.4918 38 27.4861C38 27.4804 38 27.4747 38 27.4689C38 27.4631 38 27.4573 38 27.4515C38 27.4457 38 27.4399 38 27.434C38 27.4282 38 27.4223 38 27.4164C38 27.4105 38 27.4046 38 27.3986C38 27.3927 38 27.3867 38 27.3807C38 27.3747 38 27.3687 38 27.3627C38 27.3567 38 27.3506 38 27.3445C38 27.3384 38 27.3323 38 27.3262C38 27.3201 38 27.314 38 27.3078C38 27.3016 38 27.2954 38 27.2892C38 27.283 38 27.2768 38 27.2705C38 27.2643 38 27.258 38 27.2517C38 27.2454 38 27.2391 38 27.2327C38 27.2264 38 27.22 38 27.2136C38 27.2073 38 27.2009 38 27.1944C38 27.188 38 27.1816 38 27.1751C38 27.1686 38 27.1621 38 27.1556C38 27.1491 38 27.1426 38 27.136C38 27.1295 38 27.1229 38 27.1163C38 27.1097 38 27.1031 38 27.0964C38 27.0898 38 27.0831 38 27.0764C38 27.0697 38 27.063 38 27.0563C38 27.0496 38 27.0429 38 27.0361C38 27.0293 38 27.0225 38 27.0157C38 27.0089 38 27.0021 38 26.9952C38 26.9884 38 26.9815 38 26.9746C38 26.9677 38 26.9608 38 26.9539C38 26.947 38 26.94 38 26.933C38 26.9261 38 26.9191 38 26.912C38 26.905 38 26.898 38 26.8909C38 26.8839 38 26.8768 38 26.8697C38 26.8626 38 26.8555 38 26.8484C38 26.8412 38 26.8341 38 26.8269C38 26.8197 38 26.8125 38 26.8053C38 26.7981 38 26.7908 38 26.7836C38 26.7763 38 26.7691 38 26.7618C38 26.7545 38 26.7471 38 26.7398C38 26.7325 38 26.7251 38 26.7177C38 26.7104 38 26.703 38 26.6955C38 26.6881 38 26.6807 38 26.6732C38 26.6658 38 26.6583 38 26.6508C38 26.6433 38 26.6358 38 26.6283C38 26.6207 38 26.6132 38 26.6056C38 26.598 38 26.5905 38 26.5828C38 26.5752 38 26.5676 38 26.56C38 26.5523 38 26.5446 38 26.5369C38 26.5293 38 26.5215 38 26.5138C38 26.5061 38 26.4984 38 26.4906C38 26.4828 38 26.475 38 26.4672C38 26.4594 38 26.4516 38 26.4438C38 26.4359 38 26.4281 38 26.4202C38 26.4123 38 26.4044 38 26.3965C38 26.3886 38 26.3807 38 26.3727C38 26.3648 38 26.3568 38 26.3488C38 26.3408 38 26.3328 38 26.3248C38 26.3167 38 26.3087 38 26.3006C38 26.2926 38 26.2845 38 26.2764C38 26.2683 38 26.2602 38 26.252C38 26.2439 38 26.2357 38 26.2276C38 26.2194 38 26.2112 38 26.203C38 26.1948 38 26.1866 38 26.1783C38 26.1701 38 26.1618 38 26.1535C38 26.1452 38 26.1369 38 26.1286C38 26.1203 38 26.112 38 26.1036C38 26.0953 38 26.0869 38 26.0785C38 26.0701 38 26.0617 38 26.0533C38 26.0449 38 26.0364 38 26.028C38 26.0195 38 26.011 38 26.0025C38 25.994 38 25.9855 38 25.977C38 25.9685 38 25.9599 38 25.9513C38 25.9428 38 25.9342 38 25.9256C38 25.917 38 25.9084 38 25.8998C38 25.8911 38 25.8825 38 25.8738C38 25.8651 38 25.8565 38 25.8478C38 25.839 38 25.8303 38 25.8216C38 25.8129 38 25.8041 38 25.7953C38 25.7866 38 25.7778 38 25.769C38 25.7602 38 25.7514 38 25.7425C38 25.7337 38 25.7248 38 25.716C38 25.7071 38 25.6982 38 25.6893C38 25.6804 38 25.6715 38 25.6625C38 25.6536 38 25.6446 38 25.6357C38 25.6267 38 25.6177 38 25.6087C38 25.5997 38 25.5907 38 25.5817C38 25.5726 38 25.5636 38 25.5545C38 25.5454 38 25.5364 38 25.5273C38 25.5182 38 25.509 38 25.4999C38 25.4908 38 25.4816 38 25.4725C38 25.4633 38 25.4541 38 25.4449C38 25.4357 38 25.4265 38 25.4173C38 25.4081 38 25.3988 38 25.3896C38 25.3803 38 25.371 38 25.3617C38 25.3524 38 25.3431 38 25.3338C38 25.3245 38 25.3152 38 25.3058C38 25.2964 38 25.2871 38 25.2777C38 25.2683 38 25.2589 38 25.2495C38 25.2401 38 25.2306 38 25.2212C38 25.2118 38 25.2023 38 25.1928C38 25.1833 38 25.1739 38 25.1643C38 25.1548 38 25.1453 38 25.1358C38 25.1262 38 25.1167 38 25.1071C38 25.0976 38 25.088 38 25.0784C38 25.0688 38 25.0592 38 25.0495C38 25.0399 38 25.0303 38 25.0206C38 25.011 38 25.0013 38 24.9916C38 24.9819 38 24.9722 38 24.9625C38 24.9528 38 24.9431 38 24.9333C38 24.9236 38 24.9138 38 24.904C38 24.8943 38 24.8845 38 24.8747C38 24.8649 38 24.8551 38 24.8452C38 24.8354 38 24.8255 38 24.8157C38 24.8058 38 24.796 38 24.7861C38 24.7762 38 24.7663 38 24.7564C38 24.7464 38 24.7365 38 24.7266C38 24.7166 38 24.7067 38 24.6967C38 24.6867 38 24.6767 38 24.6667C38 24.6567 38 24.6467 38 24.6367C38 24.6267 38 24.6166 38 24.6066C38 24.5965 38 24.5864 38 24.5764C38 24.5663 38 24.5562 38 24.5461C38 24.536 38 24.5258 38 24.5157C38 24.5056 38 24.4954 38 24.4852C38 24.4751 38 24.4649 38 24.4547C38 24.4445 38 24.4343 38 24.4241C38 24.4139 38 24.4037 38 24.3934C38 24.3832 38 24.3729 38 24.3626C38 24.3524 38 24.3421 38 24.3318C38 24.3215 38 24.3112 38 24.3009C38 24.2905 38 24.2802 38 24.2699C38 24.2595 38 24.2491 38 24.2388C38 24.2284 38 24.218 38 24.2076C38 24.1972 38 24.1868 38 24.1764C38 24.166 38 24.1555 38 24.1451C38 24.1346 38 24.1242 38 24.1137C38 24.1032 38 24.0927 38 24.0822C38 24.0717 38 24.0612 38 24.0507C38 24.0402 38 24.0296 38 24.0191C38 24.0085 38 23.998 38 23.9874C38 23.9768 38 23.9662 38 23.9556C38 23.945 38 23.9344 38 23.9238C38 23.9132 38 23.9025 38 23.8919C38 23.8812 38 23.8706 38 23.8599C38 23.8492 38 23.8386 38 23.8279C38 23.8172 38 23.8065 38 23.7957C38 23.785 38 23.7743 38 23.7636C38 23.7528 38 23.7421 38 23.7313C38 23.7205 38 23.7098 38 23.699C38 23.6882 38 23.6774 38 23.6666C38 23.6558 38 23.6449 38 23.6341C38 23.6233 38 23.6124 38 23.6016C38 23.5907 38 23.5799 38 23.569C38 23.5581 38 23.5472 38 23.5363C38 23.5254 38 23.5145 38 23.5036C38 23.4926 38 23.4817 38 23.4708C38 23.4598 38 23.4489 38 23.4379C38 23.4269 38 23.416 38 23.405C38 23.394 38 23.383 38 23.372C38 23.361 38 23.3499 38 23.3389C38 23.3279 38 23.3168 38 23.3058C38 23.2947 38 23.2837 38 23.2726C38 23.2615 38 23.2504 38 23.2393C38 23.2282 38 23.2171 38 23.206C38 23.1949 38 23.1838 38 23.1726C38 23.1615 38 23.1503 38 23.1392C38 23.128 38 23.1169 38 23.1057C38 23.0945 38 23.0833 38 23.0721C38 23.0609 38 23.0497 38 23.0385C38 23.0273 38 23.016 38 23.0048C38 22.9936 38 22.9823 38 22.9711C38 22.9598 38 22.9485 38 22.9373C38 22.926 38 22.9147 38 22.9034C38 22.8921 38 22.8808 38 22.8695C38 22.8582 38 22.8468 38 22.8355C38 22.8242 38 22.8128 38 22.8015C38 22.7901 38 22.7787 38 22.7674C38 22.756 38 22.7446 38 22.7332C38 22.7218 38 22.7104 38 22.699C38 22.6876 38 22.6762 38 22.6647C38 22.6533 38 22.6419 38 22.6304C38 22.619 38 22.6075 38 22.5961C38 22.5846 38 22.5731 38 22.5616C38 22.5501 38 22.5387 38 22.5271C38 22.5156 38 22.5041 38 22.4926C38 22.4811 38 22.4696 38 22.458C38 22.4465 38 22.4349 38 22.4234C38 22.4118 38 22.4003 38 22.3887C38 22.3771 38 22.3656 38 22.354C38 22.3424 38 22.3308 38 22.3192C38 22.3076 38 22.2959 38 22.2843C38 22.2727 38 22.2611 38 22.2494C38 22.2378 38 22.2261 38 22.2145C38 22.2028 38 22.1912 38 22.1795C38 22.1678 38 22.1561 38 22.1445C38 22.1328 38 22.1211 38 22.1094C38 22.0977 38 22.086 38 22.0742C38 22.0625 38 22.0508 38 22.039C38 22.0273 38 22.0156 38 22.0038C38 21.9921 38 21.9803 38 21.9685C38 21.9568 38 21.945 38 21.9332C38 21.9214 38 21.9096 38 21.8978C38 21.886 38 21.8742 38 21.8624C38 21.8506 38 21.8388 38 21.827C38 21.8151 38 21.8033 38 21.7915C38 21.7796 38 21.7678 38 21.7559C38 21.7441 38 21.7322 38 21.7203C38 21.7085 38 21.6966 38 21.6847C38 21.6728 38 21.6609 38 21.649C38 21.6371 38 21.6252 38 21.6133C38 21.6014 38 21.5895 38 21.5775C38 21.5656 38 21.5537 38 21.5417C38 21.5298 38 21.5179 38 21.5059C38 21.4939 38 21.482 38 21.47C38 21.4581 38 21.4461 38 21.4341C38 21.4221 38 21.4101 38 21.3981C38 21.3861 38 21.3741 38 21.3621C38 21.3501 38 21.3381 38 21.3261C38 21.3141 38 21.3021 38 21.29C38 21.278 38 21.266 38 21.2539C38 21.2419 38 21.2298 38 21.2178C38 21.2057 38 21.1936 38 21.1816C38 21.1695 38 21.1574 38 21.1454C38 21.1333 38 21.1212 38 21.1091C38 21.097 38 21.0849 38 21.0728C38 21.0607 38 21.0486 38 21.0365C38 21.0244 38 21.0122 38 21.0001C38 20.988 38 20.9759 38 20.9637C38 20.9516 38 20.9394 38 20.9273C38 20.9151 38 20.903 38 20.8908C38 20.8787 38 20.8665 38 20.8543C38 20.8422 38 20.83 38 20.8178C38 20.8056 38 20.7934 38 20.7812C38 20.7691 38 20.7569 38 20.7447C38 20.7325 38 20.7203 38 20.708C38 20.6958 38 20.6836 38 20.6714C38 20.6592 38 20.6469 38 20.6347C38 20.6225 38 20.6102 38 20.598C38 20.5858 38 20.5735 38 20.5613C38 20.549 38 20.5368 38 20.5245C38 20.5122 38 20.5 38 20.4877C38 20.4754 38 20.4632 38 20.4509C38 20.4386 38 20.4263 38 20.414C38 20.4017 38 20.3895 38 20.3772C38 20.3649 38 20.3526 38 20.3403C38 20.328 38 20.3156 38 20.3033C38 20.291 38 20.2787 38 20.2664C38 20.2541 38 20.2417 38 20.2294C38 20.2171 38 20.2047 38 20.1924C38 20.1801 38 20.1677 38 20.1554C38 20.143 38 20.1307 38 20.1183C38 20.106 38 20.0936 38 20.0813C38 20.0689 38 20.0565 38 20.0442C38 20.0318 38 20.0194 38 20.007C38 19.9947 38 19.9823 38 19.9699C38 19.9575 38 19.9451 38 19.9328C38 19.9204 38 19.908 38 19.8956C38 19.8832 38 19.8708 38 19.8584C38 19.846 38 19.8336 38 19.8212C38 19.8087 38 19.7963 38 19.7839C38 19.7715 38 19.7591 38 19.7467C38 19.7342 38 19.7218 38 19.7094C38 19.697 38 19.6845 38 19.6721C38 19.6597 38 19.6472 38 19.6348C38 19.6223 38 19.6099 38 19.5974C38 19.585 38 19.5726 38 19.5601C38 19.5477 38 19.5352 38 19.5227C38 19.5103 38 19.4978 38 19.4854C38 19.4729 38 19.4604 38 19.448C38 19.4355 38 19.423 38 19.4106C38 19.3981 38 19.3856 38 19.3731C38 19.3607 38 19.3482 38 19.3357C38 19.3232 38 19.3108 38 19.2983C38 19.2858 38 19.2733 38 19.2608C38 19.2483 38 19.2358 38 19.2233C38 19.2108 38 19.1983 38 19.1858C38 19.1733 38 19.1609 38 19.1483C38 19.1358 38 19.1233 38 19.1108C38 19.0983 38 19.0858 38 19.0733C38 19.0608 38 19.0483 38 19.0358C38 19.0233 38 19.0108 38 18.9983C38 18.9857 38 18.9732 38 18.9607C38 18.9482 38 18.9357 38 18.9231C38 18.9106 38 18.8981 38 18.8856C38 18.8731 38 18.8605 38 18.848C38 18.8355 38 18.823 38 18.8104C38 18.7979 38 18.7854 38 18.7728C38 18.7603 38 18.7478 38 18.7352C38 18.7227 38 18.7102 38 18.6976C38 18.6851 38 18.6726 38 18.66C38 18.6475 38 18.635 38 18.6224C38 18.6099 38 18.5974 38 18.5848C38 18.5723 38 18.5597 38 18.5472C38 18.5346 38 18.5221 38 18.5096C38 18.497 38 18.4845 38 18.4719C38 18.4594 38 18.4469 38 18.4343C38 18.4218 38 18.4092 38 18.3967C38 18.3841 38 18.3716 38 18.359C38 18.3465 38 18.3339 38 18.3214C38 18.3089 38 18.2963 38 18.2838C38 18.2712 38 18.2587 38 18.2461C38 18.2336 38 18.221 38 18.2085C38 18.1959 38 18.1834 38 18.1708C38 18.1583 38 18.1458 38 18.1332C38 18.1207 38 18.1081 38 18.0956C38 18.083 38 18.0705 38 18.0579C38 18.0454 38 18.0328 38 18.0203C38 18.0078 38 17.9952 38 17.9827C38 17.9701 38 17.9576 38 17.945C38 17.9325 38 17.92 38 17.9074C38 17.8949 38 17.8823 38 17.8698C38 17.8573 38 17.8447 38 17.8322C38 17.8196 38 17.8071 38 17.7946C38 17.782 38 17.7695 38 17.757C38 17.7444 38 17.7319 38 17.7194C38 17.7068 38 17.6943 38 17.6818C38 17.6692 38 17.6567 38 17.6442C38 17.6316 38 17.6191 38 17.6066C38 17.5941 38 17.5815 38 17.569C38 17.5565 38 17.544 38 17.5314C38 17.5189 38 17.5064 38 17.4939C38 17.4814 38 17.4689 38 17.4563C38 17.4438 38 17.4313 38 17.4188C38 17.4063 38 17.3938 38 17.3813C38 17.3688 38 17.3563 38 17.3437C38 17.3312 38 17.3187 38 17.3062C38 17.2937 38 17.2812 38 17.2687C38 17.2562 38 17.2437 38 17.2313C38 17.2188 38 17.2063 38 17.1938C38 17.1813 38 17.1688 38 17.1563C38 17.1438 38 17.1313 38 17.1189C38 17.1064 38 17.0939 38 17.0814C38 17.0689 38 17.0565 38 17.044C38 17.0315 38 17.0191 38 17.0066C38 16.9941 38 16.9817 38 16.9692C38 16.9567 38 16.9443 38 16.9318C38 16.9194 38 16.9069 38 16.8945C38 16.882 38 16.8696 38 16.8571C38 16.8447 38 16.8322 38 16.8198C38 16.8073 38 16.7949 38 16.7825C38 16.77 38 16.7576 38 16.7452C38 16.7327 38 16.7203 38 16.7079C38 16.6955 38 16.6831 38 16.6706C38 16.6582 38 16.6458 38 16.6334C38 16.621 38 16.6086 38 16.5962C38 16.5838 38 16.5714 38 16.559C38 16.5466 38 16.5342 38 16.5218C38 16.5094 38 16.497 38 16.4846C38 16.4722 38 16.4599 38 16.4475C38 16.4351 38 16.4227 38 16.4104C38 16.398 38 16.3856 38 16.3733C38 16.3609 38 16.3486 38 16.3362C38 16.3238 38 16.3115 38 16.2991C38 16.2868 38 16.2745 38 16.2621C38 16.2498 38 16.2374 38 16.2251C38 16.2128 38 16.2005 38 16.1881C38 16.1758 38 16.1635 38 16.1512C38 16.1389 38 16.1266 38 16.1142C38 16.1019 38 16.0896 38 16.0773C38 16.065 38 16.0528 38 16.0405C38 16.0282 38 16.0159 38 16.0036C38 15.9913 38 15.9791 38 15.9668C38 15.9545 38 15.9423 38 15.93C38 15.9177 38 15.9055 38 15.8932C38 15.881 38 15.8687 38 15.8565C38 15.8442 38 15.832 38 15.8198C38 15.8075 38 15.7953 38 15.7831C38 15.7709 38 15.7586 38 15.7464C38 15.7342 38 15.722 38 15.7098C38 15.6976 38 15.6854 38 15.6732C38 15.661 38 15.6488 38 15.6366C38 15.6245 38 15.6123 38 15.6001C38 15.5879 38 15.5758 38 15.5636C38 15.5515 38 15.5393 38 15.5272C38 15.515 38 15.5029 38 15.4907C38 15.4786 38 15.4664 38 15.4543C38 15.4422 38 15.4301 38 15.418C38 15.4058 38 15.3937 38 15.3816C38 15.3695 38 15.3574 38 15.3453C38 15.3332 38 15.3211 38 15.3091C38 15.297 38 15.2849 38 15.2728C38 15.2608 38 15.2487 38 15.2366C38 15.2246 38 15.2125 38 15.2005C38 15.1884 38 15.1764 38 15.1644C38 15.1523 38 15.1403 38 15.1283C38 15.1163 38 15.1043 38 15.0922C38 15.0802 38 15.0682 38 15.0562C38 15.0442 38 15.0323 38 15.0203C38 15.0083 38 14.9963 38 14.9844C38 14.9724 38 14.9604 38 14.9485C38 14.9365 38 14.9246 38 14.9126C38 14.9007 38 14.8887 38 14.8768C38 14.8649 38 14.853 38 14.841C38 14.8291 38 14.8172 38 14.8053C38 14.7934 38 14.7815 38 14.7696C38 14.7578 38 14.7459 38 14.734C38 14.7221 38 14.7103 38 14.6984C38 14.6865 38 14.6747 38 14.6629C38 14.651 38 14.6392 38 14.6273C38 14.6155 38 14.6037 38 14.5919C38 14.5801 38 14.5683 38 14.5565C38 14.5447 38 14.5329 38 14.5211C38 14.5093 38 14.4975 38 14.4858C38 14.474 38 14.4622 38 14.4505C38 14.4387 38 14.427 38 14.4152C38 14.4035 38 14.3918 38 14.38C38 14.3683 38 14.3566 38 14.3449C38 14.3332 38 14.3215 38 14.3098C38 14.2981 38 14.2864 38 14.2748C38 14.2631 38 14.2514 38 14.2398C38 14.2281 38 14.2164 38 14.2048C38 14.1932 38 14.1815 38 14.1699C38 14.1583 38 14.1467 38 14.1351C38 14.1234 38 14.1118 38 14.1003C38 14.0887 38 14.0771 38 14.0655C38 14.0539 38 14.0424 38 14.0308C38 14.0193 38 14.0077 38 13.9962C38 13.9846 38 13.9731 38 13.9616C38 13.9501 38 13.9385 38 13.927C38 13.9155 38 13.904 38 13.8925C38 13.8811 38 13.8696 38 13.8581C38 13.8466 38 13.8352 38 13.8237C38 13.8123 38 13.8008 38 13.7894C38 13.778 38 13.7666 38 13.7551C38 13.7437 38 13.7323 38 13.7209C38 13.7095 38 13.6981 38 13.6868C38 13.6754 38 13.664 38 13.6527C38 13.6413 38 13.63 38 13.6186C38 13.6073 38 13.596 38 13.5846C38 13.5733 38 13.562 38 13.5507C38 13.5394 38 13.5281 38 13.5168C38 13.5056 38 13.4943 38 13.483C38 13.4718 38 13.4605 38 13.4493C38 13.438 38 13.4268 38 13.4156C38 13.4044 38 13.3931 38 13.3819C38 13.3707 38 13.3596 38 13.3484C38 13.3372 38 13.326 38 13.3149C38 13.3037 38 13.2925 38 13.2814C38 13.2703 38 13.2591 38 13.248C38 13.2369 38 13.2258 38 13.2147C38 13.2036 38 13.1925 38 13.1814C38 13.1704 38 13.1593 38 13.1482C38 13.1372 38 13.1261 38 13.1151C38 13.1041 38 13.093 38 13.082C38 13.071 38 13.06 38 13.049C38 13.038 38 13.027 38 13.0161C38 13.0051 38 12.9941 38 12.9832C38 12.9722 38 12.9613 38 12.9504C38 12.9395 38 12.9285 38 12.9176C38 12.9067 38 12.8958 38 12.885C38 12.8741 38 12.8632 38 12.8523C38 12.8415 38 12.8306 38 12.8198C38 12.809 38 12.7981 38 12.7873C38 12.7765 38 12.7657 38 12.7549C38 12.7441 38 12.7333 38 12.7226C38 12.7118 38 12.7011 38 12.6903C38 12.6796 38 12.6688 38 12.6581C38 12.6474 38 12.6367 38 12.626C38 12.6153 38 12.6046 38 12.5939C38 12.5833 38 12.5726 38 12.5619C38 12.5513 38 12.5407 38 12.53C38 12.5194 38 12.5088 38 12.4982C38 12.4876 38 12.477 38 12.4664C38 12.4558 38 12.4453 38 12.4347C38 12.4242 38 12.4136 38 12.4031C38 12.3926 38 12.3821 38 12.3716C38 12.3611 38 12.3506 38 12.3401C38 12.3296 38 12.3191 38 12.3087C38 12.2982 38 12.2878 38 12.2774C38 12.2669 38 12.2565 38 12.2461C38 12.2357 38 12.2253 38 12.215C38 12.2046 38 12.1942 38 12.1839C38 12.1735 38 12.1632 38 12.1528C38 12.1425 38 12.1322 38 12.1219C38 12.1116 38 12.1013 38 12.091C38 12.0808 38 12.0705 38 12.0603C38 12.05 38 12.0398 38 12.0296C38 12.0193 38 12.0091 38 11.9989H36C36 12.0091 36 12.0193 36 12.0296C36 12.0398 36 12.05 36 12.0603C36 12.0705 36 12.0808 36 12.091C36 12.1013 36 12.1116 36 12.1219C36 12.1322 36 12.1425 36 12.1528C36 12.1632 36 12.1735 36 12.1839C36 12.1942 36 12.2046 36 12.215C36 12.2253 36 12.2357 36 12.2461C36 12.2565 36 12.2669 36 12.2774C36 12.2878 36 12.2982 36 12.3087C36 12.3191 36 12.3296 36 12.3401C36 12.3506 36 12.3611 36 12.3716C36 12.3821 36 12.3926 36 12.4031C36 12.4136 36 12.4242 36 12.4347C36 12.4453 36 12.4558 36 12.4664C36 12.477 36 12.4876 36 12.4982C36 12.5088 36 12.5194 36 12.53C36 12.5407 36 12.5513 36 12.5619C36 12.5726 36 12.5833 36 12.5939C36 12.6046 36 12.6153 36 12.626C36 12.6367 36 12.6474 36 12.6581C36 12.6688 36 12.6796 36 12.6903C36 12.7011 36 12.7118 36 12.7226C36 12.7333 36 12.7441 36 12.7549C36 12.7657 36 12.7765 36 12.7873C36 12.7981 36 12.809 36 12.8198C36 12.8306 36 12.8415 36 12.8523C36 12.8632 36 12.8741 36 12.885C36 12.8958 36 12.9067 36 12.9176C36 12.9285 36 12.9395 36 12.9504C36 12.9613 36 12.9722 36 12.9832C36 12.9941 36 13.0051 36 13.0161C36 13.027 36 13.038 36 13.049C36 13.06 36 13.071 36 13.082C36 13.093 36 13.1041 36 13.1151C36 13.1261 36 13.1372 36 13.1482C36 13.1593 36 13.1704 36 13.1814C36 13.1925 36 13.2036 36 13.2147C36 13.2258 36 13.2369 36 13.248C36 13.2591 36 13.2703 36 13.2814C36 13.2925 36 13.3037 36 13.3149C36 13.326 36 13.3372 36 13.3484C36 13.3596 36 13.3707 36 13.3819C36 13.3931 36 13.4044 36 13.4156C36 13.4268 36 13.438 36 13.4493C36 13.4605 36 13.4718 36 13.483C36 13.4943 36 13.5056 36 13.5168C36 13.5281 36 13.5394 36 13.5507C36 13.562 36 13.5733 36 13.5846C36 13.596 36 13.6073 36 13.6186C36 13.63 36 13.6413 36 13.6527C36 13.664 36 13.6754 36 13.6868C36 13.6981 36 13.7095 36 13.7209C36 13.7323 36 13.7437 36 13.7551C36 13.7666 36 13.778 36 13.7894C36 13.8008 36 13.8123 36 13.8237C36 13.8352 36 13.8466 36 13.8581C36 13.8696 36 13.8811 36 13.8925C36 13.904 36 13.9155 36 13.927C36 13.9385 36 13.9501 36 13.9616C36 13.9731 36 13.9846 36 13.9962C36 14.0077 36 14.0193 36 14.0308C36 14.0424 36 14.0539 36 14.0655C36 14.0771 36 14.0887 36 14.1003C36 14.1118 36 14.1234 36 14.1351C36 14.1467 36 14.1583 36 14.1699C36 14.1815 36 14.1932 36 14.2048C36 14.2164 36 14.2281 36 14.2398C36 14.2514 36 14.2631 36 14.2748C36 14.2864 36 14.2981 36 14.3098C36 14.3215 36 14.3332 36 14.3449C36 14.3566 36 14.3683 36 14.38C36 14.3918 36 14.4035 36 14.4152C36 14.427 36 14.4387 36 14.4505C36 14.4622 36 14.474 36 14.4858C36 14.4975 36 14.5093 36 14.5211C36 14.5329 36 14.5447 36 14.5565C36 14.5683 36 14.5801 36 14.5919C36 14.6037 36 14.6155 36 14.6273C36 14.6392 36 14.651 36 14.6629C36 14.6747 36 14.6865 36 14.6984C36 14.7103 36 14.7221 36 14.734C36 14.7459 36 14.7578 36 14.7696C36 14.7815 36 14.7934 36 14.8053C36 14.8172 36 14.8291 36 14.841C36 14.853 36 14.8649 36 14.8768C36 14.8887 36 14.9007 36 14.9126C36 14.9246 36 14.9365 36 14.9485C36 14.9604 36 14.9724 36 14.9844C36 14.9963 36 15.0083 36 15.0203C36 15.0323 36 15.0442 36 15.0562C36 15.0682 36 15.0802 36 15.0922C36 15.1043 36 15.1163 36 15.1283C36 15.1403 36 15.1523 36 15.1644C36 15.1764 36 15.1884 36 15.2005C36 15.2125 36 15.2246 36 15.2366C36 15.2487 36 15.2608 36 15.2728C36 15.2849 36 15.297 36 15.3091C36 15.3211 36 15.3332 36 15.3453C36 15.3574 36 15.3695 36 15.3816C36 15.3937 36 15.4058 36 15.418C36 15.4301 36 15.4422 36 15.4543C36 15.4664 36 15.4786 36 15.4907C36 15.5029 36 15.515 36 15.5272C36 15.5393 36 15.5515 36 15.5636C36 15.5758 36 15.5879 36 15.6001C36 15.6123 36 15.6245 36 15.6366C36 15.6488 36 15.661 36 15.6732C36 15.6854 36 15.6976 36 15.7098C36 15.722 36 15.7342 36 15.7464C36 15.7586 36 15.7709 36 15.7831C36 15.7953 36 15.8075 36 15.8198C36 15.832 36 15.8442 36 15.8565C36 15.8687 36 15.881 36 15.8932C36 15.9055 36 15.9177 36 15.93C36 15.9423 36 15.9545 36 15.9668C36 15.9791 36 15.9913 36 16.0036C36 16.0159 36 16.0282 36 16.0405C36 16.0528 36 16.065 36 16.0773C36 16.0896 36 16.1019 36 16.1142C36 16.1266 36 16.1389 36 16.1512C36 16.1635 36 16.1758 36 16.1881C36 16.2005 36 16.2128 36 16.2251C36 16.2374 36 16.2498 36 16.2621C36 16.2745 36 16.2868 36 16.2991C36 16.3115 36 16.3238 36 16.3362C36 16.3486 36 16.3609 36 16.3733C36 16.3856 36 16.398 36 16.4104C36 16.4227 36 16.4351 36 16.4475C36 16.4599 36 16.4722 36 16.4846C36 16.497 36 16.5094 36 16.5218C36 16.5342 36 16.5466 36 16.559C36 16.5714 36 16.5838 36 16.5962C36 16.6086 36 16.621 36 16.6334C36 16.6458 36 16.6582 36 16.6706C36 16.6831 36 16.6955 36 16.7079C36 16.7203 36 16.7327 36 16.7452C36 16.7576 36 16.77 36 16.7825C36 16.7949 36 16.8073 36 16.8198C36 16.8322 36 16.8447 36 16.8571C36 16.8696 36 16.882 36 16.8945C36 16.9069 36 16.9194 36 16.9318C36 16.9443 36 16.9567 36 16.9692C36 16.9817 36 16.9941 36 17.0066C36 17.0191 36 17.0315 36 17.044C36 17.0565 36 17.0689 36 17.0814C36 17.0939 36 17.1064 36 17.1189C36 17.1313 36 17.1438 36 17.1563C36 17.1688 36 17.1813 36 17.1938C36 17.2063 36 17.2188 36 17.2313C36 17.2437 36 17.2562 36 17.2687C36 17.2812 36 17.2937 36 17.3062C36 17.3187 36 17.3312 36 17.3437C36 17.3563 36 17.3688 36 17.3813C36 17.3938 36 17.4063 36 17.4188C36 17.4313 36 17.4438 36 17.4563C36 17.4689 36 17.4814 36 17.4939C36 17.5064 36 17.5189 36 17.5314C36 17.544 36 17.5565 36 17.569C36 17.5815 36 17.5941 36 17.6066C36 17.6191 36 17.6316 36 17.6442C36 17.6567 36 17.6692 36 17.6818C36 17.6943 36 17.7068 36 17.7194C36 17.7319 36 17.7444 36 17.757C36 17.7695 36 17.782 36 17.7946C36 17.8071 36 17.8196 36 17.8322C36 17.8447 36 17.8573 36 17.8698C36 17.8823 36 17.8949 36 17.9074C36 17.92 36 17.9325 36 17.945C36 17.9576 36 17.9701 36 17.9827C36 17.9952 36 18.0078 36 18.0203C36 18.0328 36 18.0454 36 18.0579C36 18.0705 36 18.083 36 18.0956C36 18.1081 36 18.1207 36 18.1332C36 18.1458 36 18.1583 36 18.1708C36 18.1834 36 18.1959 36 18.2085C36 18.221 36 18.2336 36 18.2461C36 18.2587 36 18.2712 36 18.2838C36 18.2963 36 18.3089 36 18.3214C36 18.3339 36 18.3465 36 18.359C36 18.3716 36 18.3841 36 18.3967C36 18.4092 36 18.4218 36 18.4343C36 18.4469 36 18.4594 36 18.4719C36 18.4845 36 18.497 36 18.5096C36 18.5221 36 18.5346 36 18.5472C36 18.5597 36 18.5723 36 18.5848C36 18.5974 36 18.6099 36 18.6224C36 18.635 36 18.6475 36 18.66C36 18.6726 36 18.6851 36 18.6976C36 18.7102 36 18.7227 36 18.7352C36 18.7478 36 18.7603 36 18.7728C36 18.7854 36 18.7979 36 18.8104C36 18.823 36 18.8355 36 18.848C36 18.8605 36 18.8731 36 18.8856C36 18.8981 36 18.9106 36 18.9231C36 18.9357 36 18.9482 36 18.9607C36 18.9732 36 18.9857 36 18.9983C36 19.0108 36 19.0233 36 19.0358C36 19.0483 36 19.0608 36 19.0733C36 19.0858 36 19.0983 36 19.1108C36 19.1233 36 19.1358 36 19.1483C36 19.1609 36 19.1733 36 19.1858C36 19.1983 36 19.2108 36 19.2233C36 19.2358 36 19.2483 36 19.2608C36 19.2733 36 19.2858 36 19.2983C36 19.3108 36 19.3232 36 19.3357C36 19.3482 36 19.3607 36 19.3731C36 19.3856 36 19.3981 36 19.4106C36 19.423 36 19.4355 36 19.448C36 19.4604 36 19.4729 36 19.4854C36 19.4978 36 19.5103 36 19.5227C36 19.5352 36 19.5477 36 19.5601C36 19.5726 36 19.585 36 19.5974C36 19.6099 36 19.6223 36 19.6348C36 19.6472 36 19.6597 36 19.6721C36 19.6845 36 19.697 36 19.7094C36 19.7218 36 19.7342 36 19.7467C36 19.7591 36 19.7715 36 19.7839C36 19.7963 36 19.8087 36 19.8212C36 19.8336 36 19.846 36 19.8584C36 19.8708 36 19.8832 36 19.8956C36 19.908 36 19.9204 36 19.9328C36 19.9451 36 19.9575 36 19.9699C36 19.9823 36 19.9947 36 20.007C36 20.0194 36 20.0318 36 20.0442C36 20.0565 36 20.0689 36 20.0813C36 20.0936 36 20.106 36 20.1183C36 20.1307 36 20.143 36 20.1554C36 20.1677 36 20.1801 36 20.1924C36 20.2047 36 20.2171 36 20.2294C36 20.2417 36 20.2541 36 20.2664C36 20.2787 36 20.291 36 20.3033C36 20.3156 36 20.328 36 20.3403C36 20.3526 36 20.3649 36 20.3772C36 20.3895 36 20.4017 36 20.414C36 20.4263 36 20.4386 36 20.4509C36 20.4632 36 20.4754 36 20.4877C36 20.5 36 20.5122 36 20.5245C36 20.5368 36 20.549 36 20.5613C36 20.5735 36 20.5858 36 20.598C36 20.6102 36 20.6225 36 20.6347C36 20.6469 36 20.6592 36 20.6714C36 20.6836 36 20.6958 36 20.708C36 20.7203 36 20.7325 36 20.7447C36 20.7569 36 20.7691 36 20.7812C36 20.7934 36 20.8056 36 20.8178C36 20.83 36 20.8422 36 20.8543C36 20.8665 36 20.8787 36 20.8908C36 20.903 36 20.9151 36 20.9273C36 20.9394 36 20.9516 36 20.9637C36 20.9759 36 20.988 36 21.0001C36 21.0122 36 21.0244 36 21.0365C36 21.0486 36 21.0607 36 21.0728C36 21.0849 36 21.097 36 21.1091C36 21.1212 36 21.1333 36 21.1454C36 21.1574 36 21.1695 36 21.1816C36 21.1936 36 21.2057 36 21.2178C36 21.2298 36 21.2419 36 21.2539C36 21.266 36 21.278 36 21.29C36 21.3021 36 21.3141 36 21.3261C36 21.3381 36 21.3501 36 21.3621C36 21.3741 36 21.3861 36 21.3981C36 21.4101 36 21.4221 36 21.4341C36 21.4461 36 21.4581 36 21.47C36 21.482 36 21.4939 36 21.5059C36 21.5179 36 21.5298 36 21.5417C36 21.5537 36 21.5656 36 21.5775C36 21.5895 36 21.6014 36 21.6133C36 21.6252 36 21.6371 36 21.649C36 21.6609 36 21.6728 36 21.6847C36 21.6966 36 21.7085 36 21.7203C36 21.7322 36 21.7441 36 21.7559C36 21.7678 36 21.7796 36 21.7915C36 21.8033 36 21.8151 36 21.827C36 21.8388 36 21.8506 36 21.8624C36 21.8742 36 21.886 36 21.8978C36 21.9096 36 21.9214 36 21.9332C36 21.945 36 21.9568 36 21.9685C36 21.9803 36 21.9921 36 22.0038C36 22.0156 36 22.0273 36 22.039C36 22.0508 36 22.0625 36 22.0742C36 22.086 36 22.0977 36 22.1094C36 22.1211 36 22.1328 36 22.1445C36 22.1561 36 22.1678 36 22.1795C36 22.1912 36 22.2028 36 22.2145C36 22.2261 36 22.2378 36 22.2494C36 22.2611 36 22.2727 36 22.2843C36 22.2959 36 22.3076 36 22.3192C36 22.3308 36 22.3424 36 22.354C36 22.3656 36 22.3771 36 22.3887C36 22.4003 36 22.4118 36 22.4234C36 22.4349 36 22.4465 36 22.458C36 22.4696 36 22.4811 36 22.4926C36 22.5041 36 22.5156 36 22.5271C36 22.5387 36 22.5501 36 22.5616C36 22.5731 36 22.5846 36 22.5961C36 22.6075 36 22.619 36 22.6304C36 22.6419 36 22.6533 36 22.6647C36 22.6762 36 22.6876 36 22.699C36 22.7104 36 22.7218 36 22.7332C36 22.7446 36 22.756 36 22.7674C36 22.7787 36 22.7901 36 22.8015C36 22.8128 36 22.8242 36 22.8355C36 22.8468 36 22.8582 36 22.8695C36 22.8808 36 22.8921 36 22.9034C36 22.9147 36 22.926 36 22.9373C36 22.9485 36 22.9598 36 22.9711C36 22.9823 36 22.9936 36 23.0048C36 23.016 36 23.0273 36 23.0385C36 23.0497 36 23.0609 36 23.0721C36 23.0833 36 23.0945 36 23.1057C36 23.1169 36 23.128 36 23.1392C36 23.1503 36 23.1615 36 23.1726C36 23.1838 36 23.1949 36 23.206C36 23.2171 36 23.2282 36 23.2393C36 23.2504 36 23.2615 36 23.2726C36 23.2837 36 23.2947 36 23.3058C36 23.3168 36 23.3279 36 23.3389C36 23.3499 36 23.361 36 23.372C36 23.383 36 23.394 36 23.405C36 23.416 36 23.4269 36 23.4379C36 23.4489 36 23.4598 36 23.4708C36 23.4817 36 23.4926 36 23.5036C36 23.5145 36 23.5254 36 23.5363C36 23.5472 36 23.5581 36 23.569C36 23.5799 36 23.5907 36 23.6016C36 23.6124 36 23.6233 36 23.6341C36 23.6449 36 23.6558 36 23.6666C36 23.6774 36 23.6882 36 23.699C36 23.7098 36 23.7205 36 23.7313C36 23.7421 36 23.7528 36 23.7636C36 23.7743 36 23.785 36 23.7957C36 23.8065 36 23.8172 36 23.8279C36 23.8386 36 23.8492 36 23.8599C36 23.8706 36 23.8812 36 23.8919C36 23.9025 36 23.9132 36 23.9238C36 23.9344 36 23.945 36 23.9556C36 23.9662 36 23.9768 36 23.9874C36 23.998 36 24.0085 36 24.0191C36 24.0296 36 24.0402 36 24.0507C36 24.0612 36 24.0717 36 24.0822C36 24.0927 36 24.1032 36 24.1137C36 24.1242 36 24.1346 36 24.1451C36 24.1555 36 24.166 36 24.1764C36 24.1868 36 24.1972 36 24.2076C36 24.218 36 24.2284 36 24.2388C36 24.2491 36 24.2595 36 24.2699C36 24.2802 36 24.2905 36 24.3009C36 24.3112 36 24.3215 36 24.3318C36 24.3421 36 24.3524 36 24.3626C36 24.3729 36 24.3832 36 24.3934C36 24.4037 36 24.4139 36 24.4241C36 24.4343 36 24.4445 36 24.4547C36 24.4649 36 24.4751 36 24.4852C36 24.4954 36 24.5056 36 24.5157C36 24.5258 36 24.536 36 24.5461C36 24.5562 36 24.5663 36 24.5764C36 24.5864 36 24.5965 36 24.6066C36 24.6166 36 24.6267 36 24.6367C36 24.6467 36 24.6567 36 24.6667C36 24.6767 36 24.6867 36 24.6967C36 24.7067 36 24.7166 36 24.7266C36 24.7365 36 24.7464 36 24.7564C36 24.7663 36 24.7762 36 24.7861C36 24.796 36 24.8058 36 24.8157C36 24.8255 36 24.8354 36 24.8452C36 24.8551 36 24.8649 36 24.8747C36 24.8845 36 24.8943 36 24.904C36 24.9138 36 24.9236 36 24.9333C36 24.9431 36 24.9528 36 24.9625C36 24.9722 36 24.9819 36 24.9916C36 25.0013 36 25.011 36 25.0206C36 25.0303 36 25.0399 36 25.0495C36 25.0592 36 25.0688 36 25.0784C36 25.088 36 25.0976 36 25.1071C36 25.1167 36 25.1262 36 25.1358C36 25.1453 36 25.1548 36 25.1643C36 25.1739 36 25.1833 36 25.1928C36 25.2023 36 25.2118 36 25.2212C36 25.2306 36 25.2401 36 25.2495C36 25.2589 36 25.2683 36 25.2777C36 25.2871 36 25.2964 36 25.3058C36 25.3152 36 25.3245 36 25.3338C36 25.3431 36 25.3524 36 25.3617C36 25.371 36 25.3803 36 25.3896C36 25.3988 36 25.4081 36 25.4173C36 25.4265 36 25.4357 36 25.4449C36 25.4541 36 25.4633 36 25.4725C36 25.4816 36 25.4908 36 25.4999C36 25.509 36 25.5182 36 25.5273C36 25.5364 36 25.5454 36 25.5545C36 25.5636 36 25.5726 36 25.5817C36 25.5907 36 25.5997 36 25.6087C36 25.6177 36 25.6267 36 25.6357C36 25.6446 36 25.6536 36 25.6625C36 25.6715 36 25.6804 36 25.6893C36 25.6982 36 25.7071 36 25.716C36 25.7248 36 25.7337 36 25.7425C36 25.7514 36 25.7602 36 25.769C36 25.7778 36 25.7866 36 25.7953C36 25.8041 36 25.8129 36 25.8216C36 25.8303 36 25.839 36 25.8478C36 25.8565 36 25.8651 36 25.8738C36 25.8825 36 25.8911 36 25.8998C36 25.9084 36 25.917 36 25.9256C36 25.9342 36 25.9428 36 25.9513C36 25.9599 36 25.9685 36 25.977C36 25.9855 36 25.994 36 26.0025C36 26.011 36 26.0195 36 26.028C36 26.0364 36 26.0449 36 26.0533C36 26.0617 36 26.0701 36 26.0785C36 26.0869 36 26.0953 36 26.1036C36 26.112 36 26.1203 36 26.1286C36 26.1369 36 26.1452 36 26.1535C36 26.1618 36 26.1701 36 26.1783C36 26.1866 36 26.1948 36 26.203C36 26.2112 36 26.2194 36 26.2276C36 26.2357 36 26.2439 36 26.252C36 26.2602 36 26.2683 36 26.2764C36 26.2845 36 26.2926 36 26.3006C36 26.3087 36 26.3167 36 26.3248C36 26.3328 36 26.3408 36 26.3488C36 26.3568 36 26.3648 36 26.3727C36 26.3807 36 26.3886 36 26.3965C36 26.4044 36 26.4123 36 26.4202C36 26.4281 36 26.4359 36 26.4438C36 26.4516 36 26.4594 36 26.4672C36 26.475 36 26.4828 36 26.4906C36 26.4984 36 26.5061 36 26.5138C36 26.5215 36 26.5293 36 26.5369C36 26.5446 36 26.5523 36 26.56C36 26.5676 36 26.5752 36 26.5828C36 26.5905 36 26.598 36 26.6056C36 26.6132 36 26.6207 36 26.6283C36 26.6358 36 26.6433 36 26.6508C36 26.6583 36 26.6658 36 26.6732C36 26.6807 36 26.6881 36 26.6955C36 26.703 36 26.7104 36 26.7177C36 26.7251 36 26.7325 36 26.7398C36 26.7471 36 26.7545 36 26.7618C36 26.7691 36 26.7763 36 26.7836C36 26.7908 36 26.7981 36 26.8053C36 26.8125 36 26.8197 36 26.8269C36 26.8341 36 26.8412 36 26.8484C36 26.8555 36 26.8626 36 26.8697C36 26.8768 36 26.8839 36 26.8909C36 26.898 36 26.905 36 26.912C36 26.9191 36 26.9261 36 26.933C36 26.94 36 26.947 36 26.9539C36 26.9608 36 26.9677 36 26.9746C36 26.9815 36 26.9884 36 26.9952C36 27.0021 36 27.0089 36 27.0157C36 27.0225 36 27.0293 36 27.0361C36 27.0429 36 27.0496 36 27.0563C36 27.063 36 27.0697 36 27.0764C36 27.0831 36 27.0898 36 27.0964C36 27.1031 36 27.1097 36 27.1163C36 27.1229 36 27.1295 36 27.136C36 27.1426 36 27.1491 36 27.1556C36 27.1621 36 27.1686 36 27.1751C36 27.1816 36 27.188 36 27.1944C36 27.2009 36 27.2073 36 27.2136C36 27.22 36 27.2264 36 27.2327C36 27.2391 36 27.2454 36 27.2517C36 27.258 36 27.2643 36 27.2705C36 27.2768 36 27.283 36 27.2892C36 27.2954 36 27.3016 36 27.3078C36 27.314 36 27.3201 36 27.3262C36 27.3323 36 27.3384 36 27.3445C36 27.3506 36 27.3567 36 27.3627C36 27.3687 36 27.3747 36 27.3807C36 27.3867 36 27.3927 36 27.3986C36 27.4046 36 27.4105 36 27.4164C36 27.4223 36 27.4282 36 27.434C36 27.4399 36 27.4457 36 27.4515C36 27.4573 36 27.4631 36 27.4689C36 27.4747 36 27.4804 36 27.4861C36 27.4918 36 27.4975 36 27.5032C36 27.5089 36 27.5145 36 27.5202C36 27.5258 36 27.5314 36 27.537C36 27.5426 36 27.5481 36 27.5537C36 27.5592 36 27.5647 36 27.5702C36 27.5757 36 27.5812 36 27.5866C36 27.5921 36 27.5975 36 27.6029C36 27.6083 36 27.6136 36 27.619C36 27.6243 36 27.6297 36 27.635C36 27.6403 36 27.6456 36 27.6508C36 27.6561 36 27.6613 36 27.6665C36 27.6717 36 27.6769 36 27.6821C36 27.6873 36 27.6924 36 27.6975C36 27.7026 36 27.7077 36 27.7128C36 27.7179 36 27.7229 36 27.7279C36 27.733 36 27.7379 36 27.7429C36 27.7479 36 27.7528 36 27.7578C36 27.7627 36 27.7676 36 27.7725C36 27.7774 36 27.7822 36 27.787C36 27.7919 36 27.7967 36 27.8015C36 27.8062 36 27.811 36 27.8157C36 27.8205 36 27.8252 36 27.8298C36 27.8345 36 27.8392 36 27.8438C36 27.8485 36 27.8531 36 27.8577C36 27.8622 36 27.8668 36 27.8713C36 27.8759 36 27.8804 36 27.8849C36 27.8894 36 27.8938 36 27.8983C36 27.9027 36 27.9071 36 27.9115C36 27.9159 36 27.9203 36 27.9246C36 27.9289 36 27.9333 36 27.9375C36 27.9418 36 27.9461 36 27.9503C36 27.9546 36 27.9588 36 27.963C36 27.9672 36 27.9713 36 27.9755C36 27.9796 36 27.9837 36 27.9878C36 27.9919 36 27.996 36 28H38ZM8 11.9989C8.00001 17.2184 8.00003 25.9328 8.0001 28L10.0001 27.9999C10 25.9328 10 17.2184 10 11.9989L8 11.9989ZM15.7779 23.201L21.1008 28.1434L22.4617 26.6778L17.1387 21.7353L15.7779 23.201ZM22.4617 28.1434L31.3032 19.934L29.9424 18.4683L21.1008 26.6778L22.4617 28.1434ZM33 7H13V9H33V7ZM10 11.9989C10 10.3424 11.3428 9 13 9V7C10.2389 7 8 9.23717 8 11.9989L10 11.9989ZM38 11.9989C38 9.23717 35.7611 7 33 7V9C34.6572 9 36 10.3424 36 11.9989H38Z" fill="#5E58F8"/>
</svg>
