<svg width="24" height="27" viewBox="0 0 24 27" fill="none" xmlns="http://www.w3.org/2000/svg">
<path d="M20.0002 27H4.00021C2.16287 27 0.66687 25.5053 0.66687 23.6666V3.66659C0.66687 1.82792 2.16287 0.333252 4.00021 0.333252H20.0002C21.8376 0.333252 23.3336 1.82792 23.3336 3.66659V23.6666C23.3336 25.5053 21.8376 27 20.0002 27ZM4.00021 1.66659C2.89754 1.66659 2.00021 2.56392 2.00021 3.66659V23.6666C2.00021 24.7693 2.89754 25.6666 4.00021 25.6666H20.0002C21.1029 25.6666 22.0002 24.7693 22.0002 23.6666V3.66659C22.0002 2.56392 21.1029 1.66659 20.0002 1.66659H4.00021Z" fill="black"/>
<path d="M17.3333 17.6671H6.66667C6.29867 17.6671 6 17.3684 6 17.0004C6 16.6324 6.29867 16.3337 6.66667 16.3337H17.3333C17.7013 16.3337 18 16.6324 18 17.0004C18 17.3684 17.7013 17.6671 17.3333 17.6671Z" fill="black"/>
<path d="M17.3333 22.9998H6.66667C6.29867 22.9998 6 22.7012 6 22.3332C6 21.9652 6.29867 21.6665 6.66667 21.6665H17.3333C17.7013 21.6665 18 21.9652 18 22.3332C18 22.7012 17.7013 22.9998 17.3333 22.9998Z" fill="black"/>
<path d="M17.3333 12.3332H6.66667C6.29867 12.3332 6 12.0345 6 11.6665C6 11.2985 6.29867 10.9999 6.66667 10.9999H17.3333C17.7013 10.9999 18 11.2985 18 11.6665C18 12.0345 17.7013 12.3332 17.3333 12.3332Z" fill="black"/>
<path d="M17.3333 6.99984H6.66667C6.29867 6.99984 6 6.70117 6 6.33317C6 5.96517 6.29867 5.6665 6.66667 5.6665H17.3333C17.7013 5.6665 18 5.96517 18 6.33317C18 6.70117 17.7013 6.99984 17.3333 6.99984Z" fill="black"/>
</svg>
