<?xml version="1.0" encoding="UTF-8"?>
<svg xmlns="http://www.w3.org/2000/svg" xmlns:xlink="http://www.w3.org/1999/xlink" width="772.557pt" height="420.8132pt" viewBox="0 0 772.557 420.8132" version="1.1">
<g id="surface1">
<path style=" stroke:none;fill-rule:evenodd;fill:rgb(100%,100%,100%);fill-opacity:1;" d="M 1 164.097656 L 63.007813 164.097656 L 32.070313 219.101563 Z M 654.28125 258.371094 C 664.460938 258.371094 673.054688 255.328125 679.796875 249.246094 C 686.671875 243.164063 690.113281 235.628906 690.113281 226.503906 C 690.113281 217.382813 686.671875 209.847656 679.929688 203.761719 C 673.1875 197.683594 664.859375 194.640625 654.808594 194.640625 L 645.820313 194.640625 L 647.007813 182.476563 L 681.78125 182.476563 L 681.78125 164.097656 L 630.480469 164.097656 L 625.457031 213.152344 L 651.769531 213.152344 C 661.683594 213.152344 669.089844 218.96875 669.089844 226.503906 C 669.089844 233.511719 662.742188 239.066406 654.28125 239.066406 C 646.875 239.066406 641.191406 234.703125 638.546875 227.828125 L 618.316406 233.246094 C 620.828125 240.785156 625.191406 246.867188 631.671875 251.492188 C 638.148438 256.121094 645.6875 258.371094 654.28125 258.371094 Z M 698.96875 224.917969 C 698.96875 234.4375 702.40625 242.371094 709.28125 248.851563 C 716.289063 255.195313 724.882813 258.371094 735.195313 258.371094 C 745.640625 258.371094 754.234375 255.195313 761.113281 248.851563 C 768.117188 242.371094 771.558594 234.4375 771.558594 224.917969 L 771.558594 195.832031 C 771.558594 186.3125 768.117188 178.378906 761.113281 172.03125 C 754.234375 165.550781 745.640625 162.378906 735.195313 162.378906 C 724.882813 162.378906 716.289063 165.550781 709.28125 172.03125 C 702.40625 178.378906 698.96875 186.3125 698.96875 195.832031 Z M 719.066406 195.566406 C 719.066406 187.632813 726.074219 181.683594 735.195313 181.683594 C 744.320313 181.683594 751.328125 187.632813 751.328125 195.566406 L 751.328125 225.183594 C 751.328125 232.984375 744.320313 239.066406 735.195313 239.066406 C 726.074219 239.066406 719.066406 232.984375 719.066406 225.183594 Z M 482.796875 222.273438 L 459.527344 222.273438 L 471.160156 193.847656 Z M 336.300781 183.402344 C 343.835938 183.402344 350.050781 186.046875 355.207031 191.203125 C 360.363281 196.359375 363.007813 202.839844 363.007813 210.375 C 363.007813 217.910156 360.496094 224.390625 355.339844 229.546875 C 350.183594 234.703125 343.835938 237.347656 336.300781 237.347656 L 319.246094 237.347656 L 319.246094 183.402344 Z M 219.15625 183.402344 C 225.898438 183.402344 230.792969 188.425781 230.792969 195.167969 C 230.792969 201.914063 225.898438 206.9375 219.15625 206.9375 L 196.8125 206.9375 L 196.8125 183.402344 Z M 83.769531 164.097656 L 96.195313 164.097656 L 96.195313 256.648438 L 83.769531 256.648438 Z M 165.34375 164.097656 L 175.789063 164.097656 L 175.789063 256.648438 L 166.007813 256.648438 L 166.007813 237.347656 L 117.21875 237.347656 L 117.21875 219.628906 L 157.675781 219.628906 L 157.675781 200.328125 L 117.21875 200.328125 L 117.21875 183.402344 L 165.34375 183.402344 Z M 219.15625 164.097656 L 264.769531 164.097656 L 264.769531 256.648438 L 255.914063 256.648438 L 235.949219 222.273438 C 246.128906 216.984375 252.609375 206.9375 252.609375 195.167969 C 252.609375 186.3125 249.433594 179.039063 242.957031 173.089844 C 236.609375 167.140625 228.675781 164.097656 219.15625 164.097656 Z M 285.792969 164.097656 L 298.222656 164.097656 L 298.222656 256.648438 L 285.792969 256.648438 Z M 336.300781 164.097656 L 395.402344 164.097656 L 395.402344 256.648438 L 336.300781 256.648438 C 350.050781 256.648438 361.554688 252.152344 370.808594 243.296875 C 380.195313 234.4375 384.824219 223.464844 384.824219 210.375 C 384.824219 197.285156 380.195313 186.3125 370.808594 177.453125 C 361.554688 168.59375 350.050781 164.097656 336.300781 164.097656 Z M 416.421875 164.097656 L 462.433594 164.097656 L 423.429688 256.648438 L 416.421875 256.648438 Z M 479.753906 164.097656 L 525.765625 164.097656 L 525.765625 256.648438 L 518.625 256.648438 Z M 544.410156 164.097656 L 588.4375 164.097656 L 588.4375 220.820313 Z M 590.023438 256.648438 L 545.996094 256.648438 L 545.996094 200.195313 Z M 496.8125 256.648438 L 445.378906 256.648438 L 451.726563 241.046875 L 490.464844 241.046875 Z M 232.644531 256.648438 L 196.8125 256.648438 L 196.8125 226.242188 L 214.792969 226.242188 Z M 63.007813 256.648438 L 1 256.648438 L 1 203.234375 L 25.0625 246.734375 L 38.945313 246.734375 L 63.007813 203.234375 Z M 63.007813 256.648438 "/>
<path style=" stroke:none;fill-rule:nonzero;fill:rgb(100%,100%,100%);fill-opacity:1;" d="M 723.882813 419.8125 L 713.9375 418.257813 L 714.574219 414.132813 L 715.203125 409.96875 L 715.824219 405.761719 L 716.433594 401.519531 L 717.035156 397.242188 L 717.625 392.933594 L 718.207031 388.597656 L 718.777344 384.230469 L 719.335938 379.839844 L 719.886719 375.425781 L 720.421875 370.992188 L 720.949219 366.542969 L 721.464844 362.074219 L 721.96875 357.597656 L 722.457031 353.105469 L 722.933594 348.609375 L 723.402344 344.105469 L 723.851563 339.597656 L 724.292969 335.089844 L 724.71875 330.582031 L 725.128906 326.082031 L 725.527344 321.585938 L 725.910156 317.097656 L 726.28125 312.621094 L 726.636719 308.15625 L 726.972656 303.710938 L 727.300781 299.28125 L 727.609375 294.871094 L 727.902344 290.488281 L 728.179688 286.128906 L 728.4375 281.796875 L 728.683594 277.492188 L 738.738281 278.046875 L 738.492188 282.382813 L 738.226563 286.75 L 737.949219 291.140625 L 737.652344 295.558594 L 737.34375 300 L 737.015625 304.460938 L 736.671875 308.9375 L 736.316406 313.433594 L 735.945313 317.9375 L 735.558594 322.457031 L 735.15625 326.980469 L 734.742188 331.515625 L 734.316406 336.050781 L 733.875 340.585938 L 733.417969 345.125 L 732.949219 349.65625 L 732.46875 354.183594 L 731.976563 358.703125 L 731.46875 363.210938 L 730.953125 367.707031 L 730.421875 372.1875 L 729.878906 376.652344 L 729.328125 381.097656 L 728.765625 385.519531 L 728.1875 389.914063 L 727.605469 394.285156 L 727.007813 398.625 L 726.402344 402.9375 L 725.789063 407.210938 L 725.164063 411.453125 L 724.527344 415.652344 Z M 723.882813 419.8125 "/>
<path style=" stroke:none;fill-rule:nonzero;fill:rgb(100%,100%,100%);fill-opacity:1;" d="M 738.445313 142.15625 L 728.394531 142.75 L 728.144531 138.617188 L 727.882813 134.445313 L 727.601563 130.238281 L 727.308594 125.996094 L 727 121.722656 L 726.679688 117.421875 L 726.34375 113.09375 L 725.996094 108.738281 L 725.632813 104.363281 L 725.257813 99.964844 L 724.867188 95.546875 L 724.46875 91.113281 L 724.054688 86.667969 L 723.625 82.210938 L 723.1875 77.742188 L 722.738281 73.265625 L 722.277344 68.785156 L 721.804688 64.300781 L 721.316406 59.816406 L 720.820313 55.332031 L 720.316406 50.851563 L 719.796875 46.378906 L 719.269531 41.910156 L 718.734375 37.453125 L 718.183594 33.011719 L 717.628906 28.582031 L 717.0625 24.167969 L 716.484375 19.773438 L 715.898438 15.402344 L 715.304688 11.050781 L 714.703125 6.726563 L 714.089844 2.429688 L 724.058594 1 L 724.671875 5.324219 L 725.28125 9.675781 L 725.878906 14.054688 L 726.464844 18.453125 L 727.046875 22.875 L 727.617188 27.3125 L 728.175781 31.769531 L 728.726563 36.238281 L 729.269531 40.71875 L 729.800781 45.210938 L 730.320313 49.710938 L 730.828125 54.214844 L 731.328125 58.722656 L 731.816406 63.230469 L 732.289063 67.742188 L 732.753906 72.246094 L 733.207031 76.746094 L 733.648438 81.238281 L 734.078125 85.722656 L 734.496094 90.195313 L 734.898438 94.652344 L 735.289063 99.09375 L 735.667969 103.519531 L 736.03125 107.921875 L 736.382813 112.304688 L 736.71875 116.660156 L 737.042969 120.988281 L 737.355469 125.289063 L 737.648438 129.558594 L 737.929688 133.792969 L 738.195313 137.996094 Z M 738.445313 142.15625 "/>
</g>
</svg>
