<?xml version="1.0" encoding="UTF-8"?>
<svg xmlns="http://www.w3.org/2000/svg" xmlns:xlink="http://www.w3.org/1999/xlink" width="1031.1014pt" height="130.1974pt" viewBox="0 0 1031.1014 130.1974" version="1.1">
<g id="surface1">
<path style=" stroke:none;fill-rule:evenodd;fill:rgb(100%,100%,100%);fill-opacity:1;" d="M 1 3.296875 L 83.816406 3.296875 L 42.496094 76.753906 Z M 873.476563 129.199219 C 887.070313 129.199219 898.546875 125.136719 907.554688 117.011719 C 916.738281 108.890625 921.328125 98.824219 921.328125 86.640625 C 921.328125 74.457031 916.738281 64.394531 907.730469 56.269531 C 898.726563 48.148438 887.601563 44.085938 874.179688 44.085938 L 862.175781 44.085938 L 863.761719 27.839844 L 910.203125 27.839844 L 910.203125 3.296875 L 841.691406 3.296875 L 834.980469 68.808594 L 870.121094 68.808594 C 883.363281 68.808594 893.25 76.578125 893.25 86.640625 C 893.25 96 884.773438 103.414063 873.476563 103.414063 C 863.585938 103.414063 855.996094 97.589844 852.460938 88.40625 L 825.445313 95.648438 C 828.800781 105.710938 834.628906 113.835938 843.28125 120.015625 C 851.933594 126.195313 861.996094 129.199219 873.476563 129.199219 Z M 933.160156 84.523438 C 933.160156 97.234375 937.75 107.832031 946.929688 116.484375 C 956.292969 124.960938 967.769531 129.199219 981.542969 129.199219 C 995.492188 129.199219 1006.96875 124.960938 1016.152344 116.484375 C 1025.507813 107.832031 1030.101563 97.234375 1030.101563 84.523438 L 1030.101563 45.675781 C 1030.101563 32.960938 1025.507813 22.367188 1016.152344 13.890625 C 1006.96875 5.238281 995.492188 1 981.542969 1 C 967.769531 1 956.292969 5.238281 946.929688 13.890625 C 937.75 22.367188 933.160156 32.960938 933.160156 45.675781 Z M 960 45.324219 C 960 34.726563 969.359375 26.78125 981.542969 26.78125 C 993.726563 26.78125 1003.082031 34.726563 1003.082031 45.324219 L 1003.082031 84.875 C 1003.082031 95.292969 993.726563 103.414063 981.542969 103.414063 C 969.359375 103.414063 960 95.292969 960 84.875 Z M 644.453125 80.992188 L 613.375 80.992188 L 628.914063 43.027344 Z M 448.804688 29.074219 C 458.867188 29.074219 467.167969 32.609375 474.054688 39.496094 C 480.941406 46.382813 484.472656 55.035156 484.472656 65.097656 C 484.472656 75.164063 481.117188 83.816406 474.230469 90.703125 C 467.34375 97.589844 458.867188 101.121094 448.804688 101.121094 L 426.023438 101.121094 L 426.023438 29.074219 Z M 292.355469 29.074219 C 301.359375 29.074219 307.894531 35.789063 307.894531 44.792969 C 307.894531 53.796875 301.359375 60.507813 292.355469 60.507813 L 262.511719 60.507813 L 262.511719 29.074219 Z M 111.539063 3.296875 L 128.136719 3.296875 L 128.136719 126.902344 L 111.539063 126.902344 Z M 220.484375 3.296875 L 234.4375 3.296875 L 234.4375 126.902344 L 221.371094 126.902344 L 221.371094 101.121094 L 156.210938 101.121094 L 156.210938 77.457031 L 210.246094 77.457031 L 210.246094 51.679688 L 156.210938 51.679688 L 156.210938 29.074219 L 220.484375 29.074219 Z M 292.355469 3.296875 L 353.273438 3.296875 L 353.273438 126.902344 L 341.445313 126.902344 L 314.78125 80.992188 C 328.375 73.929688 337.03125 60.507813 337.03125 44.792969 C 337.03125 32.960938 332.792969 23.25 324.140625 15.304688 C 315.664063 7.355469 305.070313 3.296875 292.355469 3.296875 Z M 381.351563 3.296875 L 397.949219 3.296875 L 397.949219 126.902344 L 381.351563 126.902344 Z M 448.804688 3.296875 L 527.734375 3.296875 L 527.734375 126.902344 L 448.804688 126.902344 C 467.167969 126.902344 482.53125 120.898438 494.890625 109.066406 C 507.429688 97.234375 513.609375 82.582031 513.609375 65.097656 C 513.609375 47.617188 507.429688 32.960938 494.890625 21.128906 C 482.53125 9.300781 467.167969 3.296875 448.804688 3.296875 Z M 555.808594 3.296875 L 617.261719 3.296875 L 565.167969 126.902344 L 555.808594 126.902344 Z M 640.390625 3.296875 L 701.839844 3.296875 L 701.839844 126.902344 L 692.304688 126.902344 Z M 726.738281 3.296875 L 785.539063 3.296875 L 785.539063 79.046875 Z M 787.660156 126.902344 L 728.855469 126.902344 L 728.855469 51.503906 Z M 663.167969 126.902344 L 594.480469 126.902344 L 602.957031 106.0625 L 654.695313 106.0625 Z M 310.367188 126.902344 L 262.511719 126.902344 L 262.511719 86.289063 L 286.527344 86.289063 Z M 83.816406 126.902344 L 1 126.902344 L 1 55.5625 L 33.136719 113.65625 L 51.675781 113.65625 L 83.816406 55.5625 Z M 83.816406 126.902344 "/>
</g>
</svg>
