<svg width="283" height="773" viewBox="0 0 283 773" fill="none" xmlns="http://www.w3.org/2000/svg">
<path opacity="0.18" d="M191.233 241.585C199.78 195.007 187.29 147.208 171.601 102.516C155.338 56.3007 135.539 11.4065 112.379 -31.7678C98.7939 -57.1108 81.0941 -84.1132 53.1039 -90.6468C42.6333 -93.0991 31.7029 -92.3511 21.0065 -91.2372C1.92966 -89.2737 -17.2828 -86.1547 -34.8268 -78.4011C-63.8964 -65.5435 -86.012 -41.1698 -107.169 -17.4372C-144.441 24.3698 -183.358 67.5565 -234.893 89.5007C-258.791 99.6797 -284.517 104.845 -308.831 113.996C-333.145 123.146 -357 137.298 -369.873 159.858C-378.821 175.566 -381.692 194.065 -381.928 212.143C-382.459 252.714 -370.58 292.667 -352.913 329.223C-344.188 347.272 -333.96 364.752 -320.708 379.791C-305.559 396.974 -286.845 410.569 -268.202 423.868C-245.352 440.197 -222.106 456.378 -196.418 467.75C-170.73 479.123 -142.142 485.503 -114.395 481.219C-61.5937 473.042 -23.3357 430.712 16.1066 398.598C36.2706 382.211 57.9132 366.602 82.9576 358.687C95.0111 354.874 106.443 354.828 117.598 348.843C129.359 342.526 140.134 332.621 149.278 323.032C170.626 300.644 185.646 272.085 191.233 241.585Z" fill="#5E58F8"/>
<path opacity="0.18" d="M-121.188 681.644C-75.4929 669.211 -37.793 637.283 -4.27803 603.813C30.3627 569.166 62.2831 531.903 91.1998 492.352C108.178 469.145 124.873 441.51 118.662 413.447C116.346 402.945 110.946 393.413 105.317 384.249C95.298 367.897 84.1787 351.921 69.6019 339.455C45.4395 318.802 13.8997 309.399 -16.6476 300.582C-70.4601 285.05 -126.228 268.631 -168.297 231.651C-187.808 214.503 -203.589 193.539 -222.352 175.572C-241.116 157.604 -264.191 142.213 -290.099 140.359C-308.131 139.083 -326.053 144.492 -342.456 152.096C-379.268 169.158 -410.158 197.144 -435.482 228.88C-447.984 244.551 -459.323 261.332 -467.154 279.784C-476.098 300.872 -480.266 323.625 -484.197 346.185C-489.041 373.85 -493.581 401.806 -492.728 429.886C-491.876 457.966 -485.269 486.502 -469.409 509.669C-439.206 553.745 -384.495 569.94 -338.485 591.62C-314.991 602.717 -291.559 615.483 -273.593 634.643C-264.944 643.863 -259.959 654.151 -249.74 661.622C-238.958 669.495 -225.369 674.929 -212.768 679.028C-183.351 688.597 -151.105 689.793 -121.188 681.644Z" fill="#5E58F8"/>
</svg>
