<svg width="48" height="48" viewBox="0 0 48 48" fill="none" xmlns="http://www.w3.org/2000/svg">
<rect width="48" height="48" rx="8" fill="#F6EEFD"/>
<path d="M35.0004 40H19.0003C17.163 40 15.667 38.5053 15.667 36.6666V16.6666C15.667 14.8279 17.163 13.3333 19.0003 13.3333H35.0004C36.8377 13.3333 38.3337 14.8279 38.3337 16.6666V36.6666C38.3337 38.5053 36.8377 40 35.0004 40ZM19.0003 14.6666C17.8977 14.6666 17.0003 15.5639 17.0003 16.6666V36.6666C17.0003 37.7693 17.8977 38.6666 19.0003 38.6666H35.0004C36.103 38.6666 37.0004 37.7693 37.0004 36.6666V16.6666C37.0004 15.5639 36.103 14.6666 35.0004 14.6666H19.0003Z" fill="#9856DA"/>
<path d="M13.6667 36H12.3333C10.496 36 9 34.5054 9 32.6667V11.3333C9 9.49467 10.496 8 12.3333 8H28.3334C30.1707 8 31.6667 9.49467 31.6667 11.3333C31.6667 11.7013 31.368 12 31 12C30.632 12 30.3334 11.7013 30.3334 11.3333C30.3334 10.2307 29.436 9.33334 28.3334 9.33334H12.3333C11.2307 9.33334 10.3333 10.2307 10.3333 11.3333V32.6667C10.3333 33.7694 11.2307 34.6667 12.3333 34.6667H13.6667C14.0347 34.6667 14.3333 34.9654 14.3333 35.3334C14.3333 35.7014 14.0347 36 13.6667 36Z" fill="#9856DA"/>
<path d="M32.3333 30.6671H21.6667C21.2987 30.6671 21 30.3684 21 30.0004C21 29.6324 21.2987 29.3337 21.6667 29.3337H32.3333C32.7013 29.3337 33 29.6324 33 30.0004C33 30.3684 32.7013 30.6671 32.3333 30.6671Z" fill="#9856DA"/>
<path d="M32.3333 35.9998H21.6667C21.2987 35.9998 21 35.7012 21 35.3332C21 34.9652 21.2987 34.6665 21.6667 34.6665H32.3333C32.7013 34.6665 33 34.9652 33 35.3332C33 35.7012 32.7013 35.9998 32.3333 35.9998Z" fill="#9856DA"/>
<path d="M32.3333 25.3332H21.6667C21.2987 25.3332 21 25.0345 21 24.6665C21 24.2985 21.2987 23.9999 21.6667 23.9999H32.3333C32.7013 23.9999 33 24.2985 33 24.6665C33 25.0345 32.7013 25.3332 32.3333 25.3332Z" fill="#9856DA"/>
<path d="M32.3333 19.9998H21.6667C21.2987 19.9998 21 19.7012 21 19.3332C21 18.9652 21.2987 18.6665 21.6667 18.6665H32.3333C32.7013 18.6665 33 18.9652 33 19.3332C33 19.7012 32.7013 19.9998 32.3333 19.9998Z" fill="#9856DA"/>
</svg>
