<svg width="32" height="32" viewBox="0 0 32 32" fill="none" xmlns="http://www.w3.org/2000/svg">
<path d="M15.8702 7.97449C15.0791 7.97449 14.3058 8.20908 13.648 8.64861C12.9902 9.08813 12.4775 9.71285 12.1747 10.4438C11.872 11.1747 11.7928 11.9789 11.9471 12.7548C12.1014 13.5308 12.4824 14.2435 13.0418 14.8029C13.6012 15.3623 14.314 15.7433 15.0899 15.8976C15.8658 16.052 16.6701 15.9728 17.401 15.67C18.1319 15.3673 18.7566 14.8546 19.1961 14.1968C19.6356 13.539 19.8702 12.7656 19.8702 11.9745C19.869 10.914 19.4472 9.89728 18.6973 9.14739C17.9475 8.39751 16.9307 7.97569 15.8702 7.97449V7.97449ZM15.8702 13.9745C15.4747 13.9745 15.088 13.8572 14.7591 13.6374C14.4302 13.4177 14.1739 13.1053 14.0225 12.7399C13.8711 12.3744 13.8315 11.9723 13.9087 11.5843C13.9858 11.1963 14.1763 10.84 14.456 10.5603C14.7357 10.2806 15.0921 10.0901 15.4801 10.0129C15.868 9.93575 16.2702 9.97535 16.6356 10.1267C17.0011 10.2781 17.3134 10.5344 17.5332 10.8633C17.7529 11.1922 17.8702 11.5789 17.8702 11.9745C17.8696 12.5047 17.6587 13.0131 17.2838 13.388C16.9088 13.763 16.4005 13.9739 15.8702 13.9745V13.9745Z" fill="black"/>
<path d="M23.5566 4.28219C21.6562 2.38221 19.1193 1.25355 16.4356 1.11403C13.7519 0.974518 11.1117 1.83404 9.02445 3.5267C6.93722 5.21937 5.55097 7.62519 5.13325 10.2798C4.71554 12.9345 5.29596 15.6498 6.76249 17.9016L14.3192 29.5024C14.4873 29.7606 14.7173 29.9727 14.9881 30.1195C15.259 30.2663 15.5622 30.3432 15.8703 30.3432C16.1784 30.3432 16.4816 30.2663 16.7524 30.1195C17.0233 29.9727 17.2532 29.7606 17.4214 29.5024L24.9783 17.9016C26.3391 15.8127 26.9405 13.3195 26.6816 10.8399C26.4228 8.36031 25.3195 6.04505 23.5566 4.28219V4.28219ZM23.3026 16.8099L15.8703 28.2193L8.43799 16.8099C6.16299 13.3175 6.65093 8.64375 9.59818 5.69637C10.4218 4.87269 11.3997 4.21931 12.4758 3.77354C13.552 3.32776 14.7055 3.09832 15.8703 3.09832C17.0352 3.09832 18.1886 3.32776 19.2648 3.77354C20.3409 4.21931 21.3188 4.87269 22.1424 5.69637C25.0897 8.64375 25.5776 13.3175 23.3026 16.8099Z" fill="black"/>
</svg>
