<svg width="585" height="453" viewBox="0 0 585 453" fill="none" xmlns="http://www.w3.org/2000/svg">
<g clip-path="url(#clip0)">
<path opacity="0.18" d="M69.8603 61.9613C39.007 97.8878 25.7095 145.468 16.7413 191.977C7.50094 240.091 1.98089 288.846 0.230103 337.808C-0.805718 366.544 0.876384 398.787 21.761 418.534C29.5695 425.929 39.3877 430.79 49.1881 435.218C66.6555 443.135 84.8222 450.122 103.883 452.265C135.471 455.807 166.856 445.898 197.089 436.059C250.35 418.729 305.727 401.036 361.298 408.05C387.069 411.3 411.894 419.801 437.506 424.149C463.118 428.497 490.855 428.293 513.342 415.293C528.986 406.234 540.787 391.702 550.101 376.205C571.003 341.43 580.874 300.934 584.035 260.456C585.593 240.469 585.566 220.217 581.698 200.549C577.271 178.074 567.957 156.9 558.555 136.019C547.046 110.401 535.121 84.7109 518.663 61.9436C502.205 39.1762 480.727 19.2603 454.601 8.97916C404.873 -10.5648 350.497 6.72102 300.246 14.5847C274.572 18.5785 248.013 21.1554 222.392 15.3728C210.059 12.5922 200.161 6.87157 187.51 6.41994C174.168 5.9506 159.871 9.07657 147.14 12.7516C117.42 21.3325 90.0544 38.4324 69.8603 61.9613Z" fill="#5E58F8"/>
<path d="M283.7 188.045H241.47V222.546H283.7V188.045Z" fill="#5E58F8"/>
<path d="M283.7 188.045H241.47V222.546H283.7V188.045Z" fill="#2F51C1"/>
<path d="M319.236 117.264H211.431C204.4 117.264 198.701 122.965 198.701 129.998V188.913C198.701 195.946 204.4 201.647 211.431 201.647H319.236C326.268 201.647 331.967 195.946 331.967 188.913V129.998C331.967 122.965 326.268 117.264 319.236 117.264Z" fill="white"/>
<path d="M388.105 222.156H163.793V229.303H388.105V222.156Z" fill="white"/>
<path d="M388.105 226.318H163.793V229.303H388.105V226.318Z" fill="#D9DBE2"/>
<path opacity="0.18" d="M290.402 394.979C422.652 394.979 529.862 382.625 529.862 367.386C529.862 352.146 422.652 339.792 290.402 339.792C158.151 339.792 50.9412 352.146 50.9412 367.386C50.9412 382.625 158.151 394.979 290.402 394.979Z" fill="#5E58F8"/>
<path d="M468.829 281.94C468.829 281.94 493.458 361.408 490.785 363.357C488.111 365.305 486.42 360.009 486.42 360.009L461.578 286.155L468.829 281.94Z" fill="#5E58F8"/>
<path d="M415.887 291.114L415.657 291.689L387.592 363.711C387.167 364.823 386.526 365.841 385.706 366.704C385.547 366.896 385.35 367.053 385.127 367.165C384.905 367.278 384.662 367.344 384.413 367.359C384.164 367.374 383.915 367.338 383.68 367.252C383.446 367.167 383.231 367.035 383.05 366.863C380.518 364.791 406.883 290.875 406.883 290.875L415.887 291.114Z" fill="#5E58F8"/>
<path d="M436.895 285.827C436.895 285.827 436.01 369.015 432.885 370.051C429.76 371.087 429.76 365.526 429.76 365.526L428.697 287.598L436.895 285.827Z" fill="#5E58F8"/>
<path d="M464.429 282.905C464.429 282.905 491.236 359.947 488.553 361.86C485.871 363.773 486.42 360 486.42 360L461.578 286.146L464.429 282.905Z" fill="#2F51C1"/>
<path d="M415.648 291.689L387.583 363.711C387.158 364.823 386.518 365.841 385.697 366.704C385.795 358.451 409.681 291.557 409.681 291.557L415.648 291.689Z" fill="url(#paint0_linear)"/>
<path d="M436.895 285.827C436.895 285.827 436.01 369.015 432.885 370.051C429.759 371.087 431.689 363.781 431.689 363.781L432.796 286.739L436.895 285.827Z" fill="url(#paint1_linear)"/>
<path d="M491.36 262.927C485.481 276.485 472.255 285.836 458.081 290.033C447.032 293.301 435.39 293.806 423.81 293.142C420.57 292.97 417.324 292.725 414.072 292.407C408.406 291.831 402.66 291.096 397.357 289.024C392.054 286.952 387.114 283.374 384.422 278.318C382.782 274.989 381.876 271.347 381.766 267.638C381.209 258.127 384.219 248.014 391.505 241.957C397.224 237.175 404.687 235.316 410.619 230.879C417.259 225.893 424.076 221.439 431.105 216.958C438.135 212.477 445.27 207.952 453.132 205.101C460.994 202.249 469.758 201.178 477.708 203.702C480.462 204.587 484.702 206.721 488.854 216.887C494.884 231.419 497.61 248.501 491.36 262.927Z" fill="#D0D8E1"/>
<path d="M447.829 166.633C445.005 170.503 436.399 174.24 436.399 174.24C435.408 170.414 437.524 168.997 437.524 168.997C439.728 169.192 442.623 163.817 441.676 162.125C440.507 160.018 438.887 160.771 437.807 161.674C436.693 160.806 435.771 159.717 435.099 158.474C434.427 157.232 434.02 155.864 433.903 154.457C433.761 152.801 436.621 148.125 431.141 146.097C425.66 144.069 417.94 146.097 417.94 146.097C417.94 146.097 415.949 140.987 422.367 138.543C436.771 133.035 453.893 142.431 452.937 158.574C452.68 162.949 452.388 167.917 455.416 171.078C457.071 172.796 459.409 173.629 461.613 174.496C464.49 175.612 467.412 176.967 469.431 179.314C471.449 181.661 472.308 185.256 470.705 187.904C469.944 189.17 468.625 190.383 468.935 191.827C469.156 192.474 469.537 193.056 470.041 193.518C473.35 197.068 475.475 201.557 476.124 206.367C476.428 208.761 476.212 211.193 475.491 213.496C474.77 215.799 473.56 217.92 471.945 219.712C467.518 224.361 460.436 225.575 454.088 224.618C448.953 223.839 443.871 221.714 440.383 217.862C435.071 211.99 434.407 203.463 432.929 195.723C432.841 194.768 432.457 193.864 431.831 193.137C430.282 191.685 427.794 192.863 425.678 192.81C422.022 192.73 419.569 188.718 419.481 185.07C419.392 181.421 420.871 177.986 421.615 174.364C422.358 170.742 422.128 166.562 419.357 164.18C418.321 163.294 417.029 162.736 415.913 161.939C410.973 158.397 411.265 150.224 415.479 145.831C419.693 141.439 426.457 140.359 432.451 141.404C437.267 142.289 448.139 144.946 450.37 149.374C452.601 153.801 450.671 162.754 447.829 166.633Z" fill="#263238"/>
<path d="M411.168 189.701L387.946 213.611L357.119 197.352C353.312 195.007 348.902 193.828 344.433 193.961C343.972 193.961 343.353 194.226 343.459 194.669C343.565 195.112 344.079 195.147 344.158 195.555C344.238 195.962 343.742 196.21 343.335 196.298L335.969 197.937C334.889 198.185 333.579 198.689 333.517 199.796C333.549 200.165 333.666 200.521 333.858 200.837C334.05 201.153 334.312 201.421 334.623 201.621C339.484 205.668 346.301 206.553 352.604 205.969C353.215 205.88 353.835 205.88 354.446 205.969C355.046 206.118 355.619 206.36 356.146 206.686C358.526 208.005 360.834 209.451 363.06 211.016C369.107 215.267 374.516 220.376 380.651 224.503C381.886 225.479 383.359 226.106 384.918 226.318C386.304 226.297 387.668 225.968 388.911 225.353C397.764 221.811 406.839 218.03 413.576 211.282C414.174 210.743 414.661 210.094 415.01 209.369C415.254 208.636 415.371 207.866 415.356 207.093C415.444 203.852 415.403 200.605 415.232 197.352C415.258 195.872 414.934 194.406 414.284 193.075C413.941 192.418 413.391 191.892 412.718 191.58C412.046 191.267 411.289 191.186 410.566 191.348" fill="#FFDAD2"/>
<path d="M396.48 214.921C395.725 215.5 394.909 215.993 394.046 216.391C392.169 217.18 390.053 217.029 388.017 216.976C384.932 216.897 381.846 217.081 378.792 217.525C378.028 217.578 377.288 217.812 376.632 218.207C376.311 218.413 376.065 218.718 375.931 219.075C375.797 219.433 375.782 219.824 375.888 220.19C376.094 220.589 376.398 220.927 376.773 221.173C379.243 223.166 381.899 225.238 385.051 225.601C388.822 226.097 392.435 224.096 395.675 222.165L402.456 218.26C403.471 217.765 404.356 217.04 405.041 216.143C405.989 214.682 406.21 210.6 403.908 210.175C402.022 209.803 397.941 213.832 396.48 214.921Z" fill="#ECC0B7"/>
<path d="M414.585 183.724C415.031 183.579 415.491 183.484 415.957 183.44C418.295 183.219 420.951 183.795 423.297 183.901C426.599 184.043 429.91 184.122 433.221 184.016C439.533 183.83 449.892 183.13 455.54 190.038C462.543 198.565 456.505 213.558 451.618 224.804C449.847 229.002 448.909 242.595 449.847 252.531C449.847 252.531 430.193 259.411 412.903 255.825L406.971 233.562C406.644 232.411 405.617 231.189 405.112 230.091C403.743 227.113 402.744 223.978 402.138 220.757C401.429 217.038 400.367 210.848 401.961 207.27C402.2 206.721 403.023 206.296 403.094 205.721C403.191 204.924 402.138 203.595 401.81 202.878C400.731 200.558 399.863 198.145 399.216 195.67C399.071 195.29 399.052 194.874 399.163 194.483C399.317 194.175 399.549 193.913 399.836 193.722C402.43 191.641 405.033 189.559 407.804 187.682C409.689 186.38 412.195 184.45 414.585 183.724Z" fill="white"/>
<path d="M436.479 167.97C435.169 172.141 429.689 179.482 423.421 177.791C424.158 179.125 424.502 180.64 424.414 182.162C424.327 183.683 423.81 185.149 422.925 186.389C422.925 186.389 424.961 191.587 438.719 183.901C438.719 183.901 435.001 183.591 436.01 175.931C436.312 173.305 437.241 170.79 438.719 168.599C438.55 168.763 438.341 168.88 438.113 168.937C437.884 168.995 437.645 168.992 437.418 168.929C437.191 168.865 436.985 168.743 436.821 168.575C436.656 168.407 436.538 168.198 436.479 167.97Z" fill="#FFDAD2"/>
<path d="M435.85 170.069C435.85 170.069 432.832 182.9 427.714 182.36C422.597 181.82 422.925 174.009 422.925 174.009L435.85 170.069Z" fill="#ECC0B7"/>
<path d="M462.569 194.687C462.923 190.75 461.75 186.829 459.294 183.733C456.425 180.385 452.025 178.88 447.926 177.251C446.156 176.56 444.314 175.665 443.579 173.947C443.092 172.814 443.199 171.521 443.004 170.299C442.809 169.077 442.119 167.749 440.861 167.58C440.481 167.558 440.099 167.612 439.739 167.738C439.379 167.864 439.047 168.06 438.763 168.315C436.16 170.317 435.328 173.992 435.921 177.224C436.515 180.456 438.294 183.316 440.135 186.026C441.977 188.736 443.925 191.446 444.969 194.554C445.757 196.918 445.987 199.433 446.563 201.86C447.838 207.173 452.309 210.361 457.559 207.332C461.18 205.234 462.313 198.415 462.569 194.687Z" fill="#263238"/>
<path d="M422.323 138.561C422.323 138.561 413.983 139.048 411.504 151.136C409.026 163.223 421.075 163.02 421.075 163.02L428.396 142.05L422.323 138.561Z" fill="#263238"/>
<path d="M427.883 178.411C420.331 179.039 415.745 171.99 414.895 162.781C414.807 161.771 414.771 160.744 414.771 159.69C414.757 156.687 415.102 153.694 415.798 150.773C419.1 136.604 439.224 142.298 439.224 142.298C454.991 149.374 441.003 177.321 427.883 178.411Z" fill="#FFDAD2"/>
<path d="M422.482 141.979C424.448 148.807 427.077 158.512 433.744 162.258C434.505 162.683 435.913 163.401 436.825 163.215C437.736 163.029 437.71 162.196 438.542 161.443C438.801 161.186 439.132 161.014 439.492 160.952C439.852 160.891 440.222 160.941 440.552 161.098C440.823 161.303 441.04 161.572 441.184 161.881C441.328 162.19 441.393 162.529 441.375 162.869C441.378 163.707 441.164 164.531 440.755 165.262C440.345 165.993 439.754 166.605 439.038 167.04C438.378 167.342 437.747 167.704 437.152 168.12C436.489 168.775 436.092 169.652 436.037 170.582C435.922 171.835 436.169 173.093 436.746 174.21C437.323 175.327 438.207 176.256 439.295 176.887C439.43 176.973 439.586 177.022 439.746 177.029C439.939 176.99 440.114 176.887 440.242 176.737L443.225 174.009C444.646 172.803 445.926 171.439 447.041 169.945C448.411 167.917 449.15 165.529 449.166 163.082C449.166 161.975 448.723 160.859 448.741 159.796C448.928 158.395 449.3 157.026 449.848 155.723C450.515 154.031 450.858 152.228 450.857 150.41C450.618 146.867 447.67 144.051 444.491 142.44C439.463 139.951 433.655 139.668 428.042 139.606C426.923 139.534 425.801 139.685 424.74 140.049C423.775 140.589 423.377 141.652 422.482 141.979Z" fill="#263238"/>
<path d="M435.851 228.001L441.614 240.664C441.614 240.664 454.008 225.203 458.727 208.51C462.853 193.757 455.54 190.047 455.54 190.047C449.945 187.992 446.147 195.971 440.649 212.088C437.621 220.917 435.851 228.001 435.851 228.001Z" fill="#FFDAD2"/>
<path d="M441.614 240.638C441.614 240.638 441.835 230.339 436.816 228.293C431.796 226.248 396.613 220.731 396.613 220.731L393.311 224.539C393.311 224.539 427.856 244.463 441.614 240.638Z" fill="#FFDAD2"/>
<path d="M384.599 267.85L385.024 267.408C383.316 269.329 382.174 270.711 381.82 271.136C382.687 269.991 383.614 268.895 384.599 267.85Z" fill="#DC9ED5"/>
<path d="M451.946 269.869C450.919 275.865 446.829 281.018 441.844 284.516C436.86 288.014 431.035 290.069 425.2 291.84C421.756 292.894 419.614 297.312 416.506 299.146C415.375 299.701 414.394 300.521 413.647 301.537C412.514 303.37 413.08 305.743 413.647 307.815C416.285 316.983 418.941 326.149 421.615 335.311C422.934 339.863 424.271 344.689 423.014 349.267C421.756 353.846 416.94 357.786 412.452 356.272C403.675 342.103 394.899 327.935 386.122 313.766C386.122 313.766 381.793 296.657 390.877 282.108C394.798 275.838 425.519 249.962 425.519 249.962C433.372 248.82 441.357 248.289 448.944 247.855C449.839 255.24 453.221 262.537 451.946 269.869Z" fill="#5E58F8"/>
<path d="M425.545 249.936C425.545 249.936 394.196 275.457 390.903 282.081C381.705 300.562 386.149 313.739 386.149 313.739C378.476 326.084 370.803 338.428 363.131 350.773C357.819 350.888 350.656 349.445 350.391 344.114C350.423 342.612 350.779 341.134 351.436 339.783C357.22 325.372 363.001 310.968 368.779 296.569C372.205 287.997 375.755 279.247 381.244 271.897L381.731 271.26V271.207L381.802 271.118C382.156 270.693 383.298 269.347 385.007 267.39V267.337C389.991 261.767 399.721 251.796 408.716 247.855C408.716 247.855 419.153 250.733 425.448 249.962L425.545 249.936Z" fill="#5E58F8"/>
<path d="M425.545 249.936C425.545 249.936 394.196 275.457 390.903 282.081C381.705 300.562 386.149 313.739 386.149 313.739C378.476 326.084 370.803 338.428 363.131 350.773C357.819 350.888 350.656 349.445 350.391 344.114C350.423 342.612 350.779 341.134 351.436 339.783C357.22 325.372 363.001 310.968 368.779 296.569C372.205 287.997 375.755 279.247 381.244 271.897L381.731 271.26V271.207L381.802 271.118C382.156 270.693 383.298 269.347 385.007 267.39V267.337C389.991 261.767 399.721 251.796 408.716 247.855C408.716 247.855 419.153 250.733 425.448 249.962L425.545 249.936Z" fill="#2F51C1"/>
<path d="M409.45 364.375C407.396 366.27 404.661 368.165 404.758 370.963C404.748 371.24 404.826 371.512 404.979 371.743C405.265 372.025 405.649 372.184 406.051 372.185C412.372 372.885 418.25 369.033 423.164 364.986C424.403 363.967 425.696 362.799 425.988 361.222C426.28 359.646 425.448 358.061 424.731 356.609C423.567 354.248 422.616 351.788 421.889 349.259C422.11 350.011 418.932 352.686 418.392 353.155C417.259 354.147 415.586 354.864 414.7 356.068C413.815 357.273 413.629 358.725 412.93 359.921C412.009 361.577 410.835 363.08 409.45 364.375Z" fill="#ECC0B7"/>
<path d="M344.203 352.526C341.98 353.314 339.404 353.739 338.005 355.626C337.732 355.961 337.568 356.372 337.536 356.803C337.536 357.972 338.891 358.574 340.033 358.84C344.592 359.77 349.302 359.115 353.906 358.45C354.627 358.463 355.327 358.202 355.865 357.721C356.403 357.241 356.741 356.574 356.81 355.856L358.624 350.259C358.701 350.096 358.723 349.913 358.686 349.737C358.609 349.565 358.479 349.422 358.315 349.329C357.07 348.458 355.745 347.708 354.357 347.089C352.489 346.203 352.365 346.283 351.117 347.762C349.266 349.925 346.883 351.567 344.203 352.526Z" fill="#ECC0B7"/>
<path d="M392.842 220.031C389.203 219.456 385.113 218.986 382.174 221.191C380.778 222.391 379.634 223.857 378.81 225.504C378.234 226.487 377.65 227.665 378.119 228.692C378.588 229.719 379.739 230.038 380.775 230.295C384.13 231.109 387.742 231.871 390.956 230.613C393.329 229.728 395.25 227.718 397.738 227.124C398.159 227.067 398.564 226.928 398.933 226.717C399.273 226.434 399.512 226.049 399.615 225.619C401.111 220.625 396.171 220.501 392.842 220.031Z" fill="#FFDAD2"/>
<path d="M353.861 362.701C353.734 362.961 353.538 363.182 353.295 363.339C352.928 363.468 352.528 363.468 352.162 363.339C350.108 363.062 348.032 362.991 345.964 363.126C341.724 363.059 337.496 362.675 333.313 361.975C331.489 361.709 329.462 361.328 328.409 359.823C328.272 359.652 328.186 359.447 328.161 359.23C328.172 358.901 328.301 358.587 328.524 358.344C330.358 356.147 332.768 354.504 335.482 353.598C336.486 353.172 337.561 352.937 338.652 352.907C339.197 352.897 339.739 353.006 340.237 353.228C340.736 353.45 341.18 353.779 341.538 354.191C342.29 355.147 342.423 356.52 343.246 357.379C344.07 358.238 345.486 358.344 346.726 358.264C348.164 358.213 349.597 358.05 351.011 357.777C352.082 357.574 353.667 356.839 354.729 357.113C357.217 357.795 354.561 361.452 353.861 362.701Z" fill="#2F51C1"/>
<path d="M427.573 364.463C427.622 364.79 427.579 365.125 427.449 365.429C427.185 365.787 426.807 366.046 426.378 366.164C424.238 367.207 422.212 368.468 420.331 369.927C416.293 372.547 412.064 374.859 407.68 376.843C405.785 377.729 403.616 378.676 401.66 377.924C401.424 377.849 401.212 377.711 401.049 377.525C400.853 377.208 400.778 376.831 400.836 376.462C401.166 373.216 402.392 370.126 404.377 367.536C405.061 366.496 405.935 365.595 406.954 364.88C407.463 364.524 408.044 364.284 408.656 364.177C409.267 364.069 409.895 364.098 410.495 364.26C411.814 364.685 412.788 365.916 414.143 366.19C415.497 366.465 416.887 365.685 418.029 364.853C419.36 363.885 420.615 362.816 421.783 361.656C422.668 360.771 423.686 359.088 424.881 358.663C427.626 357.68 427.475 362.816 427.573 364.463Z" fill="#2F51C1"/>
<path d="M460.967 195.068C461.838 197.772 462.431 200.558 462.738 203.383L463.278 207.191C463.469 207.98 463.426 208.808 463.154 209.573C462.525 210.91 459.984 210.361 458.727 210.565C456.479 210.928 454.239 211.282 451.99 211.627C447.493 212.318 442.995 212.979 438.498 213.611C438.261 211.325 438.317 209.019 438.666 206.748C439.082 204.587 440.012 202.559 440.543 200.425C440.977 198.654 441.136 196.883 441.587 195.112C442.538 191.473 444.707 188.269 447.732 186.035C452.468 182.573 459.418 190.959 460.87 194.731L460.967 195.068Z" fill="white"/>
<path d="M491.36 262.927C485.481 276.485 472.255 285.836 458.081 290.033C447.032 293.301 435.39 293.806 423.81 293.142C423.81 292.354 424.271 291.875 425.236 291.831C436.329 291.273 440.923 276.688 444.252 269.267C447.581 261.847 449.856 252.522 471.52 243.923C492.626 235.564 490.05 219.836 491.103 223.006C496.088 237.919 497.61 248.501 491.36 262.927Z" fill="#2F3653"/>
<path d="M492.874 263.547C486.995 277.096 473.769 286.447 459.595 290.653C448.546 293.912 433.708 294.47 422.128 293.797C422.128 293.018 424.271 291.875 425.236 291.831C436.329 291.273 441.171 273.952 444.5 266.531C447.829 259.11 450.883 254.753 471.52 243.923C502.356 227.753 480.046 205.756 479.656 204.348C487.049 206.73 491.165 221.758 492.21 224.928C497.194 239.841 499.124 249.112 492.874 263.547Z" fill="white"/>
<path opacity="0.23" d="M450.99 288.28C441.614 290.671 431.69 290.76 422.562 293.992C425.457 292.965 431.521 294.558 434.744 294.461C439.172 294.326 443.585 293.861 447.944 293.071C455.655 291.672 465.872 289.529 472.228 284.773C468.085 281.249 455.576 287.111 450.99 288.28Z" fill="#5E58F8"/>
<path d="M456.611 370.999C456.468 371.088 456.313 371.157 456.151 371.202C455.862 371.28 455.56 371.295 455.265 371.247C451.981 370.839 435.859 294.054 435.859 294.054L438.064 292.77C438.223 292.681 438.409 292.584 438.568 292.513C439.13 292.276 439.733 292.155 440.342 292.157C440.952 292.159 441.554 292.284 442.114 292.525C442.674 292.765 443.179 293.117 443.6 293.557C444.02 293.998 444.348 294.519 444.562 295.09V295.178C444.654 295.41 444.722 295.65 444.766 295.896L457.443 366.217C457.443 366.217 458.196 369.918 456.611 370.999Z" fill="#5E58F8"/>
<path d="M456.974 364.676C456.974 364.676 456.842 369.104 456.611 370.999C456.47 371.884 456.337 372.238 456.151 371.202C454.566 361.913 441.402 304.893 438.56 292.531C439.121 292.294 439.725 292.173 440.334 292.175C440.943 292.177 441.546 292.302 442.105 292.542C442.665 292.783 443.17 293.134 443.591 293.575C444.012 294.016 444.339 294.537 444.553 295.108V295.196L456.974 364.676Z" fill="url(#paint2_linear)"/>
<path d="M117.092 281.94C117.092 281.94 92.5068 361.408 95.1627 363.357C97.8187 365.305 99.5185 360.009 99.5185 360.009L124.378 286.155L117.092 281.94Z" fill="#5E58F8"/>
<path d="M170.034 291.114L170.264 291.689L198.329 363.711C198.753 364.823 199.394 365.841 200.215 366.704C200.374 366.896 200.571 367.053 200.793 367.165C201.016 367.278 201.259 367.344 201.508 367.359C201.757 367.374 202.006 367.338 202.241 367.252C202.475 367.167 202.689 367.035 202.87 366.863C205.438 364.791 179.073 290.91 179.073 290.91L170.034 291.114Z" fill="#5E58F8"/>
<path d="M149.079 285.827C149.079 285.827 149.964 369.015 153.08 370.051C156.197 371.087 156.25 365.526 156.25 365.526L157.312 287.598L149.079 285.827Z" fill="#5E58F8"/>
<path d="M121.492 282.905C121.492 282.905 94.6846 359.947 97.3672 361.86C100.05 363.773 99.5008 360 99.5008 360L124.378 286.155L121.492 282.905Z" fill="#2F51C1"/>
<path d="M170.264 291.689L198.329 363.711C198.753 364.823 199.394 365.841 200.215 366.704C200.126 358.451 176.231 291.557 176.231 291.557L170.264 291.689Z" fill="#2F51C1"/>
<path d="M149.079 285.827C149.079 285.827 149.964 369.015 153.08 370.051C156.197 371.087 154.275 363.781 154.275 363.781L153.169 286.739L149.079 285.827Z" fill="url(#paint3_linear)"/>
<path d="M94.5608 262.927C100.439 276.485 113.666 285.836 127.84 290.033C138.889 293.301 150.531 293.806 162.11 293.142C165.351 292.97 168.582 292.722 171.805 292.398C177.471 291.831 183.216 291.096 188.52 289.024C193.823 286.952 198.763 283.374 201.454 278.318C203.097 274.99 204.003 271.348 204.11 267.638C204.668 258.127 201.658 248.014 194.371 241.957C188.652 237.175 181.189 235.316 175.257 230.879C168.618 225.893 161.801 221.439 154.771 216.958C147.742 212.477 140.606 207.952 132.745 205.101C124.883 202.249 116.118 201.178 108.168 203.702C105.415 204.587 101.174 206.721 97.0219 216.887C91.0461 231.419 88.3104 248.501 94.5608 262.927Z" fill="#D0D8E1"/>
<path d="M115.622 213.567C116.682 215.838 117.507 218.212 118.084 220.651C118.615 223.626 119.527 226.549 120.049 229.551C121.1 235.57 121.601 241.673 121.545 247.784C121.545 250.202 121.545 252.929 123.272 254.603C124.44 255.727 126.113 256.09 127.698 256.374C130.823 257.003 133.648 258.242 136.773 258.774C140.178 259.268 143.62 259.475 147.06 259.394C157.206 259.394 176.081 258.26 175.452 244.109C174.847 228.132 173.44 212.196 171.238 196.36C170.477 190.994 170.353 184.804 168.697 179.641C167.334 175.293 162.27 175.258 158.073 175.701L157.277 175.789C156.462 175.869 155.648 175.975 154.86 176.073C149.273 176.654 143.65 176.82 138.039 176.569C131.726 176.374 121.616 175.745 115.41 181.696C114.979 182.104 114.574 182.539 114.197 182.998C108.026 190.534 111.338 202.763 115.622 213.567Z" fill="white"/>
<path opacity="0.43" d="M139.154 211.999C139.694 219.084 137.685 226.637 141.403 232.562C141.573 232.895 141.842 233.167 142.173 233.341C142.707 233.446 143.26 233.384 143.758 233.164C144.331 233.049 144.921 233.058 145.491 233.189C146.06 233.32 146.595 233.57 147.06 233.923C147.526 234.277 147.911 234.725 148.19 235.238C148.469 235.751 148.636 236.318 148.68 236.901C149.562 236.236 150.293 235.39 150.822 234.42C151.352 233.451 151.669 232.379 151.752 231.278C151.832 230.047 151.752 228.55 152.779 227.877C154.107 226.992 155.825 228.559 156.108 230.118C156.391 231.676 155.949 233.323 156.391 234.846C156.958 236.839 158.95 238.141 160.968 238.566C163.023 238.869 165.111 238.869 167.166 238.566C168.657 238.342 170.181 238.504 171.592 239.035C172.956 239.681 174.009 241.231 173.593 242.683C173.097 244.41 171.008 245.012 169.237 245.34L144.926 249.874L132.417 252.212C129.681 252.717 124.847 255.134 124.759 251.087C124.631 245.034 123.684 239.025 121.944 233.226C121.244 230.888 121.165 228.497 120.483 226.23C119.651 223.476 118.119 220.837 117.181 218.083C115.289 212.546 114.016 206.817 113.383 201.001C112.94 196.91 113.223 191.977 116.729 189.843C119.261 188.311 122.67 188.957 125.051 190.729C127.955 192.88 129.292 196.263 131.974 198.53C135.091 201.187 137.516 204.18 138.561 208.227C138.867 209.465 139.065 210.727 139.154 211.999Z" fill="#D0D8E1"/>
<path d="M151.549 186.752C151.348 187.019 151.195 187.319 151.097 187.638C151.077 187.986 151.147 188.334 151.301 188.647C154.718 197.219 156.861 206.234 158.985 215.214C160.862 223.113 162.748 231.074 163.137 239.185C163.196 239.779 163.151 240.378 163.005 240.957C162.385 242.958 159.773 243.613 158.631 245.34L154.833 241.001C154.585 240.745 154.386 240.444 154.249 240.115C154.134 239.656 154.134 239.175 154.249 238.716C155.533 230.047 154.107 221.2 152.08 212.663C150.309 205.331 148.122 197.99 148.255 190.454C148.255 189.568 148.255 188.488 147.574 187.895C147.187 187.633 146.763 187.43 146.316 187.293C145.809 187.044 145.357 186.697 144.986 186.272C144.614 185.847 144.331 185.352 144.153 184.816C143.975 184.28 143.906 183.714 143.949 183.151C143.992 182.588 144.147 182.039 144.404 181.537C145.21 181.522 146.002 181.319 146.715 180.943C147.436 180.568 148.267 180.458 149.061 180.633C150.814 181.235 152.549 185.105 151.549 186.752Z" fill="#5E58F8"/>
<path d="M115.419 181.714C121.616 175.763 131.735 176.4 138.048 176.586C143.659 176.837 149.282 176.672 154.869 176.09C155.656 175.993 156.471 175.887 157.285 175.807C153.948 174.443 149.211 175.355 145.652 175.47C140.258 175.648 134.866 175.975 129.478 176.453C124.378 176.923 118.73 177.799 115.419 181.714Z" fill="white"/>
<path d="M134.559 159.451C135.976 163.879 141.695 168.147 148.388 166.305C148.388 166.305 145.732 174.275 149.052 179.137C149.052 179.137 146.883 184.689 132.169 176.48C132.169 176.48 136.144 176.152 135.064 167.988C134.745 165.18 133.752 162.491 132.169 160.151C132.351 160.326 132.576 160.45 132.822 160.511C133.067 160.571 133.325 160.566 133.567 160.495C133.81 160.424 134.029 160.29 134.204 160.106C134.378 159.923 134.501 159.697 134.559 159.451Z" fill="#ECC0B7"/>
<path d="M141.775 169.75C149.53 172.035 155.851 165.641 158.728 156.183C159.038 155.156 159.304 154.076 159.525 152.978C160.193 149.838 160.49 146.631 160.411 143.423C159.959 127.935 137.658 129.511 137.658 129.511C119.651 133.522 128.274 165.783 141.775 169.75Z" fill="#FFDAD2"/>
<path d="M190.007 266.168L189.546 265.69C191.37 267.744 192.601 269.232 192.973 269.675C192.052 268.47 191.051 267.293 190.007 266.168Z" fill="#DC9ED5"/>
<path d="M123.59 130.591C124.933 127.789 127.173 125.517 129.956 124.136C132.505 122.79 136.224 123.055 138.313 120.956C139.437 119.832 139.659 118.123 140.305 116.67C140.968 115.209 142.078 113.997 143.474 113.208C144.385 112.689 145.403 112.386 146.449 112.322C149.681 112.172 152.593 114.669 153.842 117.636C154.727 116.175 156.559 115.608 158.268 115.643C162.199 115.723 165.802 118.503 167.422 122.09C168.087 123.492 168.392 125.039 168.308 126.589C168.218 128.151 167.542 129.622 166.413 130.706C166.176 130.955 165.866 131.123 165.528 131.184C165.363 131.213 165.194 131.182 165.05 131.098C164.906 131.014 164.796 130.881 164.74 130.724C163.624 133.074 162.237 135.286 160.605 137.312C160.056 138.068 159.33 138.676 158.489 139.084C157.654 139.382 156.751 139.434 155.887 139.234C154.701 139.014 153.566 138.576 152.54 137.941C152.359 137.793 152.127 137.723 151.894 137.746C151.664 137.808 151.54 138.039 151.425 138.251C151.107 138.873 150.664 139.423 150.123 139.865C149.582 140.307 148.955 140.632 148.282 140.819C147.102 140.979 145.905 140.934 144.74 140.686C143.144 140.487 141.529 140.487 139.933 140.686C138.958 140.77 138.014 141.073 137.171 141.572C136.66 141.955 136.245 142.453 135.959 143.025C135.673 143.596 135.524 144.227 135.524 144.866C135.524 145.371 136.02 149.533 135.409 149.63C134.427 149.799 134.232 148.169 133.373 147.664C132.514 147.16 131.682 147.815 131.239 148.55C130.876 149.187 130.72 149.921 130.791 150.65C130.862 151.38 131.158 152.069 131.638 152.624C131.935 152.877 132.166 153.199 132.311 153.562C132.361 153.929 132.299 154.303 132.134 154.634L130.62 158.442C128.592 153.651 126.16 149.041 123.351 144.662C122.156 142.891 120.766 140.917 121.297 138.871C121.828 136.825 124.042 135.329 123.581 133.336C123.493 132.956 123.307 132.601 123.254 132.212C123.212 131.651 123.329 131.089 123.59 130.591Z" fill="#263238"/>
<path d="M136.374 248.147C136.374 248.147 145.821 271.729 153.399 274.2C160.977 276.67 208.023 290.875 208.023 290.875L228.022 358.654L233.193 355.484C235.149 354.279 239.824 352.544 241.01 350.587C242.586 348.01 240.213 341.244 239.762 338.313L237.717 325.03C234.966 307.071 232.207 289.109 229.439 271.145C229.44 270.256 229.167 269.388 228.657 268.661C228.147 267.933 227.424 267.381 226.588 267.08C217.333 262.123 207.827 257.65 198.107 253.682C193.344 251.734 188.537 249.927 183.694 248.209C182.738 247.873 175.647 243.994 175.452 244.144C175.39 244.171 170.362 247.952 136.374 248.147Z" fill="#2F3653"/>
<path d="M222.409 361.143C220.232 356.325 220.046 350.897 219.408 345.654C218.939 341.705 218.186 337.8 217.434 333.894L207.147 280.16C207.105 279.016 206.708 277.914 206.012 277.006C205.315 276.098 204.354 275.43 203.26 275.094C186.74 267.027 170.503 258.561 154.125 250.175C154.125 250.175 136.419 243.746 123.272 252.725C123.272 252.725 121.501 274.235 129.079 276.706C145.824 282.167 162.701 287.155 179.711 291.672C180.51 291.834 181.265 292.166 181.924 292.646C182.668 293.389 183.184 294.329 183.411 295.356C189.608 314.226 195.806 333.106 201.463 352.128C202.136 354.371 202.8 356.612 203.455 358.849C203.959 360.558 204.34 365.048 205.588 366.234C207.244 367.908 209.431 366.234 211.644 365.349L223.72 360.478L184.66 265.831L178.976 262.909" fill="#4C516C"/>
<path d="M249.615 352.039C251.616 352.086 253.611 352.285 255.582 352.632C257.425 352.836 259.175 353.547 260.637 354.687C261.466 355.412 262.019 356.4 262.204 357.485C262.286 358.026 262.244 358.578 262.083 359.101C261.922 359.624 261.646 360.103 261.275 360.505C260.563 361.118 259.726 361.568 258.822 361.824C256.715 362.568 254.605 363.303 252.492 364.029C247.968 365.588 243.374 367.164 238.593 367.421C238.31 367.46 238.021 367.429 237.752 367.332C237.545 367.228 237.359 367.087 237.203 366.916C234.335 364.109 231.625 360.815 230.935 356.857C230.9 356.723 230.9 356.583 230.935 356.449C231.012 356.302 231.128 356.179 231.271 356.095C234.158 354.142 237.329 352.648 240.673 351.667C243.701 350.791 246.552 351.977 249.615 352.039Z" fill="#2F3653"/>
<path d="M226.73 361.125C228.731 361.172 230.726 361.37 232.697 361.718C234.54 361.921 236.29 362.633 237.752 363.773C238.58 364.498 239.134 365.486 239.319 366.571C239.4 367.112 239.359 367.664 239.198 368.187C239.037 368.709 238.761 369.189 238.389 369.591C237.678 370.204 236.841 370.654 235.937 370.91C233.83 371.654 231.72 372.389 229.607 373.115C225.083 374.674 220.488 376.25 215.708 376.507C215.41 376.553 215.105 376.523 214.822 376.418C214.616 376.314 214.43 376.173 214.273 376.002C211.405 373.195 208.696 369.901 208.005 365.942C207.97 365.809 207.97 365.668 208.005 365.535C208.082 365.388 208.199 365.265 208.342 365.181C211.228 363.228 214.4 361.734 217.744 360.753C220.816 359.876 223.622 361.054 226.73 361.125Z" fill="#2F3653"/>
<path d="M94.5608 262.927C100.439 276.485 113.666 285.836 127.84 290.033C138.889 293.301 150.531 293.806 162.11 293.142C162.11 292.354 161.65 291.875 160.685 291.831C149.592 291.273 144.997 276.688 141.668 269.267C138.34 261.847 136.064 252.522 114.401 243.923C93.2948 235.564 95.871 219.836 94.8175 223.006C89.8509 237.919 88.3104 248.501 94.5608 262.927Z" fill="#2F3653"/>
<path d="M93.0468 263.547C98.9253 277.096 112.152 286.447 126.326 290.653C137.375 293.912 152.213 294.47 163.793 293.797C163.793 293.018 161.65 291.875 160.685 291.831C149.592 291.273 144.749 273.952 141.421 266.531C138.092 259.11 135.002 254.753 114.401 243.941C83.565 227.771 105.875 205.774 106.265 204.366C98.8722 206.748 94.7555 221.776 93.7108 224.946C88.7265 239.841 86.7965 249.112 93.0468 263.547Z" fill="white"/>
<path opacity="0.23" d="M134.931 288.28C144.307 290.671 154.231 290.76 163.359 293.992C160.464 292.965 154.399 294.558 151.177 294.461C146.751 294.326 142.342 293.862 137.985 293.071C130.266 291.672 120.058 289.529 113.692 284.773C117.836 281.249 130.345 287.111 134.931 288.28Z" fill="#5E58F8"/>
<path d="M129.309 370.999C129.452 371.088 129.607 371.157 129.77 371.202C130.058 371.28 130.36 371.295 130.655 371.247C133.94 370.839 150.061 294.054 150.061 294.054L147.857 292.77C147.697 292.681 147.512 292.584 147.352 292.513C146.791 292.276 146.188 292.155 145.578 292.157C144.969 292.159 144.367 292.284 143.807 292.525C143.247 292.765 142.742 293.117 142.321 293.557C141.9 293.998 141.573 294.519 141.359 295.09V295.178C141.26 295.408 141.189 295.649 141.146 295.896L128.468 366.217C128.468 366.217 127.725 369.918 129.309 370.999Z" fill="#5E58F8"/>
<path d="M128.947 364.676C128.947 364.676 129.079 369.104 129.31 370.999C129.451 371.884 129.584 372.238 129.77 371.202C131.355 361.913 144.519 304.893 147.361 292.531C146.8 292.294 146.196 292.173 145.587 292.175C144.978 292.177 144.375 292.302 143.816 292.542C143.256 292.783 142.751 293.134 142.33 293.575C141.909 294.016 141.582 294.537 141.368 295.108V295.196L128.947 364.676Z" fill="url(#paint4_linear)"/>
<path d="M146.989 256.648C146.794 257.807 146.183 258.856 145.272 259.597C144.29 260.409 143.111 260.946 141.854 261.156C139.455 261.537 137.003 260.872 134.683 260.146C127.255 257.843 120.032 254.922 113.09 251.415C110.806 250.264 108.46 248.971 107.088 246.81C105.574 244.384 105.556 241.328 105.636 238.477C105.979 226.535 107.011 214.622 108.726 202.798C109.469 197.565 109.407 189.462 112.541 184.468C113.309 183.156 114.397 182.061 115.705 181.287C117.012 180.512 118.495 180.083 120.014 180.04C124.989 179.739 129.106 184.468 130.018 189.356C130.93 194.244 129.513 199.256 128.247 204.074C126.476 211.016 124.936 218.056 123.82 225.141C123.298 228.293 122.891 231.711 124.405 234.536C125.12 235.756 126.016 236.86 127.061 237.813C131.271 241.915 135.91 245.552 140.898 248.661C143.917 250.565 147.512 253.133 146.989 256.648Z" fill="white"/>
<path d="M217.124 215.267C216.881 216.512 216.368 217.688 215.622 218.713C214.875 219.738 213.914 220.587 212.804 221.2C210.582 222.411 208.196 223.291 205.721 223.812L195.558 226.469C190.246 227.868 183.845 228.975 179.905 225.141C179.203 224.494 178.673 223.683 178.364 222.78C178.054 221.877 177.976 220.91 178.135 219.969C178.245 219.492 178.453 219.043 178.746 218.65C179.494 217.825 180.396 217.154 181.402 216.675C184.332 214.938 186.882 212.628 188.9 209.883C182.88 207.634 176.612 205.34 171.574 201.435C170.637 200.73 169.749 199.961 168.919 199.132C165.214 195.402 162.7 190.656 161.694 185.495C161.252 183.334 160.499 179.721 161.287 177.578C162.358 174.647 164.377 176.002 167.245 176.825C178.214 179.978 188.36 185.601 197.426 192.446C202.652 196.445 207.595 200.8 212.219 205.482C214.884 208.147 217.646 211.503 217.124 215.267Z" fill="white"/>
<path opacity="0.38" d="M192.964 213.239C189.422 215.692 185.775 218.056 182.092 220.323C181.021 220.988 179.533 221.634 178.622 220.748C178.369 220.515 178.204 220.203 178.152 219.863C178.263 219.386 178.471 218.936 178.763 218.543C179.512 217.719 180.414 217.048 181.419 216.569C184.35 214.832 186.9 212.522 188.918 209.777C182.88 207.634 176.612 205.34 171.574 201.435C171.574 201.196 171.574 200.957 171.574 200.691C171.574 199.805 171.389 193.359 170.884 193.049L193.513 207.058C194.392 207.472 195.099 208.18 195.513 209.059C196.089 210.697 194.442 212.229 192.964 213.239Z" fill="#D0D8E1"/>
<path d="M171.034 226.416C170.386 228.073 170.041 229.834 170.016 231.614C169.759 234.033 170.147 236.478 171.141 238.698C172.256 240.85 174.567 242.524 176.975 242.24C177.798 242.119 178.585 241.817 179.279 241.358C179.974 240.899 180.559 240.294 180.994 239.584C181.859 238.154 182.321 236.517 182.331 234.846C183.438 234.563 184.049 233.376 184.323 232.26C184.47 231.125 184.824 230.027 185.368 229.019C186.041 228.072 187.2 227.54 187.767 226.522C188 226.04 188.113 225.509 188.096 224.974C188.079 224.439 187.933 223.915 187.67 223.449C186.218 220.642 181.676 218.216 178.701 219.517C175.727 220.819 172.416 223.254 171.034 226.416Z" fill="#FFDAD2"/>
<path d="M142.492 259.305C144.36 262.086 148.308 262.458 151.619 261.962C154.998 261.474 158.265 260.394 161.269 258.774C162.067 258.442 162.721 257.836 163.111 257.065C163.279 256.522 163.279 255.942 163.111 255.4C162.838 254.495 162.384 253.656 161.775 252.934C161.166 252.212 160.415 251.623 159.57 251.202C157.873 250.371 156.071 249.775 154.213 249.431C151.212 248.749 148.016 248.067 145.121 249.077C142.226 250.086 141.686 249.963 141.367 252.867C141.199 254.975 141.279 257.525 142.492 259.305Z" fill="#FFDAD2"/>
<path d="M133.417 172.778L139.429 175.896C141.548 176.882 143.535 178.132 145.342 179.615C144.247 182.05 143.533 184.64 143.227 187.292C141.645 185.322 139.808 183.571 137.764 182.085C135.861 180.828 133.647 180.049 131.868 178.605C129.77 176.905 132.346 174.514 133.417 172.778Z" fill="white"/>
<path d="M152.275 178.694L155.081 182.431C155.272 182.645 155.406 182.904 155.471 183.184C153.309 182.17 151.032 181.427 148.689 180.97C148.561 180.965 148.435 180.933 148.32 180.875C148.205 180.817 148.105 180.734 148.025 180.633C147.942 180.447 147.927 180.237 147.981 180.04C148.156 178.636 147.919 177.211 147.299 175.94C147.044 175.543 146.878 175.096 146.812 174.629C146.697 172.557 148.902 174.736 149.415 175.24C150.452 176.32 151.407 177.474 152.275 178.694Z" fill="white"/>
<path opacity="0.41" d="M331.967 180.97V188.94C331.969 190.611 331.64 192.267 331.002 193.812C330.363 195.357 329.426 196.761 328.244 197.943C327.063 199.126 325.66 200.064 324.116 200.704C322.572 201.344 320.917 201.674 319.245 201.674H211.431C208.058 201.662 204.827 200.312 202.449 197.919C200.07 195.526 198.738 192.287 198.745 188.913V180.943L331.967 180.97Z" fill="#8DA1B5"/>
<path opacity="0.43" d="M145.272 259.597C144.29 260.409 143.111 260.946 141.854 261.156C139.455 261.537 137.003 260.872 134.683 260.146C127.255 257.843 120.032 254.922 113.09 251.415C110.806 250.264 108.46 248.971 107.088 246.81C105.574 244.384 105.556 241.328 105.636 238.477C105.979 226.535 107.011 214.622 108.726 202.798C109.469 197.565 109.407 189.462 112.541 184.468C113.464 184.734 114.369 185.06 115.251 185.442C116.452 185.845 117.484 186.64 118.181 187.7C118.942 189.099 118.624 190.835 118.261 192.411C114.961 207.456 112.686 222.708 111.453 238.061C111.288 238.777 111.347 239.527 111.621 240.209C111.894 240.891 112.37 241.473 112.984 241.877C115.999 244.602 119.216 247.095 122.608 249.334C127.919 252.876 134.365 256.932 140.686 258.101C142.483 258.446 143.953 258.464 145.272 259.597Z" fill="#D0D8E1"/>
<path d="M425.802 53.2832H324.655C313.375 53.2832 304.23 62.4298 304.23 73.7127V82.2493C304.23 93.5322 313.375 102.679 324.655 102.679H425.802C437.082 102.679 446.227 93.5322 446.227 82.2493V73.7127C446.227 62.4298 437.082 53.2832 425.802 53.2832Z" fill="white"/>
<path d="M390.753 118.991L377.951 100.81H390.753V118.991Z" fill="white"/>
</g>
<defs>
<linearGradient id="paint0_linear" x1="14400.6" y1="27635.4" x2="14491.1" y2="39793.7" gradientUnits="userSpaceOnUse">
<stop offset="0.01"/>
<stop offset="0.08" stop-opacity="0.69"/>
<stop offset="0.21" stop-opacity="0.32"/>
<stop offset="1" stop-opacity="0"/>
</linearGradient>
<linearGradient id="paint1_linear" x1="3549.26" y1="34880.1" x2="2800.9" y2="34889.3" gradientUnits="userSpaceOnUse">
<stop offset="0.01"/>
<stop offset="0.08" stop-opacity="0.69"/>
<stop offset="0.21" stop-opacity="0.32"/>
<stop offset="1" stop-opacity="0"/>
</linearGradient>
<linearGradient id="paint2_linear" x1="10692.5" y1="32076.2" x2="8622.75" y2="32364.9" gradientUnits="userSpaceOnUse">
<stop offset="0.01"/>
<stop offset="0.08" stop-opacity="0.69"/>
<stop offset="0.21" stop-opacity="0.32"/>
<stop offset="1" stop-opacity="0"/>
</linearGradient>
<linearGradient id="paint3_linear" x1="-19358.1" y1="34880" x2="-18611.3" y2="34889.2" gradientUnits="userSpaceOnUse">
<stop offset="0.01"/>
<stop offset="0.08" stop-opacity="0.69"/>
<stop offset="0.21" stop-opacity="0.32"/>
<stop offset="1" stop-opacity="0"/>
</linearGradient>
<linearGradient id="paint4_linear" x1="-69514.4" y1="32076.2" x2="-67444.5" y2="32364.9" gradientUnits="userSpaceOnUse">
<stop offset="0.01"/>
<stop offset="0.08" stop-opacity="0.69"/>
<stop offset="0.21" stop-opacity="0.32"/>
<stop offset="1" stop-opacity="0"/>
</linearGradient>
<clipPath id="clip0">
<rect width="585" height="453" fill="white"/>
</clipPath>
</defs>
</svg>
