<svg width="803" height="542" viewBox="0 0 803 542" fill="none" xmlns="http://www.w3.org/2000/svg">
<g clip-path="url(#clip0)">
<path opacity="0.18" d="M296.112 517.577C324.109 512.2 353.386 512.991 380.332 522.299C487.869 559.448 588.798 543.127 677.328 489.737C723.383 461.973 766.597 427.028 788.809 381.05C811.021 335.072 807.848 276.374 769.647 240.06C741.054 212.885 697.629 201.422 670.263 173.132C648.735 150.843 640.057 120.929 625.541 94.3425C572.579 -2.59576 336.276 -41.9028 240.152 58.9996C147.64 156.193 -66.8717 206.214 19.9779 413.32C56.5953 500.589 189.988 537.959 296.112 517.577Z" fill="#5E58F8"/>
<path d="M708.458 371.854L726.265 449.076C726.457 449.891 726.927 450.594 727.579 451.042C728.231 451.489 729.014 451.648 729.769 451.484V451.484C730.516 451.32 731.177 450.852 731.62 450.175C732.062 449.497 732.253 448.662 732.153 447.837C730.297 432.894 722.244 367.939 721.845 367.08C721.446 366.221 715.068 367.221 710.957 367.798C710.539 367.861 710.138 368.02 709.779 368.264C709.421 368.508 709.114 368.833 708.878 369.215C708.642 369.598 708.483 370.031 708.41 370.486C708.338 370.94 708.354 371.407 708.458 371.854V371.854Z" fill="#5E58F8"/>
<path d="M684.461 371.854L666.655 449.076C666.462 449.891 665.992 450.594 665.34 451.042C664.688 451.489 663.905 451.648 663.15 451.484V451.484C662.403 451.32 661.742 450.852 661.299 450.175C660.857 449.497 660.666 448.662 660.766 447.837C662.622 432.894 670.675 367.939 671.074 367.08C671.473 366.221 677.851 367.221 681.962 367.798C682.38 367.861 682.781 368.02 683.14 368.264C683.498 368.508 683.805 368.833 684.041 369.215C684.277 369.598 684.436 370.031 684.509 370.486C684.581 370.94 684.565 371.407 684.461 371.854V371.854Z" fill="#5E58F8"/>
<path d="M708.458 371.854L726.265 449.076C726.457 449.891 726.927 450.594 727.579 451.042C728.231 451.489 729.014 451.648 729.769 451.484V451.484C730.516 451.32 731.177 450.852 731.62 450.175C732.062 449.497 732.253 448.662 732.153 447.837C730.297 432.894 722.244 367.939 721.845 367.08C721.446 366.221 715.068 367.221 710.957 367.798C710.539 367.861 710.138 368.02 709.779 368.264C709.421 368.508 709.114 368.833 708.878 369.215C708.642 369.598 708.483 370.031 708.41 370.486C708.338 370.94 708.354 371.407 708.458 371.854V371.854Z" fill="url(#paint0_linear)"/>
<path d="M684.461 371.854L666.655 449.076C666.462 449.891 665.992 450.594 665.34 451.042C664.688 451.489 663.905 451.648 663.15 451.484V451.484C662.403 451.32 661.742 450.852 661.299 450.175C660.857 449.497 660.666 448.662 660.766 447.837C662.622 432.894 670.675 367.939 671.074 367.08C671.473 366.221 677.851 367.221 681.962 367.798C682.38 367.861 682.781 368.02 683.14 368.264C683.498 368.508 683.805 368.833 684.041 369.215C684.277 369.598 684.436 370.031 684.509 370.486C684.581 370.94 684.565 371.407 684.461 371.854V371.854Z" fill="url(#paint1_linear)"/>
<path d="M752.872 280.081C752.15 283.59 750.213 286.712 748.811 290.006C739.517 311.974 754.52 340.572 740.139 359.633C734.458 367.151 725.121 371.29 715.755 372.708C706.389 374.126 696.821 373.137 687.397 372.135L673.681 370.703C669.446 370.259 665.124 369.786 661.309 367.91C657.493 366.034 654.27 362.425 654.082 358.215C653.851 353.017 658.071 348.806 661.843 345.183C677.106 330.553 690.362 314 701.273 295.949C707.286 285.924 714.599 272.577 727.029 269.799C735.644 267.851 755.647 266.606 752.872 280.081Z" fill="#5E58F8"/>
<path d="M747.167 276.391C746.472 279.93 744.61 283.08 743.262 286.417C734.326 308.562 748.751 337.425 734.923 356.637C729.461 364.222 720.483 368.396 711.478 369.841C702.472 371.286 693.272 370.26 684.21 369.249L671.022 367.804C666.949 367.342 662.794 366.865 659.125 364.915C655.456 362.965 652.357 359.397 652.176 355.15C651.954 349.891 656.012 345.644 659.639 341.989C674.315 327.232 687.061 310.534 697.552 292.325C703.334 282.285 710.366 268.749 722.318 265.961C730.601 264.054 749.835 262.783 747.167 276.391Z" fill="url(#paint2_linear)"/>
<path d="M633.117 316.245H624.545V465.84H633.117V316.245Z" fill="#5E58F8"/>
<path d="M633.117 316.245H624.545V465.84H633.117V316.245Z" fill="url(#paint3_linear)"/>
<path d="M588.066 417.569C586.56 420.426 585.681 423.583 585.492 426.821C585.492 432.98 590.361 437.87 594.825 442.019C598.253 432.795 603.221 423.927 610.539 417.497C615.465 413.22 651.567 367.856 656.716 363.807C661.866 359.758 698.01 358.018 698.821 351.475C699.731 344.09 668.778 345.073 663.097 340.155C655.961 333.967 622.083 343.619 617.732 349.507C607.657 363.122 594.853 402.1 588.066 417.569Z" fill="#3E3E54"/>
<path d="M588.08 417.555C586.578 420.415 585.695 423.57 585.492 426.807C585.562 432.966 590.375 437.856 594.838 442.019C598.266 432.795 603.233 423.927 610.55 417.498C615.461 413.221 651.573 367.857 656.721 363.808C661.87 359.759 698.01 358.02 698.821 351.462C699.731 344.077 668.782 345.075 663.101 340.157C655.966 333.969 622.093 343.607 617.742 349.495C607.654 363.11 594.894 402.087 588.08 417.555Z" fill="url(#paint4_linear)"/>
<path opacity="0.48" d="M591.853 58.0283H254.323C244.685 58.0283 236.871 65.7218 236.871 75.2122V259.995C236.871 269.486 244.685 277.179 254.323 277.179H591.853C601.491 277.179 609.304 269.486 609.304 259.995V75.2122C609.304 65.7218 601.491 58.0283 591.853 58.0283Z" fill="#5E58F8"/>
<path d="M678.881 256.899C678.574 251.516 679.912 246.171 682.699 241.646C685.5 237.149 689.247 233.389 693.648 230.657C696.153 229.058 699.013 227.69 701.86 228.079C704.31 228.41 707.731 224.55 709.716 226.091C715.299 230.412 719.296 240.739 723.976 246.097C725.215 253.306 725.983 260.597 726.276 267.917L729.095 323.194C729.56 332.311 729.807 342.292 724.579 349.594C711.486 344.586 698.744 338.614 686.449 331.721C685.271 331.174 684.227 330.351 683.397 329.315C682.549 327.786 682.145 326.028 682.234 324.26C681.714 310.501 681.714 296.741 682.234 282.982C682.48 275.55 679.442 264.316 678.881 256.899Z" fill="#5E58F8"/>
<path d="M701.588 310.899C702.061 308.075 703.021 305.251 702.476 302.427C701.559 297.373 696.198 293.349 697.029 288.309C697.359 286.233 698.721 284.468 699.595 282.548C701.143 279.146 701.143 275.277 701.029 271.55C700.9 266.439 700.642 261.314 700.255 256.217C697.825 257.996 695.835 260.294 694.434 262.938L683.64 280.078C682.427 281.849 681.408 283.742 680.601 285.725C679.644 288.893 679.213 292.192 679.325 295.495L678.838 320.132C678.838 322.49 678.838 325.074 680.4 326.853C681.508 327.94 682.888 328.719 684.4 329.112C689.446 330.792 698.85 333.87 701.745 328.321C704.268 323.521 700.613 316.603 701.588 310.899Z" fill="url(#paint5_linear)"/>
<path d="M688.095 324.946L649.087 329.785C642.491 330.612 635.782 331.453 629.654 333.992C623.527 336.53 617.938 341.088 615.669 347.272C610.307 361.885 611.527 377.198 616.406 391.965C620.387 403.97 624.364 415.974 628.335 427.978C629.26 431.461 630.807 434.752 632.903 437.696C635.172 440.501 638.789 442.534 642.378 441.903C643.046 441.819 643.689 441.595 644.264 441.247C644.838 440.899 645.332 440.434 645.711 439.884C646.226 438.814 646.441 437.628 646.335 436.448L646.421 371.519C646.421 367.789 646.761 363.427 649.91 361.38C651.952 360.062 654.562 360.16 657.002 360.3L700.378 362.81C706.62 363.175 727.698 355.209 726.407 346.501C724.691 334.973 699.797 323.488 688.095 324.946Z" fill="#3E3E54"/>
<path d="M635.558 438.326C634.54 440.346 635.098 442.9 634.247 445.021C633.485 446.558 632.363 447.873 630.982 448.845L621.021 457.199C619.278 458.641 617.324 460.762 618.022 462.97C618.719 465.178 621.328 465.683 623.505 465.784C629.071 465.959 634.642 465.723 640.176 465.076C643.65 464.73 647.444 464.168 649.774 461.484C650.945 460.018 651.698 458.245 651.95 456.362C653.011 449.84 649.997 443.376 647.068 437.605C646.864 437.046 646.459 436.591 645.938 436.335C645.533 436.261 645.115 436.311 644.738 436.479C642.45 437.266 640.273 438.362 638.265 439.74" fill="#3E3E54"/>
<path d="M554.329 440.336C553.608 440.823 553.005 441.436 552.557 442.137C552.099 443.162 552.029 444.292 552.356 445.357C552.684 446.421 553.392 447.361 554.373 448.035C556.375 449.338 558.719 450.16 561.181 450.423C567.046 451.415 573.026 451.753 578.984 451.427C580.461 451.582 581.956 451.329 583.265 450.701C584.575 450.073 585.636 449.101 586.305 447.917C589.017 444.142 591.462 440.22 593.625 436.173C595.28 433.028 591.942 431.397 588.838 430.745C586.056 430.157 583.801 431.306 581.327 432.298C575.661 434.581 569.541 435.051 563.597 436.46C560.231 437.143 557.069 438.465 554.329 440.336V440.336Z" fill="#3E3E54"/>
<path d="M666.089 216.123C668.568 219.075 669.581 223.045 671.904 226.173C672.487 227.13 673.309 227.938 674.299 228.524C675.288 229.111 676.414 229.459 677.578 229.538C680.462 229.434 682.473 226.867 684.999 225.539C685.543 226.352 686.296 227.022 687.187 227.487C688.078 227.951 689.079 228.195 690.097 228.195C692.133 228.176 694.138 227.717 695.958 226.852C699.117 225.512 702.036 223.715 704.61 221.525C704.969 221.27 705.249 220.928 705.421 220.536C705.537 220.115 705.537 219.673 705.421 219.252L700.152 196.083C699.658 192.783 698.396 189.628 696.457 186.845C694.897 185.06 692.909 183.653 690.658 182.743C682.738 179.29 672.668 180.765 667.274 187.524C663.532 192.173 666.463 197.854 665.715 203.122C665.341 205.528 664.28 207.727 663.797 210.073C663.064 212.774 664.468 214.161 666.089 216.123Z" fill="#EFBFBF"/>
<path d="M665.788 186.098C668.351 188.98 672.684 189.441 676.571 189.412C678.552 189.278 680.542 189.414 682.487 189.816C683.457 190.029 684.365 190.463 685.139 191.086C685.913 191.708 686.533 192.502 686.95 193.404C687.597 195.076 687.223 196.964 687.41 198.736C687.441 199.529 687.752 200.285 688.289 200.869C688.565 201.145 688.935 201.307 689.325 201.32C689.715 201.333 690.096 201.198 690.39 200.941C691.067 200.192 691.038 198.506 692.017 198.679C692.177 198.723 692.325 198.801 692.452 198.908C692.578 199.015 692.68 199.148 692.751 199.298C693.344 200.275 693.648 201.4 693.628 202.543C693.608 203.686 693.264 204.8 692.636 205.754C691.815 206.965 690.505 208.493 691.441 209.602C691.988 210.236 692.881 210.222 693.716 210.51C696.292 211.504 696.278 215.655 698.783 216.865C699.369 217.103 700.004 217.194 700.634 217.132C701.263 217.069 701.868 216.854 702.396 216.505C703.444 215.792 704.344 214.882 705.045 213.825C710.061 207.073 713.129 199.072 713.913 190.695C714.287 188.146 714.035 185.544 713.178 183.115C712.077 180.764 710.398 178.731 708.298 177.206C705.275 174.771 701.173 172.739 697.617 174.324C696.508 174.814 695.342 175.65 694.205 175.232C693.696 174.989 693.244 174.64 692.881 174.209C687.857 169.208 679.637 168.329 673.044 170.952C670.568 171.946 665.687 172.969 664.406 175.506C663.693 177.238 663.446 179.128 663.688 180.986C663.93 182.844 664.655 184.606 665.788 186.098V186.098Z" fill="#3E3E54"/>
<path d="M698.841 304.811H360.698V319.104H698.841V304.811Z" fill="#5E58F8"/>
<path d="M698.841 304.811H360.698V319.104H698.841V304.811Z" fill="url(#paint6_linear)"/>
<path d="M387.369 316.245H377.844V465.84H387.369V316.245Z" fill="#5E58F8"/>
<path d="M450.235 319.104H443.567V465.84H450.235V319.104Z" fill="#5E58F8"/>
<path d="M387.369 316.245H377.844V465.84H387.369V316.245Z" fill="url(#paint7_linear)"/>
<path d="M450.235 319.104H443.567V465.84H450.235V319.104Z" fill="url(#paint8_linear)"/>
<path d="M698.841 319.104H691.221V465.84H698.841V319.104Z" fill="#5E58F8"/>
<path d="M698.841 319.104H691.221V465.84H698.841V319.104Z" fill="url(#paint9_linear)"/>
<path d="M159.39 459.444C158.848 460.598 158.181 461.66 157.625 462.814C156.121 465.96 155.585 469.562 156.096 473.076C156.239 474.566 156.698 475.997 157.434 477.253C158.171 478.51 159.164 479.556 160.335 480.308C162.069 481.068 163.961 481.276 165.796 480.908C168.714 480.538 171.827 479.461 173.411 476.738C174.315 474.84 174.792 472.729 174.801 470.584C175.023 467.506 175.19 464.245 173.981 461.352C173.05 459.167 171.341 457.429 170.604 455.198C169.965 453.244 169.993 450.859 168.575 449.505C166.88 447.889 163.489 448.874 162.169 450.705C160.515 453.028 160.613 456.828 159.39 459.444Z" fill="#5E58F8"/>
<path d="M195.671 450.39C195.119 452.25 194.568 454.351 195.348 456.105C196.343 458.373 198.94 458.902 200.904 460.127C202.868 461.351 204.119 463.15 205.962 464.209C207.92 465.217 210.05 465.733 212.204 465.72C215.005 465.879 217.811 465.879 220.612 465.72C222.69 465.761 224.752 465.313 226.666 464.405C227.143 464.173 227.563 463.815 227.89 463.362C228.953 461.729 227.755 459.477 226.451 458.116C224.224 455.804 221.562 454.088 218.661 453.097C215.164 451.917 211.034 451.585 208.841 448.289C207.213 445.87 207.052 442.242 204.913 440.458C198.94 435.378 196.801 446.596 195.671 450.39Z" fill="#5E58F8"/>
<path d="M155.11 427.668L156.545 445.27C156.932 449.823 157.98 455.315 162.285 456.895C165.686 458.147 169.603 456.055 171.583 453.039C173.564 450.022 174.066 446.294 174.453 442.723C178.299 409.071 178.643 374.865 186.536 341.924C191.776 371.869 194.812 402.153 195.619 432.535C195.514 435.529 195.931 438.518 196.853 441.371C197.336 442.793 198.184 444.065 199.314 445.063C200.444 446.061 201.816 446.75 203.296 447.063C206.84 447.532 210.212 444.9 211.734 441.684C213.255 438.468 213.341 434.783 213.398 431.226L215.421 302.553C215.507 296.648 215.809 290.202 219.726 285.763C201.847 285.663 182.417 286.559 164.552 286.46C163.411 286.333 162.259 286.572 161.266 287.143C160.246 288.124 159.653 289.462 159.616 290.871C152.794 336.145 151.282 382.05 155.11 427.668V427.668Z" fill="#3E3E54"/>
<path d="M155.11 427.668L156.545 445.27C156.918 449.823 157.98 455.315 162.285 456.895C165.7 458.147 169.617 456.055 171.598 453.039C173.578 450.022 174.08 446.294 174.468 442.723C178.313 409.071 178.658 374.865 186.55 341.924C191.785 371.87 194.816 402.153 195.619 432.535C195.525 435.529 195.948 438.517 196.867 441.371C197.349 442.791 198.195 444.062 199.322 445.06C200.449 446.058 201.819 446.748 203.296 447.063C206.855 447.532 210.227 444.9 211.748 441.684C213.269 438.468 213.355 434.783 213.412 431.226L215.421 302.553C215.522 296.648 215.809 290.202 219.726 285.763C201.847 285.663 182.417 286.559 164.552 286.46C163.411 286.331 162.259 286.571 161.266 287.143C160.246 288.124 159.653 289.462 159.616 290.871C152.794 336.145 151.282 382.05 155.11 427.668V427.668Z" fill="url(#paint10_linear)"/>
<path d="M270.026 237.675C270.057 238.874 269.671 240.046 268.933 240.99C268.139 241.668 267.167 242.102 266.133 242.24C253.069 245.302 239.529 245.836 226.129 246.356C223.987 246.426 221.34 246.243 220.43 244.277C220.43 246.622 220.43 249.038 220.43 251.469C220.43 259.278 220.262 267.383 220.43 274.912C220.661 278.138 220.358 281.379 219.534 284.506C217.588 290.546 211.875 294.746 205.826 296.586C199.777 298.426 193.308 298.229 186.979 297.99L166.956 297.401C165.22 297.464 163.489 297.188 161.859 296.586C157.35 294.577 156.468 288.636 156.258 283.705C155.642 269.476 155.922 254.727 156.454 240.063C156.832 229.598 157.336 219.19 157.728 209.048C157.91 204.427 160.893 200.269 164.632 197.586C168.516 195.075 172.802 193.255 177.303 192.206C181.794 191.158 186.156 189.618 190.311 187.613C198.301 188.86 205.961 191.696 212.841 195.957C220.054 200.113 225.673 206.571 228.803 214.301C230.007 217.504 230.848 221.17 233.606 223.193C236.364 225.216 239.823 224.893 243.071 224.682C249.741 224.279 256.429 224.312 263.094 224.78C265.265 224.921 267.715 225.258 269.045 227C269.83 228.261 270.22 229.728 270.166 231.213C270.255 233.368 270.208 235.526 270.026 237.675V237.675Z" fill="#5E58F8"/>
<path d="M186.065 252.9C184.673 252.171 183.28 251.549 182.026 250.779C180.772 250.009 179.658 249.211 178.516 248.387L171.328 243.117C170.817 242.759 170.35 242.346 169.935 241.887C169.02 240.733 168.61 239.277 168.793 237.833C168.993 236.398 169.426 235.002 170.074 233.698C170.882 231.873 171.83 229.86 171.244 227.941C170.534 225.549 167.776 224.346 165.255 223.887C164.842 223.799 164.414 223.799 164.001 223.887C163.614 224.024 163.263 224.244 162.974 224.529C162.685 224.814 162.465 225.158 162.33 225.535C161.383 227.761 160.841 230.13 160.728 232.535L159.822 240.954C159.683 241.85 159.683 242.761 159.822 243.657C160.407 246.171 163.04 247.617 165.269 249.063C168.704 251.454 172.01 254.016 175.173 256.738C178.349 259.471 182.127 261.463 186.219 262.563C187.927 262.995 189.72 262.995 191.428 262.563C192.548 262.251 193.556 261.643 194.34 260.806C195.607 259.455 194.744 259.049 193.462 258.022C191.153 256.112 188.678 254.398 186.065 252.9V252.9Z" fill="url(#paint11_linear)"/>
<path d="M207.344 280.429C207.344 280.429 199.442 283.664 193.158 279.297C186.874 274.93 177.37 268.446 177.37 268.446L162.703 262.565V288.046C162.703 288.046 163.072 296.059 167.1 298.132C165.342 298.199 163.588 297.909 161.937 297.279C157.369 295.177 156.476 288.957 156.263 283.796C155.639 268.902 155.922 253.463 156.461 238.113L197.598 270.74L207.344 280.429Z" fill="url(#paint12_linear)"/>
<path d="M142.653 234.565C141.872 236.197 141.525 237.984 141.643 239.771C142.073 241.637 143.064 243.348 144.499 244.701C152.498 253.376 163.969 258.375 175.074 263.126C176.886 264.051 178.88 264.618 180.934 264.792C186.222 264.792 188.391 261.666 189.138 256.75C189.307 255.984 189.277 255.19 189.05 254.437C188.444 253.315 187.474 252.404 186.281 251.834C180.099 248.088 171.631 245.265 166.43 240.363C165.67 239.753 165.153 238.917 164.965 237.994C164.848 236.851 176.92 218.412 174.122 212.091C171.323 205.77 167.764 196.062 160.732 199.931C150.682 205.522 145.671 226.661 142.653 234.565Z" fill="#5E58F8"/>
<path d="M280.985 220.203C281.156 220.103 281.349 220.039 281.549 220.018C281.75 219.996 281.953 220.017 282.144 220.078C282.292 220.184 282.413 220.321 282.495 220.478C282.578 220.634 282.62 220.807 282.619 220.982C282.814 222.395 282.62 223.831 282.055 225.154L290.016 225.821C292.512 226.03 295.438 226.489 296.537 228.602C297.637 230.716 295.928 233.622 293.7 235.069C289.749 237.627 284.669 237.975 279.871 238.058C277.014 238.236 274.145 237.982 271.374 237.308C267.2 236.098 262.269 231.606 265.581 227.573C268.493 223.902 276.781 222.025 280.985 220.203Z" fill="url(#paint13_linear)"/>
<path d="M202.506 257.626C203.357 257.654 204.19 257.885 204.942 258.301C205.312 258.52 205.6 258.864 205.76 259.277C205.92 259.689 205.943 260.146 205.824 260.573C205.18 262.26 202.086 261.849 201.82 263.653C201.826 264.041 201.914 264.424 202.076 264.773C202.238 265.123 202.471 265.431 202.758 265.677L207.197 270.648C208.351 271.788 209.275 273.159 209.913 274.68C210.211 275.453 210.28 276.301 210.11 277.115C209.94 277.929 209.54 278.67 208.961 279.241C208.336 279.633 207.641 279.888 206.918 279.989C206.196 280.09 205.462 280.035 204.76 279.828C200.402 279.017 196.269 277.211 192.653 274.537C189.038 271.863 186.029 268.387 183.842 264.357C177.416 252.259 197.326 257.069 202.506 257.626Z" fill="url(#paint14_linear)"/>
<path d="M215.781 154.851C215.428 158.932 215.047 163.027 214.68 167.108C214.663 167.577 214.59 168.041 214.463 168.489C214.3 168.959 214.015 169.369 213.838 169.854C213.572 170.805 213.502 171.811 213.634 172.797C213.906 177.348 213.634 182.415 210.917 185.919C210.443 186.554 209.884 187.101 209.259 187.543C207.465 188.56 205.417 188.875 203.443 188.438C202.911 188.354 202.372 188.354 201.84 188.438C201.486 188.471 201.154 188.643 200.902 188.923C200.649 189.244 200.459 189.622 200.345 190.03C200.071 190.858 199.845 191.704 199.666 192.564C199.546 193.592 199.174 194.563 198.592 195.37C197.937 195.97 197.098 196.258 196.255 196.174C195.865 196.16 195.478 196.099 195.1 195.992C193.287 195.388 191.597 194.394 190.127 193.065C189.142 192.48 188.338 191.579 187.817 190.478C187.296 189.378 187.083 188.128 187.205 186.89C186.997 182.562 186.789 178.243 186.58 173.935C186.282 167.867 186.037 161.601 188.238 156.08C189.91 151.878 192.884 148.491 196.613 146.54C200.342 144.589 204.577 144.206 208.539 145.46C209.666 145.78 210.744 146.292 211.732 146.977C213.065 148.011 214.228 149.294 215.17 150.77C216.162 152.211 215.931 153.091 215.781 154.851Z" fill="url(#paint15_linear)"/>
<path d="M212.783 153.164C210.654 153.362 208.511 153.362 206.382 153.164C204.013 153.093 201.659 153.559 199.5 154.526C197.842 155.36 196.425 156.596 195.381 158.118C194.336 159.641 193.698 161.4 193.526 163.232C193.416 164.486 193.278 166.12 192.039 166.42C190.8 166.72 190.084 165.657 189.025 165.548C188.416 165.541 187.826 165.757 187.368 166.154C186.911 166.551 186.618 167.102 186.547 167.701C186.454 168.911 186.779 170.117 187.469 171.12C188.162 172.108 188.779 173.147 189.314 174.227C189.742 175.362 189.841 176.593 189.597 177.78C189.354 178.968 188.779 180.064 187.937 180.943C185.271 177.804 183.553 173.984 182.982 169.922C182.417 165.879 182.445 161.777 183.064 157.742C183.184 156.322 183.567 154.937 184.193 153.655C184.551 153.028 185.033 152.456 185.391 151.829C185.969 150.794 186.244 149.608 186.767 148.518C188.152 145.657 190.627 143.457 193.65 142.401C196.641 141.356 199.821 140.947 202.982 141.202C204.982 141.449 207.009 141.371 208.984 140.971C212.301 140.031 219.789 136.57 221.372 142.006C222.887 147.142 217.463 152.36 212.783 153.164Z" fill="#3E3E54"/>
<path d="M187.747 163.898C187.45 163.809 187.136 163.776 186.825 163.801C185.702 163.869 184.63 164.266 183.764 164.937C183.409 165.206 183.114 165.537 182.894 165.91C182.598 166.577 182.508 167.308 182.633 168.02C182.723 169.402 183.25 170.729 184.146 171.833C184.703 172.466 187.747 175.176 188.617 175.225C189.486 175.274 191.278 173.976 191.887 173.294C192.739 172.304 190.808 168.718 190.721 167.419C190.269 165.924 189.2 164.657 187.747 163.898V163.898Z" fill="url(#paint16_linear)"/>
<path d="M187.826 170.569C187.87 170.467 187.87 170.362 187.826 170.259C187.77 170.161 187.655 170.069 187.49 169.99C187.12 169.811 186.626 169.674 186.062 169.592C185.499 169.511 184.886 169.489 184.291 169.529C183.931 169.547 183.59 169.601 183.303 169.685C183.016 169.769 182.794 169.88 182.659 170.007C182.499 170.247 182.579 170.501 182.882 170.72C183.172 171.015 183.547 171.296 184.001 171.56C184.437 171.818 185.017 172.039 185.701 172.206C186.046 172.289 186.436 172.341 186.842 172.36C187.248 172.379 187.661 172.364 188.049 172.315C188.765 172.214 189.637 171.837 189.056 171.56C188.765 171.425 188.318 171.383 188.072 171.216C187.81 171.015 187.724 170.789 187.826 170.569V170.569Z" fill="white"/>
<path d="M201.629 187.816C201.301 187.852 200.993 188.037 200.76 188.34C200.525 188.687 200.349 189.095 200.244 189.536C199.99 190.431 199.78 191.345 199.615 192.273C199.503 193.383 199.159 194.432 198.62 195.305C198.014 195.952 197.236 196.264 196.455 196.173C196.094 196.158 195.735 196.092 195.385 195.977C195.026 194.882 194.891 193.685 194.995 192.502C195.04 191.474 195.137 190.45 195.285 189.438C195.302 188.942 195.449 188.468 195.7 188.094C196.099 187.714 196.595 187.55 197.085 187.635H200.684C201.003 187.66 201.318 187.721 201.629 187.816Z" fill="url(#paint17_linear)"/>
<path d="M270.208 237.826C270.24 239.18 269.847 240.503 269.096 241.569C268.287 242.334 267.298 242.824 266.246 242.981C252.948 246.438 239.166 247.041 225.527 247.628C223.346 247.707 220.653 247.501 219.726 245.281V223.821C219.726 223.821 223.489 236.954 229.703 236.51C235.917 236.065 266.944 234.463 266.944 234.463L270.208 237.826Z" fill="url(#paint18_linear)"/>
<path d="M543.581 69.4623H306.405V88.5189H543.581V69.4623Z" fill="url(#paint19_linear)"/>
<path d="M543.581 184.048C539.849 191.191 534.256 197.226 527.376 201.531C520.496 205.837 512.578 208.258 504.435 208.546C496.293 208.835 488.219 206.979 481.044 203.171C473.87 199.362 467.852 193.739 463.611 186.877C459.369 180.016 457.056 172.164 456.91 164.129C456.763 156.094 458.789 148.166 462.778 141.158C466.767 134.151 472.575 128.318 479.607 124.258C486.638 120.198 494.639 118.057 502.787 118.057H503.102V163.302L543.581 184.048Z" fill="white" fill-opacity="0.59"/>
<path d="M549.296 163.134C549.303 170.324 547.587 177.411 544.292 183.802L504.528 163.134V118.057C516.428 118.135 527.814 122.918 536.202 131.363C544.589 139.808 549.296 151.229 549.296 163.134V163.134Z" fill="url(#paint20_linear)"/>
<path d="M315.93 139.019H306.405V204.764H315.93V139.019Z" fill="url(#paint21_linear)"/>
<path d="M333.075 159.981H324.503V204.764H333.075V159.981Z" fill="url(#paint22_linear)"/>
<path d="M348.316 139.019H338.791V204.764H348.316V139.019Z" fill="url(#paint23_linear)"/>
<path d="M366.413 127.585H356.888V204.764H366.413V127.585Z" fill="url(#paint24_linear)"/>
<path d="M682.04 285.743L667.602 299.006C664.356 302.001 660.55 305.189 656.209 304.775C654.718 304.55 653.292 303.996 652.026 303.15C650.761 302.305 649.687 301.188 648.876 299.875C647.273 297.236 646.134 294.326 645.511 291.277C642.541 279.149 641.869 266.543 643.534 254.152C643.561 253.627 643.727 253.121 644.015 252.689C644.308 252.426 644.65 252.228 645.019 252.107C645.389 251.986 645.779 251.944 646.165 251.985L652.963 251.778C653.384 251.664 653.821 251.638 654.251 251.701C654.681 251.764 655.095 251.915 655.468 252.145C655.841 252.375 656.166 252.68 656.424 253.041C656.682 253.402 656.867 253.812 656.97 254.248L663.341 269.223C668.136 264.033 675.722 246.795 680.504 241.62C681.693 240.323 693.112 229.654 698.642 253.392C700.552 261.673 688.251 280.029 682.04 285.743Z" fill="#5E58F8"/>
<path d="M645.647 242.559C645.705 241.356 646.006 240.177 646.531 239.091C647.206 237.99 648.122 237.054 649.212 236.35C651.269 234.881 653.525 233.704 655.914 232.856C656.755 232.485 657.679 232.335 658.595 232.419C659.525 232.598 660.373 233.061 661.021 233.743C662.245 234.969 663.08 236.522 663.423 238.21C663.766 239.899 663.602 241.649 662.952 243.247C661.45 246.742 657.737 249.072 656.732 252.738C656.303 254.314 656.384 256.141 655.325 257.398C654.202 258.453 652.706 259.033 651.156 259.013C647.322 259.37 646.304 258.219 646.009 254.896C645.488 250.805 645.367 246.673 645.647 242.559V242.559Z" fill="#EFBFBF"/>
<path d="M687.412 235.255C687.412 234.067 687.412 231.916 687.412 230.74C687.402 230.451 687.471 230.165 687.613 229.909C687.814 229.677 688.081 229.504 688.383 229.41C690.589 228.543 692.998 228.139 695.154 227.165C697.878 225.977 700.337 223.791 703.35 223.826C703.654 223.798 703.958 223.883 704.195 224.064C704.356 224.226 704.465 224.428 704.51 224.646C704.876 225.763 705.191 226.891 705.456 228.044C705.526 228.216 705.526 228.406 705.456 228.578C705.341 228.732 705.171 228.842 704.977 228.887L701.862 229.98C696.882 231.703 691.762 232.415 687.412 235.255Z" fill="#5E58F8"/>
<path d="M330.429 408.845C332.796 400.894 336.471 393.176 342.249 387.435C348.027 381.694 356.171 378.162 364.023 379.368C366.877 379.804 369.871 381.025 371.305 383.641C371.962 385.069 372.234 386.658 372.092 388.235C371.949 389.813 371.398 391.32 370.497 392.595C368.666 395.12 366.411 397.277 363.842 398.961C358.198 402.884 352.979 407.436 348.277 412.537C344.867 416.375 342.272 420.922 340.662 425.88C339.604 429.354 340.578 435.023 337.878 437.595C336.816 438.471 335.533 439.005 334.185 439.131C332.838 439.258 331.484 438.971 330.29 438.307C326.795 436.258 327.38 431.156 327.422 427.552C327.563 421.198 328.575 414.898 330.429 408.845Z" fill="#5E58F8"/>
<path d="M330.429 408.845C332.796 400.894 336.471 393.176 342.249 387.435C348.027 381.694 356.171 378.162 364.023 379.368C366.877 379.804 369.871 381.025 371.305 383.641C371.962 385.069 372.234 386.658 372.092 388.235C371.949 389.813 371.398 391.32 370.497 392.595C368.666 395.12 366.411 397.277 363.842 398.961C358.198 402.884 352.979 407.436 348.277 412.537C344.867 416.375 342.272 420.922 340.662 425.88C339.604 429.354 340.578 435.023 337.878 437.595C336.816 438.471 335.533 439.005 334.185 439.131C332.838 439.258 331.484 438.971 330.29 438.307C326.795 436.258 327.38 431.156 327.422 427.552C327.563 421.198 328.575 414.898 330.429 408.845Z" fill="url(#paint25_linear)"/>
<path d="M330.939 419.227C330.557 417.962 330.316 416.672 330.218 415.371C330.214 414.186 330.532 413.015 331.147 411.945C331.762 410.874 332.66 409.932 333.773 409.186C334.849 408.537 335.969 407.94 337.127 407.397C338.362 406.858 339.424 406.084 340.226 405.139C341.028 404.193 341.547 403.104 341.739 401.96C341.739 401.087 341.504 400.213 341.555 399.353C341.542 398.915 341.684 398.483 341.964 398.111C342.244 397.739 342.65 397.443 343.131 397.259C343.728 397.192 344.336 397.272 344.879 397.489C345.422 397.706 345.876 398.05 346.183 398.479C347.513 400.021 348.255 401.856 348.313 403.749C348.35 405.632 348.01 407.506 347.307 409.297C346.352 412.55 344.027 415.417 340.75 417.382C339.319 417.987 337.93 418.659 336.591 419.393C334.759 420.83 333.422 422.644 332.717 424.649C332.616 424.857 331.476 433.248 331.258 433.386C329.815 434.302 331.409 423.914 331.459 423.498C331.497 422.062 331.322 420.628 330.939 419.227Z" fill="url(#paint26_linear)"/>
<path d="M311.306 424.388C309.128 422.452 306.616 420.911 303.885 419.834C298.552 417.284 293.393 414.402 288.438 411.206C286.128 409.712 283.717 407.949 282.909 405.355C282.101 402.761 282.996 400.28 283.847 397.841C284.699 395.402 286.143 392.131 288.958 391.567C290.486 391.396 292.031 391.681 293.39 392.385C302.044 396.033 309.172 402.446 313.601 410.572C314.675 412.588 315.639 414.659 316.488 416.775C318.493 421.785 320.157 426.918 321.469 432.142C322.393 435.864 319.535 442.603 316.358 437.048C313.875 432.932 314.944 428.138 311.306 424.388Z" fill="#5E58F8"/>
<path d="M311.306 424.388C309.128 422.452 306.616 420.911 303.885 419.834C298.552 417.284 293.393 414.402 288.438 411.206C286.128 409.712 283.717 407.949 282.909 405.355C282.101 402.761 282.996 400.28 283.847 397.841C284.699 395.402 286.143 392.131 288.958 391.567C290.486 391.396 292.031 391.681 293.39 392.385C302.044 396.033 309.172 402.446 313.601 410.572C314.675 412.588 315.639 414.659 316.488 416.775C318.493 421.785 320.157 426.918 321.469 432.142C322.393 435.864 319.535 442.603 316.358 437.048C313.875 432.932 314.944 428.138 311.306 424.388Z" fill="url(#paint27_linear)"/>
<path d="M313.152 420.462C313.146 419.318 313.033 418.176 312.815 417.05C312.556 416.037 312.065 415.092 311.379 414.287C310.693 413.483 309.828 412.838 308.85 412.402C307.933 412.046 306.997 411.738 306.047 411.477C305.028 411.243 304.081 410.775 303.286 410.113C302.492 409.451 301.872 408.613 301.479 407.671C301.255 406.923 301.255 406.135 301.017 405.401C300.933 405.024 300.735 404.68 300.448 404.414C300.16 404.147 299.797 403.97 299.406 403.906C298.509 403.906 297.822 404.68 297.472 405.496C296.844 407.044 296.712 408.74 297.094 410.363C297.479 411.977 298.142 413.516 299.055 414.916C300.474 417.522 302.804 419.551 305.627 420.639C306.804 420.901 307.964 421.228 309.102 421.618C310.763 422.508 312.143 423.819 313.096 425.41C313.208 425.574 317.439 436.285 317.636 436.285C318.883 436.815 313.88 424.527 313.754 424.173C313.394 422.966 313.192 421.719 313.152 420.462V420.462Z" fill="url(#paint28_linear)"/>
<path d="M315.015 423.722C312.401 420.208 310.128 416.492 308.223 412.616C306.729 408.987 306.144 405.098 306.512 401.235C306.88 397.372 308.192 393.633 310.351 390.295C312.563 387.296 314.952 384.409 317.507 381.647C322.506 375.65 326.152 367.765 323.584 360.658C322.582 357.881 320.758 355.535 319.831 352.815C318.905 350.094 319.133 346.679 321.594 344.93C324.405 342.945 328.553 344.069 331.561 345.818C337.168 349.269 341.504 354.184 344.005 359.922C346.484 365.639 347.887 371.698 348.153 377.843C348.897 388.657 347.241 400.165 340.039 408.785C337.152 412.228 333.46 415.129 331.014 418.849C327.2 424.679 326.851 431.801 326.836 438.589C326.904 439.334 326.752 440.082 326.395 440.754C323.539 444.919 322.293 437.575 321.837 436.271C320.485 431.926 317.552 427.553 315.015 423.722Z" fill="#5E58F8"/>
<path d="M315.015 423.722C312.401 420.208 310.128 416.492 308.223 412.616C306.729 408.987 306.144 405.098 306.512 401.235C306.88 397.372 308.192 393.633 310.351 390.295C312.563 387.296 314.952 384.409 317.507 381.647C322.506 375.65 326.152 367.765 323.584 360.658C322.582 357.881 320.758 355.535 319.831 352.815C318.905 350.094 319.133 346.679 321.594 344.93C324.405 342.945 328.553 344.069 331.561 345.818C337.168 349.269 341.504 354.184 344.005 359.922C346.484 365.639 347.887 371.698 348.153 377.843C348.897 388.657 347.241 400.165 340.039 408.785C337.152 412.228 333.46 415.129 331.014 418.849C327.2 424.679 326.851 431.801 326.836 438.589C326.904 439.334 326.752 440.082 326.395 440.754C323.539 444.919 322.293 437.575 321.837 436.271C320.485 431.926 317.552 427.553 315.015 423.722Z" fill="url(#paint29_linear)"/>
<path d="M320.371 424.306C319.605 423.105 318.935 421.84 318.369 420.523C317.93 419.293 317.758 417.974 317.867 416.665C317.976 415.356 318.362 414.089 318.997 412.957C319.648 411.936 320.356 410.955 321.116 410.02C322.578 407.991 323.659 405.315 322.885 402.901C322.592 401.978 322.052 401.163 321.774 400.241C321.602 399.79 321.561 399.295 321.654 398.82C321.748 398.344 321.972 397.908 322.3 397.565C322.761 397.307 323.283 397.196 323.803 397.248C324.323 397.3 324.817 397.512 325.223 397.857C326.874 399.034 328.152 400.705 328.891 402.655C329.629 404.617 330.044 406.697 330.119 408.806C330.525 412.495 329.676 416.216 327.722 419.308C326.775 420.393 325.887 421.532 325.062 422.722C324.089 424.795 323.665 427.106 323.834 429.411C323.849 429.664 323.804 429.918 323.703 430.149C322.855 431.579 322.49 429.072 322.373 428.611C321.885 427.091 321.212 425.644 320.371 424.306V424.306Z" fill="url(#paint30_linear)"/>
<path d="M306.405 433.443H342.601L334.051 463.934H313.826L306.405 433.443Z" fill="#5E58F8"/>
<path d="M306.405 433.443H342.601L334.051 463.934H313.826L306.405 433.443Z" fill="url(#paint31_linear)"/>
<path d="M345.458 433.443H302.595V442.019H345.458V433.443Z" fill="#5E58F8"/>
<path d="M345.458 433.443H302.595V442.019H345.458V433.443Z" fill="url(#paint32_linear)"/>
<rect x="196.5" y="164.5" width="8" height="8" rx="2.5" stroke="white"/>
<rect x="208.5" y="164.5" width="8" height="8" rx="2.5" stroke="white"/>
</g>
<defs>
<linearGradient id="paint0_linear" x1="721.098" y1="408.613" x2="744.671" y2="382.994" gradientUnits="userSpaceOnUse">
<stop stop-opacity="0"/>
<stop offset="0.99"/>
</linearGradient>
<linearGradient id="paint1_linear" x1="9921.54" y1="24000.2" x2="11140.9" y2="23701" gradientUnits="userSpaceOnUse">
<stop stop-opacity="0"/>
<stop offset="0.99"/>
</linearGradient>
<linearGradient id="paint2_linear" x1="39770" y1="21858.7" x2="44397.7" y2="29184.4" gradientUnits="userSpaceOnUse">
<stop stop-opacity="0"/>
<stop offset="0.99"/>
</linearGradient>
<linearGradient id="paint3_linear" x1="3735.9" y1="51872.4" x2="13005" y2="21487.4" gradientUnits="userSpaceOnUse">
<stop stop-opacity="0"/>
<stop offset="0.99"/>
</linearGradient>
<linearGradient id="paint4_linear" x1="35145.6" y1="27575.1" x2="44323.5" y2="27575.1" gradientUnits="userSpaceOnUse">
<stop stop-opacity="0"/>
<stop offset="0.99"/>
</linearGradient>
<linearGradient id="paint5_linear" x1="10148" y1="17058" x2="15170" y2="14030.8" gradientUnits="userSpaceOnUse">
<stop stop-opacity="0"/>
<stop offset="0.99"/>
</linearGradient>
<linearGradient id="paint6_linear" x1="100106" y1="3009.79" x2="100106" y2="3857.76" gradientUnits="userSpaceOnUse">
<stop stop-opacity="0"/>
<stop offset="0.99"/>
</linearGradient>
<linearGradient id="paint7_linear" x1="2202" y1="43000" x2="-3831.37" y2="29898.9" gradientUnits="userSpaceOnUse">
<stop stop-opacity="0"/>
<stop offset="0.99"/>
</linearGradient>
<linearGradient id="paint8_linear" x1="2023.84" y1="41992.1" x2="-5063.12" y2="30974.7" gradientUnits="userSpaceOnUse">
<stop stop-opacity="0"/>
<stop offset="0.99"/>
</linearGradient>
<linearGradient id="paint9_linear" x1="3804.04" y1="51007.5" x2="13654.5" y2="21745.5" gradientUnits="userSpaceOnUse">
<stop stop-opacity="0"/>
<stop offset="0.99"/>
</linearGradient>
<linearGradient id="paint10_linear" x1="3075.46" y1="54155.2" x2="9151.41" y2="33277.5" gradientUnits="userSpaceOnUse">
<stop stop-opacity="0"/>
<stop offset="0.99"/>
</linearGradient>
<linearGradient id="paint11_linear" x1="2179.14" y1="6165.77" x2="-207.01" y2="7412.52" gradientUnits="userSpaceOnUse">
<stop stop-opacity="0"/>
<stop offset="0.99"/>
</linearGradient>
<linearGradient id="paint12_linear" x1="3026.02" y1="12478.5" x2="626.242" y2="7739.76" gradientUnits="userSpaceOnUse">
<stop stop-opacity="0"/>
<stop offset="0.99"/>
</linearGradient>
<linearGradient id="paint13_linear" x1="3779.94" y1="2927.25" x2="4486.92" y2="2927.25" gradientUnits="userSpaceOnUse">
<stop stop-color="#E5C5D5"/>
<stop offset="0.42" stop-color="#EAD4D1"/>
<stop offset="1" stop-color="#F0E9CB"/>
</linearGradient>
<linearGradient id="paint14_linear" x1="1540.52" y1="4476.06" x2="2084.69" y2="4476.06" gradientUnits="userSpaceOnUse">
<stop stop-color="#E5C5D5"/>
<stop offset="0.42" stop-color="#EAD4D1"/>
<stop offset="1" stop-color="#F0E9CB"/>
</linearGradient>
<linearGradient id="paint15_linear" x1="1739.56" y1="5703.18" x2="2381.2" y2="5703.18" gradientUnits="userSpaceOnUse">
<stop stop-color="#E5C5D5"/>
<stop offset="0.42" stop-color="#EAD4D1"/>
<stop offset="1" stop-color="#F0E9CB"/>
</linearGradient>
<linearGradient id="paint16_linear" x1="681.313" y1="1387.45" x2="865.066" y2="1450.3" gradientUnits="userSpaceOnUse">
<stop stop-color="#E5C5D5"/>
<stop offset="0.42" stop-color="#EAD4D1"/>
<stop offset="1" stop-color="#F0E9CB"/>
</linearGradient>
<linearGradient id="paint17_linear" x1="600.549" y1="1289.48" x2="619.019" y2="1084.92" gradientUnits="userSpaceOnUse">
<stop stop-opacity="0"/>
<stop offset="0.99"/>
</linearGradient>
<linearGradient id="paint18_linear" x1="5084.79" y1="3678.07" x2="4880.47" y2="4882.2" gradientUnits="userSpaceOnUse">
<stop stop-opacity="0"/>
<stop offset="0.99"/>
</linearGradient>
<linearGradient id="paint19_linear" x1="306.405" y1="78.9906" x2="543.581" y2="78.9906" gradientUnits="userSpaceOnUse">
<stop offset="0.02" stop-color="white" stop-opacity="0"/>
<stop offset="0.32" stop-color="white" stop-opacity="0.39"/>
<stop offset="0.68" stop-color="white" stop-opacity="0.68"/>
<stop offset="1" stop-color="white"/>
</linearGradient>
<linearGradient id="paint20_linear" x1="12631.3" y1="6647.88" x2="14670.8" y2="6241.74" gradientUnits="userSpaceOnUse">
<stop offset="0.02" stop-color="white" stop-opacity="0"/>
<stop offset="0.32" stop-color="white" stop-opacity="0.39"/>
<stop offset="0.68" stop-color="white" stop-opacity="0.68"/>
<stop offset="1" stop-color="white"/>
</linearGradient>
<linearGradient id="paint21_linear" x1="1614.87" y1="4050.21" x2="3905.93" y2="8765.07" gradientUnits="userSpaceOnUse">
<stop offset="0.02" stop-color="white" stop-opacity="0"/>
<stop offset="0.32" stop-color="white" stop-opacity="0.39"/>
<stop offset="0.68" stop-color="white" stop-opacity="0.68"/>
<stop offset="1" stop-color="white"/>
</linearGradient>
<linearGradient id="paint22_linear" x1="324.121" y1="105.149" x2="334.151" y2="227.539" gradientUnits="userSpaceOnUse">
<stop offset="0.02" stop-color="white" stop-opacity="0"/>
<stop offset="0.32" stop-color="white" stop-opacity="0.39"/>
<stop offset="0.67" stop-color="white" stop-opacity="0.68"/>
<stop offset="1" stop-color="white"/>
</linearGradient>
<linearGradient id="paint23_linear" x1="1863.38" y1="3945.01" x2="4154.44" y2="8659.86" gradientUnits="userSpaceOnUse">
<stop offset="0.02" stop-color="white" stop-opacity="0"/>
<stop offset="0.32" stop-color="white" stop-opacity="0.39"/>
<stop offset="0.68" stop-color="white" stop-opacity="0.68"/>
<stop offset="1" stop-color="white"/>
</linearGradient>
<linearGradient id="paint24_linear" x1="1992.36" y1="4532.21" x2="4937.1" y2="9695.11" gradientUnits="userSpaceOnUse">
<stop offset="0.02" stop-color="white" stop-opacity="0"/>
<stop offset="0.32" stop-color="white" stop-opacity="0.39"/>
<stop offset="0.68" stop-color="white" stop-opacity="0.68"/>
<stop offset="1" stop-color="white"/>
</linearGradient>
<linearGradient id="paint25_linear" x1="8145.67" y1="16664.8" x2="6897.12" y2="17011.8" gradientUnits="userSpaceOnUse">
<stop stop-opacity="0"/>
<stop offset="0.99"/>
</linearGradient>
<linearGradient id="paint26_linear" x1="-23644.7" y1="-17247.9" x2="-23964.7" y2="-16539.7" gradientUnits="userSpaceOnUse">
<stop stop-opacity="0"/>
<stop offset="0.99"/>
</linearGradient>
<linearGradient id="paint27_linear" x1="5302.86" y1="12822.6" x2="5775.66" y2="14814.3" gradientUnits="userSpaceOnUse">
<stop stop-opacity="0"/>
<stop offset="0.99"/>
</linearGradient>
<linearGradient id="paint28_linear" x1="168917" y1="-12597.5" x2="169351" y2="-12070.3" gradientUnits="userSpaceOnUse">
<stop stop-opacity="0"/>
<stop offset="0.99"/>
</linearGradient>
<linearGradient id="paint29_linear" x1="6714.95" y1="24223.7" x2="5973.23" y2="29469.3" gradientUnits="userSpaceOnUse">
<stop stop-opacity="0"/>
<stop offset="0.99"/>
</linearGradient>
<linearGradient id="paint30_linear" x1="2171.41" y1="9505.52" x2="2083.57" y2="10048.2" gradientUnits="userSpaceOnUse">
<stop stop-opacity="0"/>
<stop offset="0.99"/>
</linearGradient>
<linearGradient id="paint31_linear" x1="5274.61" y1="9627.56" x2="6238.49" y2="9627.56" gradientUnits="userSpaceOnUse">
<stop stop-opacity="0"/>
<stop offset="0.99"/>
</linearGradient>
<linearGradient id="paint32_linear" x1="6731.21" y1="2939.27" x2="6734.45" y2="3014.59" gradientUnits="userSpaceOnUse">
<stop stop-opacity="0"/>
<stop offset="0.99"/>
</linearGradient>
<clipPath id="clip0">
<rect width="803" height="542" fill="white"/>
</clipPath>
</defs>
</svg>
