<svg width="20" height="20" viewBox="0 0 20 20" fill="none" xmlns="http://www.w3.org/2000/svg">
<path d="M9.63153 3.00218C8.44778 3.01672 5.90281 3.21455 4.47936 4.54269C3.42053 5.60969 3.05084 7.18723 3.00751 9.13794C2.97155 11.0816 2.92822 14.7318 6.38774 15.7256V17.2394C6.38774 17.2394 6.36608 17.8451 6.75974 17.9693C7.24467 18.1255 7.52079 17.6595 7.98175 17.1588L8.84144 16.1701C11.2085 16.3702 13.0214 15.9089 13.2303 15.8405C13.7106 15.6844 16.416 15.3328 16.858 11.6822C17.3116 7.91201 16.6372 5.53656 15.4198 4.46205H15.4125C15.0451 4.11795 13.5686 3.02375 10.27 3.01156C10.27 3.01156 10.0252 2.99468 9.63153 3.00171V3.00218ZM9.6721 4.06216C10.0081 4.05981 10.2123 4.07435 10.2123 4.07435C13.0044 4.08185 14.337 4.93648 14.6514 5.22433C15.6766 6.11788 16.2048 8.25939 15.8181 11.407C15.4507 14.4589 13.2565 14.6521 12.8504 14.7838C12.6776 14.84 11.0808 15.2404 9.06916 15.1087C9.06916 15.1087 7.57103 16.9473 7.10269 17.4208C7.02848 17.5038 6.94182 17.5282 6.8865 17.516C6.80722 17.4963 6.78325 17.3965 6.78786 17.2596L6.80215 14.7472C3.86813 13.9221 4.04099 10.8088 4.07233 9.18248C4.10829 7.55618 4.40837 6.22571 5.30172 5.32466C6.50437 4.21874 8.66536 4.06966 9.67117 4.06216H9.6721ZM9.89336 5.68798C9.86921 5.68774 9.84525 5.69235 9.82287 5.70156C9.80048 5.71078 9.78011 5.72441 9.76293 5.74166C9.74574 5.75892 9.73209 5.77947 9.72275 5.80212C9.71341 5.82476 9.70857 5.84907 9.70851 5.87363C9.70851 5.97864 9.79241 6.06162 9.89336 6.06162C10.3504 6.05278 10.8046 6.13605 11.2299 6.30663C11.6551 6.47721 12.043 6.73173 12.371 7.0555C13.0408 7.71698 13.3672 8.60584 13.3796 9.76802C13.3796 9.87069 13.4612 9.95601 13.5645 9.95601V9.94851C13.6131 9.94863 13.6599 9.92919 13.6945 9.89441C13.7291 9.85964 13.7488 9.81235 13.7493 9.76286C13.7717 9.21583 13.6845 8.66989 13.4929 8.15821C13.3014 7.64653 13.0096 7.1798 12.6352 6.7864C11.9055 6.06115 10.9808 5.68751 9.89336 5.68751V5.68798ZM7.46363 6.11788C7.33315 6.09849 7.20008 6.12513 7.08656 6.19336H7.07688C6.81333 6.35047 6.57591 6.54905 6.37345 6.78171C6.2052 6.97955 6.11393 7.17973 6.08996 7.37241C6.07567 7.48727 6.08535 7.60213 6.119 7.71183L6.13099 7.71933C6.32044 8.28565 6.56798 8.8304 6.87037 9.34328C7.25989 10.0638 7.73926 10.7302 8.29659 11.3259L8.31318 11.3502L8.33946 11.3699L8.35605 11.3896L8.37541 11.4065C8.96324 11.975 9.62005 12.4648 10.3299 12.864C11.1412 13.3131 11.6335 13.5255 11.929 13.6136V13.6183C12.0156 13.6451 12.0945 13.6572 12.1737 13.6572C12.4256 13.6385 12.6639 13.5345 12.8509 13.3619C13.0786 13.1559 13.2717 12.9135 13.4225 12.6442V12.6395C13.564 12.3685 13.5161 12.1121 13.3119 11.9386C12.9029 11.575 12.4607 11.2521 11.9912 10.9743C11.6768 10.8008 11.3574 10.9058 11.2278 11.0816L10.9517 11.4356C10.8102 11.6114 10.553 11.587 10.553 11.587L10.5456 11.5917C8.62756 11.0933 8.11589 9.11825 8.11589 9.11825C8.11589 9.11825 8.09192 8.84962 8.26939 8.71273L8.61511 8.42957C8.7806 8.29268 8.89584 7.96826 8.71837 7.64807C8.44704 7.16996 8.13023 6.72009 7.77247 6.30493C7.69426 6.20706 7.58454 6.14047 7.46271 6.11694L7.46363 6.11788ZM10.2123 6.67482C9.96757 6.67482 9.96757 7.05081 10.2146 7.05081C10.519 7.05583 10.8194 7.1218 11.0987 7.24496C11.378 7.36811 11.6307 7.54603 11.8423 7.76855C12.0354 7.98515 12.1837 8.23894 12.2786 8.51491C12.3734 8.79088 12.4129 9.08341 12.3945 9.37516C12.3954 9.42453 12.4152 9.47161 12.4497 9.50631C12.4843 9.541 12.5308 9.56057 12.5794 9.5608L12.5868 9.57065C12.6357 9.57028 12.6825 9.55036 12.7171 9.51518C12.7517 9.48001 12.7712 9.4324 12.7716 9.38266C12.7882 8.63772 12.5605 8.0128 12.1138 7.51211C11.6648 7.01143 11.0384 6.73061 10.2386 6.67482H10.2123V6.67482ZM10.5152 7.68557C10.263 7.67807 10.2534 8.06156 10.5032 8.06906C11.1108 8.10094 11.4058 8.41316 11.4445 9.05543C11.4453 9.10418 11.4649 9.15066 11.499 9.18492C11.5331 9.21918 11.5791 9.2385 11.627 9.23873H11.6344C11.6591 9.23766 11.6833 9.2316 11.7056 9.22091C11.7279 9.21023 11.7479 9.19513 11.7644 9.17649C11.7809 9.15786 11.7936 9.13606 11.8018 9.11238C11.8099 9.08869 11.8134 9.0636 11.8119 9.03855C11.7686 8.20126 11.3196 7.72964 10.5226 7.68604H10.5152V7.68557Z" fill="white"/>
</svg>
