<svg width="459" height="470" viewBox="0 0 459 470" fill="none" xmlns="http://www.w3.org/2000/svg">
<g clip-path="url(#clip0)">
<path opacity="0.24" d="M452.452 394.248C443.346 415.173 424.376 429.214 403.406 439.358C396.541 442.652 389.467 445.561 382.47 448.141C362.225 455.606 341.146 461.634 319.55 462.501C296.626 463.401 273.877 458.505 250.941 456.946C215.999 454.629 181.024 460.174 146.016 459.701C115.974 459.273 84.503 453.575 60.0624 436.756C56.0044 434.005 52.1798 430.924 48.6275 427.545C23.1654 403.393 13.6857 367.164 7.16089 332.746C2.37163 307.298 -1.47296 281.4 0.570161 255.589C2.61329 229.779 10.9396 203.804 28.0315 184.295C41.1361 169.353 58.5466 159.045 74.7268 147.451C102.454 127.638 127.06 103.793 147.73 76.706C163.108 56.5056 176.828 34.0546 197.798 19.6178C219.888 4.50047 247.678 0.0761416 274.492 0.0102706C292.265 -0.0665788 310.334 1.63509 326.778 8.41979C340.487 14.1066 352.57 23.109 364.433 32.0235C377.937 42.1018 391.411 52.213 404.856 62.3571C413.128 68.527 424.804 74.8287 430.329 83.9408C445.06 108.236 420.388 133.399 417.477 156.86C415.127 176.083 426.408 193.956 434.46 211.577C451.661 249.255 454.891 291.61 457.868 332.955C459.383 353.605 460.735 375.244 452.452 394.248Z" fill="#5E58F8"/>
<path opacity="0.44" d="M434.175 324.59C432.428 341.343 424.08 356.537 418.094 372.28C409.141 395.774 410.624 419.312 403.407 439.359C396.542 442.653 389.468 445.562 382.471 448.142C362.226 455.607 341.147 461.634 319.551 462.502C296.627 463.402 273.878 458.505 250.942 456.947C216 454.63 181.025 460.174 146.018 459.702C115.975 459.274 84.5041 453.576 60.0635 436.757C62.568 416.886 78.6054 400.814 96.7409 392.184C114.876 383.555 135.417 380.877 155.299 377.243C175.181 373.609 195.613 368.581 211.54 356.109C221.921 347.985 229.83 337.138 236.871 325.973C271.077 271.465 287.949 205.287 333.194 159.484C349.814 142.698 372.738 128.635 395.861 133.345C403.803 134.937 411.854 139.438 414.535 147.046C416.347 152.129 415.435 157.717 414.71 163.074C410.22 196.322 412.643 230.139 421.828 262.408C427.672 282.894 436.35 303.412 434.175 324.59Z" fill="#5E58F8"/>
<path d="M102.804 465.477C102.839 466.621 103.222 467.728 103.903 468.65C104.878 469.49 106.13 469.94 107.418 469.912C115.382 470.527 123.258 467.716 130.178 463.72C131.957 462.832 133.509 461.547 134.714 459.966C135.298 459.16 135.627 458.198 135.659 457.204C135.69 456.21 135.422 455.229 134.89 454.389C134.138 453.532 133.177 452.885 132.1 452.511C129.484 451.491 126.792 450.676 124.048 450.074C118.787 448.779 113.185 447.099 107.725 447.077C102.903 447.077 101.937 450.689 101.926 454.948C101.987 458.473 102.281 461.99 102.804 465.477Z" fill="black"/>
<path d="M64.4463 448.702C63.3449 449.867 62.6645 451.366 62.513 452.961C61.7798 457.116 61.9938 461.383 63.1392 465.444C63.3038 466.163 63.6019 466.844 64.0179 467.453C65.1164 468.924 67.2034 469.22 69.0379 469.133C73.7942 468.902 78.2649 466.871 82.417 464.566C84.8231 463.367 87.0044 461.762 88.865 459.823C89.7924 458.851 90.5045 457.694 90.955 456.429C91.4054 455.164 91.5841 453.817 91.4793 452.478C91.4121 451.699 91.1138 450.957 90.6225 450.348C89.6312 449.506 88.3646 449.056 87.0635 449.086C82.6697 448.68 78.2758 448.35 73.882 447.933C70.8723 447.703 67.0277 446.407 64.4463 448.702Z" fill="black"/>
<path d="M47.618 258.752C48.2661 272.113 50.7156 285.539 56.4056 297.649C57.9325 295.453 58.2401 292.73 58.3938 290.096C58.8112 282.817 58.3169 275.516 58.1632 268.226C57.9984 260.256 61.1619 253.34 61.799 245.391C62.2165 240.198 63.8641 228.243 62.568 223.193C61.7002 219.833 55.4829 220.997 52.1766 219.372C47.7828 217.286 48.6286 225.29 48.4309 227.979C47.534 238.211 47.2625 248.487 47.618 258.752Z" fill="#F8D8D1"/>
<path d="M380.933 27.3254H231.257C224.266 27.3254 217.56 30.1014 212.616 35.0427C207.672 39.984 204.895 46.6858 204.895 53.6738V372.643C204.895 379.631 207.672 386.333 212.616 391.274C217.56 396.215 224.266 398.991 231.257 398.991H380.933C387.925 398.991 394.63 396.215 399.574 391.274C404.518 386.333 407.296 379.631 407.296 372.643V53.6628C407.293 46.6767 404.514 39.9777 399.57 35.0388C394.627 30.0999 387.923 27.3254 380.933 27.3254ZM387.523 257.533V358.316H213.748V55.606C213.748 54.1643 214.032 52.7367 214.584 51.4047C215.136 50.0728 215.945 48.8625 216.965 47.8431C217.985 46.8236 219.196 46.0149 220.529 45.4632C221.862 44.9115 223.29 44.6275 224.733 44.6275H247.8V58.3177H351.417V44.6714H376.682C379.595 44.6714 382.389 45.8281 384.449 47.887C386.509 49.9458 387.666 52.7383 387.666 55.6499V242.504C387.997 247.51 387.946 252.535 387.513 257.533H387.523Z" fill="black"/>
<path d="M380.856 27.3254H231.181C224.189 27.3254 217.483 30.1014 212.539 35.0427C207.595 39.984 204.818 46.6858 204.818 53.6738V372.643C204.818 379.631 207.595 386.333 212.539 391.274C217.483 396.215 224.189 398.991 231.181 398.991H380.856C387.848 398.991 394.553 396.215 399.498 391.274C404.442 386.333 407.219 379.631 407.219 372.643V53.6628C407.216 46.6767 404.437 39.9777 399.494 35.0388C394.55 30.0999 387.846 27.3254 380.856 27.3254ZM387.447 257.533V358.316H213.66V55.606C213.66 52.6943 214.818 49.9019 216.878 47.8431C218.938 45.7842 221.732 44.6275 224.645 44.6275H247.713V58.3177H351.319V44.6714H376.583C379.496 44.6714 382.29 45.8281 384.35 47.887C386.41 49.9458 387.568 52.7383 387.568 55.6499V242.504C387.902 247.51 387.855 252.534 387.425 257.533H387.447Z" fill="url(#paint0_linear)"/>
<path d="M103.507 439.26C103.43 442.159 103.441 445.068 103.507 447.966C103.467 448.358 103.505 448.755 103.62 449.132C103.735 449.509 103.925 449.859 104.177 450.162C104.649 450.512 105.216 450.711 105.803 450.733C107.769 451.007 109.735 451.205 111.713 451.337C112.04 451.381 112.372 451.359 112.69 451.271C112.892 451.185 113.078 451.067 113.24 450.919C114.339 449.929 115.048 448.577 115.239 447.11C115.416 445.651 115.416 444.177 115.239 442.718C115.173 440.408 114.804 438.115 114.14 435.901C114.083 435.639 113.94 435.403 113.734 435.231C113.539 435.11 113.315 435.045 113.086 435.044C110.647 434.779 108.182 434.871 105.77 435.319C103.65 435.747 103.573 437.032 103.507 439.26Z" fill="#F8D8D1"/>
<path d="M63.8532 448.372C63.7219 448.834 63.7137 449.322 63.8293 449.788C63.9449 450.254 64.1803 450.682 64.5123 451.029C65.0281 451.324 65.6244 451.447 66.2149 451.381L71.8719 451.304C72.3154 451.365 72.7671 451.322 73.1907 451.177C73.6143 451.032 73.9979 450.79 74.3105 450.469C74.5634 450.002 74.6778 449.473 74.64 448.943C74.7169 445.99 75.5517 441.928 74.8817 439.063C74.4533 437.24 74.5851 437.46 72.542 437.251C71.2575 437.053 69.948 437.087 68.6754 437.35C64.6551 438.492 64.3145 444.936 63.8532 448.372Z" fill="#F8D8D1"/>
<path d="M127.563 385.125C124.704 401.962 120.704 418.585 115.59 434.88C115.277 436.155 114.709 437.354 113.921 438.404C111.724 441.006 107.616 440.687 104.232 440.106C103.506 440.08 102.813 439.795 102.277 439.304C101.877 438.705 101.684 437.992 101.728 437.273C100.893 417.951 102.826 398.585 102.497 379.219C102.167 359.853 104.694 348.611 95.3128 331.638C90.4796 370.7 91.0289 402.932 77.6387 439.919C77.5467 440.505 77.3368 441.067 77.0216 441.57C76.7064 442.073 76.2925 442.507 75.8048 442.845C75.3172 443.184 74.7659 443.42 74.1843 443.54C73.6027 443.66 73.0029 443.66 72.421 443.542L64.8747 443.652C64.2408 443.707 63.605 443.57 63.0512 443.256C62.2164 442.631 62.2933 441.401 62.4361 440.391C66.1708 413.955 64.9735 387.112 63.7433 360.468C63.4137 353.068 63.0952 345.702 62.7327 338.346C62.1835 326.336 61.6342 314.303 59.5691 302.479C58.7343 297.517 57.5809 292.511 58.1192 287.505C58.6574 282.498 61.2827 277.35 65.8852 275.351C68.1557 274.495 70.5655 274.067 72.9922 274.089C87.6896 273.364 103.035 273.902 117.513 276.91C127.816 279.051 131.188 284.057 132.067 294.322C134.583 324.524 132.594 355.418 127.563 385.125Z" fill="white"/>
<path d="M374.716 27.3254H225.051C218.059 27.3254 211.354 30.1014 206.41 35.0427C201.466 39.984 198.688 46.6858 198.688 53.6738V372.643C198.688 379.631 201.466 386.333 206.41 391.274C211.354 396.215 218.059 398.991 225.051 398.991H374.716C381.698 398.977 388.389 396.194 393.322 391.254C398.254 386.315 401.024 379.621 401.024 372.643V53.6628C401.021 46.6862 398.25 39.9955 393.318 35.0582C388.386 30.1209 381.696 27.34 374.716 27.3254ZM381.306 257.533V358.316H207.531V55.606C207.531 52.6943 208.688 49.9019 210.748 47.8431C212.808 45.7842 215.602 44.6275 218.516 44.6275H241.583V58.3177H345.189V44.6714H370.454C373.367 44.6714 376.161 45.8281 378.221 47.887C380.281 49.9458 381.438 52.7383 381.438 55.6499V242.504C381.777 247.51 381.733 252.534 381.306 257.533Z" fill="white"/>
<path d="M381.306 56.2867V359.007H207.553V56.2867C207.544 54.8481 207.82 53.422 208.365 52.0904C208.91 50.7588 209.713 49.548 210.728 48.5277C211.742 47.5074 212.949 46.6977 214.278 46.1452C215.607 45.5926 217.032 45.3082 218.472 45.3082H241.539V59.0643H345.167V45.3302H370.432C373.322 45.3591 376.085 46.5255 378.12 48.5765C380.156 50.6275 381.301 53.3978 381.306 56.2867Z" fill="#5E58F8"/>
<path d="M356.734 254.789C355.671 266.545 353.393 278.16 349.935 289.448C349.214 292.024 348.326 294.551 347.276 297.012C346.416 299.06 345.261 300.972 343.849 302.688C337.874 309.934 327.043 311.624 318.145 308.506C317.409 308.232 316.684 307.936 315.948 307.606C306.754 303.358 300.274 294.597 296.396 285.199C294.792 281.313 293.54 277.196 291.145 273.749C286.092 266.349 276.964 263.154 268.726 259.674C268.265 259.477 267.825 259.279 267.397 259.07C259.158 255.393 255.435 251.385 254.051 241.812C252.667 232.239 254.215 222.49 251.854 213.103C249.525 204.002 243.582 196.142 241.462 187.008C239.342 177.873 241.287 167.828 245.977 159.561C250.667 151.295 257.763 144.587 265.749 139.482C269.994 136.626 274.671 134.472 279.601 133.103C289.728 130.545 300.691 132.774 310.017 137.495C322.506 143.807 332.766 154.895 336.852 168.234C339.741 177.665 339.576 187.853 342.696 197.218C344.893 203.805 348.551 209.623 351.231 215.969C354.325 223.37 356.18 231.229 356.723 239.232C357.138 244.409 357.141 249.611 356.734 254.789Z" fill="#263238"/>
<path d="M328.141 199.589C328.141 204.189 327.262 208.789 327.746 213.356C328.317 218.845 330.854 224.027 332.513 229.363C334.172 234.698 334.853 240.824 331.931 245.578C330.301 247.981 328.173 250.007 325.692 251.517C316.223 257.929 303.898 261.595 293.265 257.402C290.036 256.117 287.103 254.174 283.906 252.78C280.71 251.385 277.415 250.584 274.537 248.74C269.165 245.336 266.331 239.057 264.815 232.887C263.299 226.717 262.827 220.283 260.696 214.3C258.137 207.131 253.194 200.226 254.292 192.694C255.182 186.557 260.136 181.573 265.848 179.147C271.56 176.721 277.931 176.457 284.148 176.71C295.012 177.104 305.712 179.486 315.718 183.736C323.78 187.15 328.13 189.62 328.141 199.589Z" fill="url(#paint1_linear)"/>
<path d="M255.566 198.897C255.108 199.206 254.735 199.626 254.482 200.117C254.228 200.608 254.103 201.155 254.116 201.708C254.164 202.812 254.437 203.896 254.918 204.891C255.652 207.043 257.062 208.899 258.938 210.183C259.263 210.426 259.654 210.562 260.059 210.574C260.464 210.586 260.863 210.472 261.201 210.249C261.383 210.023 261.515 209.762 261.588 209.482C261.662 209.202 261.676 208.91 261.63 208.624C261.509 206.428 259.081 196.899 255.566 198.897Z" fill="#F8D8D1"/>
<path d="M327.339 194.1C327.704 196.099 327.591 198.157 327.01 200.105C326.411 202.062 325.108 203.728 323.352 204.782C323.019 204.985 322.642 205.105 322.253 205.133C321.934 205.097 321.63 204.976 321.373 204.783C321.116 204.59 320.916 204.332 320.793 204.035C320.541 203.453 320.413 202.825 320.419 202.191C320.298 199.721 320.068 195.9 321.518 193.682C323.198 190.96 326.713 190.147 327.339 194.1Z" fill="#F8D8D1"/>
<path d="M279.633 246.149C289.528 241.748 300.265 239.56 311.093 239.737C314.572 239.737 318.039 240.153 321.419 240.978C326.977 242.431 332.028 245.386 336.017 249.519C338.496 252.19 340.66 255.137 342.465 258.302C344.344 261.325 345.891 264.542 347.078 267.897C348.177 271.256 349.66 274.781 349.155 278.272C342.465 323.734 348.056 347.436 346.507 359.908C317.585 358.81 286.092 360.094 257.148 358.81C256.177 358.89 255.211 358.6 254.446 357.997C253.787 357.328 254.589 350.554 254.578 349.61C254.446 338.467 257.873 327.653 259.257 316.576C260.85 304.192 259.982 291.578 261.608 279.249C263.233 266.92 268.22 251.188 279.633 246.149Z" fill="white"/>
<path d="M289.366 244.48C288.788 246.169 288.502 247.943 288.52 249.728C288.635 250.734 289.004 251.695 289.592 252.521C290.18 253.346 290.967 254.01 291.881 254.448C293.628 255.148 295.555 255.263 297.373 254.778C298.468 254.578 299.525 254.208 300.504 253.68C301.928 252.786 303.203 251.675 304.283 250.386C305.701 248.987 306.913 247.394 307.886 245.655C308.591 244.147 309.062 242.54 309.281 240.89C309.878 237.26 309.948 233.562 309.489 229.911C309.491 229.358 309.371 228.812 309.14 228.309C308.909 227.807 308.571 227.361 308.149 227.002C307.333 226.608 306.404 226.51 305.524 226.728C301.207 227.299 296.736 228.221 293.441 231.119C292.43 232.008 291.387 232.909 290.409 233.82C290.096 234.097 289.868 234.459 289.753 234.862C289.638 235.264 289.641 235.691 289.761 236.092C290.112 238.89 289.978 241.727 289.366 244.48Z" fill="#F8D8D1"/>
<path opacity="0.5" d="M309.5 229.824C309.5 229.824 302.481 246.522 292.002 244.173L289.64 242.987L290.036 235.126L309.5 229.824Z" fill="url(#paint2_linear)"/>
<path d="M154.256 198.041C153.426 203.009 152.15 207.892 150.444 212.631C149.423 215.518 147.36 217.92 144.66 219.366C141.959 220.812 138.816 221.198 135.846 220.448C130.87 219.218 125.872 218.033 123.587 217.572C121.39 217.572 123.807 252.275 124.685 258.192C125.96 267.37 132.594 281.982 130.178 284.233C124.872 289.086 118.93 293.729 112.328 296.233C109.233 297.488 105.935 298.165 102.596 298.231C93.3136 298.373 84.6797 293.4 76.6171 289.382C72.2233 287.186 67.7635 284.881 63.4356 282.378C62.0822 281.711 60.9411 280.681 60.1403 279.403C59.5125 277.989 59.1905 276.459 59.1956 274.912C58.6134 264.472 58.4706 254.053 58.6903 243.58C58.8002 238.65 59.8547 233.172 59.3384 228.309C58.91 224.323 54.0439 224.828 51.0341 222.369C50.1993 221.711 47.1126 221.381 46.7172 220.448C46.5456 220.006 46.4491 219.539 46.4316 219.065C46.135 214.135 49.8038 206.407 50.5947 201.499C51.6163 195.154 52.3742 188.325 55.5377 182.462C58.9759 176.073 65.1492 171.484 72.0146 168.893C78.8799 166.302 99.8823 168.125 103.87 170.452C130.233 185.822 153.3 192.508 153.97 193.704C154.539 195.079 154.64 196.603 154.256 198.041Z" fill="white"/>
<path opacity="0.5" d="M135.769 205.078C135.769 205.078 134.066 215.288 135.253 217.495C136.439 219.701 141.898 220.053 144.447 218.175C146.995 216.298 135.769 205.078 135.769 205.078Z" fill="url(#paint3_linear)"/>
<path d="M146.49 191.706C144.546 195 138.658 195.318 137.219 198.82C135.995 202.149 135.381 205.671 135.406 209.217C135.348 210.818 135.671 212.41 136.351 213.861C137.526 216.155 140.273 217.154 142.766 217.747C146.529 218.843 150.453 219.281 154.366 219.043C158.314 218.784 162.007 217.005 164.669 214.08C167.745 210.392 168.283 205.298 168.459 200.467C168.874 188.93 167.923 177.385 165.625 166.072C164.614 161.076 163.34 156.092 163.241 150.998C163.109 144.411 164.977 137.824 165.438 131.237C165.9 124.65 164.702 117.305 159.693 112.958C157.549 111.267 155.165 109.905 152.619 108.918C150.994 108.193 148.928 107.523 147.588 108.687C147.057 109.191 146.676 109.834 146.49 110.542C144.875 115.614 146.743 121.17 145.864 126.417C145.838 126.976 145.676 127.519 145.39 128C145.105 128.48 144.705 128.883 144.227 129.173C143.533 129.33 142.828 129.436 142.118 129.491C141.359 129.772 140.723 130.311 140.321 131.014C139.92 131.716 139.778 132.537 139.921 133.334C140.25 134.924 140.984 136.403 142.052 137.626C144.403 140.821 148.247 143.906 149.126 147.726C150.159 152.228 149.763 157.761 149.697 162.361C149.653 171.725 151.345 183.615 146.49 191.706Z" fill="#F8D8D1"/>
<path d="M105.594 170.562C105.814 171.17 105.878 171.822 105.781 172.461C105.574 172.953 105.253 173.389 104.844 173.732C104.435 174.076 103.951 174.317 103.43 174.437C100.609 175.513 97.5325 175.731 94.5878 175.063C91.6659 174.349 86.624 170.672 85.0312 168.136C85.2065 165.845 85.2468 163.547 85.1521 161.252C84.9922 159.058 85.0179 156.855 85.229 154.665C85.2688 152.971 85.9339 151.353 87.0963 150.12C89.2933 148.221 92.5886 149.198 95.2798 150.274C97.7514 151.262 100.421 152.469 101.618 154.808C102.716 156.938 104.177 159.287 104.628 161.483C105.243 164.458 104.825 167.532 105.594 170.562Z" fill="#F8D8D1"/>
<path opacity="0.5" d="M93.3687 154.863C93.3687 154.863 101.541 167.631 104.782 168.476L104.946 159.968L93.3687 154.863Z" fill="url(#paint4_linear)"/>
<path d="M125.224 127.23C125.561 129.715 125.601 132.233 125.345 134.728C125.212 139.282 124.504 143.801 123.236 148.177C121.948 152.587 119.163 156.41 115.36 158.99C112.927 160.395 110.185 161.18 107.377 161.276C104.568 161.372 101.78 160.775 99.2563 159.539C94.8738 157.228 91.3082 153.626 89.0428 149.221C86.7773 144.816 85.9214 139.822 86.5911 134.915C87.2831 130.809 89.2494 127.054 91.3255 123.442C94.1924 118.458 97.4658 113.463 102.31 110.389C106.704 107.633 114.393 106.162 118.38 110.389C121.906 113.957 124.378 122.498 125.224 127.23Z" fill="#F8D8D1"/>
<path d="M112.877 86.73C115.629 87.4137 118.184 88.7292 120.339 90.572C122.493 92.4149 124.188 94.7343 125.29 97.3462C126.319 99.722 126.662 102.339 126.278 104.899C125.805 107.033 124.996 109.078 123.884 110.96C122.445 113.649 107.67 115.219 106.22 129.941C106.22 130.315 103.65 137.78 103.419 137.626C101.958 136.528 103.222 131.731 102.057 130.315C101.275 129.5 100.219 129.003 99.0918 128.918C97.965 128.833 96.8463 129.166 95.9499 129.854C95.0831 130.578 94.4089 131.505 93.9872 132.553C93.5656 133.601 93.4097 134.736 93.5333 135.859C93.7091 138.054 98.1798 142.6 96.5211 145.114C95.5545 146.563 92.7864 153.369 91.2156 154.116C89.0187 155.159 86.2945 154.347 84.2184 153.018C82.101 151.587 80.2436 149.805 78.7262 147.748C73.135 140.547 70.0264 131.281 71.037 122.212C71.4434 118.787 72.9263 114.901 76.2656 113.968C76.5448 113.917 76.8104 113.808 77.0455 113.649C77.3539 113.291 77.5079 112.825 77.4739 112.354C77.79 108.248 79.0936 104.279 81.2738 100.785C83.4541 97.2913 86.4464 94.3752 89.9963 92.2851C96.1586 88.5305 105.77 85.0174 112.877 86.73Z" fill="#263238"/>
<path d="M261.366 211.369C262.201 214.543 263.461 217.589 265.112 220.426C267.082 223.264 269.554 225.72 272.406 227.672C279.6 232.952 288.498 236.795 297.297 235.357C306.502 233.831 314.026 226.574 317.98 218.175C321.935 209.777 322.803 200.171 322.781 190.85C322.915 185.697 322.354 180.549 321.111 175.546C317.937 164.106 308.962 154.852 298.384 149.472C293.346 146.784 287.784 145.218 282.083 144.883C276.332 144.56 270.644 146.219 265.969 149.582C246.526 164.348 255.38 192.112 261.366 211.369Z" fill="#F8D8D1"/>
<path d="M259.795 163.546C261.087 163.288 262.427 163.437 263.629 163.975C266.771 165.237 269.121 167.85 271.428 170.32C277.14 176.479 283.577 182.528 291.672 184.746C300.713 187.227 310.478 184.559 319.628 186.546C320.9 186.766 322.119 187.225 323.22 187.897C324.538 188.775 325.494 190.092 326.768 191.059C328.042 192.025 329.943 192.475 331.162 191.443C331.601 190.962 331.927 190.389 332.117 189.766C332.307 189.143 332.356 188.486 332.26 187.842C332.019 182.023 329.789 176.49 327.526 171.122C324.286 163.437 320.749 155.653 314.762 149.878C307.82 143.203 298.856 137.011 289.256 137.011L269.616 140.755C263.255 144.049 258.884 150.252 253.666 155.181C251.764 156.774 250.053 158.583 248.569 160.571C246.894 163.454 245.976 166.713 245.9 170.046C245.757 171.956 245.581 175.173 247.559 176.314C249.151 177.237 251.052 176.15 252.117 174.909C254.907 171.616 254.852 164.798 259.795 163.546Z" fill="#263238"/>
<path d="M268.759 263.023C267.394 268.809 265.451 274.444 262.959 279.842C260.455 284.815 253.589 299.79 248.624 302.26C243.286 304.862 223.041 310.011 218.614 310.812C214.881 311.414 211.054 310.977 207.553 309.549V225.015L209.618 214.794C210.128 212.742 210.335 210.626 210.233 208.514C209.987 206.681 209.537 204.88 208.893 203.146C208.315 201.321 207.867 199.457 207.553 197.569V178.993C207.806 177.698 208.091 176.391 208.454 175.085C209.475 177.588 210.53 180.091 211.54 182.627C211.579 176.878 212.547 171.172 214.407 165.731C215.953 169.438 217.037 173.321 217.637 177.292C218.314 173.469 219.419 169.735 220.932 166.159C221.295 165.259 221.954 164.238 222.898 164.348C223.843 164.458 224.304 165.654 224.458 166.664C225.04 170.221 225.655 173.779 226.238 177.336C227.029 173.482 227.83 169.651 228.588 165.797C228.731 165.149 228.995 164.348 229.687 164.172C230.697 163.843 231.356 165.27 231.499 166.368C232.603 174.94 232.603 183.618 231.499 192.189C236.354 191.97 237.156 183.297 241.979 183.044C242.198 192.651 237.453 203.322 229.72 209.085C227.105 221.293 224.542 233.498 222.031 245.699C219.933 255.931 217.791 266.558 219.746 276.779C219.925 278.23 220.533 279.594 221.492 280.698C223.689 282.894 227.402 281.708 230.28 280.402C243.088 274.62 255.914 268.827 268.759 263.023Z" fill="#F8D8D1"/>
<path d="M247.68 265.043C243.823 268.199 240.203 271.633 236.849 275.319C235.502 276.579 234.387 278.065 233.553 279.71C232.235 282.718 232.916 286.198 233.784 289.36C235.4 295.229 237.581 300.928 240.298 306.377C240.663 307.282 241.253 308.079 242.011 308.693C243.67 309.791 245.911 309.033 247.745 308.199L260.081 302.644C261.838 301.914 263.532 301.04 265.145 300.031C268.586 297.564 271.378 294.303 273.284 290.524C278.872 280.276 280.625 268.374 278.228 256.952C277.777 254.756 276.481 249.816 273.691 249.541C271.494 249.321 266.87 253.493 264.903 254.602C259.092 257.896 253.018 260.904 247.68 265.043Z" fill="white"/>
<path d="M375.66 298.264C376.075 299.753 376.787 301.144 377.754 302.351C378.72 303.559 379.921 304.558 381.284 305.29V168.564C370.223 172.955 348.331 231.789 345.53 243.349C341.575 259.817 354.669 247.532 358.173 263.264C362.49 282.641 371.036 278.93 375.66 298.264Z" fill="#F8D8D1"/>
<path d="M342.212 225.235C345.365 221.293 348.913 216.628 353.79 217.912C350.73 230.778 351.885 244.286 357.085 256.447C359.755 262.638 363.434 269.895 359.854 275.615C358.546 277.701 353.955 277.459 351.901 278.832C348.605 281.027 347.309 285.056 343.333 284.475C339.356 283.893 336.303 280.424 333.732 277.218C327.394 269.302 309.116 250.869 311.082 239.737C311.093 239.737 330.975 239.265 342.212 225.235Z" fill="white"/>
<path opacity="0.24" d="M260.993 74.3683H215.022V135.881H260.993V74.3683Z" fill="white"/>
<path d="M215.846 124.342C215.846 124.342 215.341 132.368 215.594 135.255C230.544 134.926 245.252 135.431 260.213 135.112L260.114 128.459C260.203 127.949 260.121 127.424 259.881 126.966C259.64 126.507 259.255 126.141 258.785 125.923C255.27 123.64 251.689 121.323 247.68 120.116C244.473 119.28 241.183 118.809 237.87 118.71C234.3 118.469 230.181 117.613 226.688 118.425C223.195 119.237 218.812 122.169 215.846 124.342Z" fill="white"/>
<path d="M228.226 116.723C227.984 118.194 227.358 119.622 227.49 121.115C227.638 122.064 227.999 122.967 228.547 123.756C229.095 124.546 229.815 125.2 230.653 125.671C232.444 126.706 234.472 127.262 236.541 127.285C237.066 127.337 237.595 127.27 238.09 127.087C238.483 126.868 238.799 126.533 238.995 126.129C239.192 125.724 239.259 125.269 239.188 124.825C239.111 123.947 238.727 123.091 238.562 122.202C238.024 119.281 239.902 116.218 238.474 113.496C237.586 112.059 236.203 110.997 234.586 110.509C232.926 110.005 231.202 109.739 229.467 109.719C227.27 109.62 227.039 110.564 227.666 112.156C228.255 113.602 228.448 115.178 228.226 116.723Z" fill="url(#paint5_linear)"/>
<path opacity="0.5" d="M228.303 114.132C228.303 114.132 229.511 118.348 232.773 120.006C234.498 120.979 236.48 121.401 238.452 121.213C238.452 121.213 238.705 117.645 239.287 116.822C239.869 115.999 228.303 114.132 228.303 114.132Z" fill="url(#paint6_linear)"/>
<path d="M247.877 99.9482C248.024 99.9106 248.179 99.91 248.326 99.9464C248.474 99.9828 248.61 100.055 248.723 100.157C248.863 100.316 248.966 100.503 249.027 100.706C249.088 100.908 249.104 101.122 249.074 101.331C248.993 102.276 248.732 103.196 248.306 104.043C248.097 104.526 247.811 105.053 247.295 105.141C247.224 105.171 247.147 105.186 247.07 105.186C246.992 105.186 246.916 105.171 246.845 105.141C246.504 104.965 246.493 104.493 246.526 104.109L246.702 101.771C246.723 101.391 246.843 101.024 247.049 100.704C247.255 100.385 247.54 100.124 247.877 99.9482Z" fill="url(#paint7_linear)"/>
<path d="M224.755 104.274C224.404 103.824 223.985 103.431 223.514 103.11C223.274 102.949 223.001 102.846 222.715 102.808C222.43 102.77 222.139 102.798 221.866 102.89C221.51 103.074 221.228 103.373 221.064 103.738C220.901 104.103 220.866 104.512 220.965 104.899C221.179 105.671 221.605 106.367 222.195 106.909C222.547 107.321 222.986 107.651 223.481 107.875C223.728 107.99 224.003 108.034 224.274 108.003C224.546 107.972 224.803 107.867 225.018 107.699C225.247 107.431 225.39 107.1 225.429 106.75C225.468 106.4 225.402 106.046 225.238 105.734C224.907 105.114 224.639 104.463 224.436 103.791" fill="url(#paint8_linear)"/>
<path d="M229.72 115.691C231.257 116.797 233.028 117.537 234.896 117.853C236.764 118.169 238.679 118.053 240.496 117.514C246.559 115.603 248.108 98.8502 247.581 95.2383C247.053 91.6264 246.328 88.267 243.187 86.5324C239.628 84.5782 235.234 85.4345 231.29 86.4446C228.16 87.224 224.7 88.245 222.997 90.9567C220.8 94.2503 221.69 99.5968 222.997 103.187C224.392 107.435 225.919 112.914 229.72 115.691Z" fill="url(#paint9_linear)"/>
<path d="M218.285 96.5668C217.946 95.2265 217.755 93.8535 217.714 92.4718C217.639 91.8721 217.758 91.2643 218.054 90.7372C218.636 89.8809 219.866 89.837 220.91 89.8809C220.85 88.2771 221.119 86.6781 221.701 85.1821C222.799 82.5583 225.567 81.0103 228.083 79.9564C230.807 78.8635 233.706 78.2721 236.64 78.2108C239.309 78.123 242.132 78.3096 244.395 79.7039C245.279 80.2067 245.982 80.9749 246.405 81.8996C246.633 82.6375 246.795 83.3944 246.888 84.1611C247.284 86.0714 247.789 87.7182 248.141 89.6504C248.954 94.1735 247.668 101.913 247.372 102.078C246.801 102.374 246.658 93.5697 245.175 90.7372C244.79 90.0127 244.263 89.2222 243.45 89.1124C242.703 89.1378 241.986 89.4165 241.418 89.9029C238.123 91.9558 231.334 91.8241 227.49 91.3081C225.688 91.0666 223.349 91.1325 222.711 92.8341C222.546 93.4937 222.546 94.1837 222.711 94.8432L223.689 101.76C223.784 102.858 223.747 103.964 223.579 105.053C223.332 104.471 223.027 103.916 222.668 103.395C222.492 103.176 222.382 102.989 222.118 102.934C221.855 102.879 221.305 103.231 221.262 103.154C219.87 101.161 218.86 98.9277 218.285 96.5668Z" fill="#263238"/>
<path d="M254.435 104.57C253.749 104.099 253.199 103.455 252.842 102.704C252.567 101.924 252.952 100.859 253.776 100.761C254.6 100.662 255.237 101.408 255.973 101.178C256.709 100.947 256.731 99.6189 256.434 98.7406L253.479 90.2103C253.106 89.1125 252.831 87.7731 253.721 87.0924C254.611 86.4117 255.742 86.9716 256.654 87.4986C258.224 88.4098 259.949 89.4528 260.575 91.1545C260.877 92.1005 261 93.0946 260.938 94.0857C260.938 101.211 262.036 109.302 260.817 116.306C260.274 111.721 257.989 107.52 254.435 104.57Z" fill="url(#paint10_linear)"/>
<path d="M254.545 49.8753C257.238 49.8753 259.422 47.511 259.422 44.5946C259.422 41.6782 257.238 39.314 254.545 39.314C251.851 39.314 249.668 41.6782 249.668 44.5946C249.668 47.511 251.851 49.8753 254.545 49.8753Z" fill="white"/>
<path d="M381.801 359.008H207.553V364.596H381.801V359.008Z" fill="url(#paint11_linear)"/>
<path opacity="0.24" d="M321.517 378.626C321.52 379.365 321.377 380.097 321.095 380.781C320.814 381.464 320.4 382.085 319.877 382.607C319.354 383.13 318.733 383.544 318.049 383.825C317.365 384.107 316.633 384.25 315.893 384.247H262.267C261.51 384.281 260.753 384.16 260.044 383.894C259.334 383.627 258.686 383.22 258.138 382.696C257.591 382.172 257.155 381.543 256.857 380.847C256.559 380.15 256.406 379.4 256.406 378.643C256.406 377.885 256.559 377.135 256.857 376.438C257.155 375.742 257.591 375.113 258.138 374.589C258.686 374.065 259.334 373.658 260.044 373.391C260.753 373.125 261.51 373.004 262.267 373.038H315.893C316.63 373.035 317.36 373.177 318.041 373.457C318.723 373.736 319.343 374.147 319.865 374.666C320.387 375.185 320.802 375.802 321.086 376.482C321.369 377.161 321.516 377.89 321.517 378.626Z" fill="white"/>
<path d="M321.518 378.626C321.521 379.365 321.377 380.097 321.095 380.781C320.814 381.464 320.4 382.085 319.877 382.607C319.354 383.13 318.733 383.544 318.049 383.825C317.366 384.107 316.633 384.25 315.894 384.247H312.73C313.487 384.281 314.243 384.16 314.953 383.894C315.663 383.627 316.311 383.22 316.859 382.696C317.406 382.172 317.842 381.543 318.14 380.847C318.438 380.15 318.591 379.4 318.591 378.643C318.591 377.885 318.438 377.135 318.14 376.438C317.842 375.742 317.406 375.113 316.859 374.589C316.311 374.065 315.663 373.658 314.953 373.391C314.243 373.125 313.487 373.004 312.73 373.038H315.894C316.63 373.035 317.36 373.177 318.042 373.457C318.723 373.736 319.343 374.147 319.865 374.666C320.388 375.185 320.802 375.802 321.086 376.482C321.369 377.161 321.516 377.89 321.518 378.626Z" fill="url(#paint12_linear)"/>
<path opacity="0.5" d="M99.9154 134.926C100.039 134.327 99.9205 133.703 99.5859 133.191C99.4576 133.056 99.3034 132.949 99.1325 132.876C98.9616 132.803 98.7777 132.765 98.5918 132.765C98.4059 132.765 98.2219 132.803 98.051 132.876C97.8801 132.949 97.7259 133.056 97.5977 133.191C97.415 133.409 97.2802 133.664 97.2022 133.937C97.0189 134.654 96.9594 135.397 97.0265 136.133C97.0183 137.068 97.2369 137.991 97.6636 138.823C97.8819 139.238 98.2163 139.58 98.6259 139.808C99.0355 140.036 99.5026 140.14 99.9703 140.107C100.206 140.096 100.434 140.023 100.633 139.897C100.832 139.771 100.995 139.595 101.106 139.387C101.216 139.179 101.271 138.946 101.265 138.71C101.258 138.475 101.191 138.245 101.069 138.043C100.838 137.626 100.234 137.495 99.9703 137.022C99.7422 136.345 99.7231 135.614 99.9154 134.926Z" fill="url(#paint13_linear)"/>
<path opacity="0.5" d="M59.2946 228.265L62.2165 185.449C62.2165 185.449 57.8226 186.81 55.406 193.276C52.9894 199.743 46.6184 220.36 46.6184 220.36L59.2946 228.265Z" fill="url(#paint14_linear)"/>
<path opacity="0.5" d="M130.09 284.2C124.784 289.053 118.842 293.697 112.24 296.2L107.286 249.739C106.526 242.558 106.629 235.312 107.594 228.155L110.054 210.008L123.554 217.583C121.357 217.583 123.774 252.286 124.653 258.203C125.883 267.337 132.518 281.928 130.09 284.2Z" fill="url(#paint15_linear)"/>
<path d="M95.258 331.66C90.4248 370.722 90.974 402.954 77.5839 439.941L75.8044 442.806L72.3662 443.564C72.3662 443.564 77.3642 405.633 77.8585 398.991C78.3528 392.349 85.2511 322.197 85.2511 322.197L95.258 331.66Z" fill="url(#paint16_linear)"/>
</g>
<defs>
<linearGradient id="paint0_linear" x1="351.978" y1="213.389" x2="746.312" y2="215.433" gradientUnits="userSpaceOnUse">
<stop stop-color="#010101" stop-opacity="0"/>
<stop offset="0.95" stop-color="#010101"/>
</linearGradient>
<linearGradient id="paint1_linear" x1="25066.2" y1="14406.6" x2="34403.4" y2="33806.6" gradientUnits="userSpaceOnUse">
<stop stop-color="#010101" stop-opacity="0"/>
<stop offset="0.95" stop-color="#010101"/>
</linearGradient>
<linearGradient id="paint2_linear" x1="6701.86" y1="3541.66" x2="6811.35" y2="2859.59" gradientUnits="userSpaceOnUse">
<stop stop-color="#010101" stop-opacity="0"/>
<stop offset="0.95" stop-color="#010101"/>
</linearGradient>
<linearGradient id="paint3_linear" x1="1906.87" y1="3122.9" x2="1964.6" y2="3008.05" gradientUnits="userSpaceOnUse">
<stop stop-color="#010101" stop-opacity="0"/>
<stop offset="0.95" stop-color="#010101"/>
</linearGradient>
<linearGradient id="paint4_linear" x1="1760.1" y1="2269.15" x2="1720.5" y2="1867.27" gradientUnits="userSpaceOnUse">
<stop stop-color="#010101" stop-opacity="0"/>
<stop offset="0.95" stop-color="#010101"/>
</linearGradient>
<linearGradient id="paint5_linear" x1="3074.33" y1="2043.64" x2="3227.25" y2="2073.74" gradientUnits="userSpaceOnUse">
<stop stop-color="#E5C6D6"/>
<stop offset="0.42" stop-color="#EAD4D0"/>
<stop offset="1" stop-color="#F0E9CB"/>
</linearGradient>
<linearGradient id="paint6_linear" x1="3158.05" y1="926.539" x2="3151.95" y2="795.839" gradientUnits="userSpaceOnUse">
<stop stop-color="#010101" stop-opacity="0"/>
<stop offset="0.95" stop-color="#010101"/>
</linearGradient>
<linearGradient id="paint7_linear" x1="960.526" y1="603.577" x2="966.552" y2="603.577" gradientUnits="userSpaceOnUse">
<stop stop-color="#E5C6D6"/>
<stop offset="0.42" stop-color="#EAD4D0"/>
<stop offset="1" stop-color="#F0E9CB"/>
</linearGradient>
<linearGradient id="paint8_linear" x1="1371.53" y1="615.514" x2="1390.1" y2="615.514" gradientUnits="userSpaceOnUse">
<stop stop-color="#E5C6D6"/>
<stop offset="0.42" stop-color="#EAD4D0"/>
<stop offset="1" stop-color="#F0E9CB"/>
</linearGradient>
<linearGradient id="paint9_linear" x1="6846.11" y1="3183.56" x2="7462.64" y2="3183.56" gradientUnits="userSpaceOnUse">
<stop stop-color="#E5C6D6"/>
<stop offset="0.42" stop-color="#EAD4D0"/>
<stop offset="1" stop-color="#F0E9CB"/>
</linearGradient>
<linearGradient id="paint10_linear" x1="2696.98" y1="2883.09" x2="2764.79" y2="2883.09" gradientUnits="userSpaceOnUse">
<stop stop-color="#E5C6D6"/>
<stop offset="0.42" stop-color="#EAD4D0"/>
<stop offset="1" stop-color="#F0E9CB"/>
</linearGradient>
<linearGradient id="paint11_linear" x1="46986.1" y1="2158.02" x2="46985.8" y2="2568.92" gradientUnits="userSpaceOnUse">
<stop stop-color="#010101" stop-opacity="0"/>
<stop offset="0.95" stop-color="#010101"/>
</linearGradient>
<linearGradient id="paint12_linear" x1="3142.53" y1="4270.66" x2="4361.78" y2="4254.62" gradientUnits="userSpaceOnUse">
<stop stop-color="#010101" stop-opacity="0"/>
<stop offset="0.95" stop-color="#010101"/>
</linearGradient>
<linearGradient id="paint13_linear" x1="701.758" y1="1062.07" x2="739.825" y2="1061.48" gradientUnits="userSpaceOnUse">
<stop stop-color="#010101" stop-opacity="0"/>
<stop offset="0.95" stop-color="#010101"/>
</linearGradient>
<linearGradient id="paint14_linear" x1="1617.65" y1="8333.35" x2="2424.09" y2="8346.61" gradientUnits="userSpaceOnUse">
<stop stop-color="#010101" stop-opacity="0"/>
<stop offset="0.95" stop-color="#010101"/>
</linearGradient>
<linearGradient id="paint15_linear" x1="3437.1" y1="20520.3" x2="6737.81" y2="20335.9" gradientUnits="userSpaceOnUse">
<stop stop-color="#010101" stop-opacity="0"/>
<stop offset="0.95" stop-color="#010101"/>
</linearGradient>
<linearGradient id="paint16_linear" x1="2790.76" y1="42920.9" x2="3267.83" y2="42920.9" gradientUnits="userSpaceOnUse">
<stop stop-color="#010101" stop-opacity="0"/>
<stop offset="0.95" stop-color="#010101"/>
</linearGradient>
<clipPath id="clip0">
<rect width="459" height="470" fill="white"/>
</clipPath>
</defs>
</svg>
