<svg width="20" height="20" viewBox="0 0 20 20" fill="none" xmlns="http://www.w3.org/2000/svg">
<path fill-rule="evenodd" clip-rule="evenodd" d="M15.3358 4.69419C14.6428 3.99659 13.8182 3.44345 12.9099 3.06681C12.0015 2.69018 11.0275 2.49752 10.0442 2.50002C5.92083 2.50002 2.56417 5.85586 2.5625 9.98086C2.5625 11.2992 2.90667 12.5859 3.56083 13.7209L2.5 17.5967L6.46583 16.5559C7.56283 17.153 8.79183 17.4661 10.0408 17.4667H10.0442C14.1667 17.4667 17.5233 14.1109 17.525 9.98586C17.5278 9.00293 17.3358 8.02918 16.9601 7.12091C16.5843 6.21263 16.0323 5.38783 15.3358 4.69419ZM10.0442 16.2042H10.0417C8.92793 16.2043 7.83469 15.9047 6.87667 15.3367L6.65 15.2017L4.29667 15.8192L4.92417 13.525L4.77667 13.29C4.15399 12.2987 3.82436 11.1515 3.82583 9.98086C3.8275 6.55252 6.61667 3.76336 10.0467 3.76336C10.8635 3.76154 11.6727 3.92176 12.4272 4.23473C13.1818 4.54771 13.8667 5.00723 14.4425 5.58669C15.0213 6.16339 15.4802 6.8491 15.7924 7.60419C16.1047 8.35927 16.2641 9.16876 16.2617 9.98586C16.26 13.4142 13.4708 16.2042 10.0442 16.2042ZM13.455 11.5467C13.2675 11.4525 12.3492 11.0009 12.1775 10.9384C12.0067 10.8759 11.8825 10.845 11.7575 11.0317C11.6325 11.2184 11.2742 11.6392 11.165 11.7642C11.0558 11.8892 10.9467 11.9042 10.76 11.8109C10.5733 11.7175 9.97083 11.52 9.25667 10.8834C8.70083 10.3875 8.32583 9.77586 8.21667 9.58836C8.1075 9.40086 8.205 9.30002 8.29917 9.20669C8.38333 9.12336 8.48583 8.98836 8.57917 8.87919C8.6725 8.77002 8.70333 8.69252 8.76583 8.56752C8.82833 8.44252 8.7975 8.33336 8.75 8.24002C8.70333 8.14586 8.32917 7.22586 8.17333 6.85169C8.0225 6.48919 7.86833 6.53752 7.75333 6.53252C7.63423 6.52765 7.51503 6.52543 7.39583 6.52586C7.30105 6.52827 7.20778 6.55025 7.12188 6.5904C7.03599 6.63055 6.95931 6.68801 6.89667 6.75919C6.725 6.94669 6.2425 7.39836 6.2425 8.31836C6.2425 9.23836 6.9125 10.1275 7.00583 10.2525C7.09917 10.3775 8.32417 12.265 10.1992 13.075C10.6458 13.2675 10.9942 13.3825 11.265 13.4692C11.7125 13.6117 12.12 13.5909 12.4425 13.5434C12.8017 13.49 13.5483 13.0917 13.7042 12.655C13.86 12.2184 13.86 11.8442 13.8133 11.7659C13.7667 11.6875 13.6408 11.64 13.455 11.5467Z" fill="white"/>
</svg>
