<?xml version="1.0" encoding="utf-8"?><svg viewBox="0 0 585 470" xmlns="http://www.w3.org/2000/svg" xmlns:xlink="http://www.w3.org/1999/xlink"><style>:root>svg{display:none}:root>svg:target{display:block}</style><svg fill="none" viewBox="0 0 48 48" id="Home" xmlns="http://www.w3.org/2000/svg"><rect width="48" height="48" rx="8" fill="#FFF0FC"/><path d="M39.138 21.919l-.003-.003L26.082 8.863A2.926 2.926 0 0023.999 8c-.787 0-1.527.306-2.084.863L8.87 21.909a2.95 2.95 0 00-.008 4.173 2.93 2.93 0 002.046.864h.52v9.606A3.452 3.452 0 0014.875 40h5.107c.518 0 .937-.42.937-.938v-7.53c0-.868.706-1.574 1.573-1.574h3.013c.867 0 1.573.706 1.573 1.573v7.532c0 .517.42.937.937.937h5.107a3.452 3.452 0 003.448-3.448v-9.606h.483c.786 0 1.526-.306 2.083-.863a2.95 2.95 0 00.002-4.164zm-1.328 2.838a1.064 1.064 0 01-.758.314h-1.42a.937.937 0 00-.937.938v10.543c0 .867-.706 1.573-1.573 1.573h-4.17v-6.594a3.452 3.452 0 00-3.447-3.448h-3.012a3.452 3.452 0 00-3.449 3.448v6.594h-4.17a1.575 1.575 0 01-1.572-1.573V26.01a.937.937 0 00-.938-.938H10.97a1.063 1.063 0 01-.781-.314 1.072 1.072 0 010-1.515l13.053-13.053c.203-.203.471-.314.758-.314.286 0 .554.111.757.314l13.05 13.05.006.005a1.073 1.073 0 01-.002 1.513z" fill="#FE98E8"/></svg><svg fill="none" viewBox="0 0 32 32" id="arrow" xmlns="http://www.w3.org/2000/svg"><path d="M11 6l10 9.5L11 25" stroke="#000" stroke-width="3" stroke-linecap="round" stroke-linejoin="round"/></svg><svg fill="none" viewBox="0 0 207 215" id="card-bg-1" xmlns="http://www.w3.org/2000/svg"><path fill-rule="evenodd" clip-rule="evenodd" d="M118.03 6.89c23.753-1.635 50.811-13.21 69.667 1.341 18.865 14.56 18.093 43.301 19.054 67.127.757 18.765-7.679 35.483-14.206 53.09-6.199 16.725-11.219 33.421-22.866 46.924-14.51 16.822-29.454 40.058-51.649 39.467-22.251-.592-31.496-29.329-49.69-42.166-18.62-13.138-46.077-13.902-57.628-33.556-12.318-20.96-12.168-48.212-3.858-71.062 8.168-22.456 27.217-39.18 48.14-50.69C74.127 6.838 96.246 8.39 118.03 6.89z" fill="#fff"/></svg><svg fill="none" viewBox="0 0 217 219" id="card-bg-2" xmlns="http://www.w3.org/2000/svg"><path fill-rule="evenodd" clip-rule="evenodd" d="M6.737 146.289c-11.95-20.605-5.097-42.501 6.994-62.961 11.702-19.801 19.052-32.984 36.467-47.97C67.831 20.183 77.776 2.781 100.915.421c22.889-2.335 53.468 6.034 69.175 22.942 10.842 11.672 18.153 35.924 27.975 48.47 14.798 18.906 28.474 71.457 9.491 86.448s-31.423 7.511-50.954 21.644c-16.963 12.275-25.534 33.227-45.959 37.819-20.279 4.561-28.034-16.767-46.458-26.483-20.279-10.696-45.927-25.109-57.448-44.973z" fill="#fff"/></svg><svg fill="none" viewBox="0 0 194 214" id="card-bg-3" xmlns="http://www.w3.org/2000/svg"><path fill-rule="evenodd" clip-rule="evenodd" d="M107.01.133c27.659-1.684 38.186 12.897 60.143 27.887 21.968 14.998 25.507 20.756 26.626 45.3.882 19.33-2.845 33.965-10.445 52.103-7.219 17.23-2.619 28.064-16.181 41.975-16.896 17.329-27.91 26.093-53.756 25.484-25.91-.61-41.803 30.589-62.988 17.365C28.728 196.713 34.775 161 21.324 140.754 6.98 119.162-6.386 90.167 3.291 66.627c9.51-23.132 19.265-26.75 43.628-38.607C69.2 17.175 81.645 1.678 107.01.133z" fill="#fff"/></svg><svg fill="none" viewBox="0 0 195 202" id="card-bg-4" xmlns="http://www.w3.org/2000/svg"><path fill-rule="evenodd" clip-rule="evenodd" d="M13.148 158.94c-10.904-18.8-18.532-61.12-7.5-79.787C16.325 61.086 35.09 51.336 50.98 37.663 67.069 23.818 70.466 3.237 91.578 1.084c20.884-2.13 48.785 5.506 63.116 20.934 9.893 10.649 16.564 32.778 25.525 44.225 13.503 17.25 21.174 97.713 3.854 111.391-18.621 14.705-59.183-5.541-83.823 0-18.504 4.161-32.46 30.751-49.27 21.885-18.503-9.759-27.32-22.454-37.832-40.579z" fill="#fff"/></svg><svg fill="none" viewBox="0 0 20 20" id="checkmark" xmlns="http://www.w3.org/2000/svg"><path fill-rule="evenodd" clip-rule="evenodd" d="M13.712 6.213a.938.938 0 011.34 1.312l-4.99 6.238a.938.938 0 01-1.35.025L5.404 10.48A.937.937 0 116.73 9.155l2.617 2.616 4.342-5.53a.288.288 0 01.025-.028h-.002z" fill="#000"/></svg><svg fill="none" viewBox="0 0 48 48" id="coin" xmlns="http://www.w3.org/2000/svg"><rect width="48" height="48" rx="8" fill="#FCEDFF"/><path d="M24 40a15.895 15.895 0 01-11.314-4.686A15.895 15.895 0 018 24c0-4.274 1.664-8.292 4.686-11.314A15.895 15.895 0 0124 8c4.274 0 8.292 1.664 11.314 4.686A15.895 15.895 0 0140 24c0 4.274-1.664 8.292-4.686 11.314A15.895 15.895 0 0124 40zm0-30c-7.72 0-14 6.28-14 14s6.28 14 14 14 14-6.28 14-14-6.28-14-14-14z" fill="#C756DA"/><path d="M24 23a2.503 2.503 0 01-2.5-2.5c0-1.378 1.122-2.5 2.5-2.5s2.5 1.122 2.5 2.5a1 1 0 002 0 4.507 4.507 0 00-3.5-4.387V15a1 1 0 10-2 0v1.113a4.507 4.507 0 00-3.5 4.387c0 2.481 2.019 4.5 4.5 4.5 1.378 0 2.5 1.122 2.5 2.5S25.378 30 24 30a2.503 2.503 0 01-2.5-2.5 1 1 0 10-2 0 4.507 4.507 0 003.5 4.387V33a1 1 0 002 0v-1.113a4.507 4.507 0 003.5-4.387c0-2.481-2.019-4.5-4.5-4.5z" fill="#C756DA"/></svg><svg fill="none" viewBox="0 0 388 353" id="confidence" xmlns="http://www.w3.org/2000/svg"><g clip-path="url(#iclip0)"><path opacity=".18" d="M388 246.591c-.062 12.737-4.627 25.059-10.536 36.363-12.509 23.802-32.589 44.175-56.253 56.352l2.468-.561c-38.714 28.726-105.462 4.82-153.493 7.532-27.414 1.548-54.828 5.35-82.222 3.543-27.393-1.808-41.172 11.033-61.118-7.948-26.03-24.81-32.63-65.1-21.96-99.707 2.62-8.6 6.354-16.815 11.104-24.436a145.097 145.097 0 0112.302-16.623c18.727-22.109 42.65-40.228 57.452-65.235 15.07-25.464 19.512-56.175 34.551-81.66a110.577 110.577 0 0133.296-35.421 109.816 109.816 0 0145.184-17.627 109.585 109.585 0 0148.334 3.578 110.038 110.038 0 0142.133 24.088c8.418 7.72 15.648 16.8 19.698 27.46 4.348 11.428 4.803 23.947 8.356 35.635 5.165 17.039 16.589 31.303 26.133 46.316 13.098 20.602 22.89 43.116 32.63 65.515 5.95 13.673 12.013 27.875 11.941 42.836z" fill="#5E58F8"/><path d="M340.743 223.798a20.124 20.124 0 012.066-5.611 8.296 8.296 0 011.756-2.077 2.337 2.337 0 012.175-.382 2.356 2.356 0 011.533 1.597c.94 3.636.641 7.584.31 11.366a10.445 10.445 0 01-.733 3.564c-1.395 2.971-6.539 4.301-8.522 1.101-1.477-2.462.796-7.106 1.415-9.558z" fill="#FFDAD2"/><path opacity=".42" d="M304.818 91.853l-17.488 51.78-13.428-.883 5.423-29.256-127.092 92.403-41.534-38.96L4.886 242.166c2.62-8.6 6.354-16.815 11.104-24.436a145.184 145.184 0 0112.302-16.623l83.998-57.474 42.753 37.734 115.172-78.959-28.798-6.847-.568-15.376 63.969 11.668z" fill="#5E58F8"/><path d="M173.47 322.767c-.898 2.649-1.725 5.672-.392 8.124a10.353 10.353 0 003.502 3.315l12.705 8.675c2.437 1.662 5.02 3.387 7.953 3.605 2.934.218 6.249-1.652 6.497-4.603.29-3.407-3.253-5.724-4.906-8.706-2.18-3.917-.981-8.758.155-13.08a238.335 238.335 0 006.197-33.246c-2.603-1.039-10.184-5.87-12.839-5.081-3.099.915-5.784 9.475-7.137 12.26a221.773 221.773 0 00-11.735 28.737z" fill="#FFDAD2"/><path d="M226.388 109.899c2.727-1.631 5.526-3.283 8.635-3.896s6.662 0 8.79 2.369a17.95 17.95 0 00-7.516 2.137 18.062 18.062 0 00-5.912 5.135 1.383 1.383 0 01-.713.603 1.31 1.31 0 01-.733-.135c-1.281-.489-6.621-1.039-7.179-2.14-.826-1.829 3.419-3.356 4.628-4.073z" fill="#2F51C1"/><path d="M203.663 168.329c1.033 15.334 3.533 30.877.537 45.952-2.014 10.161-6.507 20.384-4.276 30.493 2.448 11.137 13.882 19.501 25.162 18.41 7.148-.696 13.542-4.592 20.38-6.795a43.922 43.922 0 0117.828-1.901c5.382.54 11.207 1.984 15.897-.717 3.904-2.244 5.908-6.93 6.115-11.428.206-4.499-1.033-8.946-2.386-13.278-2.675-8.883-5.495-17.953-5.165-27.231.269-6.659 2.18-13.121 3.533-19.646 2.437-11.698 3.099-24.155-1.105-35.324-4.205-11.168-13.852-20.778-25.648-22.285-6.074-.748-12.261.644-18.314-.218-5.34-.759-10.329-3.242-15.587-4.322a10.58 10.58 0 00-5.578.052c-6.342 2.213-9.358 16.01-10.453 21.703-1.684 8.696-1.601 17.693-.94 26.535z" fill="#263238"/><path d="M197.827 249.532c-3.285 9.413-6.786 18.857-12.065 27.314a1.057 1.057 0 00-.26.849 1.048 1.048 0 00.488.74c5.309 4.676 11.042 9.548 18.024 10.556.456.105.932.065 1.364-.114.405-.288.706-.7.857-1.174 4.452-10.39 6.012-21.745 5.878-32.987-.1-5.611-.542-11.211-1.323-16.768-.186-1.361-.289-7.356-1.456-8.052-1.787-1.039-3.739 2.618-4.504 3.782-3.233 4.8-5.102 10.379-7.003 15.854z" fill="#2F51C1"/><path d="M212.05 168.329c.744 15.334 2.49 30.877.383 45.952-1.426 10.161-4.597 20.384-3.027 30.493 1.736 11.137 9.792 19.501 17.746 18.41 5.03-.696 9.534-4.592 14.358-6.795a22.432 22.432 0 0112.57-1.901c3.791.54 7.892 1.984 11.197-.717 2.748-2.244 4.132-6.93 4.318-11.428a55.507 55.507 0 00-1.684-13.278c-1.89-8.883-3.883-17.953-3.615-27.23.186-6.66 1.529-13.122 2.489-19.647 1.715-11.698 2.159-24.155-.774-35.324-2.934-11.168-9.772-20.778-18.087-22.285-4.266-.748-8.635.644-12.901-.218-3.76-.759-7.231-3.242-10.991-4.322a5.328 5.328 0 00-3.925.052c-4.472 2.213-6.59 16.01-7.364 21.703a146.308 146.308 0 00-.693 26.535z" fill="#171F23"/><path d="M247.656 219.455a65.929 65.929 0 0120.193 1.974c6.539 1.86 12.747 5.35 17.033 10.649 4.752 5.87 6.828 13.506 7.314 21.09.485 7.585-.517 15.107-1.271 22.639a361.408 361.408 0 00-1.394 53.09c.206 4.239.278 9.028-2.686 12.051-1.87 1.912-4.586 2.681-7.179 3.304-21.444 5.195-44.684 6.099-64.992-2.556-5.165-2.202-10.329-5.267-12.881-10.275-2.768-5.444-1.869-11.948-.981-17.994a680.762 680.762 0 005.857-55.625c.527-8.249-.083-17.142 1.601-25.246 1.219-5.87 4.989-7.48 10.422-8.914a129.873 129.873 0 0128.964-4.187z" fill="#5E58F8"/><path d="M227.875 222.842c.306-1.525.699-3.03 1.178-4.509 1.032-3.418 2.324-6.753 2.189-10.39 0-.748-.062-1.516-.072-2.275-.059-1.371.148-2.74.609-4.031a10.277 10.277 0 013.409-4.156c3.285-2.555 12.87-7.345 14.761-1.039.302 1.11.445 2.258.423 3.408v.208c0 1.683-.217 3.408-.237 4.987a25.848 25.848 0 002.065 11.563c2.779 5.818-29.025 31.823-24.325 6.234z" fill="#FFDAD2"/><path d="M250.465 199.892l-.093.228c-.981 2.255-9.048 20.197-19.997 19.74 0 0-.837.073-1.323-1.506 1.033-3.418 2.325-6.753 2.19-10.39 0-.748-.062-1.517-.072-2.275l19.202-5.777.093-.02z" fill="#ECC0B7"/><path d="M204.376 182.406c5.704 0 10.329-5.735 10.329-12.81s-4.625-12.81-10.329-12.81c-5.705 0-10.33 5.735-10.33 12.81s4.625 12.81 10.33 12.81z" fill="#5E58F8"/><path d="M204.376 182.406c5.704 0 10.329-5.735 10.329-12.81s-4.625-12.81-10.329-12.81c-5.705 0-10.33 5.735-10.33 12.81s4.625 12.81 10.33 12.81z" fill="#2F51C1"/><path d="M208.332 182.406c5.705 0 10.329-5.735 10.329-12.81s-4.624-12.81-10.329-12.81c-5.705 0-10.329 5.735-10.329 12.81s4.624 12.81 10.329 12.81z" fill="#5E58F8"/><path d="M208.332 182.406c5.705 0 10.329-5.735 10.329-12.81s-4.624-12.81-10.329-12.81c-5.705 0-10.329 5.735-10.329 12.81s4.624 12.81 10.329 12.81z" fill="#5E58F8"/><path d="M205.646 143.56l2.583 46.753s1.156 17.963 18.851 18.14c21.257.207 27.734-12.229 30.988-21.693 3.253-9.465 6.197-37.246 0-44.935-6.198-7.688-40.781-25.734-52.422 1.735z" fill="#FFDAD2"/><path d="M201.855 120.839c-6.373 7.075-8.604 17.246-7.643 26.753a9.164 9.164 0 001.714 5.132 9.97 9.97 0 004.7 2.566c3.016 1.039 6.198 1.995 9.297 1.403 3.098-.593 6.073-3.387 5.67-6.556-.919 1.818.104 4.156 1.736 5.34a12.892 12.892 0 005.722 1.891l10.412 1.704 1.818-7.065a8.882 8.882 0 00.7 4.82 8.828 8.828 0 003.131 3.717 8.758 8.758 0 009.308.284c.599 2.077 3.171 3.033 5.299 2.659 2.128-.374 3.966-1.693 5.836-2.784a29.728 29.728 0 0117.694-4.021c2.18-14.545-7.303-30.015-21.227-34.565-3.429-1.122-7.013-1.631-10.525-2.442-14.978-3.459-30.751-13.153-43.642 1.164z" fill="#263238"/><path d="M267.808 182.406c5.705 0 10.329-5.735 10.329-12.81s-4.624-12.81-10.329-12.81c-5.705 0-10.329 5.735-10.329 12.81s4.624 12.81 10.329 12.81z" fill="#5E58F8"/><path d="M267.808 182.406c5.705 0 10.329-5.735 10.329-12.81s-4.624-12.81-10.329-12.81c-5.705 0-10.329 5.735-10.329 12.81s4.624 12.81 10.329 12.81z" fill="#2F51C1"/><path d="M271.764 182.406c5.705 0 10.33-5.735 10.33-12.81s-4.625-12.81-10.33-12.81c-5.704 0-10.329 5.735-10.329 12.81s4.625 12.81 10.329 12.81z" fill="#5E58F8"/><path d="M271.764 182.406c5.705 0 10.33-5.735 10.33-12.81s-4.625-12.81-10.33-12.81c-5.704 0-10.329 5.735-10.329 12.81s4.625 12.81 10.329 12.81z" fill="url(#ipaint0_linear)"/><path d="M265.887 157.597l-5.361-28.052c-3.099-11.709-11.104-20.488-20.938-23.033l-2.272-.582 4.204-.301c10.557-.759 20.266 7.075 23.871 19.251l7.334 32.02-6.838.697z" fill="#5E58F8"/><path d="M265.887 157.597l-5.361-28.052c-3.099-11.709-11.104-20.488-20.938-23.033l-2.272-.582 4.204-.301c10.557-.759 20.266 7.075 23.871 19.251l7.334 32.02-6.838.697z" fill="url(#ipaint1_linear)"/><path d="M242.202 251.994c5.03-5.34 8.728-11.792 12.395-18.171 2.221-3.896 4.503-7.958 4.813-12.467a2.622 2.622 0 00-.227-1.496 2.777 2.777 0 00-.847-.779l-6.91-4.758c-.124 4.27-3.171 7.937-6.652 10.389-3.709 2.628-14.213 5.506-11.982 10.961.547 1.454 8.821 16.976 9.41 16.321z" fill="#5E58F8"/><path d="M223.495 220.369a19.591 19.591 0 00-2.985 6.857c-1.735 6.909-1.405 14.15-1.033 21.267 0 .437.114.966.517 1.101a.938.938 0 00.671-.083 9.084 9.084 0 003.719-3.729 127.506 127.506 0 006.951-12.031c.248-.414.396-.88.434-1.361a3.465 3.465 0 00-1.095-2.006c-2.303-2.805-2.448-6.233-2.014-9.776.134-1.101 1.209-3.117-.217-3.636-1.177-.437-4.4 2.649-4.948 3.397z" fill="#5E58F8"/><path d="M293.693 289.812c-2.623 1.724-6.249.748-9.151.665-3.74-.115-5.32.208-4.494 4 2.066 9.464 4.287 18.7 7.902 27.739a42.34 42.34 0 005.382 10.171 14.1 14.1 0 007.106 5.289c3.709 1.039 7.737-.281 10.856-2.546 3.12-2.265 5.475-5.392 7.778-8.488 8.264-11.106 10.33-24.186 15.577-37.111 5.382-13.423 12.715-26.659 14.916-40.861.537-3.418.888-7.418-1.56-9.86-2.448-2.441-7.076-1.88-9.844.447s-4.214 5.818-5.609 9.163c-6.27 15.044-13.314 29.756-20.359 44.446a2.286 2.286 0 01-1.033 1.268 1.788 1.788 0 01-1.549-.312c-2.593-1.673-3.388-5.548-6.435-6.753-3.264-1.278-6.838 1.008-9.483 2.743z" fill="#FFDAD2"/><path d="M309.456 296.108c-9.958 2.41-21 4.685-29.955-.25a9.11 9.11 0 01-3.739-3.335c-1.033-1.839-1.033-4.072-1.095-6.233-.434-9.756-4.132-19.086-5.01-28.81-1.332-15.314-7.168-38.919 13.056-29.932 11.177 4.966 22.983 28.831 25.379 38.836.672 2.971 4.969 28.861 1.364 29.724z" fill="#2F51C1"/><path d="M331.654 227.143a13.54 13.54 0 00-4.06 9.205c-.196 3.221.486 6.462 0 9.652-.361 2.524-1.425 5.007-1.033 7.532a3.7 3.7 0 00.909 2.078 5.154 5.154 0 002.066 1.101c3.46 1.195 7.045 2.348 10.701 2.192 3.657-.155 7.458-1.89 9.131-5.194a16.071 16.071 0 001.25-6.753l.238-6.317c.261-2.848.073-5.72-.558-8.509a9.251 9.251 0 00-1.888-3.787 9.183 9.183 0 00-3.37-2.54c-4.266-1.538-9.823-1.901-13.386 1.34z" fill="#FFDAD2"/><path d="M247.635 203.144a42.592 42.592 0 01-12.24-2.078 1.854 1.854 0 01-1.488-1.582 1.875 1.875 0 01.42-1.445 1.83 1.83 0 011.347-.659c.258-.009.514.036.754.133 9.472 2.867 16.609 2.483 21.196-1.133 6.197-4.893 5.805-14.223 5.805-14.316-.014-.244.02-.488.1-.719a1.85 1.85 0 011.645-1.235c.487-.022.964.149 1.325.478.362.329.58.788.607 1.278 0 .468.496 11.366-7.231 17.434-3.171 2.576-7.282 3.844-12.24 3.844z" fill="#fff"/><path d="M236.355 194.468a4.873 4.873 0 012.324 2.525c.414 1.579-.805 3.117-2.065 4.156a7.719 7.719 0 01-3.812 1.891c-2.066.249-4.07-.873-5.795-2.078a7.559 7.559 0 01-2.417-2.338c-1.601-2.836.465-6.462 3.192-7.678 2.996-1.444 6.208 1.902 8.573 3.522z" fill="#263238"/><path d="M272.384 336.304H123.621c-4.17 0-7.55 3.4-7.55 7.595v.01c0 4.195 3.38 7.595 7.55 7.595h148.763c4.17 0 7.551-3.4 7.551-7.595v-.01c0-4.195-3.381-7.595-7.551-7.595z" fill="#5E58F8"/><path d="M272.384 336.304H123.621c-4.17 0-7.55 3.4-7.55 7.595v.01c0 4.195 3.38 7.595 7.55 7.595h148.763c4.17 0 7.551-3.4 7.551-7.595v-.01c0-4.195-3.381-7.595-7.551-7.595z" fill="url(#ipaint2_linear)"/><path d="M220.81 351.514H106.64l-30.11-76.808a6.79 6.79 0 01.684-6.254 6.732 6.732 0 012.392-2.171 6.68 6.68 0 013.121-.801h89.638a21.52 21.52 0 0112.165 3.766 21.706 21.706 0 017.946 10l28.334 72.268z" fill="#5E58F8"/><path d="M215.025 351.597H106.568l-28.592-72.975a6.432 6.432 0 01.656-5.96 6.345 6.345 0 015.273-2.798h85.093c4.12 0 8.144 1.247 11.55 3.578a20.635 20.635 0 017.549 9.492l26.928 68.663z" fill="#5E58F8"/><path d="M215.025 351.597H106.568l-28.592-72.975a6.432 6.432 0 01.656-5.96 6.345 6.345 0 015.273-2.798h85.093c4.12 0 8.144 1.247 11.55 3.578a20.635 20.635 0 017.549 9.492l26.928 68.663z" fill="#2F51C1"/></g><defs><linearGradient id="ipaint0_linear" x1="6001.85" y1="4111.26" x2="4449.28" y2="4864.2" gradientUnits="userSpaceOnUse"><stop offset=".01"/><stop offset=".09" stop-opacity=".82"/><stop offset="1" stop-opacity="0"/></linearGradient><linearGradient id="ipaint1_linear" x1="10141.5" y1="6743.11" x2="8594.71" y2="6834.34" gradientUnits="userSpaceOnUse"><stop offset=".01"/><stop offset=".09" stop-opacity=".82"/><stop offset="1" stop-opacity="0"/></linearGradient><linearGradient id="ipaint2_linear" x1="-1276110" y1="5623.34" x2="-1276110" y2="5159.22" gradientUnits="userSpaceOnUse"><stop offset=".01"/><stop offset=".12" stop-opacity=".75"/><stop offset="1" stop-opacity="0"/></linearGradient><clipPath id="iclip0"><path fill="#fff" d="M0 0h388v353H0z"/></clipPath></defs></svg><svg fill="none" viewBox="0 0 19 19" id="cross" xmlns="http://www.w3.org/2000/svg"><path d="M4 4l11 11M4 15L15 4" stroke="#000" stroke-width="2" stroke-linecap="round" stroke-linejoin="round"/></svg><svg fill="none" viewBox="0 0 20 20" id="fb" xmlns="http://www.w3.org/2000/svg"><path d="M11.164 17.497v-6.83h2.304l.343-2.674h-2.647V6.29c0-.772.215-1.3 1.323-1.3h1.403V2.606a18.612 18.612 0 00-2.056-.106C9.798 2.5 8.4 3.743 8.4 6.026v1.962H6.11v2.674h2.294v6.835h2.76z" fill="#011F3B"/></svg><svg fill="none" viewBox="0 0 48 48" id="insurance" xmlns="http://www.w3.org/2000/svg"><rect width="48" height="48" rx="8" fill="#EEF2FD"/><path d="M17.139 21.735a1 1 0 00-1.361 1.466l1.36-1.466zm4.642 5.676l-.68.732a1 1 0 001.36 0l-.68-.732zm9.522-7.477a1 1 0 10-1.36-1.466l1.36 1.466zM8 28c0 .664.314 1.332.67 1.905.377.605.898 1.253 1.498 1.91 1.203 1.316 2.807 2.758 4.454 4.088 1.65 1.332 3.368 2.574 4.812 3.489.72.456 1.388.84 1.954 1.115.283.137.555.254.806.339.235.08.52.154.806.154v-2c.036 0-.007.005-.167-.05a5.091 5.091 0 01-.572-.242c-.473-.23-1.071-.572-1.757-1.006-1.369-.867-3.025-2.062-4.626-3.355-1.603-1.295-3.123-2.666-4.233-3.88-.557-.61-.99-1.157-1.277-1.619-.306-.493-.368-.762-.368-.848H8zm15 13c.286 0 .57-.075.806-.154.251-.085.524-.202.806-.339.566-.274 1.234-.66 1.954-1.115 1.444-.915 3.163-2.157 4.812-3.49 1.647-1.33 3.252-2.77 4.454-4.087.6-.657 1.12-1.305 1.497-1.91.357-.573.671-1.24.671-1.905h-2c0 .086-.061.355-.368.848-.288.462-.72 1.01-1.276 1.618-1.11 1.215-2.631 2.586-4.234 3.881-1.6 1.293-3.257 2.488-4.626 3.355-.686.434-1.284.776-1.756 1.006a5.091 5.091 0 01-.572.242c-.16.054-.204.05-.168.05v2zm15-13v-.012-.012-.013-.013-.012-.013-.014-.013-.013-.014-.013-.014-.014-.014-.014-.015-.014-.015-.015-.015-.015-.015-.016-.015-.016-.016-.016-.016-.016-.017-.016-.017-.017-.017-.017-.017-.018-.017-.018-.017-.018-.018-.018-.019-.018-.019-.019-.018-.02-.018-.02-.019-.02-.019-.02-.02-.02-.02-.02-.02-.02-.021-.021-.021-.021-.021-.021-.022-.021-.022-.021-.022-.022-.022-.023-.022-.022-.023-.022-.023-.023-.023-.023-.023-.024-.023-.024-.024-.023-.024-.024-.024-.025-.024-.024-.025-.025-.024-.025-.025-.026-.025-.025-.025-.026-.026-.025-.026-.026-.026-.026-.027-.026-.026-.027-.027-.026-.027-.027-.027-.027-.028-.027-.027-.028-.028-.027-.028-.028-.028-.028-.028-.029-.028-.029-.028-.029-.029-.029-.028-.03-.029-.029-.029-.03-.029-.03-.029-.03-.03-.03-.03-.03-.03-.03-.03-.03-.03-.031-.03-.032-.03-.031-.031-.031-.031-.031-.032-.03-.032-.032-.031-.032-.032-.031-.032-.032-.032-.032-.032-.032-.033-.032-.032-.033-.032-.033-.033-.032-.033-.033-.033-.033-.033-.033-.033-.034-.033-.033-.034-.033-.034-.034-.033-.034-.034-.034-.034-.034-.034-.034-.034-.034-.034-.035-.034-.034-.035-.034-.035-.035-.034-.035-.035-.035-.035-.034-.035-.035-.036-.035-.035-.035-.036-.035-.035-.036-.035-.036-.035-.036-.035-.036-.036-.035-.036-.036-.036-.036-.036-.036-.036-.036-.036-.036-.036-.037-.036-.036-.037V21v-.036-.037-.036-.037-.036-.037-.036-.037-.037-.036-.037-.037-.037-.036-.037-.037-.037-.037-.037-.037-.037-.037-.037-.037-.037-.037-.037-.037-.037-.037-.038-.037-.037-.037-.038-.037-.037-.038-.037-.037-.038-.037-.037-.038-.037-.038-.037-.038-.037-.038-.037-.038-.037-.038-.037-.038-.037-.038-.038-.037-.038-.037-.038-.038-.037-.038-.037-.038-.038-.037-.038-.038-.037-.038-.037-.038-.038-.037-.038-.038-.037-.038-.038-.037-.038-.037-.038-.038-.037-.038-.037-.038-.038-.037-.038-.037-.038-.037-.038-.037-.038-.037-.038-.037-.038-.037-.037-.038-.037-.037-.038-.037-.038-.037-.037-.037-.038-.037-.037-.037-.037-.037-.038-.037-.037-.037-.037-.037-.037-.037-.037-.037-.037-.036-.037-.037-.037-.037-.036-.037-.037-.036-.037-.036-.037-.036-.037-.036-.037-.036-.036-.037-.036-.036-.036-.037-.036-.036-.036-.036-.036-.036-.036-.035-.036-.036-.036-.035-.036-.036-.035-.036-.035-.036-.035-.035-.036-.035-.035-.035-.035-.035-.035-.035-.035-.035-.035-.034-.035-.035-.034-.035-.034-.035-.034-.035-.034-.034-.034-.034-.034-.034-.034-.034-.034-.034-.033-.034-.034-.033-.034-.033-.033-.034-.033-.033-.033-.033-.033-.033-.033-.032-.033-.033-.032-.033-.032-.032-.033-.032-.032-.032-.032-.032-.032-.032-.031-.032-.031-.032-.031-.032-.03-.032-.031-.031-.031-.031-.03-.031-.031h-2V28h2zM8 11.999V28h2V11.999H8zM15.778 23.2l5.323 4.942 1.36-1.465-5.322-4.943-1.361 1.466zm6.684 4.942l8.841-8.209-1.36-1.466-8.842 8.21 1.36 1.465zM33 7H13v2h20V7zm-23 4.999A3 3 0 0113 9V7a5 5 0 00-5 4.999h2zm28 0A5 5 0 0033 7v2a3 3 0 013 2.999h2z" fill="#5E58F8"/></svg><svg fill="none" viewBox="0 0 48 48" id="nostrification" xmlns="http://www.w3.org/2000/svg"><rect width="48" height="48" rx="8" fill="#F6EEFD"/><path d="M35 40H19a3.337 3.337 0 01-3.333-3.333v-20A3.337 3.337 0 0119 13.333h16a3.337 3.337 0 013.334 3.334v20A3.337 3.337 0 0135 40zM19 14.667c-1.102 0-2 .897-2 2v20c0 1.102.898 2 2 2h16c1.103 0 2-.898 2-2v-20c0-1.103-.897-2-2-2H19z" fill="#9856DA"/><path d="M13.667 36h-1.334A3.337 3.337 0 019 32.667V11.333A3.337 3.337 0 0112.333 8h16a3.337 3.337 0 013.334 3.333.667.667 0 01-1.334 0c0-1.102-.897-2-2-2h-16c-1.102 0-2 .898-2 2v21.334c0 1.102.898 2 2 2h1.334a.667.667 0 010 1.333zM32.333 30.667H21.667a.667.667 0 010-1.333h10.666a.667.667 0 010 1.333zM32.333 36H21.667a.667.667 0 010-1.334h10.666a.667.667 0 010 1.334z" fill="#9856DA"/><path d="M32.333 25.333H21.667a.667.667 0 010-1.333h10.666a.667.667 0 010 1.333zM32.333 20H21.667a.667.667 0 010-1.334h10.666a.667.667 0 010 1.334z" fill="#9856DA"/></svg><svg fill="none" viewBox="0 0 20 20" id="phone" xmlns="http://www.w3.org/2000/svg"><path class="nphoneSVG" d="M17.297 4.496l-2.08-2.078a1.578 1.578 0 00-1.12-.465c-.423 0-.822.166-1.12.465l-2.239 2.238a1.579 1.579 0 000 2.24l1.637 1.637a7.691 7.691 0 01-1.572 2.268 7.72 7.72 0 01-2.268 1.578l-1.637-1.637a1.579 1.579 0 00-2.24 0l-2.24 2.236a1.58 1.58 0 00-.465 1.122c0 .423.166.822.465 1.12l2.076 2.077a2.567 2.567 0 002.225.715c2.633-.434 5.244-1.834 7.351-3.94 2.106-2.103 3.504-4.713 3.944-7.353a2.57 2.57 0 00-.717-2.223z" fill="#fff"/></svg><svg fill="none" viewBox="0 0 585 453" id="talk" xmlns="http://www.w3.org/2000/svg"><g clip-path="url(#oclip0)"><path opacity=".18" d="M69.86 61.961c-30.853 35.927-44.15 83.507-53.119 130.016A953.962 953.962 0 00.231 337.808c-1.037 28.736.645 60.979 21.53 80.726 7.809 7.395 17.627 12.256 27.427 16.684 17.468 7.917 35.634 14.904 54.695 17.047 31.588 3.542 62.973-6.367 93.206-16.206 53.261-17.33 108.638-35.023 164.209-28.009 25.771 3.25 50.596 11.751 76.208 16.099 25.612 4.348 53.349 4.144 75.836-8.856 15.644-9.059 27.445-23.591 36.759-39.088 20.902-34.775 30.773-75.271 33.934-115.749 1.558-19.987 1.531-40.239-2.337-59.907-4.427-22.475-13.741-43.649-23.143-64.53-11.509-25.618-23.434-51.308-39.892-74.075-16.458-22.768-37.936-42.684-64.062-52.965-49.728-19.544-104.104-2.258-154.355 5.606-25.674 3.993-52.233 6.57-77.854.788-12.333-2.78-22.231-8.501-34.882-8.953-13.342-.47-27.639 2.657-40.37 6.332-29.72 8.58-57.086 25.68-77.28 49.21z" fill="#5E58F8"/><path d="M283.7 188.045h-42.23v34.501h42.23v-34.501z" fill="#5E58F8"/><path d="M283.7 188.045h-42.23v34.501h42.23v-34.501z" fill="#2F51C1"/><path d="M319.236 117.264H211.431c-7.031 0-12.73 5.701-12.73 12.734v58.915c0 7.033 5.699 12.734 12.73 12.734h107.805c7.032 0 12.731-5.701 12.731-12.734v-58.915c0-7.033-5.699-12.734-12.731-12.734zM388.105 222.156H163.793v7.147h224.312v-7.147z" fill="#fff"/><path d="M388.105 226.318H163.793v2.985h224.312v-2.985z" fill="#D9DBE2"/><path opacity=".18" d="M290.402 394.979c132.25 0 239.46-12.354 239.46-27.593 0-15.24-107.21-27.594-239.46-27.594-132.251 0-239.46 12.354-239.46 27.594 0 15.239 107.209 27.593 239.46 27.593z" fill="#5E58F8"/><path d="M468.829 281.94s24.629 79.468 21.956 81.417c-2.674 1.948-4.365-3.348-4.365-3.348l-24.842-73.854 7.251-4.215zM415.887 291.114l-.23.575-28.065 72.022a9.022 9.022 0 01-1.886 2.993 1.801 1.801 0 01-.579.461 1.814 1.814 0 01-1.447.087 1.813 1.813 0 01-.63-.389c-2.532-2.072 23.833-75.988 23.833-75.988l9.004.239zM436.895 285.827s-.885 83.188-4.01 84.224c-3.125 1.036-3.125-4.525-3.125-4.525l-1.063-77.928 8.198-1.771z" fill="#5E58F8"/><path d="M464.429 282.905s26.807 77.042 24.124 78.955c-2.682 1.913-2.133-1.86-2.133-1.86l-24.842-73.854 2.851-3.241z" fill="#2F51C1"/><path d="M415.648 291.689l-28.065 72.022a9.006 9.006 0 01-1.886 2.993c.098-8.253 23.984-75.147 23.984-75.147l5.967.132z" fill="url(#opaint0_linear)"/><path d="M436.895 285.827s-.885 83.188-4.01 84.224c-3.126 1.036-1.196-6.27-1.196-6.27l1.107-77.042 4.099-.912z" fill="url(#opaint1_linear)"/><path d="M491.36 262.927c-5.879 13.558-19.105 22.909-33.279 27.106-11.049 3.268-22.691 3.773-34.271 3.109-3.24-.172-6.486-.417-9.738-.735-5.666-.576-11.412-1.311-16.715-3.383-5.303-2.072-10.243-5.65-12.935-10.706a25.905 25.905 0 01-2.656-10.68c-.557-9.511 2.453-19.624 9.739-25.681 5.719-4.782 13.182-6.641 19.114-11.078 6.64-4.986 13.457-9.44 20.486-13.921 7.03-4.481 14.165-9.006 22.027-11.857 7.862-2.852 16.626-3.923 24.576-1.399 2.754.885 6.994 3.019 11.146 13.185 6.03 14.532 8.756 31.614 2.506 46.04z" fill="#D0D8E1"/><path d="M447.829 166.633c-2.824 3.87-11.43 7.607-11.43 7.607-.991-3.826 1.125-5.243 1.125-5.243 2.204.195 5.099-5.18 4.152-6.872-1.169-2.107-2.789-1.354-3.869-.451a10.214 10.214 0 01-3.904-7.217c-.142-1.656 2.718-6.332-2.762-8.36-5.481-2.028-13.201 0-13.201 0s-1.991-5.11 4.427-7.554c14.404-5.508 31.526 3.888 30.57 20.031-.257 4.375-.549 9.343 2.479 12.504 1.655 1.718 3.993 2.551 6.197 3.418 2.877 1.116 5.799 2.471 7.818 4.818 2.018 2.347 2.877 5.942 1.274 8.59-.761 1.266-2.08 2.479-1.77 3.923a4.089 4.089 0 001.106 1.691 23.44 23.44 0 016.083 12.849 16.786 16.786 0 01-4.179 13.345c-4.427 4.649-11.509 5.863-17.857 4.906-5.135-.779-10.217-2.904-13.705-6.756-5.312-5.872-5.976-14.399-7.454-22.139a4.612 4.612 0 00-1.098-2.586c-1.549-1.452-4.037-.274-6.153-.327-3.656-.08-6.109-4.092-6.197-7.74-.089-3.649 1.39-7.084 2.134-10.706.743-3.622.513-7.802-2.258-10.184-1.036-.886-2.328-1.444-3.444-2.241-4.94-3.542-4.648-11.715-.434-16.108 4.214-4.392 10.978-5.472 16.972-4.427 4.816.885 15.688 3.542 17.919 7.97 2.231 4.427.301 13.38-2.541 17.259z" fill="#263238"/><path d="M411.168 189.701l-23.222 23.91-30.827-16.259a22.89 22.89 0 00-12.686-3.391c-.461 0-1.08.265-.974.708.106.443.62.478.699.886.08.407-.416.655-.823.743l-7.366 1.639c-1.08.248-2.39.752-2.452 1.859.032.369.149.725.341 1.041.192.316.454.584.765.784 4.861 4.047 11.678 4.932 17.981 4.348a6.387 6.387 0 011.842 0c.6.149 1.173.391 1.7.717a76.491 76.491 0 016.914 4.33c6.047 4.251 11.456 9.36 17.591 13.487a8.792 8.792 0 004.267 1.815 9.321 9.321 0 003.993-.965c8.853-3.542 17.928-7.323 24.665-14.071a6.189 6.189 0 001.434-1.913 6.79 6.79 0 00.346-2.276 122.27 122.27 0 00-.124-9.741 9.371 9.371 0 00-.948-4.277 3.362 3.362 0 00-3.718-1.727" fill="#FFDAD2"/><path d="M396.48 214.921a12.826 12.826 0 01-2.434 1.47c-1.877.789-3.993.638-6.029.585a54.434 54.434 0 00-9.225.549 4.836 4.836 0 00-2.16.682 1.771 1.771 0 00-.744 1.983 2.6 2.6 0 00.885.983c2.47 1.993 5.126 4.065 8.278 4.428 3.771.496 7.384-1.505 10.624-3.436l6.781-3.905a7.253 7.253 0 002.585-2.117c.948-1.461 1.169-5.543-1.133-5.968-1.886-.372-5.967 3.657-7.428 4.746z" fill="#ECC0B7"/><path d="M414.585 183.724c.446-.145.906-.24 1.372-.284 2.338-.221 4.994.355 7.34.461 3.302.142 6.613.221 9.924.115 6.312-.186 16.671-.886 22.319 6.022 7.003 8.527.965 23.52-3.922 34.766-1.771 4.198-2.709 17.791-1.771 27.727 0 0-19.654 6.88-36.944 3.294l-5.932-22.263c-.327-1.151-1.354-2.373-1.859-3.471a40.099 40.099 0 01-2.974-9.334c-.709-3.719-1.771-9.909-.177-13.487.239-.549 1.062-.974 1.133-1.549.097-.797-.956-2.126-1.284-2.843a42.707 42.707 0 01-2.594-7.208 1.885 1.885 0 01-.053-1.187c.154-.308.386-.57.673-.761 2.594-2.081 5.197-4.163 7.968-6.04 1.885-1.302 4.391-3.232 6.781-3.958z" fill="#fff"/><path d="M436.479 167.97c-1.31 4.171-6.79 11.512-13.058 9.821a8.074 8.074 0 01-.496 8.598s2.036 5.198 15.794-2.488c0 0-3.718-.31-2.709-7.97a16.477 16.477 0 012.709-7.332 1.353 1.353 0 01-1.301.33 1.343 1.343 0 01-.939-.959z" fill="#FFDAD2"/><path d="M435.85 170.069s-3.018 12.831-8.136 12.291c-5.117-.54-4.789-8.351-4.789-8.351l12.925-3.94z" fill="#ECC0B7"/><path d="M462.569 194.687a15.405 15.405 0 00-3.275-10.954c-2.869-3.348-7.269-4.853-11.368-6.482-1.77-.691-3.612-1.586-4.347-3.304-.487-1.133-.38-2.426-.575-3.648-.195-1.222-.885-2.55-2.143-2.719a2.894 2.894 0 00-2.098.735c-2.603 2.002-3.435 5.677-2.842 8.909.594 3.232 2.373 6.092 4.214 8.802 1.842 2.71 3.79 5.42 4.834 8.528.788 2.364 1.018 4.879 1.594 7.306 1.275 5.313 5.746 8.501 10.996 5.472 3.621-2.098 4.754-8.917 5.01-12.645zM422.323 138.561s-8.34.487-10.819 12.575c-2.478 12.087 9.571 11.884 9.571 11.884l7.321-20.97-6.073-3.489z" fill="#263238"/><path d="M427.883 178.411c-7.552.628-12.138-6.421-12.988-15.63a35.578 35.578 0 01-.124-3.091 37.71 37.71 0 011.027-8.917c3.302-14.169 23.426-8.475 23.426-8.475 15.767 7.076 1.779 35.023-11.341 36.113z" fill="#FFDAD2"/><path d="M422.482 141.979c1.966 6.828 4.595 16.533 11.262 20.279.761.425 2.169 1.143 3.081.957.911-.186.885-1.019 1.717-1.772a1.776 1.776 0 012.01-.345 2.087 2.087 0 01.823 1.771 4.865 4.865 0 01-2.337 4.171c-.66.302-1.291.664-1.886 1.08a3.774 3.774 0 00-1.115 2.462 6.591 6.591 0 003.258 6.305.915.915 0 00.451.142.883.883 0 00.496-.292l2.983-2.728a24.731 24.731 0 003.816-4.064 12.405 12.405 0 002.125-6.863c0-1.107-.443-2.223-.425-3.286.187-1.401.559-2.77 1.107-4.073a14.468 14.468 0 001.009-5.313c-.239-3.543-3.187-6.359-6.366-7.97-5.028-2.489-10.836-2.772-16.449-2.834a8.494 8.494 0 00-3.302.443c-.965.54-1.363 1.603-2.258 1.93z" fill="#263238"/><path d="M435.851 228.001l5.763 12.663s12.394-15.461 17.113-32.154c4.126-14.753-3.187-18.463-3.187-18.463-5.595-2.055-9.393 5.924-14.891 22.041-3.028 8.829-4.798 15.913-4.798 15.913z" fill="#FFDAD2"/><path d="M441.614 240.638s.221-10.299-4.798-12.345c-5.02-2.045-40.203-7.562-40.203-7.562l-3.302 3.808s34.545 19.924 48.303 16.099z" fill="#FFDAD2"/><path d="M384.599 267.85l.425-.442c-1.708 1.921-2.85 3.303-3.204 3.728a39.942 39.942 0 012.779-3.286z" fill="#DC9ED5"/><path d="M451.946 269.869c-1.027 5.996-5.117 11.149-10.102 14.647-4.984 3.498-10.809 5.553-16.644 7.324-3.444 1.054-5.586 5.472-8.694 7.306a7.83 7.83 0 00-2.859 2.391c-1.133 1.833-.567 4.206 0 6.278a7536.348 7536.348 0 007.968 27.496c1.319 4.552 2.656 9.378 1.399 13.956-1.258 4.579-6.074 8.519-10.562 7.005l-26.33-42.506s-4.329-17.109 4.755-31.658c3.921-6.27 34.642-32.146 34.642-32.146 7.853-1.142 15.838-1.673 23.425-2.107.895 7.385 4.277 14.682 3.002 22.014z" fill="#5E58F8"/><path d="M425.545 249.936s-31.349 25.521-34.642 32.145c-9.198 18.481-4.754 31.658-4.754 31.658l-23.018 37.034c-5.312.115-12.475-1.328-12.74-6.659a10.41 10.41 0 011.045-4.331l17.343-43.214c3.426-8.572 6.976-17.322 12.465-24.672l.487-.637v-.053l.071-.089c.354-.425 1.496-1.771 3.205-3.728v-.053c4.984-5.57 14.714-15.541 23.709-19.482 0 0 10.437 2.878 16.732 2.107l.097-.026z" fill="#5E58F8"/><path d="M425.545 249.936s-31.349 25.521-34.642 32.145c-9.198 18.481-4.754 31.658-4.754 31.658l-23.018 37.034c-5.312.115-12.475-1.328-12.74-6.659a10.41 10.41 0 011.045-4.331l17.343-43.214c3.426-8.572 6.976-17.322 12.465-24.672l.487-.637v-.053l.071-.089c.354-.425 1.496-1.771 3.205-3.728v-.053c4.984-5.57 14.714-15.541 23.709-19.482 0 0 10.437 2.878 16.732 2.107l.097-.026z" fill="#2F51C1"/><path d="M409.45 364.375c-2.054 1.895-4.789 3.79-4.692 6.588-.01.277.068.549.221.78.286.282.67.441 1.072.442 6.321.7 12.199-3.152 17.113-7.199 1.239-1.019 2.532-2.187 2.824-3.764.292-1.576-.54-3.161-1.257-4.613a44.301 44.301 0 01-2.842-7.35c.221.752-2.957 3.427-3.497 3.896-1.133.992-2.806 1.709-3.692 2.913-.885 1.205-1.071 2.657-1.77 3.853a18.225 18.225 0 01-3.48 4.454zM344.203 352.526c-2.223.788-4.799 1.213-6.198 3.1a2.111 2.111 0 00-.469 1.177c0 1.169 1.355 1.771 2.497 2.037 4.559.93 9.269.275 13.873-.39a2.87 2.87 0 002.904-2.594l1.814-5.597a.824.824 0 00.062-.522.885.885 0 00-.371-.408 23.85 23.85 0 00-3.958-2.24c-1.868-.886-1.992-.806-3.24.673a16.35 16.35 0 01-6.914 4.764z" fill="#ECC0B7"/><path d="M392.842 220.031c-3.639-.575-7.729-1.045-10.668 1.16a13.874 13.874 0 00-3.364 4.313c-.576.983-1.16 2.161-.691 3.188.469 1.027 1.62 1.346 2.656 1.603 3.355.814 6.967 1.576 10.181.318 2.373-.885 4.294-2.895 6.782-3.489a3.299 3.299 0 001.195-.407 2.05 2.05 0 00.682-1.098c1.496-4.994-3.444-5.118-6.773-5.588z" fill="#FFDAD2"/><path d="M353.861 362.701c-.127.26-.323.481-.566.638a1.707 1.707 0 01-1.133 0 31.176 31.176 0 00-6.198-.213 84.754 84.754 0 01-12.651-1.151c-1.824-.266-3.851-.647-4.904-2.152a1.16 1.16 0 01-.248-.593c.011-.329.14-.643.363-.886a15.427 15.427 0 016.958-4.746 8.73 8.73 0 013.17-.691 3.727 3.727 0 012.886 1.284c.752.956.885 2.329 1.708 3.188.824.859 2.24.965 3.48.885a27.806 27.806 0 004.285-.487c1.071-.203 2.656-.938 3.718-.664 2.488.682-.168 4.339-.868 5.588zM427.573 364.463c.049.327.006.662-.124.966a1.986 1.986 0 01-1.071.735 34.597 34.597 0 00-6.047 3.763 95.841 95.841 0 01-12.651 6.916c-1.895.886-4.064 1.833-6.02 1.081a1.361 1.361 0 01-.611-.399 1.56 1.56 0 01-.213-1.063 17.6 17.6 0 013.541-8.926 9.868 9.868 0 012.577-2.656 4.245 4.245 0 013.541-.62c1.319.425 2.293 1.656 3.648 1.93 1.354.275 2.744-.505 3.886-1.337a32.226 32.226 0 003.754-3.197c.885-.885 1.903-2.568 3.098-2.993 2.745-.983 2.594 4.153 2.692 5.8z" fill="#2F51C1"/><path d="M460.967 195.068a41.874 41.874 0 011.771 8.315l.54 3.808a4.177 4.177 0 01-.124 2.382c-.629 1.337-3.17.788-4.427.992-2.248.363-4.488.717-6.737 1.062a1061.99 1061.99 0 01-13.492 1.984 26.91 26.91 0 01.168-6.863c.416-2.161 1.346-4.189 1.877-6.323.434-1.771.593-3.542 1.044-5.313a16.458 16.458 0 016.145-9.077c4.736-3.462 11.686 4.924 13.138 8.696l.097.337z" fill="#fff"/><path d="M491.36 262.927c-5.879 13.558-19.105 22.909-33.279 27.106-11.049 3.268-22.691 3.773-34.271 3.109 0-.788.461-1.267 1.426-1.311 11.093-.558 15.687-15.143 19.016-22.564 3.329-7.42 5.604-16.745 27.268-25.344 21.106-8.359 18.53-24.087 19.583-20.917 4.985 14.913 6.507 25.495.257 39.921z" fill="#2F3653"/><path d="M492.874 263.547c-5.879 13.549-19.105 22.9-33.279 27.106-11.049 3.259-25.887 3.817-37.467 3.144 0-.779 2.143-1.922 3.108-1.966 11.093-.558 15.935-17.879 19.264-25.3 3.329-7.421 6.383-11.778 27.02-22.608 30.836-16.17 8.526-38.167 8.136-39.575 7.393 2.382 11.509 17.41 12.554 20.58 4.984 14.913 6.914 24.184.664 38.619z" fill="#fff"/><path opacity=".23" d="M450.99 288.28c-9.376 2.391-19.3 2.48-28.428 5.712 2.895-1.027 8.959.566 12.182.469 4.428-.135 8.841-.6 13.2-1.39 7.711-1.399 17.928-3.542 24.284-8.298-4.143-3.524-16.652 2.338-21.238 3.507z" fill="#5E58F8"/><path d="M456.611 370.999a1.767 1.767 0 01-.46.203 2.103 2.103 0 01-.886.045c-3.284-.408-19.406-77.193-19.406-77.193l2.205-1.284c.159-.089.345-.186.504-.257a4.526 4.526 0 015.994 2.577v.088c.092.232.16.472.204.718l12.677 70.321s.753 3.701-.832 4.782z" fill="#5E58F8"/><path d="M456.974 364.676s-.132 4.428-.363 6.323c-.141.885-.274 1.239-.46.203-1.585-9.289-14.749-66.309-17.591-78.671a4.522 4.522 0 015.993 2.577v.088l12.421 69.48z" fill="url(#opaint2_linear)"/><path d="M117.092 281.94s-24.585 79.468-21.93 81.417c2.657 1.948 4.356-3.348 4.356-3.348l24.86-73.854-7.286-4.215zM170.034 291.114l.23.575 28.065 72.022a8.99 8.99 0 001.886 2.993 1.823 1.823 0 002.655.159c2.568-2.072-23.797-75.953-23.797-75.953l-9.039.204zM149.079 285.827s.885 83.188 4.001 84.224c3.117 1.036 3.17-4.525 3.17-4.525l1.062-77.928-8.233-1.771z" fill="#5E58F8"/><path d="M121.492 282.905s-26.807 77.042-24.125 78.955c2.683 1.913 2.134-1.86 2.134-1.86l24.877-73.845-2.886-3.25zM170.264 291.689l28.065 72.022a8.99 8.99 0 001.886 2.993c-.089-8.253-23.984-75.147-23.984-75.147l-5.967.132z" fill="#2F51C1"/><path d="M149.079 285.827s.885 83.188 4.001 84.224c3.117 1.036 1.195-6.27 1.195-6.27l-1.106-77.042-4.09-.912z" fill="url(#opaint3_linear)"/><path d="M94.56 262.927c5.879 13.558 19.106 22.909 33.28 27.106 11.049 3.268 22.691 3.773 34.27 3.109 3.241-.172 6.472-.42 9.695-.744 5.666-.567 11.411-1.302 16.715-3.374 5.303-2.072 10.243-5.65 12.934-10.706a25.804 25.804 0 002.656-10.68c.558-9.511-2.452-19.624-9.739-25.681-5.719-4.782-13.182-6.641-19.114-11.078-6.639-4.986-13.456-9.44-20.486-13.921-7.029-4.481-14.165-9.006-22.026-11.857-7.862-2.852-16.627-3.923-24.577-1.399-2.753.885-6.994 3.019-11.146 13.185-5.976 14.532-8.712 31.614-2.461 46.04z" fill="#D0D8E1"/><path d="M115.622 213.567a36.758 36.758 0 012.462 7.084c.531 2.975 1.443 5.898 1.965 8.9a100.64 100.64 0 011.496 18.233c0 2.418 0 5.145 1.727 6.819 1.168 1.124 2.841 1.487 4.426 1.771 3.125.629 5.95 1.868 9.075 2.4 3.405.494 6.847.701 10.287.62 10.146 0 29.021-1.134 28.392-15.285a478.034 478.034 0 00-4.214-47.749c-.761-5.366-.885-11.556-2.541-16.719-1.363-4.348-6.427-4.383-10.624-3.94l-.796.088c-.815.08-1.629.186-2.417.284-5.587.581-11.21.747-16.821.496-6.313-.195-16.423-.824-22.629 5.127-.431.408-.836.843-1.213 1.302-6.171 7.536-2.859 19.765 1.425 30.569z" fill="#fff"/><path opacity=".43" d="M139.154 211.999c.54 7.085-1.469 14.638 2.249 20.563.17.333.439.605.77.779a2.654 2.654 0 001.585-.177 4.116 4.116 0 013.302.759 4.128 4.128 0 011.62 2.978 7.766 7.766 0 003.072-5.623c.08-1.231 0-2.728 1.027-3.401 1.328-.885 3.046.682 3.329 2.241.283 1.558-.159 3.205.283 4.728.567 1.993 2.559 3.295 4.577 3.72 2.055.303 4.143.303 6.198 0a8.84 8.84 0 014.426.469c1.364.646 2.417 2.196 2.001 3.648-.496 1.727-2.585 2.329-4.356 2.657l-24.311 4.534-12.509 2.338c-2.736.505-7.57 2.922-7.658-1.125a67.087 67.087 0 00-2.815-17.861c-.7-2.338-.779-4.729-1.461-6.996-.832-2.754-2.364-5.393-3.302-8.147a79.396 79.396 0 01-3.798-17.082c-.443-4.091-.16-9.024 3.346-11.158 2.532-1.532 5.941-.886 8.322.886 2.904 2.151 4.241 5.534 6.923 7.801 3.117 2.657 5.542 5.65 6.587 9.697.306 1.238.504 2.5.593 3.772z" fill="#D0D8E1"/><path d="M151.549 186.752a2.88 2.88 0 00-.452.886c-.02.348.05.696.204 1.009 3.417 8.572 5.56 17.587 7.684 26.567 1.877 7.899 3.763 15.86 4.152 23.971a5.159 5.159 0 01-.132 1.772c-.62 2.001-3.232 2.656-4.374 4.383l-3.798-4.339a2.85 2.85 0 01-.584-.886 2.88 2.88 0 010-1.399c1.284-8.669-.142-17.516-2.169-26.053-1.771-7.332-3.958-14.673-3.825-22.209 0-.886 0-1.966-.681-2.559a4.702 4.702 0 00-1.258-.602 4.255 4.255 0 01-1.912-5.756 5.16 5.16 0 002.311-.594 3.468 3.468 0 012.346-.31c1.753.602 3.488 4.472 2.488 6.119z" fill="#5E58F8"/><path d="M115.419 181.714c6.197-5.951 16.316-5.314 22.629-5.128 5.611.251 11.234.086 16.821-.496.787-.097 1.602-.203 2.416-.283-3.337-1.364-8.074-.452-11.633-.337-5.394.178-10.786.505-16.174.983-5.1.47-10.748 1.346-14.059 5.261z" fill="#fff"/><path d="M134.559 159.451c1.417 4.428 7.136 8.696 13.829 6.854 0 0-2.656 7.97.664 12.832 0 0-2.169 5.552-16.883-2.657 0 0 3.975-.328 2.895-8.492a17.515 17.515 0 00-2.895-7.837 1.442 1.442 0 001.398.344 1.433 1.433 0 00.992-1.044z" fill="#ECC0B7"/><path d="M141.775 169.75c7.755 2.285 14.076-4.109 16.953-13.567.31-1.027.576-2.107.797-3.205.668-3.14.965-6.347.886-9.555-.452-15.488-22.753-13.912-22.753-13.912-18.007 4.011-9.384 36.272 4.117 40.239z" fill="#FFDAD2"/><path d="M190.007 266.168l-.461-.478c1.824 2.054 3.055 3.542 3.427 3.985a48.332 48.332 0 00-2.966-3.507z" fill="#DC9ED5"/><path d="M123.59 130.591a13.922 13.922 0 016.366-6.455c2.549-1.346 6.268-1.081 8.357-3.18 1.124-1.124 1.346-2.833 1.992-4.286a7.57 7.57 0 013.169-3.462 6.856 6.856 0 012.975-.886c3.232-.15 6.144 2.347 7.393 5.314.885-1.461 2.717-2.028 4.426-1.993 3.931.08 7.534 2.86 9.154 6.447a9.323 9.323 0 01.886 4.499 6.201 6.201 0 01-1.895 4.117 1.62 1.62 0 01-.885.478.706.706 0 01-.788-.46 33.213 33.213 0 01-4.135 6.588 5.675 5.675 0 01-2.116 1.772 4.633 4.633 0 01-2.602.15 9.732 9.732 0 01-3.347-1.293.883.883 0 00-.646-.195c-.23.062-.354.293-.469.505a5.055 5.055 0 01-3.143 2.568c-1.18.16-2.377.115-3.542-.133a19.427 19.427 0 00-4.807 0 6.522 6.522 0 00-2.762.886 4.116 4.116 0 00-1.647 3.294c0 .505.496 4.667-.115 4.764-.982.169-1.177-1.461-2.036-1.966-.859-.504-1.691.151-2.134.886a3.547 3.547 0 00.399 4.074c.297.253.528.575.673.938.05.367-.012.741-.177 1.072l-1.514 3.808a91.794 91.794 0 00-7.269-13.78c-1.195-1.771-2.585-3.745-2.054-5.791.531-2.046 2.745-3.542 2.284-5.535-.088-.38-.274-.735-.327-1.124a3.01 3.01 0 01.336-1.621z" fill="#263238"/><path d="M136.374 248.147s9.447 23.582 17.025 26.053c7.578 2.47 54.624 16.675 54.624 16.675l19.999 67.779 5.171-3.17c1.956-1.205 6.631-2.94 7.817-4.897 1.576-2.577-.797-9.343-1.248-12.274l-2.045-13.283c-2.751-17.959-5.51-35.921-8.278-53.885a4.318 4.318 0 00-2.851-4.065 302.37 302.37 0 00-28.481-13.398 325.531 325.531 0 00-14.413-5.473c-.956-.336-8.047-4.215-8.242-4.065-.062.027-5.09 3.808-39.078 4.003z" fill="#2F3653"/><path d="M222.409 361.143c-2.177-4.818-2.363-10.246-3.001-15.489-.469-3.949-1.222-7.854-1.974-11.76l-10.287-53.734a5.506 5.506 0 00-3.887-5.066c-16.52-8.067-32.757-16.533-49.135-24.919 0 0-17.706-6.429-30.853 2.55 0 0-1.771 21.51 5.807 23.981a947.956 947.956 0 0050.632 14.966 5.674 5.674 0 012.213.974 5.51 5.51 0 011.487 2.71c6.197 18.87 12.395 37.75 18.052 56.772.673 2.243 1.337 4.484 1.992 6.721.504 1.709.885 6.199 2.133 7.385 1.656 1.674 3.843 0 6.056-.885l12.076-4.871-39.06-94.647-5.684-2.922" fill="#4C516C"/><path d="M249.615 352.039a39.81 39.81 0 015.967.593c1.843.204 3.593.915 5.055 2.055a4.785 4.785 0 011.567 2.798 3.654 3.654 0 01-.929 3.02 6.455 6.455 0 01-2.453 1.319 789.43 789.43 0 01-6.33 2.205c-4.524 1.559-9.118 3.135-13.899 3.392a1.77 1.77 0 01-.841-.089 1.894 1.894 0 01-.549-.416c-2.868-2.807-5.578-6.101-6.268-10.059a.806.806 0 010-.408.887.887 0 01.336-.354 33.72 33.72 0 019.402-4.428c3.028-.876 5.879.31 8.942.372z" fill="#2F3653"/><path d="M226.73 361.125a39.68 39.68 0 015.967.593c1.843.203 3.593.915 5.055 2.055a4.79 4.79 0 011.567 2.798 3.653 3.653 0 01-.93 3.02 6.443 6.443 0 01-2.452 1.319 789.43 789.43 0 01-6.33 2.205c-4.524 1.559-9.119 3.135-13.899 3.392a1.77 1.77 0 01-.886-.089 1.921 1.921 0 01-.549-.416c-2.868-2.807-5.577-6.101-6.268-10.06a.802.802 0 010-.407.89.89 0 01.337-.354 33.707 33.707 0 019.402-4.428c3.072-.877 5.878.301 8.986.372zM94.56 262.927c5.879 13.558 19.106 22.909 33.28 27.106 11.049 3.268 22.691 3.773 34.27 3.109 0-.788-.46-1.267-1.425-1.311-11.093-.558-15.688-15.143-19.017-22.564-3.328-7.42-5.604-16.745-27.267-25.344-21.106-8.359-18.53-24.087-19.584-20.917-4.966 14.913-6.507 25.495-.256 39.921z" fill="#2F3653"/><path d="M93.047 263.547c5.878 13.549 19.105 22.9 33.279 27.106 11.049 3.259 25.887 3.817 37.467 3.144 0-.779-2.143-1.922-3.108-1.966-11.093-.558-15.936-17.879-19.264-25.3-3.329-7.421-6.419-11.778-27.02-22.59-30.836-16.17-8.526-38.167-8.136-39.575-7.393 2.382-11.51 17.41-12.554 20.58-4.984 14.895-6.915 24.166-.664 38.601z" fill="#fff"/><path opacity=".23" d="M134.931 288.28c9.376 2.391 19.3 2.48 28.428 5.712-2.895-1.027-8.96.566-12.182.469a89.044 89.044 0 01-13.192-1.39c-7.719-1.399-17.927-3.542-24.293-8.298 4.144-3.524 16.653 2.338 21.239 3.507z" fill="#5E58F8"/><path d="M129.309 370.999c.143.089.298.158.461.203.288.078.59.093.885.045 3.285-.408 19.406-77.193 19.406-77.193l-2.204-1.284a6.674 6.674 0 00-.505-.257 4.519 4.519 0 00-5.031 1.044 4.513 4.513 0 00-.962 1.533v.088c-.099.23-.17.471-.213.718l-12.678 70.321s-.743 3.701.841 4.782z" fill="#5E58F8"/><path d="M128.947 364.676s.132 4.428.363 6.323c.141.885.274 1.239.46.203 1.585-9.289 14.749-66.309 17.591-78.671a4.522 4.522 0 00-5.993 2.577v.088l-12.421 69.48z" fill="url(#opaint4_linear)"/><path d="M146.989 256.648a4.837 4.837 0 01-1.717 2.949 7.232 7.232 0 01-3.418 1.559c-2.399.381-4.851-.284-7.171-1.01a139.516 139.516 0 01-21.593-8.731c-2.284-1.151-4.63-2.444-6.002-4.605-1.514-2.426-1.532-5.482-1.452-8.333a310.71 310.71 0 013.09-35.679c.743-5.233.681-13.336 3.815-18.33a8.946 8.946 0 017.473-4.428c4.975-.301 9.092 4.428 10.004 9.316.912 4.888-.505 9.9-1.771 14.718-1.771 6.942-3.311 13.982-4.427 21.067-.522 3.152-.929 6.57.585 9.395a14.052 14.052 0 002.656 3.277 81.924 81.924 0 0013.837 10.848c3.019 1.904 6.614 4.472 6.091 7.987zM217.124 215.267a8.683 8.683 0 01-4.32 5.933 25.987 25.987 0 01-7.083 2.612l-10.163 2.657c-5.312 1.399-11.713 2.506-15.653-1.328a5.737 5.737 0 01-1.77-5.172c.11-.477.318-.926.611-1.319a8.542 8.542 0 012.656-1.975 25.353 25.353 0 007.498-6.792c-6.02-2.249-12.288-4.543-17.326-8.448a25.171 25.171 0 01-2.655-2.303 26.56 26.56 0 01-7.225-13.637c-.442-2.161-1.195-5.774-.407-7.917 1.071-2.931 3.09-1.576 5.958-.753 10.969 3.153 21.115 8.776 30.181 15.621a142.51 142.51 0 0114.793 13.036c2.665 2.665 5.427 6.021 4.905 9.785z" fill="#fff"/><path opacity=".38" d="M192.964 213.239a241.13 241.13 0 01-10.872 7.084c-1.071.665-2.559 1.311-3.47.425a1.513 1.513 0 01-.47-.885c.111-.477.319-.927.611-1.32a8.578 8.578 0 012.656-1.974 25.345 25.345 0 007.499-6.792c-6.038-2.143-12.306-4.437-17.344-8.342v-.744c0-.886-.185-7.332-.69-7.642l22.629 14.009a4.18 4.18 0 012 2.001c.576 1.638-1.071 3.17-2.549 4.18z" fill="#D0D8E1"/><path d="M171.034 226.416a14.846 14.846 0 00-1.018 5.198 13.776 13.776 0 001.125 7.084c1.115 2.152 3.426 3.826 5.834 3.542a5.683 5.683 0 004.019-2.656 9.261 9.261 0 001.337-4.738c1.107-.283 1.718-1.47 1.992-2.586a9.352 9.352 0 011.045-3.241c.673-.947 1.832-1.479 2.399-2.497a3.315 3.315 0 00-.097-3.073c-1.452-2.807-5.994-5.233-8.969-3.932-2.974 1.302-6.285 3.737-7.667 6.899zM142.492 259.305c1.868 2.781 5.816 3.153 9.127 2.657a29.095 29.095 0 009.65-3.188 3.624 3.624 0 001.842-1.709 2.813 2.813 0 000-1.665 6.925 6.925 0 00-3.541-4.198 20.784 20.784 0 00-5.357-1.771c-3.001-.682-6.197-1.364-9.092-.354-2.895 1.009-3.435.886-3.754 3.79-.168 2.108-.088 4.658 1.125 6.438z" fill="#FFDAD2"/><path d="M133.417 172.778l6.012 3.118a27.827 27.827 0 015.913 3.719 25.983 25.983 0 00-2.115 7.677 28.5 28.5 0 00-5.463-5.207c-1.903-1.257-4.117-2.036-5.896-3.48-2.098-1.7.478-4.091 1.549-5.827zM152.275 178.694l2.806 3.737c.191.214.325.473.39.753a29.078 29.078 0 00-6.782-2.214.886.886 0 01-.664-.337.883.883 0 01-.044-.593 7.295 7.295 0 00-.682-4.1 3.273 3.273 0 01-.487-1.311c-.115-2.072 2.09.107 2.603.611a30.586 30.586 0 012.86 3.454z" fill="#fff"/><path opacity=".41" d="M331.967 180.97v7.97a12.728 12.728 0 01-3.723 9.003 12.71 12.71 0 01-8.999 3.731H211.431a12.736 12.736 0 01-12.686-12.761v-7.97l133.222.027z" fill="#8DA1B5"/><path opacity=".43" d="M145.272 259.597a7.232 7.232 0 01-3.418 1.559c-2.399.381-4.851-.284-7.171-1.01a139.516 139.516 0 01-21.593-8.731c-2.284-1.151-4.63-2.444-6.002-4.605-1.514-2.426-1.532-5.482-1.452-8.333a310.71 310.71 0 013.09-35.679c.743-5.233.681-13.336 3.815-18.33.923.266 1.828.592 2.71.974a5.664 5.664 0 012.93 2.258c.761 1.399.443 3.135.08 4.711a340.177 340.177 0 00-6.808 45.65 3.598 3.598 0 001.531 3.816 80.445 80.445 0 009.624 7.457c5.311 3.542 11.757 7.598 18.078 8.767 1.797.345 3.267.363 4.586 1.496z" fill="#D0D8E1"/><path d="M425.802 53.283H324.655c-11.28 0-20.425 9.147-20.425 20.43v8.536c0 11.283 9.145 20.43 20.425 20.43h101.147c11.28 0 20.425-9.147 20.425-20.43v-8.536c0-11.283-9.145-20.43-20.425-20.43z" fill="#fff"/><path d="M390.753 118.991l-12.802-18.181h12.802v18.181z" fill="#fff"/></g><defs><linearGradient id="opaint0_linear" x1="14400.6" y1="27635.4" x2="14491.1" y2="39793.7" gradientUnits="userSpaceOnUse"><stop offset=".01"/><stop offset=".08" stop-opacity=".69"/><stop offset=".21" stop-opacity=".32"/><stop offset="1" stop-opacity="0"/></linearGradient><linearGradient id="opaint1_linear" x1="3549.26" y1="34880.1" x2="2800.9" y2="34889.3" gradientUnits="userSpaceOnUse"><stop offset=".01"/><stop offset=".08" stop-opacity=".69"/><stop offset=".21" stop-opacity=".32"/><stop offset="1" stop-opacity="0"/></linearGradient><linearGradient id="opaint2_linear" x1="10692.5" y1="32076.2" x2="8622.75" y2="32364.9" gradientUnits="userSpaceOnUse"><stop offset=".01"/><stop offset=".08" stop-opacity=".69"/><stop offset=".21" stop-opacity=".32"/><stop offset="1" stop-opacity="0"/></linearGradient><linearGradient id="opaint3_linear" x1="-19358.1" y1="34880" x2="-18611.3" y2="34889.2" gradientUnits="userSpaceOnUse"><stop offset=".01"/><stop offset=".08" stop-opacity=".69"/><stop offset=".21" stop-opacity=".32"/><stop offset="1" stop-opacity="0"/></linearGradient><linearGradient id="opaint4_linear" x1="-69514.4" y1="32076.2" x2="-67444.5" y2="32364.9" gradientUnits="userSpaceOnUse"><stop offset=".01"/><stop offset=".08" stop-opacity=".69"/><stop offset=".21" stop-opacity=".32"/><stop offset="1" stop-opacity="0"/></linearGradient><clipPath id="oclip0"><path fill="#fff" d="M0 0h585v453H0z"/></clipPath></defs></svg><svg fill="none" viewBox="0 0 20 20" id="telegram" xmlns="http://www.w3.org/2000/svg"><path d="M17.22 3.098L2.447 8.795c-1.009.405-1.003.968-.185 1.218l3.793 1.184 8.777-5.538c.415-.252.794-.116.482.16l-7.11 6.418H8.2h.002l-.262 3.91c.383 0 .552-.175.767-.383l1.843-1.791 3.832 2.83c.707.39 1.215.19 1.39-.654L18.29 4.293c.258-1.033-.394-1.5-1.068-1.195z" fill="#011F3B"/></svg><svg fill="none" viewBox="0 0 20 20" id="viber" xmlns="http://www.w3.org/2000/svg"><path d="M9.632 3.002c-1.184.015-3.73.213-5.153 1.54C3.421 5.61 3.051 7.188 3.008 9.139c-.036 1.944-.08 5.594 3.38 6.588v1.513s-.022.606.372.73c.485.156.76-.31 1.222-.81l.86-.989c2.367.2 4.18-.261 4.388-.33.48-.156 3.186-.507 3.628-4.158.454-3.77-.22-6.145-1.438-7.22h-.008c-.367-.344-1.843-1.438-5.142-1.45 0 0-.245-.017-.638-.01zm.04 1.06c.336-.002.54.012.54.012 2.792.008 4.125.862 4.44 1.15 1.025.894 1.553 3.035 1.166 6.183-.367 3.052-2.561 3.245-2.968 3.377-.172.056-1.77.456-3.78.325 0 0-1.499 1.838-1.967 2.312-.075.083-.161.107-.216.095-.08-.02-.104-.12-.1-.256l.015-2.513c-2.934-.825-2.761-3.938-2.73-5.565.036-1.626.336-2.956 1.23-3.857 1.202-1.106 3.363-1.255 4.37-1.263zm.221 1.626a.18.18 0 00-.13.054.186.186 0 00-.054.132c0 .105.083.188.184.188.457-.01.912.074 1.337.245.425.17.813.425 1.141.748.67.662.996 1.55 1.009 2.713 0 .103.081.188.184.188v-.007c.05 0 .096-.02.13-.055a.19.19 0 00.055-.131 4.099 4.099 0 00-.256-1.605 4.047 4.047 0 00-.858-1.372c-.73-.725-1.654-1.098-2.742-1.098zm-2.43.43a.57.57 0 00-.376.075h-.01a2.904 2.904 0 00-.704.589c-.168.198-.26.398-.283.59a.811.811 0 00.029.34l.012.007c.19.567.437 1.111.74 1.624.389.72.868 1.387 1.426 1.983l.016.024.026.02.017.02.02.016a9.535 9.535 0 001.954 1.458c.811.45 1.303.661 1.599.75v.004a.812.812 0 00.245.04 1.12 1.12 0 00.677-.296c.228-.206.42-.448.571-.718v-.005c.142-.27.094-.527-.11-.7a8.511 8.511 0 00-1.32-.965c-.315-.173-.635-.068-.764.108l-.276.354c-.142.175-.399.151-.399.151l-.007.005c-1.918-.499-2.43-2.474-2.43-2.474s-.024-.268.153-.405l.346-.283c.166-.137.28-.462.103-.782a8.434 8.434 0 00-.946-1.343.524.524 0 00-.31-.188h.002zm2.75.557c-.245 0-.245.376.002.376a2.284 2.284 0 011.627.718 2.193 2.193 0 01.553 1.606c0 .05.02.097.055.131a.184.184 0 00.13.055l.007.01c.049 0 .095-.02.13-.056a.192.192 0 00.055-.132c.016-.745-.212-1.37-.658-1.87-.45-.502-1.076-.782-1.875-.838h-.027zm.302 1.01c-.252-.007-.262.377-.012.384.608.032.903.344.941.986.001.05.02.096.055.13.034.034.08.053.128.054h.007a.183.183 0 00.13-.063.19.19 0 00.048-.137c-.043-.838-.492-1.31-1.29-1.353h-.007z" fill="#fff"/></svg><svg fill="none" viewBox="0 0 459 470" id="videocall" xmlns="http://www.w3.org/2000/svg"><g clip-path="url(#rclip0)"><path opacity=".24" d="M452.452 394.248c-9.106 20.925-28.076 34.966-49.046 45.11-6.865 3.294-13.939 6.203-20.936 8.783-20.245 7.465-41.324 13.493-62.92 14.36-22.924.9-45.673-3.996-68.609-5.555-34.942-2.317-69.917 3.228-104.925 2.755-30.042-.428-61.513-6.126-85.954-22.945a89.283 89.283 0 01-11.434-9.211c-25.463-24.152-34.942-60.381-41.467-94.799C2.37 307.298-1.473 281.4.57 255.589c2.042-25.81 10.369-51.785 27.46-71.294 13.105-14.942 30.516-25.25 46.696-36.844a341.794 341.794 0 0073.003-70.745c15.378-20.2 29.098-42.651 50.068-57.088C219.888 4.5 247.678.076 274.492.01c17.773-.077 35.842 1.625 52.286 8.41 13.709 5.687 25.792 14.689 37.655 23.604a9670.198 9670.198 0 0140.423 30.333c8.272 6.17 19.948 12.472 25.473 21.584 14.731 24.295-9.941 49.458-12.852 72.919-2.35 19.223 8.931 37.096 16.983 54.717 17.201 37.678 20.431 80.033 23.408 121.378 1.515 20.65 2.867 42.289-5.416 61.293z" fill="#5E58F8"/><path opacity=".44" d="M434.175 324.59c-1.747 16.753-10.095 31.947-16.081 47.69-8.953 23.494-7.47 47.032-14.687 67.079-6.865 3.294-13.939 6.203-20.936 8.783-20.245 7.465-41.324 13.492-62.92 14.36-22.924.9-45.673-3.997-68.609-5.555-34.942-2.317-69.917 3.227-104.924 2.755-30.043-.428-61.514-6.126-85.954-22.945 2.504-19.871 18.541-35.943 36.677-44.573 18.135-8.629 38.676-11.307 58.558-14.941 19.882-3.634 40.314-8.662 56.241-21.134 10.381-8.124 18.29-18.971 25.331-30.136 34.206-54.508 51.078-120.686 96.323-166.489 16.62-16.786 39.544-30.849 62.667-26.139 7.942 1.592 15.993 6.093 18.674 13.701 1.812 5.083.9 10.671.175 16.028a243.706 243.706 0 007.118 99.334c5.844 20.486 14.522 41.004 12.347 62.182z" fill="#5E58F8"/><path d="M102.804 465.477a5.63 5.63 0 001.099 3.173 5.212 5.212 0 003.515 1.262c7.964.615 15.84-2.196 22.76-6.192a13.01 13.01 0 004.536-3.754 4.973 4.973 0 00.176-5.577 6.586 6.586 0 00-2.79-1.878 54.047 54.047 0 00-8.052-2.437c-5.261-1.295-10.863-2.975-16.323-2.997-4.822 0-5.788 3.612-5.799 7.871.061 3.525.355 7.042.878 10.529zM64.446 448.702a7.19 7.19 0 00-1.933 4.259 28.037 28.037 0 00.626 12.483c.165.719.463 1.4.879 2.009 1.098 1.471 3.185 1.767 5.02 1.68 4.756-.231 9.227-2.262 13.379-4.567a23.404 23.404 0 006.448-4.743 9.566 9.566 0 002.614-7.345 3.931 3.931 0 00-.856-2.13 5.31 5.31 0 00-3.56-1.262c-4.393-.406-8.787-.736-13.181-1.153-3.01-.23-6.854-1.526-9.436.769z" fill="#000"/><path d="M47.618 258.752c.648 13.361 3.098 26.787 8.788 38.897 1.526-2.196 1.834-4.919 1.988-7.553.417-7.279-.077-14.58-.23-21.87-.166-7.97 2.998-14.886 3.635-22.835.418-5.193 2.065-17.148.769-22.198-.868-3.36-7.085-2.196-10.391-3.821-4.394-2.086-3.548 5.918-3.746 8.607a252.367 252.367 0 00-.813 30.773z" fill="#F8D8D1"/><path d="M380.933 27.325H231.257a26.37 26.37 0 00-18.641 7.718 26.34 26.34 0 00-7.721 18.63v318.97a26.34 26.34 0 007.721 18.631 26.372 26.372 0 0018.641 7.717h149.676a26.37 26.37 0 0018.641-7.717 26.34 26.34 0 007.722-18.631V53.663a26.34 26.34 0 00-7.726-18.624 26.368 26.368 0 00-18.637-7.714zm6.59 230.208v100.783H213.748V55.606a10.974 10.974 0 016.781-10.143 10.991 10.991 0 014.204-.836H247.8v13.69h103.617V44.672h25.265c2.913 0 5.707 1.157 7.767 3.216a10.975 10.975 0 013.217 7.763v186.854a98.696 98.696 0 01-.153 15.029h.01z" fill="#000"/><path d="M380.856 27.325H231.181a26.371 26.371 0 00-18.642 7.718 26.34 26.34 0 00-7.721 18.63v318.97a26.34 26.34 0 007.721 18.631 26.372 26.372 0 0018.642 7.717h149.675a26.374 26.374 0 0018.642-7.717 26.34 26.34 0 007.721-18.631V53.663a26.344 26.344 0 00-7.725-18.624 26.372 26.372 0 00-18.638-7.714zm6.591 230.208v100.783H213.66V55.606c0-2.912 1.158-5.704 3.218-7.763a10.987 10.987 0 017.767-3.216h23.068v13.69h103.606V44.672h25.264c2.913 0 5.707 1.157 7.767 3.216a10.976 10.976 0 013.218 7.763v186.854a98.696 98.696 0 01-.143 15.029h.022z" fill="url(#rpaint0_linear)"/><path d="M103.507 439.26a176.704 176.704 0 000 8.706 2.967 2.967 0 00.67 2.196c.472.35 1.039.549 1.626.571 1.966.274 3.932.472 5.91.604.327.044.659.022.977-.066a1.94 1.94 0 00.55-.352 6.206 6.206 0 001.999-3.809 18.23 18.23 0 000-4.392 26.355 26.355 0 00-1.099-6.817 1.208 1.208 0 00-.406-.67 1.24 1.24 0 00-.648-.187 25.174 25.174 0 00-7.316.275c-2.12.428-2.197 1.713-2.263 3.941zM63.853 448.372a2.754 2.754 0 00.66 2.657 2.802 2.802 0 001.702.352l5.657-.077a2.866 2.866 0 002.439-.835c.252-.467.367-.996.329-1.526.077-2.953.912-7.015.242-9.88-.429-1.823-.297-1.603-2.34-1.812a10.9 10.9 0 00-3.867.099c-4.02 1.142-4.36 7.586-4.822 11.022z" fill="#F8D8D1"/><path d="M127.563 385.125a376.842 376.842 0 01-11.973 49.755 9.741 9.741 0 01-1.669 3.524c-2.197 2.602-6.305 2.283-9.689 1.702a3.057 3.057 0 01-1.955-.802 3.294 3.294 0 01-.549-2.031c-.835-19.322 1.098-38.688.769-58.054-.33-19.366 2.197-30.608-7.184-47.581-4.833 39.062-4.284 71.294-17.674 108.281a4.393 4.393 0 01-5.218 3.623l-7.546.11a3.145 3.145 0 01-1.824-.396c-.835-.625-.758-1.855-.615-2.865 3.735-26.436 2.538-53.279 1.307-79.923-.33-7.4-.648-14.766-1.01-22.122-.55-12.01-1.099-24.043-3.164-35.867-.835-4.962-1.988-9.968-1.45-14.974.538-5.007 3.164-10.155 7.766-12.154a19.642 19.642 0 017.107-1.262c14.698-.725 30.043-.187 44.521 2.821 10.303 2.141 13.675 7.147 14.554 17.412 2.516 30.202.527 61.096-4.504 90.803zM374.716 27.325H225.051a26.37 26.37 0 00-18.641 7.718 26.342 26.342 0 00-7.722 18.63v318.97a26.34 26.34 0 007.722 18.631 26.37 26.37 0 0018.641 7.717h149.665a26.37 26.37 0 0018.606-7.737 26.34 26.34 0 007.702-18.611V53.663a26.34 26.34 0 00-7.706-18.605 26.372 26.372 0 00-18.602-7.733zm6.59 230.208v100.783H207.531V55.606c0-2.912 1.157-5.704 3.217-7.763a10.988 10.988 0 017.768-3.216h23.067v13.69h103.606V44.672h25.265c2.913 0 5.707 1.157 7.767 3.216a10.975 10.975 0 013.217 7.763v186.854a98.437 98.437 0 01-.132 15.029z" fill="#fff"/><path d="M381.306 56.287v302.72H207.553V56.287a10.898 10.898 0 013.175-7.76 10.91 10.91 0 017.744-3.219h23.067v13.756h103.628V45.33h25.265a10.986 10.986 0 017.688 3.247 10.971 10.971 0 013.186 7.71z" fill="#5E58F8"/><path d="M356.734 254.789a170.857 170.857 0 01-6.799 34.659 61.549 61.549 0 01-2.659 7.564 22.87 22.87 0 01-3.427 5.676c-5.975 7.246-16.806 8.936-25.704 5.818a36.267 36.267 0 01-2.197-.9c-9.194-4.248-15.674-13.009-19.552-22.407-1.604-3.886-2.856-8.003-5.251-11.45-5.053-7.4-14.181-10.595-22.419-14.075a28.901 28.901 0 01-1.329-.604c-8.239-3.677-11.962-7.685-13.346-17.258-1.384-9.573.164-19.322-2.197-28.709-2.329-9.101-8.272-16.961-10.392-26.095-2.12-9.135-.175-19.18 4.515-27.447 4.69-8.266 11.786-14.974 19.772-20.079a47.658 47.658 0 0113.852-6.379c10.127-2.558 21.09-.329 30.416 4.392 12.489 6.312 22.749 17.4 26.835 30.739 2.889 9.431 2.724 19.619 5.844 28.984 2.197 6.587 5.855 12.405 8.535 18.751a73.15 73.15 0 015.492 23.263 98.297 98.297 0 01.011 15.557z" fill="#263238"/><path d="M328.141 199.589c0 4.6-.879 9.2-.395 13.767.571 5.489 3.108 10.671 4.767 16.007 1.659 5.335 2.34 11.461-.582 16.215a20.28 20.28 0 01-6.239 5.939c-9.469 6.412-21.794 10.078-32.427 5.885-3.229-1.285-6.162-3.228-9.359-4.622-3.196-1.395-6.491-2.196-9.369-4.04-5.372-3.404-8.206-9.683-9.722-15.853s-1.988-12.604-4.119-18.587c-2.559-7.169-7.502-14.074-6.404-21.606.89-6.137 5.844-11.121 11.556-13.547 5.712-2.426 12.083-2.69 18.3-2.437a89.006 89.006 0 0131.57 7.026c8.062 3.414 12.412 5.884 12.423 15.853z" fill="url(#rpaint1_linear)"/><path d="M255.566 198.897a3.29 3.29 0 00-1.45 2.811 8.127 8.127 0 00.802 3.183 10.532 10.532 0 004.02 5.292 1.968 1.968 0 002.263.066 2.07 2.07 0 00.429-1.625c-.121-2.196-2.549-11.725-6.064-9.727zM327.339 194.1a12.903 12.903 0 01-.329 6.005 8.282 8.282 0 01-3.658 4.677 2.45 2.45 0 01-1.099.351 1.803 1.803 0 01-1.46-1.098 4.533 4.533 0 01-.374-1.844c-.121-2.47-.351-6.291 1.099-8.509 1.68-2.722 5.195-3.535 5.821.418z" fill="#F8D8D1"/><path d="M279.633 246.149a74.422 74.422 0 0131.46-6.412c3.479 0 6.946.416 10.326 1.241a31.286 31.286 0 0114.598 8.541 47.512 47.512 0 016.448 8.783 49.369 49.369 0 014.613 9.595c1.099 3.359 2.582 6.884 2.077 10.375-6.69 45.462-1.099 69.164-2.648 81.636-28.922-1.098-60.415.186-89.359-1.098a3.854 3.854 0 01-2.702-.813c-.659-.669.143-7.443.132-8.387-.132-11.143 3.295-21.957 4.679-33.034 1.593-12.384.725-24.998 2.351-37.327 1.625-12.329 6.612-28.061 18.025-33.1z" fill="#fff"/><path d="M289.366 244.48a15.716 15.716 0 00-.846 5.248 5.99 5.99 0 003.361 4.72c1.747.7 3.674.815 5.492.33 1.095-.2 2.152-.57 3.131-1.098a16.091 16.091 0 003.779-3.294 21.154 21.154 0 003.603-4.731 16.324 16.324 0 001.395-4.765c.597-3.63.667-7.328.208-10.979a3.805 3.805 0 00-1.34-2.909 3.889 3.889 0 00-2.625-.274c-4.317.571-8.788 1.493-12.083 4.391-1.011.889-2.054 1.79-3.032 2.701a2.197 2.197 0 00-.648 2.272 24.562 24.562 0 01-.395 8.388z" fill="#F8D8D1"/><path opacity=".5" d="M309.5 229.824s-7.019 16.698-17.498 14.349l-2.362-1.186.396-7.861 19.464-5.302z" fill="url(#rpaint2_linear)"/><path d="M154.256 198.041a83.886 83.886 0 01-3.812 14.59 12.289 12.289 0 01-14.598 7.817c-4.976-1.23-9.974-2.415-12.259-2.876-2.197 0 .22 34.703 1.098 40.62 1.275 9.178 7.909 23.79 5.493 26.041-5.306 4.853-11.248 9.496-17.85 12a27.334 27.334 0 01-9.732 1.998c-9.282.142-17.916-4.831-25.979-8.849-4.394-2.196-8.854-4.501-13.181-7.004a8.13 8.13 0 01-3.296-2.975 10.977 10.977 0 01-.944-4.491c-.583-10.44-.725-20.859-.506-31.332.11-4.93 1.165-10.408.648-15.271-.428-3.986-5.294-3.481-8.304-5.94-.835-.658-3.921-.988-4.317-1.921a4.253 4.253 0 01-.285-1.383c-.297-4.93 3.372-12.658 4.163-17.566 1.021-6.345 1.78-13.174 4.943-19.037 3.438-6.389 9.611-10.978 16.477-13.569 6.865-2.591 27.867-.768 31.855 1.559 26.363 15.37 49.43 22.056 50.1 23.252a6.772 6.772 0 01.286 4.337z" fill="#fff"/><path opacity=".5" d="M135.769 205.078s-1.703 10.21-.516 12.417c1.186 2.206 6.645 2.558 9.194.68 2.548-1.877-8.678-13.097-8.678-13.097z" fill="url(#rpaint3_linear)"/><path d="M146.49 191.706c-1.944 3.294-7.832 3.612-9.271 7.114a29.525 29.525 0 00-1.813 10.397 10.082 10.082 0 00.945 4.644c1.175 2.294 3.922 3.293 6.415 3.886a34.081 34.081 0 0011.6 1.296 15.283 15.283 0 0010.303-4.963c3.076-3.688 3.614-8.782 3.79-13.613a146.352 146.352 0 00-2.834-34.395c-1.011-4.996-2.285-9.98-2.384-15.074-.132-6.587 1.736-13.174 2.197-19.761.462-6.587-.736-13.932-5.745-18.279a27.439 27.439 0 00-7.074-4.04c-1.625-.725-3.691-1.395-5.031-.231a3.94 3.94 0 00-1.098 1.855c-1.615 5.072.253 10.628-.626 15.875a3.404 3.404 0 01-1.637 2.756c-.694.157-1.399.263-2.109.318a3.45 3.45 0 00-2.197 3.843 9.431 9.431 0 002.131 4.292c2.351 3.195 6.195 6.28 7.074 10.1 1.033 4.502.637 10.035.571 14.635-.044 9.364 1.648 21.254-3.207 29.345zM105.594 170.562c.22.608.284 1.26.187 1.899a3.37 3.37 0 01-2.351 1.976 15.309 15.309 0 01-8.842.626c-2.922-.714-7.964-4.391-9.557-6.927.175-2.291.216-4.589.121-6.884a39.056 39.056 0 01.077-6.587 6.86 6.86 0 011.867-4.545c2.197-1.899 5.493-.922 8.184.154 2.471.988 5.141 2.195 6.338 4.534 1.098 2.13 2.559 4.479 3.01 6.675.615 2.975.197 6.049.966 9.079z" fill="#F8D8D1"/><path opacity=".5" d="M93.369 154.863s8.172 12.768 11.413 13.613l.164-8.508-11.577-5.105z" fill="url(#rpaint4_linear)"/><path d="M125.224 127.23c.337 2.485.377 5.003.121 7.498a53.985 53.985 0 01-2.109 13.449 19.761 19.761 0 01-7.876 10.813 17.135 17.135 0 01-16.104.549 24.153 24.153 0 01-12.665-24.624c.692-4.106 2.658-7.861 4.735-11.473 2.866-4.984 6.14-9.979 10.984-13.053 4.394-2.756 12.083-4.227 16.07 0 3.526 3.568 5.998 12.109 6.844 16.841z" fill="#F8D8D1"/><path d="M112.877 86.73a18.254 18.254 0 0112.413 10.616 13.84 13.84 0 01.988 7.553 20.737 20.737 0 01-2.394 6.061c-1.439 2.689-16.214 4.259-17.664 18.981 0 .374-2.57 7.839-2.801 7.685-1.461-1.098-.197-5.895-1.362-7.311a4.593 4.593 0 00-6.107-.461 6.846 6.846 0 00-2.417 6.005c.176 2.195 4.647 6.741 2.988 9.255-.966 1.449-3.735 8.255-5.305 9.002-2.197 1.043-4.921.231-6.998-1.098a22.435 22.435 0 01-5.492-5.27c-5.591-7.201-8.7-16.467-7.689-25.536.406-3.425 1.89-7.311 5.229-8.244.279-.051.544-.16.78-.319.308-.358.462-.824.428-1.295a25.56 25.56 0 0112.522-20.069c6.163-3.754 15.774-7.268 22.881-5.555z" fill="#263238"/><path d="M261.366 211.369a36.435 36.435 0 003.746 9.057 28.42 28.42 0 007.294 7.246c7.194 5.28 16.092 9.123 24.891 7.685 9.205-1.526 16.729-8.783 20.683-17.182 3.955-8.398 4.823-18.004 4.801-27.325a57.294 57.294 0 00-1.67-15.304c-3.174-11.44-12.149-20.694-22.727-26.074a39.562 39.562 0 00-16.301-4.589 25.178 25.178 0 00-16.114 4.699c-19.443 14.766-10.589 42.53-4.603 61.787z" fill="#F8D8D1"/><path d="M259.795 163.546a6.343 6.343 0 013.834.429c3.142 1.262 5.492 3.875 7.799 6.345 5.712 6.159 12.149 12.208 20.244 14.426 9.041 2.481 18.806-.187 27.956 1.8a10.25 10.25 0 013.592 1.351c1.318.878 2.274 2.195 3.548 3.162 1.274.966 3.175 1.416 4.394.384a4.385 4.385 0 001.098-3.601c-.241-5.819-2.471-11.352-4.734-16.72-3.24-7.685-6.777-15.469-12.764-21.244-6.942-6.675-15.906-12.867-25.506-12.867l-19.64 3.744c-6.361 3.294-10.732 9.497-15.95 14.426a32.004 32.004 0 00-5.097 5.39 19.756 19.756 0 00-2.669 9.475c-.143 1.91-.319 5.127 1.659 6.268 1.592.923 3.493-.164 4.558-1.405 2.79-3.293 2.735-10.111 7.678-11.363z" fill="#263238"/><path d="M268.759 263.023a88.741 88.741 0 01-5.8 16.819c-2.504 4.973-9.37 19.948-14.335 22.418-5.338 2.602-25.583 7.751-30.01 8.552-3.733.602-7.56.165-11.061-1.263v-84.534l2.065-10.221c.51-2.052.717-4.168.615-6.28a24.956 24.956 0 00-1.34-5.368 40.455 40.455 0 01-1.34-5.577v-18.576c.253-1.295.538-2.602.901-3.908 1.021 2.503 2.076 5.006 3.086 7.542a53.354 53.354 0 012.867-16.896 49.087 49.087 0 013.23 11.561 51.709 51.709 0 013.295-11.133c.363-.9 1.022-1.921 1.966-1.811.945.11 1.406 1.306 1.56 2.316.582 3.557 1.197 7.115 1.78 10.672.791-3.854 1.592-7.685 2.35-11.539.143-.648.407-1.449 1.099-1.625 1.01-.329 1.669 1.098 1.812 2.196a101.067 101.067 0 010 25.821c4.855-.219 5.657-8.892 10.48-9.145.219 9.607-4.526 20.278-12.259 26.041a4649.833 4649.833 0 00-7.689 36.614c-2.098 10.232-4.24 20.859-2.285 31.08a7.347 7.347 0 001.746 3.919c2.197 2.196 5.91 1.01 8.788-.296 12.808-5.782 25.634-11.575 38.479-17.379z" fill="#F8D8D1"/><path d="M247.68 265.043a101.825 101.825 0 00-10.831 10.276 15.786 15.786 0 00-3.296 4.391c-1.318 3.008-.637 6.488.231 9.65a94.137 94.137 0 006.514 17.017 5.748 5.748 0 001.713 2.316c1.659 1.098 3.9.34 5.734-.494l12.336-5.555a34.533 34.533 0 005.064-2.613 26.234 26.234 0 008.139-9.507 49.072 49.072 0 004.944-33.572c-.451-2.196-1.747-7.136-4.537-7.411-2.197-.22-6.821 3.952-8.788 5.061-5.811 3.294-11.885 6.302-17.223 10.441z" fill="#fff"/><path d="M375.66 298.264a11.463 11.463 0 005.624 7.026V168.564c-11.061 4.391-32.953 63.225-35.754 74.785-3.955 16.468 9.139 4.183 12.643 19.915 4.317 19.377 12.863 15.666 17.487 35z" fill="#F8D8D1"/><path d="M342.212 225.235c3.153-3.942 6.701-8.607 11.578-7.323a61.699 61.699 0 003.295 38.535c2.67 6.191 6.349 13.448 2.769 19.168-1.308 2.086-5.899 1.844-7.953 3.217-3.296 2.195-4.592 6.224-8.568 5.643-3.977-.582-7.03-4.051-9.601-7.257-6.338-7.916-24.616-26.349-22.65-37.481.011 0 19.893-.472 31.13-14.502z" fill="#fff"/><path opacity=".24" d="M260.993 74.368h-45.971v61.513h45.971V74.368z" fill="#fff"/><path d="M215.846 124.342s-.505 8.026-.252 10.913c14.95-.329 29.658.176 44.619-.143l-.099-6.653a2.348 2.348 0 00-1.329-2.536c-3.515-2.283-7.096-4.6-11.105-5.807a44.107 44.107 0 00-9.81-1.406c-3.57-.241-7.689-1.097-11.182-.285-3.493.812-7.876 3.744-10.842 5.917z" fill="#fff"/><path d="M228.226 116.723c-.242 1.471-.868 2.899-.736 4.392a6.342 6.342 0 003.163 4.556 12.035 12.035 0 005.888 1.614 3.476 3.476 0 001.549-.198 2.193 2.193 0 001.098-2.262c-.077-.878-.461-1.734-.626-2.623-.538-2.921 1.34-5.984-.088-8.706a6.92 6.92 0 00-3.888-2.987 18.35 18.35 0 00-5.119-.79c-2.197-.099-2.428.845-1.801 2.437a8.79 8.79 0 01.56 4.567z" fill="url(#rpaint5_linear)"/><path opacity=".5" d="M228.303 114.132s1.208 4.216 4.47 5.874a9.689 9.689 0 005.679 1.207s.253-3.568.835-4.391-10.984-2.69-10.984-2.69z" fill="url(#rpaint6_linear)"/><path d="M247.877 99.948a.922.922 0 01.846.209 1.469 1.469 0 01.351 1.174 7.451 7.451 0 01-.768 2.712c-.209.483-.495 1.01-1.011 1.098a.58.58 0 01-.45 0c-.341-.176-.352-.648-.319-1.032l.176-2.338a2.194 2.194 0 011.175-1.823z" fill="url(#rpaint7_linear)"/><path d="M224.755 104.274a5.51 5.51 0 00-1.241-1.164 1.877 1.877 0 00-1.648-.22 1.77 1.77 0 00-.901 2.009c.214.772.64 1.468 1.23 2.01.352.412.791.742 1.286.966a1.481 1.481 0 001.537-.176 1.762 1.762 0 00.22-1.965 10.686 10.686 0 01-.802-1.943" fill="url(#rpaint8_linear)"/><path d="M229.72 115.691a12.406 12.406 0 0010.776 1.823c6.063-1.911 7.612-18.664 7.085-22.276-.528-3.612-1.253-6.971-4.394-8.706-3.559-1.954-7.953-1.097-11.897-.087-3.13.779-6.59 1.8-8.293 4.512-2.197 3.293-1.307 8.64 0 12.23 1.395 4.248 2.922 9.727 6.723 12.504z" fill="url(#rpaint9_linear)"/><path d="M218.285 96.567a18.997 18.997 0 01-.571-4.095c-.075-.6.044-1.208.34-1.735.582-.856 1.812-.9 2.856-.856-.06-1.604.209-3.203.791-4.699 1.098-2.624 3.866-4.172 6.382-5.226a24.346 24.346 0 018.557-1.745c2.669-.088 5.492.099 7.755 1.493a4.844 4.844 0 012.01 2.196c.228.737.39 1.494.483 2.261.396 1.91.901 3.557 1.253 5.49.813 4.523-.473 12.262-.769 12.427-.571.296-.714-8.508-2.197-11.34-.385-.725-.912-1.516-1.725-1.626a3.297 3.297 0 00-2.032.79c-3.295 2.054-10.084 1.922-13.928 1.406-1.802-.241-4.141-.176-4.779 1.526a4.14 4.14 0 000 2.01l.978 6.916a13.8 13.8 0 01-.11 3.293 9.378 9.378 0 00-.911-1.658c-.176-.219-.286-.406-.55-.461-.263-.055-.813.297-.856.22a19.607 19.607 0 01-2.977-6.587z" fill="#263238"/><path d="M254.435 104.57a4.726 4.726 0 01-1.593-1.866c-.275-.78.11-1.845.934-1.943.824-.099 1.461.647 2.197.417.736-.231.758-1.56.461-2.437l-2.955-8.53c-.373-1.099-.648-2.438.242-3.119.89-.68 2.021-.12 2.933.407 1.57.91 3.295 1.954 3.921 3.656.302.945.425 1.94.363 2.93 0 7.126 1.098 15.217-.121 22.221a18.005 18.005 0 00-6.382-11.736z" fill="url(#rpaint10_linear)"/><path d="M254.545 49.875c2.693 0 4.877-2.364 4.877-5.28 0-2.917-2.184-5.281-4.877-5.281-2.694 0-4.877 2.364-4.877 5.28 0 2.917 2.183 5.281 4.877 5.281z" fill="#fff"/><path d="M381.801 359.008H207.553v5.588h174.248v-5.588z" fill="url(#rpaint11_linear)"/><path opacity=".24" d="M321.517 378.626a5.592 5.592 0 01-3.468 5.199 5.593 5.593 0 01-2.156.422h-53.626a5.616 5.616 0 01-5.41-3.4 5.607 5.607 0 011.281-6.258 5.618 5.618 0 014.129-1.551h53.626a5.588 5.588 0 012.148.419 5.588 5.588 0 013.045 3.025c.283.679.43 1.408.431 2.144z" fill="#fff"/><path d="M321.518 378.626a5.593 5.593 0 01-1.641 3.981 5.588 5.588 0 01-1.828 1.218 5.589 5.589 0 01-2.155.422h-3.164a5.618 5.618 0 005.41-3.4 5.607 5.607 0 00-1.281-6.258 5.618 5.618 0 00-4.129-1.551h3.164a5.595 5.595 0 013.971 1.628 5.593 5.593 0 011.653 3.96z" fill="url(#rpaint12_linear)"/><path opacity=".5" d="M99.915 134.926a2.316 2.316 0 00-.33-1.735 1.365 1.365 0 00-.993-.426 1.377 1.377 0 00-.994.426 2.032 2.032 0 00-.396.746 6.49 6.49 0 00-.175 2.196c-.009.935.21 1.858.637 2.69a2.413 2.413 0 002.306 1.284 1.357 1.357 0 001.136-.72 1.369 1.369 0 00-.037-1.344c-.231-.417-.835-.548-1.099-1.021a3.563 3.563 0 01-.055-2.096z" fill="url(#rpaint13_linear)"/><path opacity=".5" d="M59.295 228.265l2.922-42.816s-4.394 1.361-6.811 7.827c-2.417 6.467-8.788 27.084-8.788 27.084l12.677 7.905z" fill="url(#rpaint14_linear)"/><path opacity=".5" d="M130.09 284.2c-5.306 4.853-11.248 9.497-17.85 12l-4.954-46.461a90.356 90.356 0 01.308-21.584l2.46-18.147 13.5 7.575c-2.197 0 .22 34.703 1.099 40.62 1.23 9.134 7.865 23.725 5.437 25.997z" fill="url(#rpaint15_linear)"/><path d="M95.258 331.66c-4.833 39.062-4.284 71.294-17.674 108.281l-1.78 2.865-3.438.758s4.998-37.931 5.493-44.573c.494-6.642 7.392-76.794 7.392-76.794l10.007 9.463z" fill="url(#rpaint16_linear)"/></g><defs><linearGradient id="rpaint0_linear" x1="351.978" y1="213.389" x2="746.312" y2="215.433" gradientUnits="userSpaceOnUse"><stop stop-color="#010101" stop-opacity="0"/><stop offset=".95" stop-color="#010101"/></linearGradient><linearGradient id="rpaint1_linear" x1="25066.2" y1="14406.6" x2="34403.4" y2="33806.6" gradientUnits="userSpaceOnUse"><stop stop-color="#010101" stop-opacity="0"/><stop offset=".95" stop-color="#010101"/></linearGradient><linearGradient id="rpaint2_linear" x1="6701.86" y1="3541.66" x2="6811.35" y2="2859.59" gradientUnits="userSpaceOnUse"><stop stop-color="#010101" stop-opacity="0"/><stop offset=".95" stop-color="#010101"/></linearGradient><linearGradient id="rpaint3_linear" x1="1906.87" y1="3122.9" x2="1964.6" y2="3008.05" gradientUnits="userSpaceOnUse"><stop stop-color="#010101" stop-opacity="0"/><stop offset=".95" stop-color="#010101"/></linearGradient><linearGradient id="rpaint4_linear" x1="1760.1" y1="2269.15" x2="1720.5" y2="1867.27" gradientUnits="userSpaceOnUse"><stop stop-color="#010101" stop-opacity="0"/><stop offset=".95" stop-color="#010101"/></linearGradient><linearGradient id="rpaint5_linear" x1="3074.33" y1="2043.64" x2="3227.25" y2="2073.74" gradientUnits="userSpaceOnUse"><stop stop-color="#E5C6D6"/><stop offset=".42" stop-color="#EAD4D0"/><stop offset="1" stop-color="#F0E9CB"/></linearGradient><linearGradient id="rpaint6_linear" x1="3158.05" y1="926.539" x2="3151.95" y2="795.839" gradientUnits="userSpaceOnUse"><stop stop-color="#010101" stop-opacity="0"/><stop offset=".95" stop-color="#010101"/></linearGradient><linearGradient id="rpaint7_linear" x1="960.526" y1="603.577" x2="966.552" y2="603.577" gradientUnits="userSpaceOnUse"><stop stop-color="#E5C6D6"/><stop offset=".42" stop-color="#EAD4D0"/><stop offset="1" stop-color="#F0E9CB"/></linearGradient><linearGradient id="rpaint8_linear" x1="1371.53" y1="615.514" x2="1390.1" y2="615.514" gradientUnits="userSpaceOnUse"><stop stop-color="#E5C6D6"/><stop offset=".42" stop-color="#EAD4D0"/><stop offset="1" stop-color="#F0E9CB"/></linearGradient><linearGradient id="rpaint9_linear" x1="6846.11" y1="3183.56" x2="7462.64" y2="3183.56" gradientUnits="userSpaceOnUse"><stop stop-color="#E5C6D6"/><stop offset=".42" stop-color="#EAD4D0"/><stop offset="1" stop-color="#F0E9CB"/></linearGradient><linearGradient id="rpaint10_linear" x1="2696.98" y1="2883.09" x2="2764.79" y2="2883.09" gradientUnits="userSpaceOnUse"><stop stop-color="#E5C6D6"/><stop offset=".42" stop-color="#EAD4D0"/><stop offset="1" stop-color="#F0E9CB"/></linearGradient><linearGradient id="rpaint11_linear" x1="46986.1" y1="2158.02" x2="46985.8" y2="2568.92" gradientUnits="userSpaceOnUse"><stop stop-color="#010101" stop-opacity="0"/><stop offset=".95" stop-color="#010101"/></linearGradient><linearGradient id="rpaint12_linear" x1="3142.53" y1="4270.66" x2="4361.78" y2="4254.62" gradientUnits="userSpaceOnUse"><stop stop-color="#010101" stop-opacity="0"/><stop offset=".95" stop-color="#010101"/></linearGradient><linearGradient id="rpaint13_linear" x1="701.758" y1="1062.07" x2="739.825" y2="1061.48" gradientUnits="userSpaceOnUse"><stop stop-color="#010101" stop-opacity="0"/><stop offset=".95" stop-color="#010101"/></linearGradient><linearGradient id="rpaint14_linear" x1="1617.65" y1="8333.35" x2="2424.09" y2="8346.61" gradientUnits="userSpaceOnUse"><stop stop-color="#010101" stop-opacity="0"/><stop offset=".95" stop-color="#010101"/></linearGradient><linearGradient id="rpaint15_linear" x1="3437.1" y1="20520.3" x2="6737.81" y2="20335.9" gradientUnits="userSpaceOnUse"><stop stop-color="#010101" stop-opacity="0"/><stop offset=".95" stop-color="#010101"/></linearGradient><linearGradient id="rpaint16_linear" x1="2790.76" y1="42920.9" x2="3267.83" y2="42920.9" gradientUnits="userSpaceOnUse"><stop stop-color="#010101" stop-opacity="0"/><stop offset=".95" stop-color="#010101"/></linearGradient><clipPath id="rclip0"><path fill="#fff" d="M0 0h459v470H0z"/></clipPath></defs></svg><svg fill="none" viewBox="0 0 20 20" id="whatsapp" xmlns="http://www.w3.org/2000/svg"><path fill-rule="evenodd" clip-rule="evenodd" d="M15.336 4.694A7.432 7.432 0 0010.044 2.5c-4.123 0-7.48 3.356-7.482 7.48a7.48 7.48 0 00.999 3.74L2.5 17.598l3.966-1.041a7.485 7.485 0 003.575.91h.003c4.123 0 7.48-3.355 7.481-7.48a7.44 7.44 0 00-2.19-5.292zm-5.292 11.51h-.002c-1.114 0-2.207-.3-3.165-.867l-.227-.135-2.353.617.627-2.294-.147-.235a6.207 6.207 0 01-.951-3.31 6.227 6.227 0 018.601-5.745c.755.313 1.44.772 2.016 1.352a6.183 6.183 0 011.819 4.399c-.002 3.428-2.791 6.218-6.218 6.218zm3.411-4.657c-.188-.095-1.106-.546-1.277-.609-.171-.062-.296-.093-.42.094-.125.186-.484.607-.593.732-.11.125-.218.14-.405.047-.187-.094-.79-.291-1.503-.928a5.632 5.632 0 01-1.04-1.295c-.11-.187-.012-.288.082-.381.084-.084.187-.219.28-.328.093-.109.124-.186.187-.311.062-.125.031-.235-.016-.328-.047-.094-.42-1.014-.577-1.388-.15-.363-.305-.314-.42-.32a8.04 8.04 0 00-.357-.006.688.688 0 00-.5.233c-.171.188-.654.64-.654 1.56s.67 1.808.764 1.933c.093.125 1.318 2.013 3.193 2.823.447.193.795.308 1.066.394.447.143.855.122 1.178.074.359-.053 1.105-.451 1.261-.888.156-.437.156-.81.11-.89-.047-.078-.173-.125-.359-.218z" fill="#011F3B"/></svg></svg>